<svg width="283" height="243" viewBox="0 0 283 243" fill="none" xmlns="http://www.w3.org/2000/svg">
<path d="M281.923 141.39C281.915 141.221 281.899 141.051 281.874 140.882L267.689 42.181C267.448 40.5013 266.449 39.0255 264.979 38.1781C263.51 37.3308 261.732 37.2048 260.156 37.8382L194.876 64.0831C192.043 65.2218 190.671 68.4414 191.809 71.2737C192.948 74.107 196.168 75.4794 199 74.3408L257.747 50.7219L270.836 141.799C270.843 142.056 270.869 142.313 270.912 142.571C273.774 159.419 270.641 176.854 262.091 191.664C252.244 208.719 236.326 220.908 217.268 225.987C198.206 231.066 178.285 228.424 161.173 218.545C161.055 218.477 160.933 218.419 160.812 218.361C164.481 215.573 167.931 212.554 171.15 209.325L235.863 191.985C238.812 191.195 240.562 188.164 239.772 185.215C238.982 182.266 235.949 180.516 233.002 181.306L183.208 194.648C188.68 186.508 192.96 177.532 195.885 167.928L240.31 156.025C243.259 155.235 245.009 152.203 244.219 149.255C243.429 146.306 240.395 144.555 237.449 145.346L204.761 154.104L217.053 132.813L243.029 125.853C245.978 125.064 247.728 122.032 246.938 119.083C246.147 116.134 243.114 114.384 240.168 115.174L224.871 119.273L236.633 98.8999C238.16 96.2562 237.254 92.8751 234.61 91.349C231.966 89.8223 228.585 90.7283 227.059 93.372L215.297 113.745L211.198 98.4477C210.407 95.4989 207.376 93.7484 204.428 94.5388C201.478 95.3287 199.729 98.3604 200.519 101.309L207.479 127.285L200.287 139.743C200.499 122.048 195.972 104.562 186.897 88.8451C175.471 69.0539 157.438 53.6834 136.098 45.5406C136.063 45.5256 136.027 45.5107 135.992 45.4958L110.979 35.3443C108.148 34.1962 104.927 35.5593 103.779 38.3876C102.631 41.2171 103.993 44.4406 106.822 45.5887L131.607 55.6473C131.719 55.6987 131.833 55.7463 131.949 55.7905C151.013 63.0097 167.127 76.7115 177.323 94.3719C189.191 114.929 192.322 138.891 186.138 161.845C180.433 183.018 167.429 200.989 149.267 212.997L139.99 196.929L160.102 121.87C160.892 118.92 159.142 115.89 156.193 115.099C153.242 114.31 150.213 116.06 149.423 119.008L132.173 183.39L111.707 147.942L125.66 95.8703C126.451 92.9209 124.701 89.8903 121.752 89.0999C118.802 88.3095 115.772 90.06 114.982 93.0088L103.89 134.402L87.7578 106.46L96.161 75.1002C96.9514 72.1509 95.2015 69.1202 92.2521 68.3298C89.3016 67.5399 86.2726 69.2899 85.4822 72.2387L79.9399 92.9193L64.6568 66.4477C63.1307 63.8035 59.7497 62.8975 57.1059 64.4247C54.4622 65.9508 53.5557 69.3319 55.0829 71.9756L70.366 98.4466L49.686 92.9055C46.7361 92.1151 43.7065 93.8656 42.9161 96.8144C42.1257 99.7638 43.8757 102.794 46.8251 103.585L78.1839 111.988L94.3166 139.93L52.9245 128.84C49.9745 128.049 46.945 129.8 46.1546 132.749C45.3642 135.698 47.1141 138.729 50.0635 139.519L102.134 153.472L122.6 188.919L58.2202 171.669C55.2697 170.879 52.2408 172.629 51.4503 175.578C50.6599 178.527 52.4099 181.558 55.3593 182.348L130.418 202.46L139.694 218.527C97.9215 239.346 46.5133 224.351 22.9353 183.514C12.629 165.662 8.85276 144.647 12.3024 124.339C12.3494 124.065 12.3742 123.792 12.3787 123.519L28.1631 13.666L64.7823 28.5285C67.614 29.6771 70.8347 28.314 71.9828 25.4852C73.1308 22.6557 71.7683 19.4322 68.9394 18.2841L25.7753 0.764661C24.2005 0.126253 22.4174 0.246748 20.9438 1.09298C19.4697 1.93922 18.467 3.41723 18.2244 5.10086L1.33116 122.653C1.30407 122.839 1.28749 123.026 1.27975 123.211C-2.3893 145.828 1.88997 169.175 13.3587 189.039C31.8272 221.029 65.4782 238.921 100.071 238.921C115.349 238.921 130.808 235.417 145.225 228.109L152.019 239.876C153.043 241.649 154.901 242.641 156.811 242.641C157.749 242.641 158.7 242.402 159.57 241.899C162.214 240.373 163.12 236.992 161.593 234.349L159.074 229.985C171.289 236.326 184.611 239.57 198.093 239.57C205.439 239.57 212.832 238.61 220.116 236.669C242.032 230.829 260.34 216.808 271.666 197.191C281.388 180.353 285.02 160.563 281.923 141.39Z" fill="white"/>
</svg>
