<svg width="338" height="338" viewBox="0 0 338 338" fill="none" xmlns="http://www.w3.org/2000/svg">
<g clip-path="url(#clip0)">
<path d="M328.392 153.752L298.574 183.57L250.206 135.201L280.024 105.384L272.058 97.4182L238.258 131.219L211.741 157.735H126.272L99.7552 131.219L65.9548 97.4182L57.9892 105.384L87.8067 135.201L39.4384 183.57L9.62089 153.752L1.65527 161.718L35.4556 195.518L63.6226 223.685L93.4796 253.384L88.9728 257.891C82.1374 264.651 82.0769 275.673 88.8369 282.508C88.882 282.554 88.9271 282.599 88.9728 282.644C92.1114 285.754 96.3082 287.564 100.724 287.714C100.887 292.122 102.729 296.299 105.873 299.392C109.013 302.5 113.209 304.31 117.624 304.462C117.796 308.877 119.653 313.058 122.813 316.146C125.953 319.253 130.149 321.064 134.564 321.216C134.727 325.623 136.569 329.801 139.713 332.894C146.594 339.692 157.664 339.692 164.545 332.894L169.006 328.427L173.468 332.86C180.343 339.722 191.478 339.712 198.34 332.838C201.456 329.716 203.286 325.538 203.466 321.131C207.888 320.972 212.086 319.149 215.223 316.028C218.366 312.916 220.205 308.724 220.366 304.305C224.789 304.143 228.987 302.318 232.123 299.195C235.266 296.083 237.105 291.891 237.266 287.472C246.937 287.138 254.505 279.028 254.171 269.358C254.017 264.91 252.176 260.687 249.023 257.547L244.753 253.294L274.379 223.668L302.546 195.501L336.346 161.701L328.392 153.752ZM47.404 191.535L95.7723 143.167L115.974 163.368L67.6054 211.737L47.404 191.535ZM105.912 274.633C103.422 277.121 99.389 277.121 96.899 274.633C94.4816 272.251 94.4534 268.359 96.8363 265.942C96.8568 265.921 96.8779 265.9 96.899 265.879L101.479 261.339L110.419 270.172L105.912 274.633ZM122.739 291.404C120.253 293.833 116.28 293.829 113.799 291.393C111.38 289.003 111.356 285.104 113.747 282.685C113.765 282.667 113.782 282.65 113.799 282.633L118.357 278.126L127.246 286.959L122.739 291.404ZM139.713 308.146C137.221 310.627 133.191 310.627 130.699 308.146C128.282 305.764 128.254 301.872 130.637 299.455C130.657 299.434 130.678 299.413 130.699 299.392L135.24 294.885L144.124 303.719L139.713 308.146ZM156.613 324.9C154.126 327.351 150.132 327.351 147.645 324.9C145.227 322.517 145.199 318.626 147.582 316.209C147.602 316.187 147.623 316.166 147.645 316.146L152.151 311.667L161.035 320.501L156.613 324.9ZM241.122 274.366C241.112 274.376 241.102 274.386 241.091 274.397H241.114C238.638 276.854 234.644 276.854 232.168 274.397L223.718 265.981C221.514 263.784 217.946 263.791 215.749 265.995C213.553 268.199 213.56 271.767 215.764 273.963L224.214 282.379C226.658 284.806 226.671 288.755 224.245 291.198C224.234 291.209 224.224 291.219 224.214 291.229C221.738 293.687 217.744 293.687 215.268 291.229L206.818 282.813C204.614 280.617 201.046 280.623 198.849 282.827C196.653 285.031 196.659 288.599 198.863 290.796L207.314 299.212C209.758 301.638 209.771 305.588 207.344 308.031C207.334 308.042 207.324 308.051 207.314 308.062C204.838 310.52 200.844 310.52 198.368 308.062L189.918 299.646C187.714 297.449 184.145 297.456 181.949 299.66C179.753 301.864 179.759 305.432 181.963 307.628L190.413 316.045C192.858 318.471 192.871 322.42 190.444 324.864C190.434 324.874 190.424 324.884 190.413 324.895C187.935 327.35 183.941 327.35 181.462 324.895L75.5823 219.702L126.283 169.002H144.372L103.023 211.32C100.866 213.527 100.886 217.058 103.068 219.24C110.049 226.292 119.424 230.466 129.336 230.935C139.31 231.463 149.04 227.73 156.1 220.666C156.35 220.419 156.574 220.149 156.771 219.86L158.81 216.869C170.975 226.46 186.832 230.017 201.928 226.541L241.091 265.547C243.535 267.973 243.549 271.922 241.122 274.366ZM236.816 245.362L213.184 221.826L217.454 218.576C217.654 218.419 217.842 218.248 218.017 218.063L223.65 212.43L215.685 204.464L210.327 209.821L205.454 213.494C190.413 219.928 172.958 216.333 161.683 204.481C159.483 202.28 155.917 202.28 153.716 204.479C153.468 204.727 153.244 204.997 153.047 205.286L147.723 213.077C142.909 217.635 136.442 220.028 129.821 219.702C124.642 219.435 119.635 217.756 115.343 214.846L160.111 169.002H211.741L262.442 219.702L236.816 245.362ZM270.408 211.737L222.039 163.368L242.241 143.167L290.609 191.535L270.408 211.737Z" fill="#639527" fill-opacity="0.46"/>
<path d="M73.2385 185.902H61.9717V197.169H73.2385V185.902Z" fill="#639527" fill-opacity="0.46"/>
<path d="M276.04 185.902H264.773V197.169H276.04V185.902Z" fill="#639527" fill-opacity="0.46"/>
<path d="M180.273 101.401C205.151 101.373 225.312 81.2124 225.34 56.3339C225.34 53.2229 222.817 50.7005 219.706 50.7005H208.44C195.486 50.7076 183.165 56.305 174.639 66.0572V45.0671H180.273C202.041 45.0425 219.682 27.4015 219.706 5.63339C219.706 2.52235 217.184 0 214.073 0H202.806C188.943 0.0218294 176.109 7.322 169.006 19.2268C161.902 7.322 149.069 0.0218294 135.205 0H123.939C120.828 0 118.305 2.52235 118.305 5.63339C118.33 27.4015 135.971 45.0425 157.739 45.0671H163.372V66.0572C154.846 56.305 142.526 50.7076 129.572 50.7005H118.305C115.194 50.7005 112.672 53.2229 112.672 56.3339C112.7 81.2124 132.861 101.373 157.739 101.401H163.372V110.336L127.24 146.468H143.171L169.006 120.633L194.841 146.468H210.772L174.639 110.336V101.401H180.273ZM208.44 61.9673H213.605C210.834 78.2196 196.759 90.1138 180.273 90.1343H175.107C177.877 73.8819 191.952 61.9877 208.44 61.9673ZM202.806 11.2668H207.876C205.183 24.3736 193.653 33.7856 180.273 33.8004H175.203C177.895 20.6936 189.425 11.2816 202.806 11.2668ZM157.739 33.8004C144.358 33.7856 132.829 24.3736 130.135 11.2668H135.205C148.586 11.2816 160.116 20.6936 162.809 33.8004H157.739ZM157.739 90.1343C141.252 90.1138 127.177 78.2196 124.406 61.9673H129.572C146.059 61.9877 160.134 73.8819 162.905 90.1343H157.739Z" fill="#639527" fill-opacity="0.46"/>
</g>
<defs>
<clipPath id="clip0">
<rect width="338" height="338" fill="white"/>
</clipPath>
</defs>
</svg>
