<svg width="512" height="512" viewBox="0 0 512 512" fill="none" xmlns="http://www.w3.org/2000/svg">
<path d="M256 512C397.385 512 512 397.385 512 256C512 114.615 397.385 0 256 0C114.615 0 0 114.615 0 256C0 397.385 114.615 512 256 512Z" fill="url(#paint0_linear)"/>
<path d="M149.2 122.765H193.7V167.177C193.7 171.002 196.151 174.394 199.784 175.6L253.184 193.365C255.014 193.974 256.964 193.981 258.816 193.365L312.216 175.6C315.849 174.394 318.3 171.003 318.3 167.177V122.765H362.8C367.719 122.765 371.7 118.792 371.7 113.883C371.7 108.974 367.719 105 362.8 105H149.2C144.281 105 140.3 108.973 140.3 113.882C140.3 118.791 144.281 122.765 149.2 122.765V122.765ZM380.6 176.059H334.479C331.782 183.64 325.802 189.808 317.831 192.453L264.448 210.218C258.958 212.044 253.05 212.047 247.552 210.218L194.152 192.453C186.193 189.807 180.217 183.64 177.521 176.059H131.4C126.481 176.059 122.5 180.032 122.5 184.941V327.058C122.5 331.968 126.481 335.941 131.4 335.941H194.6C194.175 333.014 193.7 330.1 193.7 327.058C193.7 292.778 221.652 264.882 256 264.882C290.348 264.882 318.3 292.778 318.3 327.058C318.3 330.1 317.825 333.014 317.4 335.941H380.6C385.519 335.941 389.5 331.968 389.5 327.058V184.941C389.5 180.031 385.519 176.059 380.6 176.059ZM202.6 282.647H167C162.081 282.647 158.1 278.674 158.1 273.765C158.1 268.856 162.081 264.883 167 264.883H202.6C207.519 264.883 211.5 268.856 211.5 273.765C211.5 278.674 207.519 282.647 202.6 282.647ZM345 282.647H309.4C304.481 282.647 300.5 278.674 300.5 273.765C300.5 268.856 304.481 264.883 309.4 264.883H345C349.919 264.883 353.9 268.856 353.9 273.765C353.9 278.674 349.919 282.647 345 282.647ZM345 247.118H167C162.081 247.118 158.1 243.145 158.1 238.236C158.1 233.326 162.081 229.354 167 229.354H345C349.919 229.354 353.9 233.327 353.9 238.236C353.9 243.145 349.919 247.118 345 247.118ZM300.5 327.059C300.5 302.531 280.577 282.647 256 282.647C231.423 282.647 211.5 302.53 211.5 327.059C211.5 351.586 231.423 371.471 256 371.471C280.577 371.471 300.5 351.586 300.5 327.059ZM256 335.941C251.085 335.941 247.1 331.963 247.1 327.058C247.1 322.152 251.085 318.176 256 318.176C260.915 318.176 264.9 322.152 264.9 327.058C264.9 331.964 260.915 335.941 256 335.941V335.941ZM200.128 354.036L184.235 370.664C182.332 372.659 181.462 375.417 181.88 378.141C182.297 380.865 183.957 383.233 186.365 384.568L224.99 405.889C227.132 407.069 229.639 407.313 231.943 406.6C234.255 405.88 236.176 404.258 237.262 402.089L244.296 388.053C224.751 384.324 208.591 371.404 200.128 354.036ZM311.872 354.036C303.41 371.405 287.249 384.324 267.705 388.055L274.739 402.091C275.825 404.259 277.746 405.882 280.058 406.602C282.357 407.313 284.865 407.073 287.011 405.891L325.636 384.57C328.044 383.235 329.704 380.866 330.121 378.143C330.538 375.419 329.669 372.661 327.766 370.666L311.872 354.036Z" fill="url(#paint1_linear)"/>
<defs>
<linearGradient id="paint0_linear" x1="256" y1="512" x2="256" y2="0" gradientUnits="userSpaceOnUse">
<stop stop-color="#97C570"/>
<stop offset="0.9973" stop-color="#B4CE9E"/>
</linearGradient>
<linearGradient id="paint1_linear" x1="256" y1="407" x2="256" y2="105" gradientUnits="userSpaceOnUse">
<stop stop-color="#143601"/>
<stop offset="1" stop-color="#2C4B19"/>
</linearGradient>
</defs>
</svg>
