<svg width="107" height="107" viewBox="0 0 107 107" fill="none" xmlns="http://www.w3.org/2000/svg">
<g clip-path="url(#clip0)">
<path d="M91.572 42.9409C80.853 42.9409 68.788 52.3349 58.468 68.7129L58.247 69.0659L57.859 68.9109C57.183 68.6399 56.527 68.3489 55.88 68.0519L55.28 67.7749L55.709 67.2739C64.508 56.9569 69.761 44.2899 69.761 33.3909C69.761 15.4689 59.271 10.7339 53.724 10.7339C42.944 10.7339 36.761 18.9919 36.761 33.3909C36.761 45.4679 40.161 53.2009 46.869 56.3839C47.037 56.1689 47.205 55.9519 47.371 55.7349L53.227 46.2019C52.471 46.2359 51.697 45.9309 50.925 45.1329C49.004 43.1459 47.113 38.2049 47.276 33.3739C47.528 25.7969 49.878 21.4509 53.723 21.4509C57.181 21.4509 59.789 26.5839 59.789 33.3899C59.789 40.8969 54.03 52.6619 46.099 61.3649L45.783 61.7129L45.417 61.4199C43.344 59.7579 41.389 58.0409 39.498 56.3789C32.184 49.9529 25.275 43.8809 13.79 43.4039C6.341 43.0869 0 49.8279 0 57.8329C0 66.0929 12.301 81.8899 31.586 81.8899C36.585 81.8899 41.852 79.7569 46.82 75.7249L47.085 75.5089L47.382 75.6789C49.049 76.6259 50.79 77.4899 52.555 78.2399L53.039 78.4439L52.81 78.9179C50.008 84.6939 47.867 90.4489 46.601 95.6029H58.277C59.283 91.1459 60.908 86.3749 62.988 81.7779L63.148 81.4229L63.533 81.4929C67.23 82.1689 71.208 82.5109 75.353 82.5109C94.572 82.5109 106.334 66.7339 106.334 58.1419C106.336 54.1949 103.624 42.9409 91.572 42.9409ZM36.974 69.0089C34.073 70.6889 31.311 71.5399 28.764 71.5399C19.518 71.5399 10.864 62.8389 10.864 58.8859C10.864 56.5789 12.43 54.1909 15.052 54.1909C21.802 54.1909 26.795 58.8069 32.576 64.1509C34.001 65.4679 35.475 66.8319 37.051 68.2009L37.58 68.6599L36.974 69.0089ZM75.035 72.0089C73.083 72.0089 71.154 71.9069 69.305 71.7059L68.491 71.6179L68.942 70.9339C76.057 60.1159 84.132 53.9109 91.1 53.9109C94.141 53.9109 95.733 56.1939 95.733 58.4499C95.732 64.0249 83.546 72.0089 75.035 72.0089Z" fill="#547B37"/>
</g>
<defs>
<clipPath id="clip0">
<rect width="106.335" height="106.335" fill="white"/>
</clipPath>
</defs>
</svg>
