<svg width="512" height="512" viewBox="0 0 512 512" fill="none" xmlns="http://www.w3.org/2000/svg">
<path d="M503.467 25.6V145.067C503.467 154.496 495.829 162.133 486.4 162.133H428.937C427.452 162.133 425.993 162.517 424.704 163.26L366.933 196.267V170.667C366.933 165.956 363.11 162.133 358.4 162.133H25.6C16.1707 162.133 8.53333 154.496 8.53333 145.067V25.6C8.53333 16.1707 16.1707 8.53333 25.6 8.53333H486.4C495.829 8.53333 503.467 16.1707 503.467 25.6Z" fill="#D5EABB"/>
<path d="M503.467 25.6V145.067C503.441 154.479 495.812 162.108 486.4 162.133H428.971C427.477 162.15 426.01 162.526 424.704 163.243L366.933 196.267V170.667C366.916 165.956 363.11 162.15 358.4 162.133H256V8.53333H486.4C495.812 8.55893 503.441 16.1877 503.467 25.6Z" fill="#AAD576"/>
<path d="M409.6 349.867C409.592 434.696 340.83 503.458 256 503.467C251.648 503.467 247.381 503.296 243.2 502.955C163.601 496.29 102.4 429.739 102.4 349.867C102.4 269.995 163.61 203.443 243.2 196.779C247.381 196.437 251.648 196.267 256 196.267C340.83 196.275 409.592 265.037 409.6 349.867Z" fill="#97C570"/>
<path d="M384 349.867C384.094 429.645 323.038 496.196 243.541 502.955H243.2C242.176 502.869 241.237 502.784 240.213 502.613H239.616C237.056 502.357 234.496 502.016 232.021 501.589C229.803 501.248 227.669 500.907 225.536 500.48C224.768 500.309 224.085 500.139 223.317 499.968C221.013 499.456 218.795 498.944 216.661 498.347C214.613 497.835 212.651 497.237 210.688 496.64C198.349 492.92 186.556 487.578 175.616 480.768C171.605 478.293 167.765 475.648 164.011 472.832C162.731 471.893 161.451 470.955 160.256 469.931C157.696 467.883 155.136 465.749 152.747 463.616C151.552 462.507 150.443 461.483 149.333 460.373C147.883 459.008 146.603 457.643 145.237 456.277V456.192C104.192 413.483 91.3749 350.967 112.299 295.552C133.222 240.137 184.166 201.694 243.2 196.779C322.79 203.452 383.991 269.995 384 349.867Z" fill="#AAD576"/>
<path d="M256 375.467C293.703 375.467 324.267 344.903 324.267 307.2C324.267 269.497 293.703 238.933 256 238.933C218.297 238.933 187.733 269.497 187.733 307.2C187.733 344.903 218.297 375.467 256 375.467Z" fill="#D5EABB"/>
<path d="M80.4608 53.5807L87.8507 69.2224C88.4224 70.4597 89.5744 71.3386 90.9227 71.552L107.435 74.0608C109.005 74.3594 110.276 75.4944 110.746 77.0218C111.215 78.5408 110.814 80.2047 109.696 81.3397L97.7494 93.5168C96.7851 94.5152 96.3414 95.9146 96.5718 97.2885L99.3963 114.475C99.712 116.028 99.1147 117.632 97.8518 118.588C96.5888 119.543 94.8822 119.697 93.4742 118.972L78.703 110.848C77.5168 110.199 76.0832 110.199 74.9056 110.848L60.1344 118.963C58.7264 119.688 57.0198 119.543 55.7568 118.579C54.4939 117.615 53.8966 116.019 54.2123 114.466L57.0283 97.28C57.2587 95.9061 56.8235 94.5066 55.8507 93.5082L43.904 81.3312C42.7862 80.1962 42.3851 78.5407 42.8544 77.0133C43.3323 75.4943 44.6038 74.3594 46.1654 74.0608L62.6774 71.552C64.0256 71.3386 65.1776 70.4597 65.7494 69.2224L73.1307 53.5807C73.7792 52.1301 75.2128 51.2 76.8 51.2C78.3787 51.2 79.8208 52.1301 80.4608 53.5807Z" fill="#D5EABB"/>
<path d="M199.927 53.5807L207.309 69.2224C207.88 70.4597 209.032 71.3386 210.381 71.552L226.893 74.0608C228.463 74.3594 229.734 75.4944 230.204 77.0218C230.673 78.5408 230.272 80.2047 229.154 81.3397L217.207 93.5168C216.243 94.5152 215.799 95.9146 216.03 97.2885L218.854 114.475C219.17 116.028 218.573 117.632 217.31 118.588C216.047 119.543 214.34 119.697 212.932 118.972L198.161 110.856C196.975 110.199 195.541 110.199 194.364 110.856L179.592 118.972C178.184 119.697 176.478 119.552 175.215 118.588C173.952 117.632 173.355 116.028 173.67 114.475L176.486 97.28C176.717 95.9061 176.282 94.5066 175.309 93.5082L163.362 81.3312C162.244 80.1962 161.835 78.5407 162.312 77.0133C162.79 75.4858 164.062 74.3509 165.623 74.0522L182.135 71.5434C183.484 71.3301 184.636 70.4512 185.207 69.2138L192.597 53.5722C193.254 52.1301 194.688 51.2 196.267 51.2C197.854 51.2 199.287 52.1301 199.927 53.5807V53.5807Z" fill="#D5EABB"/>
<path d="M319.394 53.5807L326.775 69.2224C327.347 70.4597 328.499 71.3386 329.847 71.552L346.359 74.0608C347.93 74.3594 349.201 75.4944 349.67 77.0218C350.14 78.5408 349.739 80.2047 348.621 81.3397L336.674 93.5168C335.71 94.5152 335.266 95.9146 335.497 97.2885L338.321 114.475C338.637 116.028 338.039 117.632 336.776 118.588C335.514 119.543 333.807 119.697 332.399 118.972L317.628 110.856C316.442 110.199 315.008 110.199 313.83 110.856L299.059 118.972C297.651 119.697 295.944 119.552 294.682 118.588C293.419 117.632 292.821 116.028 293.137 114.475L295.953 97.28C296.183 95.9061 295.748 94.5066 294.775 93.5082L282.829 81.3312C281.711 80.1962 281.301 78.5407 281.779 77.0133C282.248 75.4943 283.528 74.3509 285.09 74.0522L301.602 71.5434C302.95 71.3301 304.102 70.4512 304.674 69.2138L312.064 53.5722C312.721 52.1301 314.155 51.2 315.733 51.2C317.32 51.2 318.754 52.1301 319.394 53.5807V53.5807Z" fill="#D5EABB"/>
<path d="M438.861 53.5807L446.242 69.2224C446.814 70.4597 447.966 71.3386 449.314 71.552L465.826 74.0608C467.396 74.3594 468.668 75.4944 469.137 77.0218C469.606 78.5408 469.205 80.2047 468.087 81.3397L456.141 93.5168C455.176 94.5152 454.733 95.9146 454.963 97.2885L457.788 114.475C458.103 116.028 457.506 117.632 456.243 118.588C454.98 119.543 453.274 119.697 451.866 118.972L437.094 110.856C435.908 110.199 434.475 110.199 433.297 110.856L418.526 118.972C417.118 119.697 415.411 119.552 414.148 118.588C412.885 117.632 412.288 116.028 412.604 114.475L415.42 97.28C415.65 95.9061 415.215 94.5066 414.242 93.5082L402.295 81.3312C401.178 80.1962 400.768 78.5407 401.246 77.0133C401.715 75.4943 402.995 74.3509 404.557 74.0522L421.069 71.5434C422.417 71.3301 423.569 70.4512 424.141 69.2138L431.531 53.5722C432.188 52.1301 433.621 51.2 435.2 51.2C436.787 51.2 438.221 52.1301 438.861 53.5807V53.5807Z" fill="#D5EABB"/>
<path d="M366.763 456.192V456.277C337.843 486.477 297.822 503.535 256 503.467C251.819 503.467 247.637 503.296 243.541 502.955C291.439 498.799 334.652 472.508 360.363 431.872C363.989 439.509 366.157 447.761 366.763 456.192Z" fill="#AAD576"/>
<path d="M360.363 431.872C334.652 472.508 291.439 498.799 243.541 502.955C242.432 502.869 241.323 502.784 240.213 502.613H239.616C237.056 502.357 234.496 502.016 232.021 501.589C229.803 501.248 227.669 500.907 225.536 500.48C224.768 500.309 224.085 500.139 223.317 499.968C221.013 499.456 218.795 498.944 216.661 498.347C214.613 497.835 212.651 497.237 210.688 496.64C198.349 492.92 186.556 487.578 175.616 480.768C171.605 478.293 167.765 475.648 164.011 472.832C162.731 471.893 161.451 470.955 160.256 469.931C157.696 467.883 155.136 465.749 152.747 463.616C151.552 462.507 150.443 461.483 149.333 460.373C147.883 459.008 146.603 457.643 145.237 456.277V456.192C148.395 411.136 196.693 375.467 256 375.467C304.128 375.467 345.003 398.933 360.363 431.872V431.872Z" fill="#D5EABB"/>
<path d="M25.6 162.133H51.2C41.7707 162.133 34.1333 154.496 34.1333 145.067V25.6C34.1333 16.1707 41.7707 8.53333 51.2 8.53333H25.6C16.1707 8.53333 8.53333 16.1707 8.53333 25.6V145.067C8.53333 154.496 16.1707 162.133 25.6 162.133Z" fill="white"/>
<path d="M93.8667 349.867C94.08 260.412 166.545 187.947 256 187.733V204.8C175.966 205.013 111.147 269.833 110.933 349.867H93.8667Z" fill="white"/>
<path d="M108.39 307.763C106.155 307.174 103.774 307.516 101.803 308.727C99.8315 309.931 98.432 311.893 97.9456 314.155C96.4352 319.966 95.9488 325.99 94.9248 331.904C94.3275 337.869 94.2166 343.876 93.8667 349.867H110.933C111.283 344.499 111.352 339.115 111.881 333.773C112.836 328.491 113.22 323.089 114.594 317.901C115.533 313.412 112.819 308.958 108.39 307.763V307.763Z" fill="#547B37"/>
<path d="M127.735 350.541C127.735 265.728 198.52 196.48 287.514 192.29C284.689 192.162 281.848 192.085 278.98 192.085C186.027 192.085 110.669 263.031 110.669 350.532C110.669 438.033 186.027 508.979 278.98 508.979C281.839 508.979 284.689 508.911 287.514 508.774C198.528 504.602 127.735 435.354 127.735 350.541V350.541Z" fill="white"/>
<path d="M256 204.8V187.733C209.485 187.853 165.257 207.889 134.485 242.765C132.403 244.924 130.466 247.228 128.7 249.651C127.249 251.452 126.592 253.764 126.899 256.051C127.198 258.338 128.427 260.412 130.295 261.769C134.025 264.448 139.196 263.774 142.106 260.216C143.676 258.04 145.408 255.974 147.285 254.054C174.805 222.84 214.383 204.911 256 204.8Z" fill="#547B37"/>
<path d="M256 512C166.502 511.898 93.9691 439.364 93.8667 349.867C93.8667 345.156 97.6896 341.333 102.4 341.333C107.11 341.333 110.933 345.156 110.933 349.867C110.933 429.986 175.881 494.933 256 494.933C336.12 494.933 401.067 429.986 401.067 349.867C401.067 269.747 336.12 204.8 256 204.8C251.29 204.8 247.467 200.977 247.467 196.267C247.467 191.556 251.29 187.733 256 187.733C345.54 187.733 418.133 260.326 418.133 349.867C418.133 439.407 345.54 512 256 512Z" fill="#547B37"/>
<path d="M366.933 204.8C362.223 204.8 358.4 200.977 358.4 196.267V170.667H25.6C11.4688 170.65 0.0170667 159.198 0 145.067V25.6C0.0170667 11.4688 11.4688 0.0170667 25.6 0H486.4C500.531 0.0170667 511.983 11.4688 512 25.6V145.067C511.983 159.198 500.531 170.65 486.4 170.667H428.937L371.166 203.674C369.877 204.416 368.418 204.8 366.933 204.8V204.8ZM25.6 17.0667C20.8896 17.0667 17.0667 20.8896 17.0667 25.6V145.067C17.0667 149.777 20.8896 153.6 25.6 153.6H358.4C367.821 153.609 375.458 161.246 375.467 170.667V181.564L420.463 155.853C423.049 154.377 425.967 153.6 428.937 153.6H486.4C491.11 153.6 494.933 149.777 494.933 145.067V25.6C494.933 20.8896 491.11 17.0667 486.4 17.0667H25.6Z" fill="#547B37"/>
<path d="M256 384C213.581 384 179.2 349.619 179.2 307.2C179.2 264.781 213.581 230.4 256 230.4C298.419 230.4 332.8 264.781 332.8 307.2C332.749 349.594 298.394 383.949 256 384ZM256 247.467C223.01 247.467 196.267 274.21 196.267 307.2C196.267 340.19 223.01 366.933 256 366.933C288.99 366.933 315.733 340.19 315.733 307.2C315.699 274.227 288.973 247.501 256 247.467Z" fill="#547B37"/>
<path d="M366.763 464.811C362.274 464.802 358.562 461.329 358.255 456.858C355.465 416 310.554 384 256 384C201.446 384 156.535 416 153.754 456.858C153.626 459.127 152.585 461.252 150.878 462.746C149.171 464.239 146.918 464.981 144.657 464.794C142.396 464.64 140.297 463.599 138.803 461.892C137.318 460.186 136.567 457.958 136.721 455.706C140.117 405.922 192.512 366.933 256 366.933C319.488 366.933 371.883 405.922 375.287 455.697C375.441 457.958 374.69 460.186 373.205 461.884C371.721 463.59 369.613 464.631 367.351 464.785C367.147 464.802 366.95 464.811 366.763 464.811Z" fill="#547B37"/>
<path d="M58.2143 128C55.6373 128 53.1199 127.189 51.0122 125.687C46.9759 122.846 44.945 117.939 45.7898 113.075L48.2645 97.9541L37.8026 87.3045C34.4149 83.8485 33.2543 78.7626 34.8074 74.1717C36.2837 69.649 40.1834 66.3466 44.8853 65.6213L59.025 63.4709L65.425 49.9285C67.4815 45.4997 71.9189 42.6666 76.7999 42.6666C81.681 42.6666 86.1184 45.4997 88.1749 49.937L94.5749 63.4794L108.715 65.6213C113.416 66.3466 117.308 69.649 118.792 74.1632C120.354 78.7626 119.194 83.84 115.789 87.3045L105.335 97.9541L107.819 113.084C108.655 117.939 106.615 122.846 102.588 125.687C98.6965 128.478 93.5424 128.768 89.361 126.438L76.7999 119.543L64.2303 126.447C62.3871 127.462 60.3221 128 58.2143 128ZM90.9653 115.848L90.9738 115.857L90.9653 115.848ZM76.8085 101.828C78.8992 101.828 80.9472 102.357 82.7818 103.364L89.5317 107.068L88.1493 98.6624C87.4751 94.592 88.7893 90.4533 91.6736 87.5093L97.8431 81.2288L89.6341 79.9829C85.4698 79.3429 81.9029 76.6634 80.128 72.849L76.7999 65.809L73.4634 72.8661C71.6885 76.6805 68.113 79.3514 63.9573 79.9914L55.7567 81.2288L61.9434 87.5264C64.8277 90.4789 66.1333 94.6346 65.4421 98.705L64.0682 107.059L70.7925 103.364C72.6357 102.366 74.7008 101.828 76.8085 101.828V101.828ZM49.7578 99.4901L49.7749 99.5072L49.7578 99.4901ZM103.859 99.473L103.842 99.4901L103.859 99.473ZM58.0351 65.5701L58.0266 65.5872L58.0351 65.5701ZM95.5562 65.553L95.5648 65.5701L95.5562 65.553ZM80.8704 57.216L80.8618 57.2245L80.8704 57.216Z" fill="#547B37"/>
<path d="M177.681 128C175.095 127.991 172.587 127.189 170.479 125.687C166.443 122.846 164.412 117.939 165.257 113.075L167.731 97.9541L157.269 87.3045C153.873 83.84 152.713 78.7626 154.266 74.1632C155.742 69.6405 159.642 66.3381 164.343 65.6128L178.483 63.4709L184.883 49.9285C186.948 45.4997 191.386 42.6666 196.267 42.6666C201.148 42.6666 205.585 45.4997 207.642 49.937L214.042 63.4794L228.181 65.6213C232.883 66.3466 236.774 69.649 238.259 74.1632C239.821 78.7626 238.66 83.84 235.255 87.3045L224.802 97.9541L227.285 113.084C228.122 117.939 226.082 122.846 222.054 125.687C218.163 128.478 213.009 128.768 208.828 126.438L196.267 119.543L183.697 126.447C181.854 127.462 179.789 128 177.681 128V128ZM210.432 115.848L210.441 115.857L210.432 115.848ZM196.275 101.828C198.366 101.828 200.414 102.357 202.249 103.364L208.998 107.068L207.616 98.6624C206.942 94.592 208.256 90.4533 211.14 87.5093L217.31 81.2288L209.101 79.9829C204.937 79.3429 201.37 76.6634 199.595 72.8405L196.267 65.809L192.93 72.8661C191.155 76.6805 187.58 79.3514 183.424 79.9914L175.223 81.2373L181.41 87.5349C184.294 90.4874 185.6 94.6432 184.909 98.7136L183.535 107.068L190.259 103.373C192.102 102.366 194.167 101.828 196.275 101.828ZM169.225 99.4901L169.242 99.5072L169.225 99.4901ZM223.326 99.473L223.309 99.4901L223.326 99.473ZM177.502 65.5701L177.493 65.5872L177.502 65.5701ZM215.023 65.553L215.031 65.5701L215.023 65.553ZM200.337 57.216L200.329 57.233L200.337 57.216Z" fill="#547B37"/>
<path d="M297.148 128C294.562 127.991 292.053 127.189 289.946 125.687C285.909 122.846 283.878 117.939 284.723 113.075L287.198 97.9541L276.736 87.3045C273.34 83.84 272.179 78.7626 273.732 74.1632C275.209 69.6405 279.108 66.3381 283.81 65.6128L297.95 63.4709L304.35 49.9285C306.415 45.4997 310.852 42.6666 315.733 42.6666C320.614 42.6666 325.052 45.4997 327.108 49.937L333.508 63.4794L347.648 65.6213C352.35 66.3466 356.241 69.649 357.726 74.1632C359.287 78.7626 358.127 83.84 354.722 87.3045L344.269 97.9541L346.752 113.084C347.588 117.939 345.549 122.846 341.521 125.687C337.63 128.478 332.476 128.768 328.294 126.438L315.733 119.543L303.164 126.447C301.321 127.462 299.255 128 297.148 128V128ZM329.899 115.848L329.907 115.857L329.899 115.848ZM315.742 101.828C317.833 101.828 319.881 102.357 321.715 103.364L328.465 107.068L327.083 98.6624C326.409 94.592 327.723 90.4533 330.607 87.5093L336.777 81.2288L328.567 79.9829C324.403 79.3429 320.836 76.6634 319.061 72.8405L315.733 65.809L312.397 72.8661C310.622 76.6805 307.046 79.3514 302.891 79.9914L294.69 81.2373L300.877 87.5349C303.761 90.4874 305.067 94.6432 304.375 98.7136L303.002 107.068L309.726 103.373C311.569 102.366 313.634 101.828 315.742 101.828V101.828ZM288.691 99.4901L288.708 99.5072L288.691 99.4901ZM342.793 99.473L342.775 99.4901L342.793 99.473ZM296.969 65.5701L296.96 65.5872L296.969 65.5701ZM334.49 65.553L334.498 65.5701L334.49 65.553ZM319.804 57.216L319.795 57.233L319.804 57.216Z" fill="#547B37"/>
<path d="M416.614 128C414.029 127.991 411.52 127.189 409.412 125.687C405.376 122.846 403.345 117.939 404.19 113.075L406.665 97.9541L396.203 87.3045C392.806 83.84 391.646 78.7626 393.199 74.1632C394.675 69.6405 398.575 66.3381 403.277 65.6128L417.417 63.4709L423.817 49.9285C425.882 45.4997 430.319 42.6666 435.2 42.6666C440.081 42.6666 444.518 45.4997 446.575 49.937L452.975 63.4794L467.115 65.6213C471.817 66.3466 475.708 69.649 477.193 74.1632C478.754 78.7626 477.594 83.84 474.189 87.3045L463.735 97.9541L466.219 113.084C467.055 117.939 465.015 122.846 460.988 125.687C457.097 128.478 451.942 128.768 447.761 126.438L435.2 119.543L422.63 126.447C420.787 127.462 418.722 128 416.614 128V128ZM449.365 115.848L449.374 115.857L449.365 115.848ZM435.209 101.828C437.299 101.828 439.347 102.357 441.182 103.364L447.932 107.068L446.549 98.6624C445.875 94.592 447.189 90.4533 450.074 87.5093L456.243 81.2288L448.034 79.9829C443.87 79.3429 440.303 76.6634 438.528 72.8405L435.2 65.809L431.863 72.8661C430.089 76.6805 426.513 79.3514 422.357 79.9914L414.157 81.2373L420.343 87.5349C423.228 90.4874 424.533 94.6432 423.842 98.7136L422.468 107.068L429.193 103.373C431.036 102.366 433.101 101.828 435.209 101.828V101.828ZM408.158 99.4901L408.175 99.5072L408.158 99.4901ZM462.259 99.473L462.242 99.4901L462.259 99.473ZM416.435 65.5701L416.427 65.5872L416.435 65.5701ZM453.956 65.553L453.965 65.5701L453.956 65.553ZM439.27 57.216L439.262 57.233L439.27 57.216Z" fill="#547B37"/>
<path d="M117.393 292.267C122.111 292.267 125.935 288.442 125.935 283.725C125.935 279.007 122.111 275.183 117.393 275.183C112.676 275.183 108.851 279.007 108.851 283.725C108.851 288.442 112.676 292.267 117.393 292.267Z" fill="#547B37"/>
</svg>
