<svg width="205" height="205" viewBox="0 0 205 205" fill="none" xmlns="http://www.w3.org/2000/svg">
<g clip-path="url(#clip0)">
<path d="M143.305 192.654H66.7617V156.47C66.7617 133.412 75.4342 111.197 91.0537 94.2367L104.082 80.09L117.448 93.8982C134.033 111.033 143.305 133.946 143.305 157.792V192.654Z" fill="#143601"/>
<path d="M143.306 195.995H66.7615C64.9137 195.995 63.418 194.502 63.418 192.654V156.47C63.418 132.503 72.3601 109.596 88.5975 91.972L101.625 77.8233C102.249 77.1462 103.125 76.7598 104.041 76.7465H104.085C104.988 76.7465 105.856 77.1118 106.488 77.764L119.852 91.5722C137.134 109.43 146.648 132.947 146.648 157.792V192.652C146.648 194.502 145.154 195.995 143.306 195.995ZM70.1031 189.31H139.963V157.792C139.963 134.69 131.112 112.825 115.045 96.2222L104.146 84.9579L93.5133 96.5014C78.4197 112.886 70.1031 134.183 70.1031 156.47V189.31Z" fill="#547B37"/>
<path d="M133.277 192.654H56.7324V156.47C56.7324 133.412 65.4049 111.197 81.0245 94.2367L94.0522 80.09L107.419 93.8982C124.004 111.033 133.275 133.946 133.275 157.792V192.654H133.277Z" fill="#D5EABB"/>
<path d="M133.278 195.995H56.7331C54.8854 195.995 53.3896 194.502 53.3896 192.654V156.47C53.3896 132.503 62.3318 109.596 78.5692 91.972L91.597 77.8233C92.2205 77.1462 93.0966 76.7598 94.0128 76.7465H94.0568C94.9596 76.7465 95.828 77.1118 96.4592 77.764L109.824 91.5722C127.105 109.43 136.621 132.947 136.621 157.792V192.652C136.621 194.502 135.126 195.995 133.278 195.995ZM60.0766 189.31H129.934V157.792C129.934 134.69 121.086 112.825 105.019 96.2222L94.118 84.9579L83.485 96.5014C68.3914 112.886 60.0766 134.183 60.0766 156.47V189.31Z" fill="#547B37"/>
<path d="M110.045 158.406C108.523 158.406 107.146 157.362 106.79 155.814L75.9906 22.3076C75.5755 20.5096 76.6983 18.7135 78.4963 18.3004C80.2962 17.8815 82.0904 19.0081 82.5054 20.8061L113.305 154.313C113.72 156.111 112.597 157.907 110.799 158.322C110.548 158.381 110.292 158.406 110.045 158.406Z" fill="#547B37"/>
<path d="M106.706 61.4655L89.992 64.809L79.2461 21.5558L96.6771 21.353L106.706 61.4655Z" fill="#AAD576"/>
<path d="M89.9886 68.1506C88.4832 68.1506 87.1213 67.1292 86.7464 65.6143L76.0044 22.3649C75.7596 21.3722 75.9776 20.324 76.605 19.5149C77.2286 18.7058 78.1888 18.2276 79.2102 18.2142L96.6373 18.0096C98.1465 17.8833 99.5428 19.0367 99.9196 20.5421L109.946 60.6564C110.17 61.5401 110.019 62.4812 109.529 63.2539C109.043 64.0248 108.257 64.5623 107.362 64.7421L90.6485 68.0856C90.4266 68.1315 90.2066 68.1506 89.9886 68.1506ZM83.512 24.8515L92.4656 60.9051L102.613 58.8776L94.0761 24.7253L83.512 24.8515Z" fill="#547B37"/>
<path d="M82.5898 115.155L99.3035 111.811L110.047 155.064L92.6184 155.267L82.5898 115.155Z" fill="#AAD576"/>
<path d="M92.6201 158.613C91.088 158.613 89.749 157.57 89.3779 156.08L79.3494 115.966C79.1275 115.08 79.2767 114.141 79.7663 113.368C80.2541 112.597 81.0402 112.058 81.9354 111.88L98.6491 108.537C100.395 108.181 102.123 109.271 102.549 111.008L113.293 154.259C113.538 155.252 113.318 156.298 112.693 157.107C112.069 157.918 111.109 158.395 110.087 158.408L92.6583 158.613C92.6449 158.613 92.6315 158.613 92.6201 158.613ZM86.6848 117.745L95.2214 151.897L105.786 151.771L96.83 115.717L86.6848 117.745Z" fill="#547B37"/>
<path d="M158.061 107.054C157.813 107.054 157.558 107.027 157.308 106.968L23.8012 76.1689C22.0032 75.7538 20.8804 73.9578 21.2936 72.1598C21.7087 70.3618 23.5143 69.2428 25.3027 69.6541L158.809 100.453C160.607 100.866 161.73 102.663 161.317 104.462C160.961 106.01 159.584 107.054 158.061 107.054Z" fill="#547B37"/>
<path d="M64.461 100.369L67.8026 83.6535L24.5513 72.9095L24.3467 90.3405L64.461 100.369Z" fill="#AAD576"/>
<path d="M64.4601 103.711C64.1885 103.711 63.9168 103.678 63.6491 103.609L23.5366 93.5807C22.0313 93.2059 20.9831 91.8478 21.0022 90.3004L21.2088 72.8713C21.2222 71.8499 21.6985 70.8916 22.5076 70.2681C23.3147 69.6445 24.3534 69.4207 25.3576 69.6675L68.6088 80.4095C70.3418 80.8399 71.4282 82.5575 71.0801 84.3096L67.7366 101.025C67.5568 101.918 67.0193 102.707 66.2485 103.192C65.7072 103.535 65.0855 103.711 64.4601 103.711ZM27.7179 87.7373L61.8702 96.2739L63.8977 86.1286L27.8461 77.1731L27.7179 87.7373Z" fill="#547B37"/>
<path d="M118.149 76.2511L114.806 92.9648L158.057 103.711L158.262 86.2797L118.149 76.2511Z" fill="#AAD576"/>
<path d="M158.058 107.054C157.79 107.054 157.519 107.022 157.253 106.957L114.002 96.2126C112.269 95.7823 111.18 94.0646 111.53 92.3125L114.874 75.5988C115.052 74.7037 115.591 73.9175 116.362 73.4298C117.138 72.9382 118.076 72.7852 118.959 73.0128L159.074 83.0414C160.577 83.4163 161.625 84.7743 161.606 86.3218L161.4 103.751C161.386 104.772 160.91 105.732 160.101 106.356C159.512 106.813 158.789 107.054 158.058 107.054ZM118.713 90.4935L154.764 99.4471L154.892 88.8829L120.74 80.3463L118.713 90.4935Z" fill="#547B37"/>
<path d="M95.0057 174.643C65.8591 174.643 40.4673 185.525 26.8389 201.659H163.173C149.544 185.525 124.154 174.643 95.0057 174.643Z" fill="#AAD576"/>
<path d="M163.174 205.001H26.8367C25.5341 205.001 24.3539 204.247 23.8049 203.065C23.256 201.887 23.4453 200.496 24.285 199.5C38.9808 182.107 66.0788 171.302 95.0054 171.302C123.932 171.302 151.03 182.107 165.726 199.5C166.566 200.494 166.755 201.885 166.206 203.065C165.657 204.245 164.477 205.001 163.174 205.001ZM34.7593 198.314H155.252C141.061 185.638 118.754 177.987 95.0054 177.987C71.2566 177.987 48.9501 185.638 34.7593 198.314Z" fill="#547B37"/>
<path d="M103.362 84.8662C103.362 90.4037 98.8726 94.8929 93.3333 94.8929C87.7958 94.8929 83.3047 90.4037 83.3047 84.8662C83.3047 79.3269 87.7958 74.8376 93.3333 74.8376C98.8726 74.8376 103.362 79.3269 103.362 84.8662Z" fill="#D7E9FF"/>
<path d="M93.334 98.2364C85.9604 98.2364 79.9639 92.2399 79.9639 84.8662C79.9639 77.4906 85.9604 71.4941 93.334 71.4941C100.708 71.4941 106.706 77.4906 106.706 84.8662C106.706 92.2399 100.708 98.2364 93.334 98.2364ZM93.334 78.1792C89.6482 78.1792 86.649 81.1803 86.649 84.8662C86.649 88.5502 89.6482 91.5513 93.334 91.5513C97.0199 91.5513 100.019 88.5502 100.019 84.8662C100.019 81.1803 97.0199 78.1792 93.334 78.1792Z" fill="#547B37"/>
<path d="M130.105 161.749C128.257 161.749 126.762 160.254 126.762 158.406V145.036C126.762 143.188 128.257 141.692 130.105 141.692C131.953 141.692 133.449 143.188 133.449 145.036V158.406C133.449 160.254 131.953 161.749 130.105 161.749Z" fill="white"/>
<path d="M136.79 155.064H123.42C121.572 155.064 120.076 153.569 120.076 151.721C120.076 149.873 121.572 148.377 123.42 148.377H136.79C138.638 148.377 140.133 149.873 140.133 151.721C140.133 153.569 138.638 155.064 136.79 155.064Z" fill="white"/>
<path d="M63.2463 191.835C61.7926 191.835 60.4556 190.877 60.0329 189.41C59.5279 187.637 60.555 185.785 62.332 185.276C63.3152 184.999 86.691 178.434 110.522 181.839C112.351 182.099 113.619 183.796 113.359 185.623C113.099 187.451 111.406 188.721 109.575 188.459C87.1424 185.248 64.3959 191.644 64.1663 191.709C63.8603 191.791 63.5523 191.835 63.2463 191.835Z" fill="white"/>
</g>
<defs>
<clipPath id="clip0">
<rect width="187" height="187" fill="white" transform="translate(0 18)"/>
</clipPath>
</defs>
</svg>
