<svg width="512" height="512" viewBox="0 0 512 512" fill="none" xmlns="http://www.w3.org/2000/svg">
<path d="M81.161 408.866C86.6839 408.866 91.161 404.389 91.161 398.866C91.161 393.343 86.6839 388.866 81.161 388.866C75.6382 388.866 71.161 393.343 71.161 398.866C71.161 404.389 75.6382 408.866 81.161 408.866Z" fill="white"/>
<path d="M461.2 92.95H402.362C389.08 92.95 376.883 97.684 367.368 105.552V102.95V75.488C367.368 36.217 335.421 4.27002 296.151 4.27002H229.436C223.913 4.27002 219.436 8.74802 219.436 14.27V41.733C219.436 81.003 251.383 112.95 290.653 112.95H347.368V147.944V174.924V214.321C344.73 214.152 342.077 214.059 339.411 214.059C313.13 214.059 288.004 222.161 266.754 237.488C262.275 240.718 261.262 246.968 264.493 251.448C267.724 255.927 273.974 256.942 278.453 253.709C296.276 240.855 317.356 234.06 339.411 234.06C344.742 234.06 350.012 234.482 355.189 235.275C355.618 235.37 356.057 235.438 356.505 235.477C387.624 240.651 415.142 259.757 430.739 287.908C432.565 291.203 435.977 293.063 439.495 293.063C441.134 293.063 442.797 292.659 444.332 291.808C449.163 289.131 450.909 283.045 448.232 278.214C430.928 246.982 401.303 225.101 367.367 217.259V184.924H416.206C446.529 184.924 471.2 160.254 471.2 129.93V102.95C471.2 97.428 466.723 92.95 461.2 92.95ZM347.368 92.95H290.653C262.412 92.95 239.436 69.974 239.436 41.733V24.27H296.151C324.392 24.27 347.368 47.246 347.368 75.488V92.95V92.95ZM451.2 129.931C451.2 149.226 435.502 164.925 416.206 164.925H367.368V147.945C367.368 128.65 383.066 112.951 402.362 112.951H451.2V129.931Z" fill="white"/>
<path d="M508.662 328.811C499.934 309.044 476.751 300.067 456.984 308.79C456.934 308.812 456.885 308.835 456.835 308.857L391.498 338.988C386.482 341.301 384.292 347.242 386.604 352.257C388.917 357.273 394.858 359.462 399.873 357.151L465.13 327.057C474.793 322.835 486.101 327.233 490.365 336.89C494.638 346.569 490.24 357.919 480.562 362.193L346.856 421.228C325.67 430.583 301.622 430.04 280.879 419.733L231.935 395.418C205.855 382.461 175.618 381.777 148.981 393.538L148.019 393.964L111.44 311.118L162.224 288.696C186.416 278.014 213.412 277.153 238.236 286.268L336.659 322.413C345.638 325.711 350.424 335.756 347.328 344.806C344.173 354.03 334.094 358.99 324.861 355.869L248.751 330.126C243.519 328.356 237.844 331.163 236.074 336.395C234.304 341.627 237.111 347.302 242.343 349.072L318.453 374.815C322.438 376.163 326.497 376.803 330.492 376.803C346.19 376.803 360.901 366.921 366.252 351.282C372.839 332.028 362.657 310.655 343.555 303.64L245.133 267.495C215.419 256.584 183.107 257.615 154.149 270.399L103.038 292.966C100.163 288.548 96.012 285.131 91.001 283.188C84.691 280.744 77.806 280.903 71.641 283.625L5.986 312.392C2.35 313.986 0 317.581 0 321.552V497.73C0 501.203 1.802 504.427 4.76 506.248C6.362 507.233 8.178 507.73 10 507.73C11.542 507.73 13.087 507.374 14.508 506.656L141.968 442.267C148.029 439.51 152.684 434.581 155.093 428.362C157.1 423.182 157.352 417.615 155.866 412.362L157.058 411.836C178.246 402.481 202.293 403.027 223.036 413.332L271.98 437.647C298.059 450.604 328.295 451.289 354.934 439.526L488.641 380.491C508.408 371.762 517.389 348.578 508.662 328.811ZM136.444 421.136C135.929 422.465 134.928 423.514 133.624 424.089C133.465 424.159 133.309 424.234 133.154 424.312L20 481.474V437.7L49.578 423.175C54.536 420.74 56.581 414.748 54.146 409.79C51.711 404.832 45.717 402.787 40.762 405.222L20 415.417V328.087L79.688 301.932C80.992 301.357 82.442 301.323 83.77 301.837C85.099 302.352 86.148 303.354 86.724 304.657L133.762 411.189C133.766 411.199 133.77 411.208 133.774 411.217L136.351 417.053C136.926 418.357 136.959 419.807 136.444 421.136Z" fill="white"/>
</svg>
