<svg width="512" height="512" viewBox="0 0 512 512" fill="none" xmlns="http://www.w3.org/2000/svg">
<g clip-path="url(#clip0)">
<path d="M511.934 69.2001V205.733C511.906 215.147 504.281 222.772 494.867 222.8H426.6V265.467L401 247.206L366.867 222.8H221.8C212.386 222.772 204.761 215.147 204.733 205.733V69.2001C204.761 59.7861 212.385 52.1611 221.8 52.1331H494.867C504.281 52.1611 511.906 59.7861 511.934 69.2001Z" fill="#AAD576"/>
<path d="M486.334 69.2001V205.733C486.306 215.147 478.681 222.772 469.267 222.8H401V247.205L366.867 222.8H221.8C212.386 222.772 204.761 215.147 204.733 205.733V69.2001C204.761 59.7861 212.385 52.1611 221.8 52.1331H469.267C478.681 52.1611 486.306 59.7861 486.334 69.2001Z" fill="#D5EABB"/>
<path d="M511.934 496.379V512.934H324.2V496.379C324.241 486.146 329.782 476.725 338.707 471.718L387.859 444.411C388.781 443.86 389.454 442.973 389.736 441.936H446.399C446.681 442.973 447.354 443.86 448.276 444.411L497.428 471.718C506.352 476.726 511.893 486.146 511.934 496.379Z" fill="#D5EABB"/>
<path d="M127.934 448.848C127.935 450.254 128.682 451.553 129.897 452.261C138.089 457.296 149.097 462.757 157.203 467.792C165.617 472.043 173.4 477.442 180.329 483.835C184.999 489.046 187.608 495.782 187.668 502.779V512.934H17V502.779C17 489.126 26.983 480.422 37.565 473.936C49.086 466.939 63.25 459.259 74.771 452.261C75.986 451.553 76.733 450.253 76.734 448.848H127.934Z" fill="#D5EABB"/>
<path d="M175.123 444.667H131.602C129.472 444.884 127.872 446.709 127.934 448.848V453.2C127.401 464.787 117.591 473.757 106.003 473.253H98.666C95.536 473.244 92.436 472.636 89.535 471.461C81.955 468.539 76.896 461.322 76.735 453.2V448.848C76.769 447.744 76.351 446.674 75.578 445.885C74.805 445.096 73.744 444.656 72.639 444.667H29.459C26.402 444.709 23.572 443.057 22.105 440.375C20.638 437.692 20.776 434.418 22.462 431.867C34.567 413.299 43.105 392.637 47.636 370.939C48.897 365.021 49.526 358.985 49.513 352.934C49.466 338.813 55.02 325.249 64.958 315.217C71.692 308.362 80.202 303.516 89.534 301.222C93.71 300.117 98.014 299.571 102.334 299.601C116.38 299.595 129.843 305.22 139.71 315.217C149.648 325.25 155.202 338.813 155.155 352.934C155.142 358.985 155.771 365.021 157.032 370.939C161.563 392.637 170.1 413.299 182.206 431.867C183.875 434.435 183.991 437.714 182.508 440.394C181.025 443.074 178.185 444.717 175.123 444.667Z" fill="#97C570"/>
<path d="M324.2 35.067V171.6C324.172 181.014 316.548 188.639 307.133 188.667H162.067L102.334 231.334V188.667H34.067C24.653 188.639 17.028 181.014 17 171.6V35.067C17.028 25.653 24.653 18.028 34.067 18H307.134C316.548 18.028 324.173 25.653 324.2 35.067Z" fill="#AAD576"/>
<path d="M298.6 35.067V171.6C298.572 181.014 290.947 188.639 281.533 188.667H136.467L102.334 213.072V188.667H34.067C24.653 188.639 17.028 181.014 17 171.6V35.067C17.028 25.653 24.653 18.028 34.067 18H281.534C290.948 18.028 298.573 25.653 298.6 35.067Z" fill="#D5EABB"/>
<path d="M469.267 368.891V383.483C469.245 387.609 467.551 391.55 464.574 394.406C462.31 396.564 460.762 399.363 460.137 402.427C457.264 410.933 452.837 418.833 447.081 425.723C446.55 426.409 446.251 427.245 446.228 428.112V440.827C446.236 441.203 446.294 441.576 446.399 441.936L418.067 470.267L389.736 441.936C389.841 441.575 389.898 441.202 389.907 440.827V428.112C389.884 427.245 389.585 426.408 389.054 425.723C383.298 418.832 378.871 410.933 375.999 402.427C375.374 399.363 373.825 396.563 371.562 394.406C368.584 391.55 366.891 387.609 366.869 383.483V368.891C366.878 366.484 367.463 364.114 368.576 361.979L369.43 360.272C370.543 358.137 371.128 355.767 371.137 353.36V332.453C371.303 323.569 374.994 315.115 381.396 308.953C387.798 302.791 396.387 299.426 405.27 299.599H430.87C439.754 299.426 448.342 302.791 454.744 308.953C461.146 315.115 464.836 323.569 465.003 332.453V353.36C465.012 355.767 465.597 358.137 466.71 360.272L467.564 361.979C468.674 364.114 469.259 366.484 469.267 368.891Z" fill="#97C570"/>
<path d="M149.523 444.667H106.43C105.325 444.656 104.264 445.096 103.491 445.885C102.718 446.674 102.3 447.744 102.334 448.848V453.2C102.173 461.322 97.114 468.54 89.534 471.461C81.954 468.539 76.895 461.322 76.734 453.2V448.848C76.768 447.744 76.35 446.674 75.577 445.885C74.804 445.096 73.743 444.656 72.638 444.667H29.459C26.402 444.709 23.572 443.057 22.105 440.375C20.638 437.692 20.776 434.418 22.462 431.867C34.567 413.299 43.105 392.637 47.636 370.939C48.897 365.021 49.526 358.985 49.513 352.934C49.466 338.813 55.02 325.249 64.958 315.217C71.692 308.362 80.202 303.516 89.534 301.222C98.866 303.516 107.376 308.361 114.11 315.217C124.048 325.25 129.602 338.813 129.555 352.934C129.542 358.985 130.171 365.021 131.432 370.939C135.963 392.637 144.5 413.299 156.606 431.867C158.275 434.435 158.391 437.714 156.908 440.394C155.425 443.074 152.585 444.717 149.523 444.667Z" fill="#AAD576"/>
<path d="M443.667 368.891V383.483C443.645 387.609 441.951 391.55 438.974 394.406C436.71 396.564 435.162 399.363 434.537 402.427C431.664 410.933 427.237 418.833 421.481 425.723C420.95 426.409 420.651 427.245 420.628 428.112V440.827C420.636 441.203 420.694 441.576 420.799 441.936L405.267 457.467L389.736 441.936C389.841 441.575 389.898 441.202 389.907 440.827V428.112C389.884 427.245 389.585 426.408 389.054 425.723C383.298 418.832 378.871 410.933 375.999 402.427C375.374 399.363 373.825 396.563 371.562 394.406C368.584 391.55 366.891 387.609 366.869 383.483V368.891C366.878 366.484 367.463 364.114 368.576 361.979L369.43 360.272C370.543 358.137 371.128 355.767 371.137 353.36V332.453C371.838 314.109 386.913 299.599 405.27 299.599C423.627 299.599 438.702 314.109 439.403 332.453V353.36C439.412 355.767 439.997 358.137 441.11 360.272L441.964 361.979C443.074 364.114 443.659 366.484 443.667 368.891Z" fill="#AAD576"/>
<path d="M42.6 502.779C42.6 489.126 52.583 480.422 63.165 473.936C74.686 466.939 88.85 459.259 100.371 452.261C101.586 451.553 102.333 450.253 102.334 448.848C102.368 447.744 101.95 446.674 101.177 445.885C100.404 445.096 99.343 444.656 98.238 444.667H72.638C73.743 444.656 74.804 445.096 75.577 445.885C76.35 446.674 76.768 447.744 76.734 448.848C76.733 450.254 75.986 451.553 74.771 452.261C63.25 459.258 49.086 466.938 37.565 473.936C26.984 480.421 17 489.125 17 502.779V512.934H42.6V502.779V502.779Z" fill="white"/>
<path d="M34.067 188.667H59.667C50.253 188.639 42.628 181.014 42.6 171.6V35.067C42.628 25.653 50.253 18.028 59.667 18H34.067C24.653 18.028 17.028 25.653 17 35.067V171.6C17.028 181.015 24.653 188.639 34.067 188.667Z" fill="white"/>
<path d="M364.307 471.718L413.459 444.411C414.381 443.86 415.054 442.973 415.336 441.936C415.441 441.575 415.498 441.202 415.507 440.827V428.112C415.484 427.245 415.185 426.408 414.654 425.723C408.898 418.832 404.471 410.933 401.599 402.427C400.974 399.363 399.425 396.563 397.162 394.406C394.184 391.55 392.491 387.609 392.468 383.483V368.891C392.477 366.484 393.062 364.114 394.175 361.979L395.029 360.272C396.142 358.137 396.727 355.767 396.736 353.36V332.453C396.902 323.569 400.593 315.115 406.995 308.953C413.397 302.791 421.986 299.426 430.869 299.599H405.269C396.385 299.426 387.796 302.791 381.395 308.953C374.993 315.115 371.303 323.569 371.136 332.453V353.36C371.127 355.767 370.542 358.137 369.429 360.272L368.575 361.979C367.462 364.114 366.877 366.484 366.868 368.891V383.483C366.89 387.609 368.584 391.55 371.561 394.406C373.825 396.564 375.373 399.363 375.998 402.427C378.871 410.933 383.298 418.833 389.054 425.723C389.585 426.409 389.884 427.245 389.907 428.112V440.827C389.899 441.203 389.841 441.576 389.736 441.936C389.454 442.973 388.781 443.86 387.859 444.411L338.707 471.718C329.783 476.726 324.241 486.146 324.2 496.379V512.934H349.8V496.379C349.841 486.146 355.383 476.725 364.307 471.718Z" fill="white"/>
<path d="M247.4 222.8C237.986 222.772 230.361 215.147 230.333 205.733V188.667H204.733V205.734C204.761 215.148 212.386 222.773 221.8 222.801H247.4V222.8Z" fill="white"/>
<path d="M73.236 370.939C74.497 365.021 75.126 358.985 75.113 352.934C75.066 338.813 80.62 325.249 90.558 315.217C97.284 308.371 105.781 303.53 115.1 301.234C110.928 300.167 106.64 299.619 102.334 299.601C98.014 299.572 93.71 300.117 89.534 301.222C80.202 303.516 71.692 308.361 64.958 315.217C55.02 325.25 49.466 338.813 49.513 352.934C49.526 358.985 48.897 365.021 47.636 370.939C43.104 392.637 34.567 413.299 22.462 431.867C20.776 434.418 20.639 437.692 22.105 440.375C23.572 443.058 26.402 444.71 29.459 444.667H55.059C52.002 444.709 49.172 443.057 47.705 440.375C46.238 437.692 46.376 434.418 48.062 431.867C60.167 413.299 68.704 392.637 73.236 370.939Z" fill="white"/>
<path d="M17.067 25.6001V136.533V162.133H0V136.533V25.6001H17.067Z" fill="white"/>
<path d="M136.533 42.667H51.2C46.487 42.667 42.667 46.488 42.667 51.2C42.667 55.912 46.488 59.733 51.2 59.733H136.533C141.246 59.733 145.066 55.912 145.066 51.2C145.066 46.488 141.246 42.667 136.533 42.667Z" fill="#547B37"/>
<path d="M273.067 59.733C277.78 59.733 281.6 55.912 281.6 51.2C281.6 46.488 277.78 42.667 273.067 42.667H170.667C165.954 42.667 162.134 46.488 162.134 51.2C162.134 55.912 165.955 59.733 170.667 59.733H273.067Z" fill="#547B37"/>
<path d="M51.2 145.067H136.533C141.246 145.067 145.066 141.246 145.066 136.534C145.066 131.822 141.246 128 136.533 128H51.2C46.487 128 42.667 131.821 42.667 136.533C42.667 141.245 46.487 145.067 51.2 145.067Z" fill="#547B37"/>
<path d="M273.067 128H170.667C165.954 128 162.134 131.821 162.134 136.533C162.134 141.245 165.955 145.066 170.667 145.066H273.067C277.78 145.066 281.6 141.245 281.6 136.533C281.6 131.821 277.78 128 273.067 128Z" fill="#547B37"/>
<path d="M110.933 93.867C110.932 96.131 111.83 98.302 113.431 99.902C115.032 101.503 117.203 102.401 119.466 102.4H273.066C277.779 102.4 281.599 98.579 281.599 93.867C281.599 89.155 277.779 85.334 273.066 85.334H119.466C117.202 85.333 115.031 86.231 113.431 87.832C111.831 89.432 110.932 91.603 110.933 93.867Z" fill="#547B37"/>
<path d="M460.8 68.2671H358.4C353.687 68.2671 349.867 72.0881 349.867 76.8001C349.867 81.5131 353.687 85.3331 358.4 85.3331H460.8C465.513 85.3331 469.333 81.5131 469.333 76.8001C469.333 72.0871 465.513 68.2671 460.8 68.2671Z" fill="#547B37"/>
<path d="M460.8 153.6H358.4C353.687 153.6 349.867 157.421 349.867 162.133C349.867 166.846 353.687 170.666 358.4 170.666H460.8C465.513 170.666 469.333 166.845 469.333 162.133C469.333 157.421 465.513 153.6 460.8 153.6Z" fill="#547B37"/>
<path d="M460.8 110.933H358.4C353.687 110.933 349.867 114.754 349.867 119.466C349.867 124.179 353.687 127.999 358.4 127.999H460.8C465.513 127.999 469.333 124.178 469.333 119.466C469.333 114.754 465.513 110.933 460.8 110.933Z" fill="#547B37"/>
<path d="M51.2 102.4H85.333C90.046 102.4 93.866 98.579 93.866 93.867C93.866 89.154 90.045 85.334 85.333 85.334H51.2C46.487 85.334 42.667 89.155 42.667 93.867C42.667 98.579 46.487 102.4 51.2 102.4Z" fill="#547B37"/>
<path d="M493.108 454.817L446.291 428.734V420.167C452.382 412.581 457.039 403.948 460.033 394.692C460.313 393.309 461.004 392.042 462.016 391.059C466.662 386.597 469.302 380.443 469.333 374.001V359.418C469.322 355.641 468.411 351.922 466.675 348.568L465.8 346.9C465.321 345.981 465.069 344.961 465.067 343.925V322.95C464.671 299.763 445.588 281.269 422.4 281.6H396.8C373.612 281.269 354.529 299.763 354.133 322.95V343.925C354.132 344.952 353.883 345.964 353.408 346.875L352.516 348.592C350.783 351.938 349.875 355.649 349.866 359.417V374C349.902 380.449 352.547 386.609 357.199 391.075C358.202 392.057 358.887 393.317 359.166 394.692C362.16 403.949 366.816 412.581 372.908 420.167V428.734L325.966 454.892C314.462 461.459 307.315 473.646 307.199 486.892V503.467C307.198 505.731 308.096 507.902 309.697 509.502C311.298 511.103 313.469 512.001 315.732 512H503.465C505.729 512.001 507.9 511.103 509.5 509.502C511.101 507.901 511.999 505.73 511.998 503.467V486.892C511.871 473.597 504.673 461.376 493.108 454.817ZM369.017 378.758C367.7 377.524 366.947 375.804 366.934 374V359.417C366.939 358.39 367.187 357.379 367.659 356.467L368.551 354.75C370.284 351.404 371.192 347.693 371.201 343.925V322.95C371.588 309.186 383.035 298.327 396.801 298.667H422.401C436.167 298.328 447.614 309.186 448.001 322.95V343.925C448.012 347.702 448.923 351.421 450.659 354.775L451.534 356.442C452.01 357.362 452.261 358.381 452.267 359.417V374C452.254 375.805 451.501 377.525 450.184 378.758C446.707 382.11 444.32 386.43 443.334 391.158C440.666 398.473 436.725 405.258 431.692 411.2C430.092 413.345 429.227 415.949 429.225 418.625V429.108L409.6 448.733L389.975 429.108V418.625C389.967 415.911 389.078 413.273 387.442 411.108C382.436 405.194 378.517 398.439 375.867 391.158C374.883 386.43 372.495 382.109 369.017 378.758ZM324.267 486.892C324.312 479.768 328.177 473.217 334.392 469.734L380.681 443.947L401.067 464.334V494.934H324.267V486.892ZM494.933 494.933H418.133V464.333L438.52 443.946L484.683 469.659C490.958 473.134 494.875 479.72 494.933 486.892V494.933Z" fill="#547B37"/>
<path d="M8.533 512H179.2C181.464 512.001 183.635 511.103 185.235 509.502C186.835 507.901 187.734 505.73 187.733 503.467V493.334C187.711 484.224 184.325 475.442 178.225 468.676C172.524 462.911 165.956 458.075 158.758 454.343C156.9 453.259 155.058 452.185 153.283 451.085C149.441 448.693 144.991 446.21 140.474 443.735H166.683C173.041 443.752 178.876 440.214 181.8 434.568C184.65 429.139 184.229 422.572 180.708 417.551C169.284 399.881 161.216 380.255 156.908 359.659C155.782 354.336 155.218 348.909 155.225 343.467C155.274 327.094 148.817 311.372 137.275 299.759C125.819 288.141 110.183 281.601 93.867 281.601C77.551 281.601 61.915 288.142 50.459 299.759C38.917 311.372 32.46 327.094 32.509 343.467C32.517 348.894 31.955 354.307 30.834 359.617C26.522 380.221 18.452 399.854 7.026 417.534C3.49 422.553 3.059 429.129 5.909 434.567C8.832 440.213 14.667 443.751 21.025 443.734H47.85C46.35 444.601 44.833 445.459 43.325 446.326C36.892 450.009 30.467 453.684 24.7 457.176C18.592 460.876 8.34294e-07 472.143 8.34294e-07 493.334V503.467C-0.000999166 505.731 0.897001 507.902 2.498 509.502C4.099 511.102 6.27 512.001 8.533 512ZM20.992 427.333C33.716 407.778 42.712 386.037 47.525 363.208C48.894 356.717 49.581 350.1 49.575 343.466C49.537 331.593 54.22 320.192 62.592 311.774C70.838 303.389 82.106 298.666 93.867 298.666C105.628 298.666 116.896 303.389 125.142 311.774C133.514 320.192 138.197 331.593 138.158 343.466C138.153 350.114 138.843 356.745 140.216 363.249C144.937 385.875 153.918 407.397 166.683 426.666H123.55C120.32 426.502 117.164 427.668 114.817 429.892C112.469 432.116 111.135 435.204 111.124 438.438C111.041 438.749 110.978 439.064 110.933 439.383V443.733C110.368 450.591 104.398 455.722 97.533 455.25H90.2C83.335 455.723 77.365 450.591 76.8 443.733V439.383C76.756 439.071 76.694 438.762 76.614 438.458C76.606 435.221 75.272 432.129 72.923 429.901C70.575 427.673 67.416 426.504 64.183 426.666L20.992 427.333ZM17.067 493.333C17.067 485.325 22.15 478.675 33.55 471.775C39.2 468.35 45.5 464.75 51.8 461.142C55.336 459.116 58.848 457.098 62.279 455.102C67.465 465.765 78.344 472.472 90.2 472.317H97.533C109.442 472.477 120.362 465.713 125.525 454.981C127.094 455.85 128.658 456.717 130.258 457.592C135.158 460.275 140.091 462.975 144.258 465.567C146.166 466.759 148.158 467.917 150.166 469.084C155.801 471.961 160.975 475.663 165.516 480.067C168.81 483.703 170.644 488.428 170.666 493.334V494.934H17.066V493.333H17.067Z" fill="#547B37"/>
<path d="M8.533 102.4C10.792 102.366 12.955 101.482 14.592 99.925C17.892 96.56 17.892 91.173 14.592 87.808L13.313 86.783C12.837 86.459 12.32 86.2 11.775 86.012C11.291 85.766 10.772 85.595 10.237 85.503C9.674 85.407 9.104 85.35 8.533 85.332C6.274 85.363 4.11 86.247 2.47399 87.807C-0.748005 91.204 -0.748005 96.528 2.47399 99.924C3.28899 100.694 4.244 101.303 5.287 101.716C6.314 102.155 7.417 102.387 8.533 102.4Z" fill="#547B37"/>
<path d="M486.4 34.133H324.267V25.6C324.252 11.468 312.799 0.015 298.667 0H25.6C11.468 0.015 0.015 11.468 0 25.6V59.733C0 64.446 3.821 68.266 8.533 68.266C13.245 68.266 17.066 64.445 17.066 59.733V25.6C17.069 20.888 20.888 17.07 25.599 17.067H298.666C303.378 17.07 307.196 20.889 307.199 25.6V162.133C307.196 166.845 303.377 170.663 298.666 170.666H153.6C151.822 170.667 150.088 171.223 148.642 172.258L102.4 205.283V179.2C102.401 176.936 101.503 174.765 99.902 173.165C98.301 171.564 96.13 170.666 93.867 170.667H25.6C20.888 170.664 17.07 166.845 17.067 162.134V128C17.067 123.287 13.246 119.467 8.534 119.467C3.822 119.467 0 123.287 0 128V162.133C0.015 176.265 11.468 187.718 25.6 187.733H85.333V221.866C85.332 225.063 87.118 227.991 89.96 229.454C92.802 230.916 96.224 230.667 98.824 228.808L156.333 187.733H187.733V196.266C187.748 210.398 199.201 221.851 213.333 221.866H355.666L413.175 262.941C414.62 263.978 416.354 264.535 418.133 264.533C419.492 264.53 420.83 264.208 422.041 263.591C424.882 262.126 426.667 259.196 426.666 255.999V221.866H486.4C500.532 221.851 511.985 210.398 512 196.266V59.733C511.985 45.601 500.532 34.149 486.4 34.133ZM494.933 196.267C494.93 200.979 491.111 204.797 486.4 204.8H418.133C415.869 204.799 413.698 205.697 412.098 207.298C410.497 208.899 409.599 211.07 409.6 213.333V239.416L363.358 206.391C361.912 205.357 360.178 204.8 358.4 204.799H213.333C208.621 204.796 204.803 200.977 204.8 196.266V187.733H298.667C312.799 187.718 324.252 176.265 324.267 162.133V51.2H486.4C491.112 51.203 494.93 55.022 494.933 59.733V196.267Z" fill="#547B37"/>
</g>
<defs>
<clipPath id="clip0">
<rect width="512" height="512" fill="white"/>
</clipPath>
</defs>
</svg>
