<svg width="513" height="513" viewBox="0 0 513 513" fill="none" xmlns="http://www.w3.org/2000/svg">
<g clip-path="url(#clip0)">
<path d="M256.136 77.0719C274.987 77.0719 290.269 61.79 290.269 42.9389C290.269 24.0878 274.987 8.80591 256.136 8.80591C237.285 8.80591 222.003 24.0878 222.003 42.9389C222.003 61.79 237.285 77.0719 256.136 77.0719Z" fill="#AAD576"/>
<path d="M307.336 125.798V145.339H204.936V125.798C206.283 98.504 228.808 77.067 256.136 77.073C283.715 76.428 306.615 98.221 307.336 125.798Z" fill="#AAD576"/>
<path d="M153.736 247.739C172.587 247.739 187.869 232.457 187.869 213.606C187.869 194.755 172.587 179.473 153.736 179.473C134.885 179.473 119.603 194.755 119.603 213.606C119.603 232.457 134.885 247.739 153.736 247.739Z" fill="#AAD576"/>
<path d="M204.936 296.465V316.006H102.536V296.465C102.924 273.781 118.795 254.312 140.936 249.361C145.112 248.256 149.416 247.71 153.736 247.74C181.315 247.095 204.215 268.888 204.936 296.465Z" fill="#AAD576"/>
<path d="M358.536 247.739C377.387 247.739 392.669 232.457 392.669 213.606C392.669 194.755 377.387 179.473 358.536 179.473C339.685 179.473 324.403 194.755 324.403 213.606C324.403 232.457 339.685 247.739 358.536 247.739Z" fill="#AAD576"/>
<path d="M409.736 296.465V316.006H307.336V296.465C308.683 269.171 331.208 247.734 358.536 247.74C386.115 247.095 409.015 268.888 409.736 296.465Z" fill="#AAD576"/>
<path d="M256.136 435.472C274.987 435.472 290.269 420.19 290.269 401.339C290.269 382.488 274.987 367.206 256.136 367.206C237.285 367.206 222.003 382.488 222.003 401.339C222.003 420.19 237.285 435.472 256.136 435.472Z" fill="#AAD576"/>
<path d="M307.336 484.198V503.739H204.936V484.198C206.283 456.904 228.808 435.467 256.136 435.473C283.715 434.828 306.615 456.621 307.336 484.198Z" fill="#AAD576"/>
<path d="M59.8701 435.472C78.7212 435.472 94.0031 420.19 94.0031 401.339C94.0031 382.488 78.7212 367.206 59.8701 367.206C41.0189 367.206 25.7371 382.488 25.7371 401.339C25.7371 420.19 41.0189 435.472 59.8701 435.472Z" fill="#AAD576"/>
<path d="M111.07 484.198V503.739H8.67004V484.198C9.05804 461.514 24.929 442.045 47.07 437.094C51.246 435.989 55.55 435.443 59.87 435.473C87.448 434.828 110.348 456.621 111.07 484.198Z" fill="#AAD576"/>
<path d="M452.403 435.472C471.254 435.472 486.536 420.19 486.536 401.339C486.536 382.488 471.254 367.206 452.403 367.206C433.552 367.206 418.27 382.488 418.27 401.339C418.27 420.19 433.552 435.472 452.403 435.472Z" fill="#AAD576"/>
<path d="M503.603 484.198V503.739H401.203V484.198C402.55 456.904 425.075 435.467 452.403 435.473C479.982 434.828 502.882 456.621 503.603 484.198Z" fill="#AAD576"/>
<path d="M281.736 125.798V145.339H204.936V125.798C205.324 103.114 221.195 83.6451 243.336 78.6941C265.477 83.6461 281.348 103.114 281.736 125.798Z" fill="#D5EABB"/>
<path d="M179.336 296.465V316.006H102.536V296.465C102.924 273.781 118.795 254.312 140.936 249.361C163.077 254.312 178.948 273.78 179.336 296.465Z" fill="#D5EABB"/>
<path d="M384.136 296.465V316.006H307.336V296.465C307.724 273.781 323.595 254.312 345.736 249.361C367.877 254.312 383.748 273.78 384.136 296.465Z" fill="#D5EABB"/>
<path d="M281.736 484.198V503.739H204.936V484.198C205.324 461.514 221.195 442.045 243.336 437.094C265.477 442.046 281.348 461.514 281.736 484.198Z" fill="#D5EABB"/>
<path d="M85.47 484.198V503.739H8.67004V484.198C9.05804 461.514 24.929 442.045 47.07 437.094C69.21 442.046 85.081 461.514 85.47 484.198Z" fill="#D5EABB"/>
<path d="M478.003 484.198V503.739H401.203V484.198C401.591 461.514 417.462 442.045 439.603 437.094C461.744 442.046 477.615 461.514 478.003 484.198Z" fill="#D5EABB"/>
<path d="M51.3361 401.339C51.3261 387.435 59.7711 374.921 72.6691 369.728C58.4081 363.919 42.0221 368.378 32.6721 380.613C23.3211 392.848 23.3211 409.83 32.6721 422.065C42.0231 434.3 58.4081 438.76 72.6691 432.95C59.7721 427.757 51.3271 415.244 51.3361 401.339Z" fill="white"/>
<path d="M34.27 484.198C34.658 461.514 50.529 442.045 72.67 437.094L72.715 437.085C68.515 436.029 64.201 435.487 59.87 435.472C55.55 435.443 51.246 435.988 47.07 437.093C24.929 442.044 9.05804 461.513 8.67004 484.197V503.738H34.27V484.198V484.198Z" fill="white"/>
<path d="M230.536 484.198C230.924 461.514 246.795 442.045 268.936 437.094L268.981 437.085C264.781 436.029 260.467 435.487 256.136 435.472C228.808 435.466 206.283 456.903 204.936 484.197V503.738H230.536V484.198V484.198Z" fill="white"/>
<path d="M247.603 42.939C247.593 29.035 256.038 16.521 268.936 11.328C254.675 5.51902 238.289 9.97801 228.939 22.213C219.588 34.448 219.588 51.43 228.939 63.665C238.29 75.9 254.675 80.36 268.936 74.55C256.038 69.357 247.594 56.844 247.603 42.939Z" fill="white"/>
<path d="M230.536 125.798C230.924 103.114 246.795 83.645 268.936 78.694L268.981 78.685C264.781 77.629 260.467 77.087 256.136 77.072C228.808 77.066 206.283 98.503 204.936 125.797V145.338H230.536V125.798V125.798Z" fill="white"/>
<path d="M145.203 213.606C145.193 199.702 153.638 187.188 166.536 181.995C152.275 176.186 135.889 180.645 126.539 192.88C117.189 205.115 117.188 222.097 126.539 234.332C135.89 246.567 152.275 251.027 166.536 245.217C153.638 240.024 145.194 227.51 145.203 213.606Z" fill="white"/>
<path d="M358.536 247.739C331.208 247.733 308.683 269.17 307.336 296.464V316.005H332.936V296.464C333.324 273.78 349.195 254.311 371.336 249.36L371.381 249.351C367.181 248.296 362.867 247.755 358.536 247.739Z" fill="white"/>
<path d="M443.87 401.339C443.86 387.435 452.305 374.921 465.203 369.728C450.942 363.919 434.556 368.378 425.206 380.613C415.855 392.848 415.855 409.83 425.206 422.065C434.557 434.3 450.942 438.76 465.203 432.95C452.305 427.757 443.86 415.244 443.87 401.339Z" fill="white"/>
<path d="M128.136 296.465C128.524 273.781 144.395 254.312 166.536 249.361L166.581 249.352C162.381 248.296 158.067 247.754 153.736 247.739C149.416 247.71 145.112 248.255 140.936 249.36C118.795 254.311 102.924 273.78 102.536 296.464V316.005H128.136V296.465V296.465Z" fill="white"/>
<path d="M426.803 484.198C427.191 461.514 443.062 442.045 465.203 437.094L465.248 437.085C461.048 436.029 456.734 435.487 452.403 435.472C425.075 435.466 402.55 456.903 401.203 484.197V503.738H426.803V484.198Z" fill="white"/>
<path d="M247.603 401.339C247.593 387.435 256.038 374.921 268.936 369.728C254.675 363.919 238.289 368.378 228.939 380.613C219.588 392.848 219.588 409.83 228.939 422.065C238.29 434.3 254.675 438.76 268.936 432.95C256.038 427.757 247.594 415.244 247.603 401.339Z" fill="white"/>
<path d="M350.003 213.606C349.993 199.702 358.438 187.188 371.336 181.995C357.075 176.186 340.689 180.645 331.339 192.88C321.988 205.115 321.988 222.097 331.339 234.332C340.69 246.567 357.075 251.027 371.336 245.217C358.438 240.024 349.994 227.51 350.003 213.606Z" fill="white"/>
<path d="M196.403 125.835V145.339C196.402 147.602 197.301 149.773 198.902 151.374C200.503 152.975 202.673 153.873 204.937 153.873H307.337C309.6 153.874 311.771 152.975 313.372 151.374C314.972 149.774 315.871 147.603 315.871 145.339V125.835C315.651 104.23 303.254 84.601 283.839 75.119C297.432 63.516 302.353 44.672 296.17 27.904C289.985 11.137 274.008 0 256.136 0C238.264 0 222.287 11.137 216.104 27.905C209.921 44.672 214.842 63.517 228.435 75.12C209.021 84.601 196.623 104.231 196.403 125.835ZM230.536 42.939C230.536 28.801 241.998 17.339 256.136 17.339C270.274 17.339 281.736 28.801 281.736 42.939C281.736 57.077 270.274 68.539 256.136 68.539C242.004 68.524 230.552 57.072 230.536 42.939ZM256.136 85.606C279.009 84.979 298.085 102.964 298.803 125.835V136.806H213.47V125.835C214.188 102.964 233.263 84.979 256.136 85.606Z" fill="#547B37"/>
<path d="M94.0031 296.502V316.006C94.0021 318.269 94.9011 320.44 96.5021 322.041C98.1031 323.642 100.273 324.54 102.537 324.54H204.937C207.2 324.541 209.371 323.642 210.972 322.041C212.573 320.44 213.471 318.27 213.471 316.006V296.502C213.251 274.897 200.854 255.268 181.439 245.786C195.032 234.183 199.953 215.339 193.77 198.571C187.587 181.803 171.609 170.666 153.738 170.666C135.867 170.666 119.889 181.803 113.706 198.571C107.523 215.339 112.444 234.183 126.037 245.786C106.621 255.268 94.2231 274.897 94.0031 296.502ZM128.136 213.606C128.136 199.468 139.598 188.006 153.736 188.006C167.874 188.006 179.336 199.468 179.336 213.606C179.336 227.744 167.874 239.206 153.736 239.206C139.604 239.191 128.152 227.738 128.136 213.606ZM153.736 256.273C176.609 255.646 195.685 273.631 196.403 296.502V307.473H111.07V296.502C111.788 273.631 130.863 255.646 153.736 256.273Z" fill="#547B37"/>
<path d="M401.203 213.606C401.329 193.843 387.867 176.581 368.669 171.887C349.471 167.194 329.563 176.298 320.557 193.889C311.551 211.48 315.803 232.955 330.835 245.786C311.421 255.267 299.023 274.897 298.803 296.502V316.006C298.802 318.269 299.701 320.44 301.302 322.041C302.903 323.642 305.073 324.54 307.337 324.54H409.737C412 324.541 414.171 323.642 415.772 322.041C417.372 320.441 418.271 318.27 418.271 316.006V296.502C418.051 274.897 405.654 255.268 386.239 245.786C395.692 237.764 401.16 226.005 401.203 213.606ZM401.203 296.502V307.473H315.87V296.502C317.199 273.911 335.907 256.272 358.537 256.272C381.166 256.272 399.874 273.911 401.203 296.502ZM332.936 213.606C332.936 199.468 344.398 188.006 358.536 188.006C372.674 188.006 384.136 199.468 384.136 213.606C384.136 227.744 372.674 239.206 358.536 239.206C344.404 239.191 332.952 227.738 332.936 213.606Z" fill="#547B37"/>
<path d="M196.403 484.235V503.739C196.402 506.002 197.301 508.173 198.902 509.774C200.502 511.374 202.673 512.273 204.937 512.273H307.337C309.6 512.274 311.771 511.375 313.372 509.774C314.972 508.174 315.871 506.003 315.871 503.739V484.235C315.651 462.63 303.254 443.001 283.839 433.519C297.432 421.916 302.353 403.072 296.17 386.304C289.987 369.536 274.009 358.399 256.138 358.399C238.267 358.399 222.289 369.536 216.106 386.304C209.923 403.071 214.844 421.916 228.437 433.519C209.021 443.001 196.623 462.631 196.403 484.235ZM230.536 401.339C230.536 390.985 236.773 381.65 246.339 377.688C255.905 373.726 266.916 375.916 274.238 383.237C281.56 390.559 283.75 401.57 279.787 411.136C275.825 420.702 266.49 426.939 256.136 426.939C242.004 426.924 230.552 415.472 230.536 401.339ZM256.136 444.006C279.009 443.379 298.085 461.364 298.803 484.235V495.206H213.47V484.235C214.188 461.365 233.263 443.379 256.136 444.006Z" fill="#547B37"/>
<path d="M8.67002 512.273H111.07C113.333 512.274 115.504 511.375 117.105 509.774C118.705 508.174 119.604 506.003 119.604 503.739V484.235C119.384 462.63 106.987 443.001 87.572 433.519C101.165 421.916 106.086 403.072 99.903 386.304C93.719 369.537 77.741 358.4 59.87 358.4C41.999 358.4 26.021 369.537 19.838 386.305C13.655 403.072 18.576 421.917 32.169 433.52C12.755 443.001 0.357025 462.631 0.137025 484.236V503.74C0.136025 506.003 1.03502 508.174 2.63602 509.775C4.23602 511.375 6.40602 512.273 8.67002 512.273ZM34.27 401.339C34.27 390.985 40.507 381.65 50.073 377.688C59.639 373.726 70.65 375.916 77.972 383.237C85.294 390.559 87.484 401.57 83.521 411.136C79.559 420.702 70.224 426.939 59.87 426.939C45.738 426.924 34.285 415.472 34.27 401.339ZM17.203 484.235C17.921 461.364 36.996 443.379 59.87 444.006C82.743 443.379 101.819 461.364 102.537 484.235V495.206H17.203V484.235Z" fill="#547B37"/>
<path d="M480.105 433.52C493.698 421.917 498.619 403.073 492.436 386.305C486.253 369.537 470.275 358.4 452.404 358.4C434.533 358.4 418.555 369.537 412.372 386.305C406.189 403.072 411.11 421.917 424.703 433.52C405.289 443.001 392.891 462.631 392.671 484.236V503.74C392.67 506.003 393.569 508.174 395.17 509.775C396.77 511.375 398.941 512.274 401.205 512.274H503.605C505.868 512.275 508.039 511.376 509.64 509.775C511.24 508.175 512.139 506.004 512.139 503.74V484.236C511.917 462.631 499.519 443.001 480.105 433.52ZM426.803 401.339C426.803 390.985 433.04 381.65 442.606 377.688C452.172 373.726 463.183 375.916 470.505 383.237C477.827 390.559 480.017 401.57 476.054 411.136C472.092 420.702 462.757 426.939 452.403 426.939C438.271 426.924 426.818 415.472 426.803 401.339ZM495.07 495.206H409.737V484.235C411.066 461.644 429.774 444.005 452.404 444.005C475.034 444.005 493.741 461.644 495.071 484.235V495.206H495.07Z" fill="#547B37"/>
<path d="M256.136 170.939C253.873 170.938 251.702 171.837 250.101 173.438C248.501 175.038 247.602 177.209 247.602 179.473V230.673H230.535C225.822 230.673 222.002 234.494 222.002 239.206C222.002 243.918 225.822 247.739 230.535 247.739H281.735C286.448 247.739 290.268 243.919 290.268 239.206C290.268 234.493 286.448 230.673 281.735 230.673H264.67V179.473C264.671 177.21 263.772 175.039 262.171 173.438C260.571 171.838 258.4 170.939 256.136 170.939Z" fill="#547B37"/>
<path d="M153.736 358.673C151.473 358.672 149.302 359.571 147.701 361.172C146.101 362.772 145.202 364.943 145.202 367.207V418.407H128.135C123.422 418.407 119.602 422.227 119.602 426.94C119.602 431.653 123.423 435.473 128.135 435.473H179.335C184.048 435.473 187.868 431.653 187.868 426.94C187.868 422.227 184.048 418.407 179.335 418.407H162.27V367.207C162.271 364.944 161.372 362.773 159.771 361.172C158.171 359.571 156 358.672 153.736 358.673Z" fill="#547B37"/>
<path d="M375.603 418.406H358.536V367.206C358.536 362.493 354.716 358.673 350.003 358.673C345.29 358.673 341.47 362.493 341.47 367.206V418.406H324.403C319.69 418.406 315.87 422.226 315.87 426.939C315.87 431.652 319.69 435.472 324.403 435.472H375.603C380.316 435.472 384.136 431.652 384.136 426.939C384.136 422.226 380.316 418.406 375.603 418.406Z" fill="#547B37"/>
</g>
<defs>
<clipPath id="clip0">
<rect width="512.273" height="512.273" fill="white"/>
</clipPath>
</defs>
</svg>
