<svg width="512" height="512" viewBox="0 0 512 512" fill="none" xmlns="http://www.w3.org/2000/svg">
<path d="M503.467 42.6665V76.7999H8.53333V42.6665C8.53333 23.8152 23.8153 8.5332 42.6667 8.5332H469.333C488.185 8.5332 503.467 23.8152 503.467 42.6665Z" fill="#D5EABB"/>
<path d="M469.333 8.5332H443.733C462.585 8.5332 477.867 23.8152 477.867 42.6665V76.7999H503.467V42.6665C503.467 23.8152 488.185 8.5332 469.333 8.5332Z" fill="#D5EABB"/>
<path d="M241.579 503.467H85.3333V441.941C85.3452 428.507 95.7399 417.367 109.141 416.427L163.499 412.587L241.579 503.467Z" fill="#AAD576"/>
<path d="M348.672 412.587L270.848 503.467H241.579L163.499 412.587L204.8 409.6L256.085 469.333L307.2 409.6L348.672 412.587Z" fill="#D5EABB"/>
<path d="M426.923 503.467H270.848L348.672 412.587L403.029 416.427C416.383 417.397 426.748 428.468 426.837 441.856L426.923 503.467Z" fill="#AAD576"/>
<path d="M426.837 441.856C426.748 428.468 416.383 417.397 403.029 416.427L348.672 412.587L347.213 414.293L377.429 416.427C390.783 417.397 401.148 428.468 401.237 441.856L401.323 503.467H426.923L426.837 441.856Z" fill="#97C570"/>
<path d="M503.467 76.8V469.333C503.467 488.185 488.185 503.467 469.333 503.467H426.923L426.837 441.856C426.748 428.468 416.383 417.397 403.029 416.427L348.672 412.587L307.2 409.6V353.792C288.597 373.675 287.488 392.533 266.837 392.533H245.163C224.512 392.533 223.403 373.675 204.8 353.792V409.6L163.499 412.587L109.141 416.427C95.7399 417.367 85.3452 428.507 85.3333 441.941V503.467H42.6667C23.8153 503.467 8.53333 488.185 8.53333 469.333V76.8H503.467Z" fill="#D5EABB"/>
<path d="M477.867 76.8V469.333C477.867 488.185 462.585 503.467 443.733 503.467H469.333C488.185 503.467 503.467 488.185 503.467 469.333V76.8H477.867Z" fill="#97C570"/>
<path d="M51.2 51.2C55.9128 51.2 59.7333 47.3795 59.7333 42.6666C59.7333 37.9538 55.9128 34.1333 51.2 34.1333C46.4872 34.1333 42.6667 37.9538 42.6667 42.6666C42.6667 47.3795 46.4872 51.2 51.2 51.2Z" fill="#D5EABB"/>
<path d="M85.3333 51.2C90.0462 51.2 93.8667 47.3795 93.8667 42.6666C93.8667 37.9538 90.0462 34.1333 85.3333 34.1333C80.6205 34.1333 76.8 37.9538 76.8 42.6666C76.8 47.3795 80.6205 51.2 85.3333 51.2Z" fill="#D5EABB"/>
<path d="M119.467 51.2C124.179 51.2 128 47.3795 128 42.6666C128 37.9538 124.179 34.1333 119.467 34.1333C114.754 34.1333 110.933 37.9538 110.933 42.6666C110.933 47.3795 114.754 51.2 119.467 51.2Z" fill="#D5EABB"/>
<path d="M452.267 51.2H443.733C439.021 51.2 435.2 47.3795 435.2 42.6666C435.2 37.9538 439.021 34.1333 443.733 34.1333H452.267C456.98 34.1333 460.8 37.9538 460.8 42.6666C460.8 47.3795 456.98 51.2 452.267 51.2Z" fill="#547B37"/>
<path d="M409.6 51.2H358.4C353.687 51.2 349.867 47.3795 349.867 42.6666C349.867 37.9538 353.687 34.1333 358.4 34.1333H409.6C414.313 34.1333 418.133 37.9538 418.133 42.6666C418.133 47.3795 414.313 51.2 409.6 51.2Z" fill="#547B37"/>
<path d="M348.843 277.504C345.78 289.06 337.88 298.733 327.168 304.043C329.703 321.339 323.427 338.759 310.443 350.464C309.248 351.573 308.224 352.683 307.2 353.792C288.597 373.675 287.488 392.533 266.837 392.533H245.163C224.512 392.533 223.403 373.675 204.8 353.792C203.776 352.683 202.752 351.573 201.557 350.464C188.573 338.759 182.297 321.339 184.832 304.043C174.12 298.733 166.22 289.06 163.157 277.504C163.157 277.504 159.147 251.051 167.168 248.149C171.549 246.81 176.303 247.565 180.053 250.197C179.712 246.869 179.371 234.667 179.2 230.4H332.8C332.629 234.581 332.288 246.784 332.032 250.112C335.776 247.54 340.489 246.817 344.832 248.149C352.853 251.051 348.843 277.504 348.843 277.504V277.504Z" fill="#D5EABB"/>
<path d="M344.832 248.149C340.489 246.817 335.776 247.54 332.032 250.112C332.288 246.784 332.629 234.581 332.8 230.4H307.2C307.029 234.581 306.688 246.784 306.432 250.112C310.176 247.54 314.889 246.817 319.232 248.149C327.253 251.051 323.243 277.504 323.243 277.504C320.18 289.06 312.28 298.733 301.568 304.043C304.103 321.339 297.827 338.759 284.843 350.464C283.648 351.573 282.624 352.683 281.6 353.792C263.68 372.966 261.82 391.023 243.2 392.294C243.883 392.294 244.429 392.533 245.163 392.533H266.837C287.488 392.533 288.597 373.675 307.2 353.792C308.224 352.683 309.248 351.573 310.443 350.464C323.427 338.759 329.703 321.339 327.168 304.043C337.88 298.733 345.78 289.06 348.843 277.504C348.843 277.504 352.853 251.051 344.832 248.149V248.149Z" fill="#D5EABB"/>
<path d="M307.2 353.792V409.6L256.085 469.333L204.8 409.6V353.792C223.403 373.675 224.512 392.533 245.163 392.533H266.837C287.488 392.533 288.597 373.675 307.2 353.792Z" fill="#D5EABB"/>
<path d="M179.2 153.6H332.8V230.4H179.2V153.6Z" fill="#AAD576"/>
<path d="M307.2 153.6H332.8V230.4H307.2V153.6Z" fill="#97C570"/>
<path d="M409.6 204.8V221.867C409.6 226.58 405.78 230.4 401.067 230.4H384C379.287 230.4 375.467 226.58 375.467 221.867V204.8C375.495 195.386 383.119 187.762 392.533 187.733C401.93 187.803 409.53 195.403 409.6 204.8Z" fill="#D5EABB"/>
<path d="M42.6667 503.467H68.2667C49.4153 503.467 34.1333 488.185 34.1333 469.333V42.6665C34.1333 23.8152 49.4153 8.5332 68.2667 8.5332H42.6667C23.8153 8.5332 8.53333 23.8152 8.53333 42.6665V469.333C8.53333 488.185 23.8153 503.467 42.6667 503.467Z" fill="white"/>
<path d="M-1.52588e-05 401.067H17.0667V469.333H-1.52588e-05V401.067Z" fill="white"/>
<path d="M8.70399 443.733C3.99116 443.757 0.151557 439.956 0.127993 435.243C0.104429 430.53 3.90583 426.69 8.61866 426.667H8.70399C13.4168 426.667 17.2373 430.487 17.2373 435.2C17.2373 439.913 13.4168 443.733 8.70399 443.733Z" fill="#547B37"/>
<path d="M469.333 0H42.6667C19.1142 0.0282122 0.0282122 19.1142 0 42.6667V401.067C0 405.78 3.8205 409.6 8.53333 409.6C13.2462 409.6 17.0667 405.78 17.0667 401.067V85.3333H494.933V469.333C494.933 483.472 483.472 494.933 469.333 494.933H435.413L435.345 441.771C435.156 423.97 421.378 409.273 403.627 407.936L315.733 401.655V357.282C315.955 357.06 316.134 356.838 316.365 356.617C329.92 344.572 337.12 326.919 335.855 308.83C346.6 301.956 354.276 291.198 357.282 278.801C359.586 263.578 359.842 244.506 348.006 240.247C345.795 239.374 343.438 238.928 341.06 238.933C341.154 236.254 341.231 233.694 341.291 231.868L341.333 230.673H341.282C341.282 230.571 341.333 230.494 341.333 230.4V162.133H384V180.77C373.808 184.373 366.978 193.99 366.933 204.8V221.867C366.933 231.292 374.574 238.933 384 238.933H401.067C410.492 238.933 418.133 231.292 418.133 221.867V204.8C418.089 193.99 411.258 184.373 401.067 180.77V162.133H409.6C414.313 162.133 418.133 158.313 418.133 153.6C418.133 148.887 414.313 145.067 409.6 145.067H102.4C97.6872 145.067 93.8667 148.887 93.8667 153.6C93.8667 158.313 97.6872 162.133 102.4 162.133H170.667V230.4C170.716 230.762 170.787 231.122 170.88 231.475H170.667C170.743 233.95 170.829 236.476 170.923 238.882C168.634 238.862 166.363 239.282 164.233 240.119C152.158 244.48 152.38 263.552 154.735 279.074C157.795 291.342 165.426 301.977 176.068 308.804C174.798 326.891 181.991 344.544 195.541 356.591C195.78 356.821 195.959 357.052 196.19 357.274V401.647L108.501 407.893C90.6578 409.23 76.848 424.073 76.8 441.967V494.933H42.6667C28.5282 494.933 17.0667 483.472 17.0667 469.333C17.0667 464.621 13.2462 460.8 8.53333 460.8C3.8205 460.8 0 464.621 0 469.333C0.0282122 492.886 19.1142 511.972 42.6667 512H469.333C492.886 511.972 511.972 492.886 512 469.333V42.6667C511.972 19.1142 492.886 0.0282122 469.333 0V0ZM392.533 196.267C397.246 196.267 401.067 200.087 401.067 204.8V221.867H384V204.8C384 200.087 387.821 196.267 392.533 196.267ZM187.733 162.133H324.267V221.867H187.733V162.133ZM193.28 306.347C194.151 302.614 192.536 298.743 189.269 296.738L188.783 296.465C180.488 292.402 174.261 285.068 171.597 276.224C170.435 269.538 170.369 262.707 171.401 256C172.989 256.242 174.513 256.802 175.881 257.647C178.65 259.202 182.053 259.09 184.714 257.357C187.376 255.624 188.854 252.557 188.553 249.395C188.39 247.74 188.194 243.26 188.032 238.942H323.985C323.84 243.209 323.669 247.671 323.524 249.446C323.276 252.57 324.759 255.578 327.388 257.283C330.017 258.987 333.369 259.114 336.119 257.613C337.485 256.765 339.015 256.215 340.608 256C341.628 262.598 341.576 269.318 340.454 275.9C337.845 284.873 331.584 292.337 323.2 296.465C322.968 296.583 322.743 296.714 322.526 296.858L322.313 296.986C318.813 299.094 317.316 303.401 318.754 307.226C320.475 321.197 315.133 335.108 304.503 344.337C297.183 351.668 290.786 359.867 285.457 368.751C278.187 380.083 275.268 384 266.837 384H245.163C236.732 384 233.796 380.083 226.543 368.751C221.209 359.86 214.807 351.655 207.479 344.32C196.651 334.863 191.313 320.588 193.28 306.347ZM298.667 379.733V406.434L256.102 456.192L213.333 406.434V379.733C220.279 390.502 227.925 401.067 245.163 401.067H266.837C284.075 401.067 291.721 390.519 298.667 379.733ZM93.8667 494.933V441.967C93.9081 433.034 100.805 425.632 109.713 424.96L159.795 421.385L223.002 494.933H93.8667ZM245.495 494.933L180.992 419.84L201.122 418.398L249.643 474.871C251.263 476.756 253.625 477.841 256.111 477.841C258.602 477.839 260.968 476.748 262.588 474.854L310.878 418.398L331.196 419.849L266.923 494.933H245.495ZM289.391 494.933L352.375 421.385L402.432 424.96C411.291 425.627 418.171 432.955 418.278 441.839L418.347 494.933H289.391ZM494.933 68.2667H17.0667V42.6667C17.0667 28.5282 28.5282 17.0667 42.6667 17.0667H469.333C483.472 17.0667 494.933 28.5282 494.933 42.6667V68.2667Z" fill="#547B37"/>
</svg>
