<svg width="50" height="50" viewBox="0 0 50 50" fill="none" xmlns="http://www.w3.org/2000/svg">
<path d="M25 0.999756C11.745 0.999756 1 11.7448 1 24.9998C1 38.2548 11.745 48.9998 25 48.9998C38.255 48.9998 49 38.2548 49 24.9998C49 11.7448 38.255 0.999756 25 0.999756ZM19.125 34.9473H14.265V19.3073H19.125V34.9473ZM16.665 17.3873C15.13 17.3873 14.1375 16.2998 14.1375 14.9548C14.1375 13.5823 15.16 12.5273 16.7275 12.5273C18.295 12.5273 19.255 13.5823 19.285 14.9548C19.285 16.2998 18.295 17.3873 16.665 17.3873ZM36.875 34.9473H32.015V26.2798C32.015 24.2623 31.31 22.8923 29.5525 22.8923C28.21 22.8923 27.4125 23.8198 27.06 24.7123C26.93 25.0298 26.8975 25.4798 26.8975 25.9273V34.9448H22.035V24.2948C22.035 22.3423 21.9725 20.7098 21.9075 19.3048H26.13L26.3525 21.4773H26.45C27.09 20.4573 28.6575 18.9523 31.28 18.9523C34.4775 18.9523 36.875 21.0948 36.875 25.6998V34.9473Z" fill="#AAD576"/>
</svg>
