<svg width="512" height="512" viewBox="0 0 512 512" fill="none" xmlns="http://www.w3.org/2000/svg">
<path d="M256 512C397.385 512 512 397.385 512 256C512 114.615 397.385 0 256 0C114.615 0 0 114.615 0 256C0 397.385 114.615 512 256 512Z" fill="url(#paint0_linear)"/>
<path d="M174.35 174.35C184.782 163.918 184.751 147.061 174.35 136.661C164.271 126.59 146.714 126.625 136.669 136.661C126.279 147.051 126.231 163.903 136.66 174.35C147.051 184.74 163.909 184.791 174.35 174.35ZM337.65 337.65C327.218 348.082 327.249 364.948 337.65 375.331C348.082 385.763 364.942 385.728 375.331 375.34C385.73 364.941 385.763 348.092 375.34 337.651C365.277 327.597 347.712 327.579 337.65 337.65ZM256 176.059C245.823 176.059 231.511 203.578 229.709 247.118H282.292C280.489 203.578 266.177 176.059 256 176.059ZM158.744 247.118H211.77C213.581 202.549 228.948 158.295 256 158.295C205.123 158.294 163.253 197.395 158.744 247.118V247.118ZM353.256 247.118C348.748 197.395 306.877 158.295 256 158.295C283.052 158.295 298.419 202.55 300.23 247.118H353.256ZM256 335.941C266.177 335.941 280.489 308.422 282.291 264.882H229.708C231.511 308.422 245.823 335.941 256 335.941V335.941ZM211.77 264.882H158.744C163.252 314.605 205.123 353.706 256 353.706C228.948 353.706 213.581 309.451 211.77 264.882ZM300.23 264.882C298.419 309.451 283.052 353.706 256 353.706C306.877 353.706 348.747 314.605 353.256 264.882H300.23ZM305.963 379.555C290.09 385.974 273.279 389.235 256 389.235C182.53 389.235 122.765 329.47 122.765 256C122.765 234.735 127.878 214.402 137.283 195.91C130.466 192.831 126.689 189.619 122.635 185.125C111.06 206.788 105 230.875 105 256C105 339.263 172.737 407 256 407C275.578 407 294.635 403.305 312.625 396.018C317.171 394.179 319.365 389.001 317.526 384.455C315.687 379.885 310.491 377.69 305.963 379.555ZM256 105C236.422 105 217.365 108.695 199.375 115.982C194.83 117.821 192.636 122.999 194.474 127.545C196.304 132.09 201.465 134.267 206.036 132.446C221.91 126.027 238.721 122.766 256 122.766C329.47 122.766 389.235 182.531 389.235 256.001C389.235 277.318 384.104 297.704 374.655 316.231C381.912 319.404 385.628 322.71 389.368 326.872C400.941 305.209 407 281.124 407 256C407 172.737 339.263 105 256 105V105Z" fill="url(#paint1_linear)"/>
<defs>
<linearGradient id="paint0_linear" x1="256" y1="512" x2="256" y2="0" gradientUnits="userSpaceOnUse">
<stop stop-color="#97C570"/>
<stop offset="0.9973" stop-color="#B4CE9E"/>
</linearGradient>
<linearGradient id="paint1_linear" x1="256" y1="407" x2="256" y2="105" gradientUnits="userSpaceOnUse">
<stop stop-color="#143601"/>
<stop offset="1" stop-color="#2C4B19"/>
</linearGradient>
</defs>
</svg>
