<svg width="271" height="317" viewBox="0 0 271 317" fill="none" xmlns="http://www.w3.org/2000/svg">
<path d="M254.944 208.369C256.25 201.363 256.918 194.232 256.918 187.084C256.918 123.24 205.008 71.0264 140.254 68.5776V47.2929H146.934C164.703 47.2929 179.159 33.1712 179.159 15.8132V7.12028C179.159 3.19422 175.889 0 171.87 0H162.972C147.948 0 135.294 10.0966 131.743 23.7081C125.849 17.4478 117.402 13.5162 108.029 13.5162H99.1303C95.1114 13.5162 91.8416 16.7104 91.8416 20.6364V29.3294C91.8416 46.6874 106.298 60.8091 124.067 60.8091H130.747V68.5789C56.4996 71.2586 2.80901 137.317 16.0567 208.369C7.2228 208.727 0 216.148 0 224.815C0 232.496 5.58379 239.255 13.2788 240.888L22.3954 242.818C14.8094 248.593 13.659 259.765 20.558 266.504C22.3459 268.25 24.4577 269.488 26.7058 270.223C25.5143 272.424 24.8805 274.889 24.8805 277.45C24.8805 281.584 26.5284 285.471 29.5206 288.394C32.4785 291.284 36.3998 292.888 40.5772 292.925C40.6165 296.838 42.1573 300.739 45.2065 303.718C50.185 308.583 57.7317 309.579 63.7984 306.467C65.876 312.636 72.2597 317 78.8189 317C82.8758 317 86.9347 315.49 90.0232 312.473L101.727 301.041C112.653 304.128 123.999 305.695 135.5 305.695C147.001 305.695 158.348 304.128 169.274 301.041L180.977 312.473C187.156 318.508 197.207 318.508 203.385 312.473C205.143 310.756 206.433 308.704 207.202 306.466C213.255 309.573 220.821 308.575 225.794 303.717C228.843 300.738 230.383 296.837 230.423 292.924C234.6 292.886 238.522 291.283 241.479 288.393C246.322 283.662 247.478 276.086 244.299 270.23C246.587 269.479 248.685 268.219 250.442 266.503C257.275 259.827 256.059 248.458 248.605 242.817L257.723 240.887C265.417 239.254 271 232.495 271 224.814C271.001 216.073 263.694 208.722 254.944 208.369ZM140.254 31.4797C140.254 19.2427 150.445 9.28733 162.972 9.28733H169.652V15.8132C169.652 27.6775 160.073 37.3964 148.072 37.9777L154.964 32.0165C156.93 30.3163 157.113 27.3815 155.373 25.4615C153.632 23.5409 150.628 23.3626 148.662 25.0628L140.254 32.3354V31.4797ZM122.492 36.8911C120.635 35.0776 117.626 35.0776 115.769 36.8911C113.913 38.7046 113.913 41.645 115.769 43.4579L124.023 51.5211C111.517 51.4976 101.349 41.5527 101.349 29.33V22.8035H108.029C120.542 22.8035 130.723 32.736 130.746 44.9538L122.492 36.8911ZM15.2949 231.812C11.9414 231.101 9.50702 228.158 9.50702 224.815C9.50702 220.38 13.7883 216.914 18.2262 217.778C19.7036 223.182 21.5689 228.477 23.8087 233.615L15.2949 231.812ZM27.2801 259.936C24.8418 257.554 24.8304 253.55 27.2807 251.18C27.2807 251.18 46.0501 232.844 46.1033 232.792C48.5403 230.412 52.6245 230.407 55.0665 232.792C57.5377 235.207 57.5377 239.134 55.0672 241.548L36.2433 259.937C33.8146 262.332 29.712 262.312 27.2801 259.936ZM36.2439 281.827C33.7727 279.413 33.7727 275.485 36.2439 273.071L68.512 241.549C70.9344 239.154 75.0446 239.152 77.4746 241.549H77.4752C79.9166 243.911 79.9261 247.936 77.4746 250.305L45.2065 281.827C42.7784 284.222 38.6752 284.202 36.2439 281.827ZM60.8931 297.15C58.4219 299.564 54.401 299.565 51.9292 297.15C49.458 294.736 49.458 290.808 51.9292 288.394L84.196 256.872C86.6672 254.459 90.6881 254.458 93.1599 256.872C95.6311 259.286 95.6311 263.214 93.1599 265.628L60.8931 297.15ZM102.124 287.519L83.3005 305.907C80.8299 308.321 76.8097 308.321 74.3373 305.907C71.8997 303.527 71.8876 299.523 74.336 297.153L93.1605 278.763C95.5829 276.369 99.6817 276.378 102.124 278.763C104.595 281.176 104.595 285.105 102.124 287.519ZM108.846 272.195C107.088 270.478 104.988 269.218 102.697 268.467C105.845 262.625 104.907 255.214 99.8832 250.306C96.834 247.327 92.8404 245.821 88.8348 245.784C88.7968 241.703 87.1553 237.872 84.1967 234.982C81.2039 232.059 77.2255 230.449 72.993 230.449C70.3722 230.449 67.849 231.068 65.5965 232.232C64.8436 230.036 63.5766 227.972 61.7893 226.226H61.7886C58.7958 223.303 54.8168 221.693 50.5843 221.693C46.3518 221.693 42.3728 223.303 39.38 226.227L33.4571 232.014C26.9879 217.985 23.5894 202.581 23.5894 187.086C23.5894 164.545 30.6113 143.576 42.6282 126.155C52.5472 132.876 59.9386 141.798 62.7374 150.625C64.5248 156.255 64.1565 160.798 63.6476 167.086C63.0246 174.785 62.2481 184.366 65.2327 199.587C66.6854 207.003 68.2401 211.674 69.4323 214.916C70.3297 217.357 73.0956 218.564 75.5136 217.716C77.9842 216.849 79.2676 214.189 78.3796 211.776C77.3041 208.852 75.8996 204.626 74.5699 197.84C71.8261 183.851 72.5163 175.334 73.1254 167.82C73.673 161.053 74.1465 155.209 71.8185 147.876C68.3783 137.025 59.917 126.59 48.2836 118.673C63.171 100.599 83.8075 87.2266 107.46 81.2437C110.194 92.5049 112.442 104.61 114.326 116.425C117.365 135.475 119.766 150.523 131.434 154.194C138.136 156.303 143.873 153.133 148.934 150.338C153.654 147.733 158.111 145.272 163.518 146.297C171.77 147.86 177.17 160.699 184.711 166.754C195.796 175.656 212.001 179.192 228.222 177.88C230.839 177.668 232.783 175.425 232.566 172.869C232.349 170.313 230.037 168.413 227.436 168.625C212.971 169.793 199.259 166.415 190.747 159.58C181.306 151.998 179.265 139.823 165.329 137.18C156.483 135.503 149.704 139.245 144.257 142.253C139.81 144.708 136.954 146.174 134.348 145.354C128.257 143.437 126.053 129.622 123.719 114.995C121.81 103.026 119.517 90.7143 116.759 79.3101C122.855 78.3021 129.114 77.769 135.499 77.769C197.207 77.769 247.409 126.809 247.409 187.087C247.409 202.583 244.011 217.986 237.542 232.015L231.619 226.229C228.626 223.305 224.647 221.695 220.414 221.695C216.182 221.695 212.203 223.305 209.21 226.228H209.209C207.422 227.974 206.156 230.038 205.402 232.234C202.992 230.988 200.241 230.367 197.446 230.464C186.749 220.988 164.884 202.565 149.27 209.876C141.059 213.718 139.806 221.68 138.354 230.9C137.308 237.546 136.122 245.079 132.324 253.525C128.085 262.961 121.607 271.095 112.656 278.219C111.906 276.014 110.638 273.945 108.846 272.195ZM162.154 272.195C156.194 278.019 155.986 287.363 161.527 293.434C153.046 295.407 144.324 296.408 135.5 296.408C126.677 296.408 117.954 295.407 109.474 293.434C110.283 292.546 110.968 291.589 111.532 290.584C125.425 281.387 135.091 270.477 141.032 257.256C145.331 247.694 146.674 239.162 147.752 232.308C149.064 223.977 149.851 219.9 153.38 218.248C162.114 214.161 178.161 226.317 187.553 234.299C184.149 237.222 182.205 241.358 182.165 245.782C178.16 245.821 174.167 247.326 171.117 250.305C166.093 255.213 165.155 262.625 168.303 268.467C166.013 269.218 163.913 270.478 162.154 272.195ZM196.663 305.907C194.192 308.32 190.171 308.32 187.7 305.907L168.877 287.518C166.406 285.104 166.406 281.176 168.877 278.762H168.876C171.299 276.367 175.41 276.364 177.84 278.762L196.666 297.153C199.105 299.516 199.1 303.526 196.663 305.907ZM219.071 297.15C216.601 299.565 212.579 299.564 210.108 297.15C204.929 292.092 183.298 270.958 177.841 265.628C175.37 263.214 175.37 259.286 177.841 256.872C180.312 254.458 184.333 254.459 186.804 256.872L219.071 288.394C221.543 290.808 221.543 294.736 219.071 297.15ZM234.757 281.827C232.318 284.21 228.214 284.214 225.794 281.827L193.526 250.305C191.076 247.935 191.076 243.919 193.526 241.549H193.527C195.949 239.154 200.059 239.152 202.489 241.549C212.629 251.553 225.06 263.6 234.757 273.072C237.229 275.485 237.229 279.413 234.757 281.827ZM243.72 259.937C241.249 262.35 237.229 262.35 234.757 259.937L215.933 241.548C213.463 239.134 213.463 235.207 215.934 232.792H215.933C218.356 230.398 222.455 230.406 224.897 232.792C228.595 236.405 239.802 247.388 243.721 251.181C246.162 253.543 246.158 257.555 243.72 259.937ZM255.708 231.812L247.192 233.615C249.432 228.476 251.297 223.181 252.774 217.777C257.167 216.913 261.494 220.38 261.494 224.815C261.494 228.158 259.059 231.1 255.708 231.812Z" fill="white" fill-opacity="0.38"/>
</svg>
