<svg width="512" height="512" viewBox="0 0 512 512" fill="none" xmlns="http://www.w3.org/2000/svg">
<path d="M341.333 93.867C341.316 140.988 303.121 179.183 256 179.2C251.769 179.205 247.545 178.863 243.371 178.176C243.286 178.261 243.2 178.261 243.03 178.176C201.403 171.79 170.668 135.98 170.668 93.867C170.668 51.754 201.404 15.943 243.03 9.55799C243.201 9.47299 243.286 9.47299 243.371 9.55799C247.546 8.87099 251.77 8.52899 256 8.53399C303.121 8.54999 341.316 46.745 341.333 93.867Z" fill="#97C570"/>
<path d="M315.733 93.867C315.712 135.973 284.986 171.771 243.37 178.176C243.285 178.261 243.199 178.261 243.029 178.176C201.402 171.79 170.667 135.98 170.667 93.867C170.667 51.754 201.403 15.943 243.029 9.55801C243.2 9.47301 243.285 9.47301 243.37 9.55801C284.987 15.962 315.713 51.761 315.733 93.867Z" fill="#AAD576"/>
<path d="M179.2 221.867C179.183 268.988 140.988 307.183 93.867 307.2C89.636 307.205 85.412 306.863 81.238 306.176C81.153 306.261 81.067 306.261 80.897 306.176C39.269 299.79 8.534 263.98 8.534 221.867C8.534 179.754 39.27 143.943 80.896 137.558C81.067 137.473 81.152 137.473 81.237 137.558C85.412 136.871 89.636 136.529 93.866 136.534C140.988 136.55 179.183 174.745 179.2 221.867Z" fill="#97C570"/>
<path d="M153.6 221.867C153.579 263.973 122.853 299.771 81.237 306.176C81.152 306.261 81.066 306.261 80.896 306.176C39.269 299.79 8.534 263.98 8.534 221.867C8.534 179.754 39.27 143.943 80.896 137.558C81.067 137.473 81.152 137.473 81.237 137.558C122.853 143.962 153.579 179.761 153.6 221.867Z" fill="#AAD576"/>
<path d="M503.467 221.867C503.45 268.988 465.255 307.183 418.134 307.2C413.903 307.205 409.679 306.863 405.505 306.176C405.42 306.261 405.334 306.261 405.164 306.176C363.537 299.79 332.802 263.98 332.802 221.867C332.802 179.754 363.538 143.943 405.164 137.558C405.335 137.473 405.42 137.473 405.505 137.558C409.68 136.871 413.904 136.529 418.134 136.534C465.255 136.55 503.45 174.745 503.467 221.867Z" fill="#97C570"/>
<path d="M477.867 221.867C477.846 263.973 447.12 299.771 405.504 306.176C405.419 306.261 405.333 306.261 405.163 306.176C363.536 299.79 332.801 263.98 332.801 221.867C332.801 179.754 363.537 143.943 405.163 137.558C405.334 137.473 405.419 137.473 405.504 137.558C447.12 143.962 477.846 179.761 477.867 221.867Z" fill="#AAD576"/>
<path d="M256 145.067C284.277 145.067 307.2 122.144 307.2 93.867C307.2 65.59 284.277 42.667 256 42.667C227.723 42.667 204.8 65.59 204.8 93.867C204.8 122.144 227.723 145.067 256 145.067Z" fill="white"/>
<path d="M256 110.934C265.426 110.934 273.067 103.293 273.067 93.867C273.067 84.4412 265.426 76.8 256 76.8C246.574 76.8 238.933 84.4412 238.933 93.867C238.933 103.293 246.574 110.934 256 110.934Z" fill="#AAD576"/>
<path d="M366.933 482.945V503.466H145.067V482.945C145.041 470.472 151.53 458.892 162.182 452.404L196.255 431.802L207.19 425.148L218.204 418.494C219.527 417.726 220.431 416.4 220.66 414.887C220.726 414.625 220.752 414.355 220.739 414.085V398.294C220.725 397.22 220.363 396.18 219.709 395.328C213.24 386.733 208.651 376.873 206.238 366.389C205.553 362.635 203.76 359.173 201.088 356.449H201.009C197.47 352.825 195.481 347.967 195.462 342.902V324.866C195.466 321.885 196.172 318.946 197.522 316.289L198.552 314.205C199.841 311.528 200.518 308.598 200.533 305.628V279.655C200.477 268.905 204.696 258.574 212.261 250.936C219.826 243.298 230.116 238.98 240.866 238.933H271.135C281.885 238.98 292.175 243.298 299.74 250.936C307.305 258.574 311.524 268.905 311.468 279.655V305.628C311.483 308.599 312.16 311.529 313.449 314.205L314.479 316.289C315.829 318.947 316.535 321.885 316.539 324.866V342.902C316.52 347.967 314.531 352.826 310.992 356.449H310.913C308.241 359.173 306.447 362.635 305.763 366.389C303.351 376.873 298.761 386.732 292.292 395.328C291.637 396.18 291.276 397.22 291.262 398.294V414.086C291.249 414.329 291.276 414.573 291.341 414.808C291.536 416.354 292.446 417.719 293.797 418.495L315.112 431.401L349.818 452.403C360.47 458.892 366.96 470.473 366.933 482.945Z" fill="#97C570"/>
<path d="M343.162 482.945V503.466H145.067V482.945C145.041 470.472 151.53 458.892 162.182 452.404L196.255 431.802L207.19 425.148L218.204 418.494C219.527 417.726 220.431 416.4 220.66 414.887C220.726 414.625 220.752 414.355 220.739 414.085V398.294C220.725 397.22 220.363 396.18 219.709 395.328C213.24 386.733 208.651 376.873 206.238 366.389C205.553 362.635 203.76 359.173 201.088 356.449H201.009C197.47 352.825 195.481 347.967 195.462 342.902V324.866C195.466 321.885 196.172 318.946 197.522 316.289L198.552 314.205C199.841 311.528 200.518 308.598 200.533 305.628V279.655C200.477 268.905 204.696 258.574 212.261 250.936C219.826 243.298 230.116 238.98 240.866 238.933H247.363C258.113 238.98 268.403 243.298 275.968 250.936C283.533 258.574 287.752 268.905 287.696 279.655V305.628C287.711 308.599 288.388 311.529 289.677 314.205L290.707 316.289C292.057 318.947 292.763 321.885 292.767 324.866V342.902C292.748 347.967 290.759 352.826 287.22 356.449H287.141C284.469 359.173 282.675 362.635 281.991 366.389C279.579 376.873 274.989 386.732 268.52 395.328C267.865 396.18 267.504 397.22 267.49 398.294V414.086C267.477 414.329 267.504 414.573 267.569 414.808C267.764 416.354 268.674 417.719 270.025 418.495L291.34 431.401L326.046 452.403C336.699 458.892 343.188 470.473 343.162 482.945Z" fill="#D5EABB"/>
<path d="M366.933 482.945V503.466H145.067V482.945C145.041 470.472 151.53 458.892 162.182 452.404L196.255 431.802L207.19 425.148L218.204 418.494L243.798 431.881L255.525 437.973L280.881 425.067L293.797 418.494L315.112 431.4L349.818 452.402C360.47 458.892 366.96 470.473 366.933 482.945Z" fill="#97C570"/>
<path d="M343.162 482.945V503.466H145.067V482.945C145.041 470.472 151.53 458.892 162.182 452.404L196.255 431.802L207.19 425.148L231.754 437.974L243.798 431.882L255.525 437.974L280.881 425.068L291.34 431.401L326.046 452.403C336.699 458.892 343.188 470.473 343.162 482.945Z" fill="#AAD576"/>
<path d="M315.112 431.401L314.161 432.924L290.389 451.842C285.955 455.36 280.004 456.303 274.7 454.327C272.587 453.662 270.66 452.508 269.075 450.96L255.525 437.973L287.22 415.288L291.341 414.807C291.536 416.353 292.446 417.718 293.797 418.494L315.112 431.401Z" fill="white"/>
<path d="M255.525 437.974L241.975 450.961C240.39 452.509 238.463 453.662 236.349 454.328C231.045 456.304 225.093 455.361 220.66 451.843L196.889 432.925L196.255 431.803L218.204 418.496C219.527 417.728 220.431 416.402 220.66 414.889L223.83 415.29L255.525 437.974Z" fill="white"/>
<path d="M274.7 454.328L263.448 471.402H247.6L236.348 454.328C238.461 453.663 240.389 452.509 241.974 450.961L255.524 437.974L269.074 450.961C270.66 452.509 272.587 453.662 274.7 454.328Z" fill="#AAD576"/>
<path d="M278.426 501.7V503.467H232.627V501.7L247.603 471.398H263.45L278.426 501.7Z" fill="#AAD576"/>
<path d="M430.723 137.565C426.558 136.911 422.35 136.566 418.133 136.533C413.902 136.528 409.678 136.87 405.504 137.557C405.419 137.472 405.333 137.472 405.163 137.557C363.536 143.943 332.801 179.753 332.801 221.866C332.801 263.979 363.537 299.79 405.163 306.175C405.334 306.26 405.419 306.26 405.504 306.175C409.679 306.862 413.903 307.204 418.133 307.199C422.349 307.166 426.557 306.821 430.723 306.167C389.115 299.765 358.4 263.963 358.4 221.865C358.4 179.767 389.115 143.967 430.723 137.565Z" fill="white"/>
<path d="M170.667 482.945C170.641 470.473 177.13 458.892 187.782 452.403L221.855 431.801L232.79 425.147L243.804 418.493C245.128 417.726 246.032 416.399 246.262 414.886C246.327 414.624 246.354 414.354 246.341 414.084V398.293C246.327 397.219 245.965 396.178 245.31 395.327C238.841 386.731 234.252 376.872 231.839 366.388C231.155 362.634 229.361 359.172 226.689 356.448H226.61C223.072 352.824 221.083 347.965 221.064 342.901V324.865C221.068 321.884 221.774 318.945 223.124 316.288L224.153 314.204C225.442 311.527 226.119 308.597 226.134 305.626V279.654C226.078 268.904 230.297 258.573 237.862 250.935C245.427 243.297 255.717 238.979 266.467 238.932H240.867C230.117 238.979 219.827 243.298 212.262 250.935C204.697 258.572 200.478 268.904 200.534 279.654V305.626C200.519 308.597 199.842 311.527 198.553 314.204L197.524 316.288C196.173 318.946 195.467 321.884 195.464 324.865V342.901C195.483 347.966 197.472 352.824 201.01 356.448H201.089C203.761 359.172 205.555 362.634 206.239 366.388C208.652 376.872 213.241 386.731 219.71 395.327C220.365 396.178 220.727 397.219 220.741 398.293V414.084C220.754 414.354 220.727 414.624 220.662 414.886C220.432 416.399 219.528 417.725 218.204 418.493L207.191 425.147L196.256 431.801L162.183 452.403C151.532 458.892 145.042 470.472 145.069 482.945V503.466H170.669V482.945H170.667Z" fill="white"/>
<path d="M268.59 9.56501C264.425 8.91101 260.217 8.56601 256 8.53301C251.769 8.52801 247.545 8.87001 243.371 9.55701C243.286 9.47201 243.2 9.47201 243.03 9.55701C201.403 15.943 170.668 51.753 170.668 93.866C170.668 135.979 201.404 171.79 243.03 178.175C243.201 178.26 243.286 178.26 243.371 178.175C247.546 178.862 251.77 179.204 256 179.199C260.216 179.166 264.424 178.821 268.59 178.167C226.982 171.765 196.267 135.963 196.267 93.865C196.267 51.767 226.981 15.967 268.59 9.56501Z" fill="white"/>
<path d="M80.896 306.176C81.067 306.261 81.152 306.261 81.237 306.176C85.412 306.863 89.636 307.205 93.866 307.2C98.082 307.167 102.29 306.822 106.456 306.168C64.848 299.766 34.133 263.964 34.133 221.866C34.133 179.768 64.848 143.966 106.456 137.564C102.291 136.91 98.083 136.565 93.866 136.532C89.635 136.527 85.411 136.869 81.237 137.556C81.152 137.471 81.066 137.471 80.896 137.556C39.269 143.942 8.534 179.752 8.534 221.865C8.534 263.978 39.269 299.79 80.896 306.176Z" fill="white"/>
<path d="M314.1 368.083C314.495 365.972 315.504 364.024 317 362.483C317.092 362.391 317.175 362.3 317.258 362.208C322.272 357.044 325.066 350.122 325.041 342.925V324.842C325.038 320.561 324.049 316.337 322.149 312.5L321.116 310.408C320.383 308.926 320 307.295 319.999 305.641V279.633C320.068 252.554 298.203 230.529 271.124 230.4H240.874C213.795 230.529 191.93 252.554 191.999 279.633V305.641C191.998 307.291 191.618 308.919 190.891 310.399L189.849 312.491C187.95 316.331 186.961 320.557 186.957 324.841V342.924C186.934 350.118 189.724 357.035 194.732 362.199C194.815 362.299 194.907 362.391 194.999 362.482C196.495 364.023 197.504 365.971 197.899 368.082C200.437 379.393 205.295 390.054 212.166 399.39V412.157L192.444 424.101C192.337 424.158 192.243 424.225 192.139 424.286L157.775 445.1C144.613 453.167 136.574 467.48 136.533 482.917V503.467C136.532 505.731 137.43 507.902 139.031 509.502C140.632 511.103 142.803 512.001 145.066 512H366.933C369.197 512.001 371.368 511.103 372.968 509.502C374.569 507.901 375.467 505.73 375.466 503.467V482.917C375.424 467.476 367.382 453.16 354.216 445.092L319.191 423.882L319.018 423.777L299.833 412.159V399.392C306.702 390.054 311.56 379.393 314.1 368.083ZM220.644 426.976L240.5 436.2L235.025 441.383C234.135 442.223 233.054 442.832 231.875 443.158C228.945 444.23 225.67 443.717 223.208 441.8L211.435 432.554L220.644 426.976ZM255.49 445.501L264.171 453.73L259.458 460.799H251.525L246.806 453.728L255.49 445.501ZM252.233 477.867H258.75L267.281 494.934H243.698L252.233 477.867ZM153.6 482.917C153.621 473.441 158.55 464.652 166.625 459.692L195.842 441.998L212.659 455.209C217.284 458.834 222.991 460.806 228.867 460.809C229.55 460.809 230.219 460.69 230.897 460.635L237.109 469.948L224.612 494.935H153.6V482.917ZM358.4 482.917V494.934H286.363L273.873 469.947L280.113 460.587C280.805 460.642 281.492 460.768 282.184 460.768C288.029 460.778 293.708 458.823 298.309 455.218L315.58 441.648L345.359 459.685C353.441 464.641 358.377 473.434 358.4 482.917ZM299.981 432.197L287.75 441.808C285.138 443.779 281.682 444.232 278.65 443C277.634 442.685 276.708 442.13 275.95 441.383L270.592 436.3L291.331 426.958L299.981 432.197ZM297.366 364.717C295.187 374.024 291.076 382.768 285.299 390.384C283.652 392.683 282.766 395.439 282.766 398.267V412.09L255.54 424.363L229.233 412.145V398.267C229.229 395.419 228.331 392.644 226.666 390.334C220.904 382.733 216.804 374.005 214.633 364.717C213.598 359.446 211.07 354.584 207.35 350.709C207.275 350.617 207.192 350.534 207.1 350.442C205.134 348.433 204.031 345.736 204.025 342.925V324.842C204.025 323.192 204.405 321.564 205.133 320.084L206.183 317.976C208.074 314.139 209.061 309.92 209.067 305.643V279.635C208.989 261.977 223.218 247.588 240.875 247.468H271.125C288.783 247.588 303.012 261.977 302.933 279.635V305.643C302.938 309.924 303.928 314.147 305.825 317.985L306.867 320.093C307.596 321.57 307.976 323.196 307.975 324.843V342.926C307.969 345.737 306.866 348.434 304.9 350.443L304.65 350.701C300.93 354.578 298.402 359.443 297.366 364.717Z" fill="#547B37"/>
<path d="M256 0C204.159 0 162.133 42.026 162.133 93.867C162.133 145.708 204.159 187.734 256 187.734C307.841 187.734 349.867 145.708 349.867 93.867C349.808 42.05 307.817 0.059 256 0ZM256 170.667C213.585 170.667 179.2 136.282 179.2 93.867C179.2 51.452 213.585 17.067 256 17.067C298.415 17.067 332.8 51.452 332.8 93.867C332.754 136.263 298.396 170.62 256 170.667Z" fill="#547B37"/>
<path d="M0 221.867C0 273.708 42.026 315.734 93.867 315.734C145.708 315.734 187.734 273.708 187.734 221.867C187.734 170.026 145.708 128 93.867 128C42.05 128.059 0.059 170.05 0 221.867ZM93.867 145.067C136.282 145.067 170.667 179.452 170.667 221.867C170.667 264.282 136.282 298.667 93.867 298.667C51.452 298.667 17.067 264.282 17.067 221.867C17.113 179.47 51.47 145.113 93.867 145.067Z" fill="#547B37"/>
<path d="M418.133 128C366.292 128 324.266 170.026 324.266 221.867C324.266 273.708 366.292 315.734 418.133 315.734C469.974 315.734 512 273.708 512 221.867C511.941 170.05 469.95 128.059 418.133 128ZM418.133 298.667C375.718 298.667 341.333 264.282 341.333 221.867C341.333 179.452 375.718 145.067 418.133 145.067C460.548 145.067 494.933 179.452 494.933 221.867C494.887 264.263 460.53 298.62 418.133 298.667Z" fill="#547B37"/>
<path d="M256 34.1331C223.01 34.1331 196.267 60.8771 196.267 93.8661C196.267 126.855 223.01 153.6 256 153.6C288.99 153.6 315.733 126.856 315.733 93.8671C315.693 60.8931 288.973 34.1731 256 34.1331ZM256 136.533C232.436 136.533 213.333 117.43 213.333 93.8661C213.333 70.3021 232.436 51.2001 256 51.2001C279.564 51.2001 298.667 70.3031 298.667 93.8671C298.639 117.419 279.553 136.506 256 136.533Z" fill="#547B37"/>
<path d="M256 68.267C241.862 68.267 230.4 79.729 230.4 93.867C230.4 108.005 241.862 119.467 256 119.467C270.139 119.467 281.6 108.005 281.6 93.867C281.585 79.735 270.132 68.282 256 68.267ZM256 102.4C251.287 102.4 247.467 98.579 247.467 93.867C247.467 89.154 251.288 85.334 256 85.334C260.713 85.334 264.533 89.155 264.533 93.867C264.53 98.578 260.712 102.397 256 102.4Z" fill="#547B37"/>
<path d="M93.867 247.467H76.8C72.087 247.467 68.267 251.288 68.267 256C68.267 260.713 72.088 264.533 76.8 264.533H85.333V273.066C85.333 277.779 89.154 281.599 93.866 281.599C98.579 281.599 102.399 277.779 102.399 273.066V262.96C114.152 258.828 121.207 246.819 119.096 234.541C116.985 222.263 106.323 213.301 93.865 213.332C89.152 213.332 85.332 209.511 85.332 204.799C85.332 200.086 89.153 196.266 93.865 196.266H110.932C115.645 196.266 119.465 192.445 119.465 187.733C119.465 183.02 115.644 179.2 110.932 179.2H102.4V170.667C102.4 165.954 98.579 162.134 93.867 162.134C89.154 162.134 85.334 165.955 85.334 170.667V180.773C73.581 184.905 66.526 196.914 68.637 209.191C70.748 221.469 81.41 230.431 93.868 230.4C98.581 230.4 102.401 234.221 102.401 238.933C102.4 243.646 98.579 247.467 93.867 247.467Z" fill="#547B37"/>
<path d="M468.758 193.415C468.687 193.214 468.66 193.003 468.574 192.81C468.55 192.758 468.55 192.701 468.525 192.65C468.129 191.827 467.601 191.073 466.963 190.419C466.788 190.235 466.583 190.1 466.392 189.932C464.843 188.567 462.864 187.789 460.8 187.733H443.733C439.232 187.734 435.506 191.23 435.218 195.721C434.93 200.212 438.178 204.156 442.642 204.733L418.484 233.716L399.359 208.216C397.665 206.042 395.057 204.78 392.301 204.799C389.531 204.876 386.971 206.293 385.434 208.599L368.367 234.199C366.645 236.735 366.416 240.001 367.767 242.753C369.118 245.505 371.842 247.321 374.901 247.509C377.961 247.698 380.887 246.231 382.566 243.666L392.941 228.099L411.308 252.582C412.872 254.672 415.307 255.931 417.917 255.999H418.134C420.666 255.996 423.067 254.874 424.692 252.932L453.825 217.973C455.342 220.366 457.966 221.831 460.8 221.866C463.064 221.867 465.235 220.969 466.835 219.368C468.436 217.767 469.334 215.596 469.333 213.333V196.266C469.333 196.11 469.253 195.981 469.244 195.827C469.203 195.004 469.039 194.191 468.758 193.415Z" fill="#547B37"/>
</svg>
