<svg width="512" height="512" viewBox="0 0 512 512" fill="none" xmlns="http://www.w3.org/2000/svg">
<path d="M503.467 110.933V460.8C503.453 465.507 499.641 469.32 494.934 469.333H469.334C474.041 469.319 477.854 465.507 477.867 460.8V110.933C477.853 106.226 474.041 102.413 469.334 102.4H494.934C499.641 102.414 503.453 106.226 503.467 110.933Z" fill="#97C570"/>
<path d="M477.867 110.933V460.8C477.853 465.507 474.041 469.32 469.334 469.333H304.214C297.029 489.8 277.692 503.49 256.001 503.466C251.684 503.453 247.385 502.908 243.201 501.845C226.708 497.601 213.422 485.404 207.788 469.333H17.0671C12.3601 469.319 8.54706 465.507 8.53406 460.8V110.933C8.54806 106.226 12.3601 102.413 17.0671 102.4H469.334C474.041 102.414 477.853 106.226 477.867 110.933Z" fill="#D5EABB"/>
<path d="M51.2001 349.867C46.4931 349.881 42.6801 353.693 42.6671 358.4V349.867H51.2001Z" fill="#D5EABB"/>
<path d="M469.333 59.733V358.4C469.319 353.693 465.507 349.88 460.8 349.867H443.733V59.733C443.719 55.026 439.907 51.213 435.2 51.2H460.8C465.507 51.214 469.32 55.026 469.333 59.733Z" fill="#97C570"/>
<path d="M443.733 59.733V349.866H307.2C278.932 349.888 256.022 372.798 256 401.066C256.053 388.608 251.493 376.571 243.2 367.274C233.506 356.21 219.51 349.865 204.8 349.866H42.6671V59.733C42.6811 55.026 46.4931 51.213 51.2001 51.2H435.2C439.907 51.214 443.72 55.026 443.733 59.733Z" fill="#D5EABB"/>
<path d="M256 401.067V435.2H51.2001C46.4931 435.186 42.6801 431.374 42.6671 426.667V358.4C42.6811 353.693 46.4931 349.88 51.2001 349.867H204.8C233.068 349.889 255.978 372.799 256 401.067Z" fill="#D5EABB"/>
<path d="M469.333 358.4V426.667C469.319 431.374 465.507 435.187 460.8 435.2H256V401.067C256.022 372.799 278.932 349.889 307.2 349.867H460.8C465.507 349.88 469.32 353.693 469.333 358.4Z" fill="#D5EABB"/>
<path d="M256 196.267C307.841 196.267 349.867 154.241 349.867 102.4C349.867 50.5587 307.841 8.53296 256 8.53296C204.159 8.53296 162.133 50.5587 162.133 102.4C162.133 154.241 204.159 196.267 256 196.267Z" fill="#97C570"/>
<path d="M243.2 196.267C287.972 196.267 324.267 154.241 324.267 102.4C324.267 50.5587 287.972 8.53296 243.2 8.53296C198.428 8.53296 162.133 50.5587 162.133 102.4C162.133 154.241 198.428 196.267 243.2 196.267Z" fill="#D5EABB"/>
<path d="M17.1029 102.4H42.7029C37.9959 102.414 34.1829 106.226 34.1699 110.933V460.8C34.1839 465.507 37.9959 469.32 42.7029 469.333H17.1029C12.3959 469.319 8.58295 465.507 8.56995 460.8V110.933C8.58295 106.226 12.3959 102.414 17.1029 102.4Z" fill="#D5EABB"/>
<path d="M17.067 110.933V221.867V460.8H0V221.867V110.933H17.067Z" fill="#D5EABB"/>
<path d="M8.533 187.733C10.792 187.699 12.955 186.815 14.592 185.258C17.892 181.893 17.892 176.506 14.592 173.141L13.313 172.116C12.837 171.792 12.32 171.533 11.775 171.345C11.291 171.099 10.772 170.928 10.237 170.836C9.674 170.74 9.104 170.683 8.533 170.665C6.274 170.696 4.11 171.58 2.47399 173.14C-0.748005 176.537 -0.748005 181.861 2.47399 185.257C3.28899 186.028 4.244 186.636 5.287 187.049C6.314 187.488 7.417 187.72 8.533 187.733Z" fill="#547B37"/>
<path d="M256 162.133C258.263 162.134 260.434 161.235 262.035 159.634C263.635 158.034 264.534 155.863 264.534 153.599V85.333C264.534 80.62 260.713 76.8 256.001 76.8C251.288 76.8 247.468 80.62 247.468 85.333V153.6C247.467 155.863 248.366 158.034 249.967 159.635C251.566 161.235 253.737 162.134 256 162.133Z" fill="#547B37"/>
<path d="M494.933 93.867H477.866V59.733C477.855 50.312 470.221 42.677 460.799 42.666H339.002C319.837 15.888 288.93 0 256 0C223.07 0 192.163 15.888 172.998 42.667H51.2C41.779 42.678 34.144 50.312 34.133 59.734V93.867H17.067C7.645 93.877 0.011 101.512 0 110.933V145.066C0 149.779 3.821 153.599 8.533 153.599C13.245 153.599 17.066 149.778 17.066 145.066V110.933H34.133V426.666C34.144 436.087 41.778 443.722 51.2 443.733H460.8C470.221 443.722 477.856 436.088 477.867 426.666V110.933H494.934V460.8H304.217C304.123 460.8 304.046 460.85 303.952 460.853C303.348 460.907 302.751 461.027 302.173 461.212C301.165 461.302 300.216 461.728 299.48 462.423C298.522 462.888 297.749 463.664 297.288 464.624C296.892 465.14 296.559 465.702 296.295 466.297C296.262 466.384 296.189 466.441 296.157 466.529C290.144 483.551 274.052 494.933 255.999 494.933C237.946 494.933 221.854 483.551 215.841 466.529C215.81 466.44 215.737 466.384 215.703 466.297C215.444 465.717 215.12 465.168 214.736 464.662C214.296 463.723 213.552 462.959 212.625 462.495C212.209 462.152 211.76 461.85 211.286 461.593C210.84 461.434 210.381 461.313 209.915 461.231C209.307 461.032 208.678 460.905 208.04 460.852C207.948 460.849 207.873 460.8 207.782 460.8H17.067V213.333C17.067 208.62 13.246 204.8 8.534 204.8C3.822 204.8 0 208.621 0 213.333V460.8C0.011 470.221 7.645 477.856 17.067 477.867H202.242C212.033 498.7 232.98 512 256 512C279.02 512 299.967 498.7 309.758 477.867H494.933C504.354 477.856 511.989 470.222 512 460.8V110.933C511.989 101.512 504.355 93.877 494.933 93.867ZM460.8 59.733V341.333H307.2C291.13 341.331 275.742 347.827 264.533 359.343V204.368C297.798 201.675 327.648 182.895 344.474 154.073C361.3 125.251 362.978 90.024 348.967 59.733H460.8V59.733ZM256 17.067C303.128 17.067 341.333 55.272 341.333 102.4C341.333 149.528 303.128 187.733 256 187.733C208.872 187.733 170.667 149.528 170.667 102.4C170.721 55.294 208.894 17.121 256 17.067ZM51.2 59.733H163.032C149.022 90.024 150.699 125.25 167.525 154.073C184.351 182.896 214.201 201.675 247.466 204.368V359.343C236.258 347.827 220.869 341.331 204.799 341.333H51.2V59.733ZM51.2 401.067H204.8C209.513 401.067 213.333 397.247 213.333 392.534C213.333 387.821 209.513 384 204.8 384H51.2V358.4H204.8C228.353 358.428 247.439 377.514 247.467 401.067V426.667H51.2V401.067ZM264.533 426.667V401.067C264.561 377.514 283.647 358.428 307.2 358.4H460.8V384H307.2C302.487 384 298.667 387.82 298.667 392.533C298.667 397.246 302.487 401.066 307.2 401.066H460.8V426.666H264.533V426.667Z" fill="#547B37"/>
<path d="M341.333 204.8C341.332 207.063 342.231 209.234 343.832 210.835C345.432 212.435 347.603 213.334 349.867 213.334H435.2C439.913 213.334 443.733 209.513 443.733 204.801C443.733 200.089 439.912 196.268 435.2 196.268H349.867C347.604 196.267 345.433 197.166 343.832 198.767C342.232 200.366 341.333 202.537 341.333 204.8Z" fill="#547B37"/>
<path d="M435.2 238.933H315.733C311.02 238.933 307.2 242.754 307.2 247.466C307.2 252.178 311.021 255.999 315.733 255.999H435.2C439.913 255.999 443.733 252.179 443.733 247.466C443.733 242.753 439.913 238.933 435.2 238.933Z" fill="#547B37"/>
<path d="M435.2 281.6H315.733C311.02 281.6 307.2 285.421 307.2 290.133C307.2 294.846 311.021 298.666 315.733 298.666H435.2C439.913 298.666 443.733 294.845 443.733 290.133C443.733 285.421 439.913 281.6 435.2 281.6Z" fill="#547B37"/>
<path d="M76.8 213.333H162.133C166.846 213.333 170.666 209.512 170.666 204.8C170.666 200.088 166.845 196.267 162.133 196.267H76.8C72.087 196.267 68.267 200.087 68.267 204.8C68.267 209.513 72.087 213.333 76.8 213.333Z" fill="#547B37"/>
<path d="M76.8 256H196.267C200.98 256 204.8 252.18 204.8 247.467C204.8 242.754 200.979 238.934 196.267 238.934H76.8C72.087 238.934 68.267 242.755 68.267 247.467C68.267 252.179 72.087 256 76.8 256Z" fill="#547B37"/>
<path d="M76.8 298.667H196.267C200.98 298.667 204.8 294.846 204.8 290.134C204.8 285.421 200.979 281.601 196.267 281.601H76.8C72.087 281.601 68.267 285.422 68.267 290.134C68.267 294.846 72.087 298.667 76.8 298.667Z" fill="#547B37"/>
<path d="M256 59.7331C258.263 59.7341 260.434 58.8351 262.035 57.2341C263.635 55.6341 264.534 53.4631 264.534 51.1991V42.6661C264.534 37.9531 260.713 34.1331 256.001 34.1331C251.288 34.1331 247.468 37.9541 247.468 42.6661V51.2001C247.467 53.4631 248.366 55.6341 249.967 57.2351C251.566 58.8351 253.737 59.7341 256 59.7331Z" fill="#547B37"/>
</svg>
