<svg width="513" height="513" viewBox="0 0 513 513" fill="none" xmlns="http://www.w3.org/2000/svg">
<path d="M162.242 426.722C162.242 469.137 127.857 503.522 85.442 503.522C81.155 503.527 76.874 503.185 72.642 502.498C35.685 496.225 8.644 464.208 8.644 426.722C8.644 389.236 35.685 357.219 72.642 350.946C76.874 350.259 81.155 349.917 85.442 349.922C127.857 349.922 162.242 384.306 162.242 426.722Z" fill="#AAD576"/>
<path d="M72.642 502.498C107.988 502.498 136.642 468.572 136.642 426.722C136.642 384.872 107.988 350.946 72.642 350.946C37.2958 350.946 8.642 384.872 8.642 426.722C8.642 468.572 37.2958 502.498 72.642 502.498Z" fill="#D5EABB"/>
<path d="M349.975 409.655C349.989 434.554 340.103 458.437 322.497 476.044C304.891 493.65 281.007 503.536 256.108 503.522C251.823 503.555 247.542 503.241 243.308 502.583C196.866 496.212 162.258 456.532 162.258 409.655C162.258 362.778 196.866 323.098 243.308 316.727C247.542 316.069 251.823 315.755 256.108 315.788C281.007 315.774 304.89 325.66 322.497 343.266C340.104 360.873 349.989 384.756 349.975 409.655Z" fill="#AAD576"/>
<path d="M243.309 502.583C288.081 502.583 324.376 460.978 324.376 409.655C324.376 358.332 288.081 316.727 243.309 316.727C198.537 316.727 162.242 358.332 162.242 409.655C162.242 460.978 198.537 502.583 243.309 502.583Z" fill="#D5EABB"/>
<path d="M503.575 426.722C503.592 452.369 490.781 476.325 469.442 490.551C464.366 494.014 458.857 496.797 453.058 498.828C447.34 500.961 441.377 502.365 435.309 503.009C429.641 503.692 423.911 503.692 418.242 503.009C416.791 502.838 415.426 502.668 413.975 502.412C409.377 501.65 404.862 500.45 400.492 498.828C394.693 496.796 389.184 494.014 384.108 490.551C357.928 473.074 345.063 441.391 351.648 410.609C358.233 379.828 382.935 356.181 413.975 350.945C418.207 350.258 422.488 349.916 426.775 349.921C469.191 349.922 503.575 384.306 503.575 426.722Z" fill="#AAD576"/>
<path d="M477.975 426.722C477.992 452.369 465.181 476.325 443.842 490.551C438.766 494.014 433.257 496.797 427.458 498.828C423.088 500.45 418.574 501.65 413.975 502.412C409.377 501.65 404.862 500.45 400.492 498.828C394.693 496.796 389.184 494.014 384.108 490.551C357.928 473.074 345.063 441.391 351.648 410.609C358.233 379.828 382.935 356.181 413.975 350.945C450.931 357.221 477.972 389.237 477.975 426.722Z" fill="#D5EABB"/>
<path d="M354.669 173.026C352.537 180.71 349.471 188.104 345.538 195.042L364.141 228.578C360.625 233.206 356.775 237.569 352.621 241.634C348.556 245.788 344.193 249.638 339.565 253.154L324.034 244.535L306.114 234.551C301.641 237.082 296.959 239.223 292.119 240.951C289.475 242.027 286.768 242.938 284.012 243.682L273.516 280.546C267.745 281.303 261.929 281.674 256.108 281.655C251.831 281.688 247.557 281.46 243.308 280.972C241.772 280.887 240.236 280.716 238.7 280.545L228.204 243.681C220.52 241.549 213.126 238.483 206.188 234.55L194.583 241.035L172.652 253.152C169.121 250.489 165.758 247.611 162.583 244.533C161.559 243.594 160.535 242.656 159.596 241.632C155.442 237.567 151.592 233.204 148.076 228.576L166.679 195.125C162.761 188.15 159.695 180.73 157.548 173.024L120.684 162.528C119.205 150.97 119.205 139.27 120.684 127.712L157.548 117.216C159.68 109.532 162.746 102.138 166.679 95.2L148.076 61.664C151.592 57.036 155.442 52.673 159.596 48.608C160.535 47.584 161.559 46.645 162.583 45.707C165.759 42.629 169.122 39.751 172.652 37.088L194.497 49.291L206.102 55.691C213.077 51.773 220.497 48.707 228.203 46.56L238.699 9.69596C240.235 9.52496 241.771 9.35496 243.307 9.26896C247.556 8.78196 251.83 8.55396 256.107 8.58596C261.928 8.56696 267.744 8.93796 273.515 9.69496L284.011 46.559C286.742 47.327 289.387 48.18 292.032 49.204C296.873 50.964 301.554 53.134 306.027 55.689L324.032 45.705L339.563 37.086C344.191 40.602 348.554 44.452 352.619 48.606C356.773 52.671 360.623 57.034 364.139 61.662L345.536 95.113C349.454 102.088 352.52 109.508 354.667 117.214L391.531 127.71C393.01 139.268 393.01 150.968 391.531 162.526L354.669 173.026Z" fill="#AAD576"/>
<path d="M329.069 173.026C326.937 180.71 323.871 188.104 319.938 195.042L338.541 228.578C335.025 233.206 331.175 237.569 327.021 241.634C326.082 242.658 325.058 243.597 324.034 244.535L306.114 234.551C301.641 237.082 296.959 239.223 292.119 240.951L280.514 234.551C273.539 238.469 266.119 241.535 258.413 243.682L247.917 280.546C246.381 280.717 244.845 280.887 243.309 280.973C241.773 280.888 240.237 280.717 238.701 280.546L228.205 243.682C220.521 241.55 213.127 238.484 206.189 234.551L194.584 241.036C189.743 239.276 185.062 237.106 180.589 234.551L162.584 244.535C161.56 243.596 160.536 242.658 159.597 241.634C155.443 237.569 151.593 233.206 148.077 228.578L166.68 195.127C162.762 188.152 159.696 180.732 157.549 173.026L120.685 162.53C119.206 150.972 119.206 139.272 120.685 127.714L157.549 117.218C159.681 109.534 162.747 102.14 166.68 95.202L148.077 61.666C151.593 57.038 155.443 52.675 159.597 48.61C160.536 47.586 161.56 46.647 162.584 45.709L180.504 55.693C184.977 53.162 189.659 51.021 194.499 49.293L206.104 55.693C213.079 51.775 220.499 48.709 228.205 46.562L238.701 9.698C240.237 9.527 241.773 9.357 243.309 9.271C244.845 9.356 246.381 9.527 247.917 9.698L258.413 46.562C266.097 48.694 273.491 51.76 280.429 55.693L292.034 49.208C296.875 50.968 301.556 53.138 306.029 55.693L324.034 45.709C325.058 46.648 326.082 47.586 327.021 48.61C331.175 52.675 335.025 57.038 338.541 61.666L319.938 95.117C323.856 102.092 326.922 109.512 329.069 117.218L365.933 127.714C367.412 139.272 367.412 150.972 365.933 162.53L329.069 173.026Z" fill="#D5EABB"/>
<path d="M256.109 204.855C227.612 204.853 203.085 184.721 197.527 156.771C191.969 128.821 206.929 100.837 233.258 89.934C259.587 79.03 289.951 88.243 305.782 111.939C321.613 135.634 318.501 167.213 298.349 187.362C287.17 198.6 271.96 204.9 256.109 204.855Z" fill="#D5EABB"/>
<path d="M256.109 170.722C243.895 170.716 233.386 162.083 231.01 150.103C228.634 138.122 235.052 126.132 246.339 121.465C257.626 116.798 270.638 120.755 277.417 130.915C284.195 141.075 282.852 154.609 274.209 163.239C269.437 168.08 262.906 170.78 256.109 170.722Z" fill="#D5EABB"/>
<path d="M159.597 241.634C160.536 242.658 161.56 243.597 162.584 244.535C165.76 247.613 169.123 250.491 172.653 253.154L188.209 244.561C187.185 243.622 186.161 242.684 185.222 241.66C181.068 237.595 177.218 233.232 173.702 228.604L192.305 195.153C188.387 188.178 185.321 180.758 183.174 173.052L146.31 162.556C144.831 150.998 144.831 139.298 146.31 127.74L183.174 117.244C185.306 109.56 188.372 102.166 192.305 95.228L173.677 61.666C177.193 57.038 181.043 52.675 185.197 48.61C186.127 47.595 187.134 46.673 188.15 45.743L172.653 37.09C169.122 39.753 165.759 42.631 162.584 45.709C161.56 46.648 160.536 47.586 159.597 48.61C155.443 52.675 151.593 57.038 148.077 61.666L166.68 95.202C162.747 102.14 159.681 109.534 157.549 117.218L120.685 127.714C119.206 139.272 119.206 150.972 120.685 162.53L157.549 173.026C159.696 180.732 162.762 188.153 166.68 195.127L148.077 228.578C151.592 233.205 155.443 237.569 159.597 241.634Z" fill="white"/>
<path d="M72.642 502.498C76.874 503.185 81.155 503.527 85.442 503.522C89.615 503.494 93.779 503.126 97.892 502.421C61.012 496.109 34.049 464.138 34.049 426.722C34.049 389.306 61.013 357.335 97.892 351.023C93.779 350.318 89.615 349.95 85.442 349.922C81.155 349.917 76.874 350.259 72.642 350.946C35.685 357.219 8.644 389.236 8.644 426.722C8.644 464.208 35.685 496.225 72.642 502.498Z" fill="white"/>
<path d="M243.309 9.27092C241.773 9.35592 240.237 9.52692 238.701 9.69792L228.205 46.5619C225.474 47.3209 222.82 48.3369 220.167 49.3269L231.704 55.6929C238.679 51.7749 246.099 48.7089 253.805 46.5619L264.301 9.69792C265.837 9.52692 267.373 9.35692 268.909 9.27092H269.028C264.761 8.85292 260.469 8.58792 256.109 8.58792C251.832 8.55592 247.557 8.78392 243.309 9.27092Z" fill="white"/>
<path d="M93.975 204.855V315.788V349.922H76.909V315.788V204.855H93.975Z" fill="white"/>
<path d="M93.975 204.855H119.575C124.288 204.855 128.108 201.034 128.108 196.322C128.108 191.61 124.287 187.789 119.575 187.789H93.975C84.549 187.789 76.908 195.43 76.908 204.856V238.989C76.908 243.702 80.729 247.522 85.441 247.522C90.154 247.522 93.974 243.702 93.974 238.989V204.855H93.975Z" fill="#547B37"/>
<path d="M88.685 265.271C88.201 265.025 87.684 264.852 87.149 264.759C86.585 264.664 86.014 264.607 85.442 264.588C83.183 264.621 81.02 265.505 79.383 267.063C78.612 267.879 78.003 268.835 77.591 269.879C76.304 273.062 77.005 276.704 79.383 279.18C80.199 279.951 81.155 280.56 82.199 280.972C83.225 281.409 84.327 281.641 85.442 281.655C88.909 281.675 92.043 279.596 93.373 276.394C94.702 273.192 93.963 269.504 91.501 267.063L90.221 266.039C89.745 265.716 89.228 265.458 88.685 265.271Z" fill="#547B37"/>
<path d="M82.029 406.813H102.509C107.222 406.813 111.042 402.993 111.042 398.28C111.042 393.567 107.221 389.747 102.509 389.747H97.389V384.055C97.389 379.342 93.569 375.522 88.856 375.522C84.143 375.522 80.323 379.343 80.323 384.055V389.926C68.379 391.12 59.424 401.398 59.875 413.393C60.327 425.388 70.029 434.963 82.029 435.256H88.856C91.772 435.555 93.99 438.012 93.99 440.943C93.99 443.874 91.773 446.331 88.856 446.63H68.376C63.663 446.63 59.843 450.451 59.843 455.163C59.843 459.876 63.663 463.696 68.376 463.696H80.323V469.388C80.323 474.101 84.144 477.921 88.856 477.921C93.569 477.921 97.389 474.1 97.389 469.388V461.938C105.721 458.291 111.087 450.041 111.042 440.946C111.184 428.541 101.26 418.361 88.855 418.188H82.028C79.112 417.889 76.894 415.432 76.894 412.501C76.894 409.57 79.112 407.113 82.029 406.813Z" fill="#547B37"/>
<path d="M281.709 401.122H264.642V366.989C264.642 362.276 260.822 358.456 256.109 358.456C251.396 358.456 247.576 362.276 247.576 366.989V409.656C247.576 414.369 251.397 418.189 256.109 418.189H281.709C286.422 418.189 290.242 414.368 290.242 409.656C290.242 404.942 286.421 401.122 281.709 401.122Z" fill="#547B37"/>
<path d="M304.382 193.386C327.407 170.354 330.957 134.264 312.859 107.187C294.762 80.11 260.058 69.588 229.97 82.055C199.882 94.522 182.792 126.506 189.149 158.447C195.506 190.388 223.541 213.391 256.109 213.389C274.226 213.44 291.61 206.237 304.382 193.386ZM204.909 145.122C204.908 120.696 222.161 99.671 246.117 94.904C270.073 90.137 294.06 102.956 303.41 125.521C312.76 148.086 304.867 174.114 284.56 187.687C264.252 201.26 237.185 198.598 219.911 181.329C210.273 171.749 204.87 158.71 204.909 145.122Z" fill="#547B37"/>
<path d="M280.258 169.245C291.766 157.726 293.535 139.682 284.484 126.147C275.433 112.612 258.082 107.354 243.041 113.589C228 119.824 219.456 135.814 222.634 151.783C225.812 167.752 239.827 179.253 256.11 179.254C265.183 179.333 273.9 175.72 280.258 169.245ZM239.042 145.122C239.044 137.399 244.232 130.64 251.692 128.642C259.152 126.643 267.024 129.903 270.887 136.59C274.75 143.277 273.642 151.725 268.184 157.189C261.499 163.81 250.728 163.81 244.043 157.189C240.789 154.023 238.981 149.66 239.042 145.122Z" fill="#547B37"/>
<path d="M435.309 341.824V204.855C435.309 195.429 427.668 187.788 418.242 187.788H392.642C387.929 187.788 384.109 191.608 384.109 196.321C384.109 201.034 387.929 204.854 392.642 204.854H418.242V341.823C391.991 344.504 368.458 359.179 354.498 381.571C342.773 340.688 307.02 311.292 264.642 307.689V289.923C268.055 289.727 271.469 289.437 274.652 289.001C278.011 288.544 280.781 286.143 281.709 282.883L290.925 250.499C296.102 248.797 301.145 246.712 306.012 244.261L335.401 260.611C338.361 262.256 342.015 261.995 344.711 259.945C349.624 256.217 354.255 252.132 358.569 247.725C363.023 243.373 367.15 238.698 370.917 233.739C372.966 231.046 373.23 227.398 371.591 224.438L355.267 194.972C357.716 190.13 359.796 185.109 361.488 179.953L393.915 170.737C397.18 169.806 399.583 167.028 400.033 163.663C401.614 151.352 401.614 138.888 400.033 126.577C399.57 123.207 397.149 120.434 393.872 119.52L361.445 110.304C359.743 105.127 357.658 100.084 355.207 95.217L371.557 65.828C373.202 62.868 372.941 59.214 370.891 56.518C367.163 51.606 363.078 46.974 358.671 42.66C354.319 38.206 349.644 34.079 344.685 30.312C341.992 28.263 338.344 27.999 335.384 29.638L305.96 45.964C301.118 43.515 296.097 41.435 290.941 39.743L281.709 7.35995C280.778 4.09495 278 1.69195 274.635 1.24195C262.323 -0.328047 249.861 -0.328047 237.549 1.24195C234.197 1.70495 231.435 4.10495 230.509 7.35995L221.293 39.787C216.116 41.489 211.073 43.574 206.206 46.025L176.8 29.632C173.84 27.987 170.186 28.248 167.49 30.298C162.578 34.026 157.946 38.111 153.632 42.518C149.178 46.87 145.051 51.545 141.284 56.504C139.235 59.197 138.971 62.845 140.61 65.805L156.951 95.271C154.502 100.113 152.422 105.134 150.73 110.29L118.346 119.523C115.081 120.454 112.678 123.232 112.228 126.597C110.647 138.908 110.647 151.371 112.228 163.683C112.679 167.048 115.081 169.826 118.346 170.757L150.773 179.973C152.475 185.15 154.56 190.193 157.011 195.06L140.661 224.449C139.016 227.409 139.277 231.063 141.327 233.759C145.055 238.671 149.14 243.303 153.547 247.617C157.899 252.071 162.574 256.198 167.533 259.965C170.226 262.014 173.874 262.278 176.834 260.639L206.3 244.298C211.142 246.747 216.163 248.827 221.319 250.519L230.509 282.886C231.44 286.151 234.218 288.554 237.583 289.004C240.809 289.439 244.171 289.729 247.593 289.926V307.692C205.215 311.294 169.462 340.691 157.737 381.574C143.774 359.177 120.233 344.502 93.976 341.826V307.257C93.976 302.544 90.155 298.724 85.443 298.724C80.73 298.724 76.91 302.544 76.91 307.257V341.826C34.991 345.986 2.37901 380.112 0.125006 422.176C-2.12899 464.24 26.649 501.656 67.884 510.272C109.118 518.887 150.47 496.124 165.247 456.676C182.777 490.705 217.848 512.09 256.127 512.09C294.406 512.09 329.477 490.705 347.007 456.676C354.634 476.865 369.601 493.432 388.914 503.063C389.155 503.196 389.402 503.316 389.656 503.421C413.087 514.936 440.533 514.936 463.964 503.421C464.218 503.315 464.466 503.196 464.706 503.063C498.795 486.195 517.585 448.784 510.763 411.367C503.941 373.948 473.157 345.576 435.309 341.824ZM236.414 241.344C235.601 238.483 233.357 236.253 230.492 235.456C223.484 233.514 216.741 230.72 210.413 227.136C207.822 225.674 204.659 225.654 202.05 227.085L173.515 242.923C170.79 240.619 168.142 238.156 165.57 235.533C163.01 233.05 160.604 230.413 158.317 227.725L174.138 199.283C175.585 196.695 175.585 193.542 174.138 190.954C170.549 184.57 167.741 177.777 165.775 170.721C164.978 167.856 162.748 165.612 159.887 164.799L128.544 155.882C128.254 152.435 128.109 148.868 128.109 145.121C128.109 141.374 128.254 137.808 128.544 134.343L159.887 125.426C162.748 124.613 164.978 122.369 165.775 119.504C167.717 112.496 170.511 105.753 174.095 99.425C175.57 96.837 175.59 93.668 174.146 91.062L158.308 62.527C160.612 59.802 163.075 57.154 165.698 54.582C168.181 52.022 170.818 49.616 173.506 47.329L201.948 63.15C204.536 64.597 207.689 64.597 210.277 63.15C216.661 59.561 223.454 56.753 230.51 54.787C233.375 53.99 235.619 51.76 236.432 48.899L245.349 17.556C252.522 16.967 259.731 16.967 266.904 17.556L275.821 48.899C276.634 51.76 278.878 53.99 281.743 54.787C288.751 56.729 295.494 59.523 301.822 63.107C304.41 64.582 307.579 64.602 310.185 63.158L338.72 47.32C341.439 49.624 344.087 52.087 346.665 54.71C349.225 57.193 351.631 59.83 353.918 62.518L338.097 90.96C336.65 93.548 336.65 96.701 338.097 99.289C341.68 105.674 344.482 112.467 346.443 119.522C347.24 122.387 349.47 124.631 352.331 125.444L383.674 134.361C383.964 137.826 384.109 141.392 384.109 145.139C384.109 148.885 383.964 152.452 383.674 155.917L352.331 164.834C349.47 165.647 347.24 167.891 346.443 170.756C344.501 177.764 341.707 184.507 338.123 190.835C336.648 193.423 336.628 196.592 338.072 199.198L353.91 227.733C351.634 230.458 349.171 233.106 346.52 235.678C344.037 238.238 341.4 240.644 338.712 242.931L310.27 227.11C307.682 225.663 304.529 225.663 301.941 227.11C295.556 230.693 288.763 233.495 281.708 235.456C278.843 236.253 276.599 238.483 275.786 241.344L266.869 272.687C263.43 272.977 259.778 273.122 256.108 273.122C252.456 273.122 248.803 272.977 245.347 272.687L236.414 241.344ZM85.442 494.988C47.739 494.988 17.175 464.424 17.175 426.721C17.175 389.018 47.739 358.454 85.442 358.454C123.145 358.454 153.709 389.018 153.709 426.721C153.666 464.407 123.127 494.946 85.442 494.988ZM256.109 494.988C208.981 494.988 170.776 456.783 170.776 409.655C170.776 362.527 208.981 324.322 256.109 324.322C303.237 324.322 341.442 362.527 341.442 409.655C341.39 456.762 303.215 494.937 256.109 494.988ZM469.442 479.927V435.255C469.442 430.542 465.621 426.722 460.909 426.722C456.196 426.722 452.376 430.543 452.376 435.255V489.962C446.904 492.176 441.167 493.668 435.309 494.399V435.254C435.309 430.541 431.488 426.721 426.776 426.721C422.064 426.721 418.243 430.542 418.243 435.254V494.4C412.386 493.668 406.648 492.177 401.176 489.963V460.856C401.176 456.143 397.356 452.323 392.643 452.323C387.93 452.323 384.11 456.143 384.11 460.856V479.928C361.482 461.811 352.762 431.379 362.363 404.028C371.963 376.677 397.79 358.371 426.777 358.371C455.764 358.371 481.591 376.677 491.191 404.028C500.789 431.378 492.07 461.81 469.442 479.927Z" fill="#547B37"/>
<path d="M454.876 386.555L443.842 397.589L432.808 386.555C429.476 383.224 424.074 383.224 420.742 386.555L386.609 420.688C384.391 422.831 383.501 426.003 384.282 428.987C385.063 431.97 387.393 434.301 390.376 435.081C393.359 435.862 396.532 434.972 398.675 432.754L426.775 404.654L437.809 415.688C441.141 419.019 446.543 419.019 449.875 415.688L466.942 398.621C470.176 395.273 470.13 389.95 466.838 386.659C463.546 383.368 458.224 383.321 454.876 386.555Z" fill="#547B37"/>
</svg>
