<svg width="512" height="512" viewBox="0 0 512 512" fill="none" xmlns="http://www.w3.org/2000/svg">
<path d="M256 512C397.385 512 512 397.385 512 256C512 114.615 397.385 0 256 0C114.615 0 0 114.615 0 256C0 397.385 114.615 512 256 512Z" fill="url(#paint0_linear)"/>
<path d="M398.118 318.192H113.882C108.972 318.192 105 322.166 105 327.077C105 351.57 124.925 371.5 149.412 371.5H362.589C387.076 371.5 407.001 351.57 407.001 327.077C407 322.166 403.027 318.192 398.118 318.192ZM149.412 158.269H193.824V202.692C193.824 206.518 196.27 209.911 199.896 211.117L253.19 228.886C255.017 229.495 256.962 229.502 258.811 228.886L312.105 211.117C315.731 209.911 318.177 206.518 318.177 202.692V158.269H362.589C367.499 158.269 371.471 154.295 371.471 149.385C371.471 144.474 367.498 140.5 362.589 140.5C340.634 140.5 171.253 140.5 149.412 140.5C144.502 140.5 140.53 144.474 140.53 149.385C140.529 154.295 144.502 158.269 149.412 158.269V158.269ZM389.235 202.692C389.235 187.994 377.282 176.038 362.588 176.038H335.941V202.692C335.941 214.188 328.611 224.348 317.708 227.975L264.431 245.745C258.952 247.572 253.056 247.575 247.568 245.745L194.274 227.975C183.388 224.349 176.058 214.188 176.058 202.692V176.038H149.411C134.717 176.038 122.764 187.994 122.764 202.692V300.422H389.235V202.692ZM309.294 282.654H202.706C197.796 282.654 193.824 278.68 193.824 273.769C193.824 268.858 197.797 264.885 202.706 264.885H309.294C314.204 264.885 318.176 268.859 318.176 273.769C318.176 278.68 314.204 282.654 309.294 282.654Z" fill="url(#paint1_linear)"/>
<defs>
<linearGradient id="paint0_linear" x1="256" y1="512" x2="256" y2="0" gradientUnits="userSpaceOnUse">
<stop stop-color="#97C570"/>
<stop offset="1" stop-color="#B4CE9E"/>
</linearGradient>
<linearGradient id="paint1_linear" x1="256" y1="371.5" x2="256" y2="140.5" gradientUnits="userSpaceOnUse">
<stop stop-color="#143601"/>
<stop offset="1" stop-color="#2C4B19"/>
</linearGradient>
</defs>
</svg>
