<svg width="54" height="54" viewBox="0 0 54 54" fill="none" xmlns="http://www.w3.org/2000/svg">
<path d="M27 0.75C12.5039 0.75 0.75 12.5039 0.75 27C0.75 41.4961 12.5039 53.25 27 53.25C41.4961 53.25 53.25 41.4961 53.25 27C53.25 12.5039 41.4961 0.75 27 0.75ZM39.6152 20.5371C39.6328 20.8125 39.6328 21.0996 39.6328 21.3809C39.6328 29.9824 33.082 39.8906 21.1113 39.8906C17.4199 39.8906 13.998 38.8184 11.1152 36.9727C11.6426 37.0312 12.1465 37.0547 12.6855 37.0547C15.7324 37.0547 18.5332 36.0234 20.7656 34.2773C17.9062 34.2188 15.5039 32.3438 14.6836 29.7656C15.6855 29.9121 16.5879 29.9121 17.6191 29.6484C16.1468 29.3493 14.8235 28.5497 13.8739 27.3854C12.9244 26.2212 12.4071 24.7641 12.4102 23.2617V23.1797C13.2715 23.666 14.2852 23.9648 15.3457 24.0059C14.4542 23.4117 13.723 22.6067 13.2171 21.6623C12.7111 20.7179 12.446 19.6632 12.4453 18.5918C12.4453 17.3789 12.7617 16.2715 13.3301 15.3105C14.9643 17.3223 17.0035 18.9676 19.3152 20.1396C21.6269 21.3117 24.1594 21.9841 26.748 22.1133C25.8281 17.6895 29.1328 14.1094 33.1055 14.1094C34.9805 14.1094 36.668 14.8945 37.8574 16.1602C39.3281 15.8848 40.7344 15.334 41.9883 14.5957C41.502 16.1016 40.4824 17.373 39.1289 18.1758C40.4414 18.0352 41.707 17.6719 42.8789 17.1621C41.9941 18.4629 40.8867 19.6172 39.6152 20.5371Z" fill="#AAD576"/>
</svg>
