<?xml version="1.0" encoding="UTF-8"?>
<!DOCTYPE svg PUBLIC "-//W3C//DTD SVG 1.1//EN" "http://www.w3.org/Graphics/SVG/1.1/DTD/svg11.dtd">
<!-- Creator: CorelDRAW 2019 (64-Bit Evaluation Version) -->
<svg xmlns="http://www.w3.org/2000/svg" xml:space="preserve" width="1629px" height="1322px" version="1.1" style="shape-rendering:geometricPrecision; text-rendering:geometricPrecision; image-rendering:optimizeQuality; fill-rule:evenodd; clip-rule:evenodd"
viewBox="0 0 6009.54 4878.18"
 xmlns:xlink="http://www.w3.org/1999/xlink">
 <defs>
  <style type="text/css">
   <![CDATA[
    .fil27 {fill:#97C570}
    .fil2 {fill:#FEFEFE;fill-rule:nonzero}
    .fil5 {fill:#FFE67D;fill-rule:nonzero}
    .fil16 {fill:#FFD15C;fill-rule:nonzero}
    .fil4 {fill:#FFD044;fill-rule:nonzero}
    .fil11 {fill:#F7983B;fill-rule:nonzero}
    .fil14 {fill:#F37F7F;fill-rule:nonzero}
    .fil3 {fill:#F06FA9;fill-rule:nonzero}
    .fil15 {fill:#F05D5C;fill-rule:nonzero}
    .fil1 {fill:#EE4888;fill-rule:nonzero}
    .fil13 {fill:#F3E284;fill-rule:nonzero}
    .fil22 {fill:#BEC9E6;fill-rule:nonzero}
    .fil26 {fill:#A0B3DC;fill-rule:nonzero}
    .fil21 {fill:#9999CB;fill-rule:nonzero}
    .fil7 {fill:#8A99C4;fill-rule:nonzero}
    .fil20 {fill:#5F6BB0;fill-rule:nonzero}
    .fil19 {fill:#282829;fill-rule:nonzero}
    .fil18 {fill:#282829;fill-rule:nonzero}
    .fil8 {fill:#333E64;fill-rule:nonzero}
    .fil6 {fill:#333E64;fill-rule:nonzero}
    .fil17 {fill:#143601;fill-rule:nonzero}
    .fil23 {fill:#73430B;fill-rule:nonzero}
    .fil10 {fill:#73430B;fill-rule:nonzero}
    .fil9 {fill:#955C19;fill-rule:nonzero}
    .fil12 {fill:#97C570;fill-rule:nonzero}
    .fil0 {fill:#97C570;fill-rule:nonzero}
    .fil25 {fill:#AAD576;fill-rule:nonzero}
    .fil24 {fill:#AB6A20;fill-rule:nonzero}
   ]]>
  </style>
   <clipPath id="id0">
    <path d="M4971.18 2357.85l0.27 0c5.49,0.03 11.31,1.19 17.14,3.62 20.93,8.74 27.37,42.8 44.27,55.1 -8.76,12.4 -22.97,20.42 -38.85,20.72 -0.03,0 -0.07,0 -0.1,0 -0.04,0 -0.07,0 -0.1,0l-0.11 0.03 -0.68 0 -6.3 0c-27.06,0 -48.97,-21.93 -48.97,-49.01 0,-17.89 14.93,-30.46 33.43,-30.46z"/>
   </clipPath>
   <clipPath id="id1">
    <path d="M5467.13 2437.32l-6.31 0c-27.05,0 -49,-21.93 -49,-49.01 0,-17.89 14.92,-30.46 33.46,-30.46 5.6,0 11.52,1.12 17.45,3.62 20.86,8.74 27.33,42.8 44.27,55.1 -8.83,12.4 -23,20.42 -38.88,20.72 -0.04,0 -0.07,0 -0.07,0 -0.07,0 -0.1,0 -0.14,0 -0.06,0.03 -0.13,0.03 -0.23,0.03 0,0 -0.04,0 -0.07,0 -0.04,0 -0.11,0 -0.17,0 -0.11,0 -0.21,0 -0.31,0l0 0z"/>
   </clipPath>
   <clipPath id="id2">
    <path d="M5637.85 2117.4l-0.01 0 0 -81.23 0.01 0 0 81.23 0 0z"/>
   </clipPath>
   <clipPath id="id3">
    <path d="M3625.39 2688.95c-48.37,0 -100.82,-58.78 -100.82,-58.78 35.14,0 32.91,-86.4 83.9,-86.4 51.04,0 75.81,95.95 75.81,95.95 -15.04,36.68 -36.51,49.23 -58.89,49.23l0 0z"/>
   </clipPath>
   <clipPath id="id4">
    <path d="M4348.11 1579.44c-3.58,0 -7.18,-0.4 -10.71,-1.21 0.49,-2.22 0.71,-4.57 0.71,-7.03 0,-14.4 -7.18,-31.92 -7.15,-47.2 0,-5.01 0.79,-9.76 2.84,-14.09 7.13,-14.98 20.32,-22.98 32.87,-22.98 7.84,0 15.42,3.09 21.18,9.52 8.12,9.08 12.1,20.45 12.07,31.72 -0.02,12.99 -5.35,25.91 -15.83,35.26l-4.53 4.07 0 0c-8.93,7.97 -20.14,11.94 -31.45,11.94l0 0z"/>
   </clipPath>
   <clipPath id="id5">
    <path d="M3568.09 4383.55c-186.62,-24.4 -345.54,-103.53 -479.67,-213.65l-112.26 -2082.46 0 0c0,0 113.23,133.86 292.07,497.2 178.85,364.01 352.34,824.94 352.34,824.94l168.64 -424.67 0 108.81 0 0c0,75.17 61.23,135.84 136.56,135.84 74.84,0 136.07,-60.67 136.07,-135.84l0 -793.95 7.78 -19.12 591.44 0 0 0c0,0 0,4.61 0,13.18 0,75.18 -3.89,449.73 -76.3,861.87 -18.95,106.83 -42.28,215.64 -71.44,322.46 -15.55,58.03 -33.04,116.06 -52.48,172.11l-446.14 0 0 127.93 0 0 0 0c0,50.77 40.83,91.66 91.37,92.32 0,0 0.48,0 0.48,0l-637.12 0 0 260.47 98.66 0 0 252.56 0 0z"/>
   </clipPath>
   <clipPath id="id6">
    <path d="M1519.12 4391.03c-416.86,0 -514.94,-1545.9 -514.94,-1545.9l1330.25 1285.95c0,0 -398.08,259.95 -815.31,259.95l0 0z"/>
   </clipPath>
   <clipPath id="id7">
    <path d="M2561.05 2342.11c-331.79,0 -434.3,-425.76 -434.3,-425.76l215.47 -825.04 417.9 332.92 0 0 0 0 -319.35 -254.59c-8.49,43.16 -14.41,85.23 -18.56,124.75 -20.15,194.75 48.78,390.59 193.15,522.96 47.2,43.52 103.09,80.51 168.07,101.91 13.43,-238.63 -22.52,-490.68 -23.31,-495.03 0.6,3.99 26.27,183.14 26.27,382.6 0,251.69 -40.88,535.28 -225.34,535.28zm199.07 -917.88c0,0 0,0 0,0 0,0 0,0 0,0l0 0z"/>
   </clipPath>
   <clipPath id="id8">
    <path d="M2760.19 1424.37l0 -0.03 0 0.03 0 0z"/>
   </clipPath>
   <clipPath id="id9">
    <path d="M2783.36 1919.24c-65,-21.58 -120.84,-58.56 -167.99,-101.94 -144.3,-132.53 -213.16,-328.25 -193.1,-523.09 3.99,-39.18 9.97,-81.23 18.42,-124.39l319.56 254.51 0 0c0,0 0,0 0,0l0 0 0 0c0,0 0,0 0,0l0 0c0.58,4.4 36.6,256.26 23.11,494.91l0 0z"/>
   </clipPath>
   <clipPath id="id10">
    <path d="M3984.51 2360.26l-6.97 0c-0.11,0 -0.22,0 -0.33,0 -0.06,0 -0.14,0 -0.17,0 -0.04,0 -0.08,0 -0.11,0 -0.08,0 -0.15,0 -0.22,0 -0.07,0 -0.11,-0.03 -0.18,-0.03 0,0 -0.04,0 -0.07,0 -17.48,-0.33 -33.14,-9.18 -42.83,-22.82 18.64,-13.56 25.79,-51.09 48.77,-60.75 6.53,-2.74 13.05,-3.98 19.18,-3.98 20.45,0 36.87,13.88 36.87,33.58 0,29.81 -24.14,54 -53.94,54l0 0z"/>
   </clipPath>
   <clipPath id="id11">
    <path d="M5330.5 3870.35l0 0c0.1,0 0.21,0 0.3,0 -0.09,0 -0.2,0 -0.3,0l0 0z"/>
   </clipPath>
   <clipPath id="id12">
    <path d="M5330.87 3870.35c0.08,0 0.12,0 0.21,0 -0.09,0 -0.15,0 -0.21,0zm0.32 -0.02c0.06,0 0.11,0 0.16,0 -0.05,0 -0.1,0 -0.16,0zm0.28 0c0.06,0 0.11,0 0.15,0 -0.04,0 -0.09,0 -0.15,0zm0.31 0c0.03,0 0.08,0 0.13,0 -0.05,0 -0.1,0 -0.13,0zm0.28 0c0.02,0 0.07,0 0.11,0 -0.04,0 -0.09,0 -0.11,0zm0.28 -0.01c0.02,0 0.06,0 0.07,0 -0.01,0 -0.05,0 -0.07,0zm0.28 0c0,0 0,0 0.02,0 -0.02,0 -0.02,0 -0.02,0l0 0z"/>
   </clipPath>
   <clipPath id="id13">
    <path d="M5330.65 3870.38l-1223.98 0c0,0 -0.41,0 -0.82,-0.07 -50.37,-0.49 -90.99,-41.42 -90.99,-91.85l0 0 0 -128.28 60.53 0 0 57.37c0,50.79 41.03,91.93 91.81,91.93l1223.98 0c10.16,0 20.31,-2.15 29.65,-5.41 -7.3,42.59 -43.87,75.27 -88.15,76.24 0,0 0,0 0,0 0,0 0,0 -0.4,0 0,0 0,0 0,0 0,0 0,0 0,0 0,0 0,0 -0.41,0 0,0 0,0 0,0 0,0 0,0 0,0 0,0 0,0 -0.41,0 0,0 0,0 0,0 0,0 0,0 0,0 0,0 -0.4,0 -0.4,0 0,0 0,0.07 0,0.07 0,0 0,0 0,0 -0.41,0 -0.41,0 -0.41,0 0,0 0,0 0,0l0 0 0 0z"/>
   </clipPath>
   <clipPath id="id14">
    <path d="M4562.13 982.33l-197.68 0 0 -982.33 366.57 0 -168.89 0 0 982.33 0 0z"/>
   </clipPath>
   <clipPath id="id15">
    <path d="M4943.64 982.33l-180.23 0 0 -982.33 366.46 0 0 467.97 -64.01 0 0 257.04 -122.22 0 0 257.32 0 0z"/>
   </clipPath>
   <clipPath id="id16">
    <path d="M6009.51 982.38l-339.57 0 0 -24.19 339.57 0 0 24.19zm0 -226.49l-339.57 0 0 -30.82 122.29 0 217.28 0 0 30.82 0 0z"/>
   </clipPath>
   <clipPath id="id17">
    <path d="M6009.51 958.15l-339.57 0 0 -202.29 339.57 0 0 202.29 0 0z"/>
   </clipPath>
   <clipPath id="id18">
    <path d="M6009.54 725.13l-217.38 0 0 -24.19 217.38 0 0 24.19zm0 -226.49l-217.38 0 0 -30.74 217.38 0 0 30.74 0 0z"/>
   </clipPath>
   <clipPath id="id19">
    <path d="M6009.54 700.91l-217.38 0 0 -202.32 217.38 0 0 202.32 0 0z"/>
   </clipPath>
 </defs>
 <g id="Layer_x0020_1">
  <metadata id="CorelCorpID_0Corel-Layer"/>
  <path class="fil0" d="M4907.05 1991.1l266.25 0c12.44,0 22.54,10.1 22.54,22.54 0,12.45 -10.1,22.53 -22.54,22.53l-9.56 0 0 846.04c0,68.24 -55.32,123.55 -123.57,123.55 -68.24,0 -123.56,-55.31 -123.56,-123.55l0 -846.04 -9.56 0c-12.44,0 -22.53,-10.08 -22.53,-22.53 0,-12.44 10.09,-22.54 22.53,-22.54z"/>
  <path class="fil1" d="M4986.72 2437.31l6.3 0c22.86,0 42.7,-15.81 47.77,-38.09l5.09 -22.31c5.08,-22.27 24.9,-38.08 47.75,-38.08 27.06,0 48.98,21.93 48.98,48.99l0 492.25c0,56.56 -45.86,102.44 -102.44,102.44 -56.56,0 -102.44,-45.88 -102.44,-102.44l0 -491.75c0,27.06 21.95,48.99 48.99,48.99z"/>
  <path class="fil1" d="M4993.02 2437.31l-6.3 0c-27.04,0 -48.99,-21.93 -48.99,-48.99 0,-23.29 25.28,-37.57 50.88,-26.86 20.89,8.74 27.33,42.82 44.26,55.11 -8.96,12.63 -23.57,20.74 -39.85,20.74z"/>
  <g style="clip-path:url(#id0)">
   <image x="4923.91" y="2345.27" width="120.23" height="104.85" xlink:href="about-vector_Images\about-vector_ImgID1.png"/>
  </g>
  <path class="fil2" d="M5108.57 2655.7l0 0c8.75,0 15.85,-7.1 15.85,-15.86l0 -346.5c0,-8.76 -7.1,-15.87 -15.85,-15.87 -8.76,0 -15.85,7.11 -15.85,15.87l0 346.5c0,8.76 7.09,15.86 15.85,15.86z"/>
  <path class="fil2" d="M5108.57 2777.97l0 0c8.75,0 15.85,-7.1 15.85,-15.85l0 -38.45c0,-8.77 -7.1,-15.85 -15.85,-15.85 -8.76,0 -15.85,7.08 -15.85,15.85l0 38.45c0,8.75 7.09,15.85 15.85,15.85z"/>
  <path class="fil3" d="M5030.8 2530.1c-13.12,0 -23.76,-10.63 -23.76,-23.77 0,-13.13 10.64,-23.76 23.76,-23.76 13.14,0 23.76,10.63 23.76,23.76 0,13.14 -10.62,23.77 -23.76,23.77z"/>
  <path class="fil3" d="M5017.37 2697.95c-7.39,0 -13.42,-6.01 -13.42,-13.43 0,-7.42 6.03,-13.42 13.42,-13.42 7.43,0 13.43,6 13.43,13.42 0,7.42 -6,13.43 -13.43,13.43z"/>
  <path class="fil3" d="M5054.56 2648.81c-7.4,0 -13.42,-6.03 -13.42,-13.44 0,-7.41 6.02,-13.42 13.42,-13.42 7.41,0 13.43,6.01 13.43,13.42 0,7.41 -6.02,13.44 -13.43,13.44z"/>
  <path class="fil0" d="M5381.15 1991.1l266.25 0c12.45,0 22.52,10.1 22.52,22.54 0,12.45 -10.07,22.53 -22.52,22.53l-9.56 0 0 846.04c0,68.24 -55.32,123.55 -123.57,123.55 -68.23,0 -123.56,-55.31 -123.56,-123.55l0 -846.04 -9.56 0c-12.44,0 -22.54,-10.08 -22.54,-22.53 0,-12.44 10.1,-22.54 22.54,-22.54z"/>
  <path class="fil4" d="M5460.83 2437.31l6.31 0c22.84,0 42.66,-15.81 47.73,-38.09l5.11 -22.31c5.09,-22.27 24.9,-38.08 47.75,-38.08 27.06,0 49,21.93 49,48.99l0 492.25c0,56.56 -45.88,102.44 -102.46,102.44 -56.56,0 -102.44,-45.88 -102.44,-102.44l0 -491.75c0,27.06 21.94,48.99 49,48.99z"/>
  <path class="fil4" d="M5467.14 2437.31l-6.31 0c-27.06,0 -49,-21.93 -49,-48.99 0,-23.29 25.28,-37.57 50.89,-26.86 20.88,8.74 27.34,42.82 44.27,55.11 -8.98,12.63 -23.59,20.74 -39.85,20.74z"/>
  <g style="clip-path:url(#id1)">
   <image x="5395.91" y="2345.27" width="120.23" height="104.85" xlink:href="about-vector_Images\about-vector_ImgID2.png"/>
  </g>
  <path class="fil2" d="M5582.67 2655.7l0 0c8.75,0 15.85,-7.1 15.85,-15.86l0 -346.5c0,-8.76 -7.1,-15.87 -15.85,-15.87 -8.76,0 -15.85,7.11 -15.85,15.87l0 346.5c0,8.76 7.09,15.86 15.85,15.86z"/>
  <g style="clip-path:url(#id2)">
   <image x="5624.98" y="2028.56" width="23.37" height="104.85" xlink:href="about-vector_Images\about-vector_ImgID3.png"/>
  </g>
  <path class="fil2" d="M5582.67 2777.97l0 0c8.75,0 15.85,-7.1 15.85,-15.85l0 -38.45c0,-8.77 -7.1,-15.85 -15.85,-15.85 -8.76,0 -15.85,7.08 -15.85,15.85l0 38.45c0,8.75 7.09,15.85 15.85,15.85z"/>
  <path class="fil5" d="M5504.91 2530.1c-13.12,0 -23.77,-10.63 -23.77,-23.77 0,-13.13 10.65,-23.76 23.77,-23.76 13.11,0 23.75,10.63 23.75,23.76 0,13.14 -10.64,23.77 -23.75,23.77z"/>
  <path class="fil5" d="M5491.49 2697.95c-7.41,0 -13.44,-6.01 -13.44,-13.43 0,-7.42 6.03,-13.42 13.44,-13.42 7.39,0 13.42,6 13.42,13.42 0,7.42 -6.03,13.43 -13.42,13.43z"/>
  <path class="fil5" d="M5528.66 2648.81c-7.39,0 -13.42,-6.03 -13.42,-13.44 0,-7.41 6.03,-13.42 13.42,-13.42 7.41,0 13.44,6.01 13.44,13.42 0,7.41 -6.03,13.44 -13.44,13.44z"/>
  <polygon class="fil6" points="5802.4,3091.3 5835.75,3091.3 5835.75,2216.81 5802.4,2216.81 "/>
  <polygon class="fil7" points="4244.6,3091.3 4277.94,3091.3 4277.94,2216.81 4244.6,2216.81 "/>
  <path class="fil8" d="M4218.41 2246.16l1643.52 0c22.44,0 40.61,-18.18 40.61,-40.61 0,-22.43 -18.17,-40.62 -40.61,-40.62l-1643.52 0c-22.43,0 -40.6,18.19 -40.6,40.62 0,22.43 18.17,40.61 40.6,40.61z"/>
  <path class="fil6" d="M4177.81 3158.32l1724.73 0 0 -40.61c0,-22.43 -18.17,-40.62 -40.61,-40.62l-1643.52 0c-22.43,0 -40.6,18.19 -40.6,40.62l0 40.61z"/>
  <path class="fil2" d="M5100.79 1743.84c0,23.05 18.7,41.75 41.75,41.75 23.04,0 41.74,-18.7 41.74,-41.75 0,-23.04 -18.7,-41.74 -41.74,-41.74 -23.05,0 -41.75,18.7 -41.75,41.74z"/>
  <path class="fil2" d="M4903.88 1859.22c0,18.1 14.68,32.79 32.79,32.79 18.12,0 32.8,-14.69 32.8,-32.79 0,-18.12 -14.68,-32.8 -32.8,-32.8 -18.11,0 -32.79,14.68 -32.79,32.8z"/>
  <path class="fil2" d="M4966.35 1561.17c0,18.11 14.68,32.79 32.79,32.79 18.1,0 32.78,-14.68 32.78,-32.79 0,-18.12 -14.68,-32.78 -32.78,-32.78 -18.11,0 -32.79,14.66 -32.79,32.78z"/>
  <path class="fil2" d="M5598.81 1714.62c0,23.04 18.69,41.72 41.73,41.72 23.06,0 41.75,-18.68 41.75,-41.72 0,-23.06 -18.69,-41.74 -41.75,-41.74 -23.04,0 -41.73,18.68 -41.73,41.74z"/>
  <path class="fil2" d="M5401.9 1829.99c0,18.11 14.69,32.79 32.79,32.79 18.1,0 32.8,-14.68 32.8,-32.79 0,-18.13 -14.7,-32.8 -32.8,-32.8 -18.1,0 -32.79,14.67 -32.79,32.8z"/>
  <polygon class="fil9" points="6009.54,4878.18 6009.54,3369.68 228.34,3369.68 228.34,4878.18 "/>
  <polygon class="fil10" points="0,3478.3 6009.54,3478.3 6009.54,3155.73 0,3155.73 "/>
  <path class="fil2" d="M1003.13 1122.66l0 -91.77c0.03,-75.9 30.66,-144.26 80.38,-194.02 49.78,-49.73 118.13,-80.35 194.02,-80.37l549.59 0c75.9,0.02 144.26,30.64 194.04,80.37 49.7,49.76 80.34,118.12 80.36,194.02l0 1257.99c0.03,141.94 115.05,256.95 257,256.98 141.95,-0.01 256.96,-115.04 256.99,-256.98l0 -652.24c0.02,-53.89 21.73,-102.32 57.03,-137.66 35.34,-35.3 83.79,-57.01 137.68,-57.04l442.21 0c53.88,0.03 102.33,21.74 137.68,57.04 35.29,35.34 57,83.77 57.02,137.66l0 295.46 76.87 0 0 -295.46c-0.01,-149.99 -121.56,-271.54 -271.57,-271.56l-442.21 0c-150.01,0.02 -271.56,121.57 -271.58,271.56l0 652.24c-0.03,49.84 -20.11,94.63 -52.76,127.36 -32.72,32.66 -77.51,52.74 -127.36,52.75 -49.86,-0.01 -94.65,-20.09 -127.36,-52.75 -32.68,-32.73 -52.75,-77.52 -52.77,-127.36l0 -1257.99c-0.03,-194.02 -157.25,-351.24 -351.27,-351.26l-549.59 0c-194.01,0.02 -351.24,157.24 -351.27,351.26l0 91.77 76.88 0 -0.01 0z"/>
  <path class="fil0" d="M3628.86 2100.22l0 -287.31 -281.4 0 0 291.91c0,67.23 -10.12,134.09 -30.02,198.31l-198.72 641.62c-30.21,97.54 42.69,196.45 144.82,196.45l460.1 0c102.97,0 175.99,-100.44 144.21,-198.39l-206.27 -635.71c-21.69,-66.83 -32.72,-136.63 -32.72,-206.88z"/>
  <path class="fil0" d="M3648.78 1850.59l-321.23 0c-11.93,0 -21.59,-9.66 -21.59,-21.6 0,-11.92 9.66,-21.59 21.59,-21.59l321.23 0c11.92,0 21.59,9.67 21.59,21.59 0,11.94 -9.67,21.6 -21.59,21.6z"/>
  <path class="fil11" d="M3784.09 2947.35l-99.81 -307.61c-25.63,69.6 -110.41,75.78 -196.13,-65.22 -85.73,-141.01 -169.01,-0.03 -169.03,0l-115.81 373.89c-16.64,53.75 23.53,108.23 79.79,108.23l421.53 0c56.73,0 96.97,-55.34 79.46,-109.29z"/>
  <path class="fil11" d="M3684.28 2639.74c0,0 -24.79,-95.97 -75.8,-95.97 -51.01,0 -48.8,86.42 -83.93,86.42 0,0 112.16,125.58 159.73,9.55z"/>
  <g style="clip-path:url(#id3)">
   <image x="3514.08" y="2529.77" width="178.65" height="170.96" xlink:href="about-vector_Images\about-vector_ImgID4.png"/>
  </g>
  <path class="fil2" d="M3411.92 2421.12l-82.01 338.29c-1.99,8.31 3.1,16.69 11.41,18.7 8.3,2 16.67,-3.09 18.68,-11.41l81.99 -338.28c2.02,-8.32 -3.09,-16.68 -11.39,-18.7 -8.3,-2.01 -16.68,3.09 -18.68,11.4z"/>
  <path class="fil2" d="M3308.58 2846.83l-20.33 83.9c-2.01,8.3 3.09,16.66 11.39,18.68 8.3,2.01 16.67,-3.09 18.68,-11.39l20.33 -83.9c2.01,-8.32 -3.08,-16.68 -11.4,-18.7 -8.3,-2.01 -16.66,3.09 -18.67,11.41z"/>
  <path class="fil12" d="M1708.46 2337.85c0,410.76 -333,743.75 -743.75,743.75 -410.76,0 -743.74,-332.99 -743.74,-743.75 0,-410.76 332.98,-743.75 743.74,-743.75 410.75,0 743.75,332.99 743.75,743.75z"/>
  <path class="fil13" d="M1601.37 2359.77c0,-47.61 -5.39,-93.97 -15.31,-138.6 -67.04,49.72 -347.75,228.96 -684.45,31.52 -256.03,-150.13 -455.08,-83.95 -560.44,-22.05 -8.6,41.7 -13.13,84.88 -13.13,129.13 0,351.63 285.04,636.67 636.67,636.67 351.62,0 636.66,-285.04 636.66,-636.67z"/>
  <polygon class="fil0" points="772.61,1855.08 1156.81,1855.08 1156.81,1179.24 772.61,1179.24 "/>
  <path class="fil0" d="M1176.69 1201.59l-423.96 0c-21.97,0 -39.79,-17.82 -39.79,-39.8 0,-21.99 17.82,-39.81 39.79,-39.81l423.96 0c21.97,0 39.79,17.82 39.79,39.81 0,21.98 -17.82,39.8 -39.79,39.8z"/>
  <path class="fil2" d="M708.4 1882.14c-60.05,39.02 -122.36,49.66 -139.2,23.75 -16.82,-25.89 18.22,-78.52 78.29,-117.52 60.04,-39.02 122.37,-49.66 139.18,-23.76 16.82,25.9 -18.22,78.52 -78.27,117.53z"/>
  <path class="fil2" d="M538.15 1946.83c0,17.68 -14.32,32 -32,32 -17.66,0 -31.98,-14.32 -31.98,-32 0,-17.66 14.32,-31.99 31.98,-31.99 17.68,0 32,14.33 32,31.99z"/>
  <path class="fil8" d="M1817.36 1453.45l-1111.34 0c-23.16,0 -41.94,-18.79 -41.94,-41.95 0,-23.17 18.78,-41.95 41.94,-41.95l1111.34 0 0 83.9z"/>
  <path class="fil8" d="M1753.24 3225.75l0 -2700.88c0,-23.17 18.77,-41.94 41.95,-41.94 23.16,0 41.95,18.77 41.95,41.94l0 2700.88 -83.9 0z"/>
  <path class="fil8" d="M1884.65 1399.06c0,48.66 -39.44,88.09 -88.09,88.09 -48.67,0 -88.1,-39.43 -88.1,-88.09 0,-48.66 39.43,-88.11 88.1,-88.11 48.65,0 88.09,39.45 88.09,88.11z"/>
  <path class="fil2" d="M791.05 761.44l-15.37 0c-0.01,15.16 -6.1,28.73 -16.04,38.7 -9.94,9.93 -23.52,16.02 -38.68,16.02 -15.16,0 -28.75,-6.11 -38.69,-16.02 -9.94,-9.97 -16.02,-23.54 -16.04,-38.7 0.06,-30.23 24.51,-54.67 54.73,-54.73 30.21,0.06 54.66,24.5 54.72,54.73l30.75 0c-0.01,-47.22 -38.27,-85.47 -85.47,-85.48 -47.21,0.01 -85.46,38.26 -85.48,85.48 0.02,47.2 38.27,85.47 85.48,85.47 47.22,0 85.46,-38.27 85.47,-85.47l-15.38 0z"/>
  <path class="fil2" d="M3882.81 1669.29l-15.38 0c0,15.15 -6.1,28.74 -16.02,38.69 -9.96,9.91 -23.55,16.02 -38.7,16.02 -30.22,-0.05 -54.67,-24.49 -54.73,-54.71 0.06,-30.22 24.51,-54.67 54.73,-54.73 15.15,0.02 28.74,6.11 38.69,16.04 9.93,9.94 16.03,23.52 16.03,38.69l30.75 0c0,-47.22 -38.26,-85.46 -85.47,-85.48 -47.21,0.02 -85.46,38.27 -85.47,85.48 0.01,47.2 38.26,85.45 85.47,85.45 47.21,0 85.46,-38.25 85.47,-85.45l-15.37 0z"/>
  <path class="fil2" d="M1349.04 993.24l-15.38 0c-0.03,10.87 -8.82,19.66 -19.68,19.67 -10.85,-0.01 -19.66,-8.8 -19.68,-19.67 0.02,-10.84 8.83,-19.65 19.68,-19.67 10.86,0.02 19.65,8.81 19.68,19.67l30.75 0c-0.02,-27.85 -22.57,-50.42 -50.43,-50.42 -27.84,0 -50.41,22.56 -50.42,50.42 0.01,27.87 22.58,50.43 50.42,50.43 27.86,0 50.41,-22.57 50.43,-50.43l-15.37 0z"/>
  <path class="fil2" d="M3899.34 1921.97l-15.38 0c-0.02,10.89 -8.81,19.67 -19.66,19.7 -10.86,-0.03 -19.65,-8.81 -19.67,-19.7 0.02,-10.85 8.81,-19.65 19.67,-19.66 10.85,0.01 19.64,8.81 19.66,19.66l30.75 0c0,-27.84 -22.56,-50.39 -50.41,-50.41 -27.85,0.02 -50.42,22.57 -50.42,50.41 0,27.86 22.57,50.43 50.42,50.45 27.85,-0.02 50.41,-22.59 50.41,-50.45l-15.37 0z"/>
  <path class="fil2" d="M4073.52 1307.09l-15.37 0c-0.03,10.86 -8.82,19.65 -19.68,19.66 -10.87,-0.01 -19.66,-8.8 -19.67,-19.66 0.01,-10.87 8.8,-19.66 19.67,-19.68 10.86,0.02 19.65,8.81 19.68,19.68l30.74 0c0,-27.86 -22.56,-50.43 -50.42,-50.43 -27.85,0 -50.43,22.57 -50.43,50.43 0.02,27.86 22.58,50.41 50.43,50.41 27.86,0 50.42,-22.55 50.42,-50.41l-15.37 0z"/>
  <path class="fil2" d="M947.15 482.93l-15.37 0c-0.02,10.87 -8.81,19.67 -19.68,19.68 -10.86,-0.01 -19.65,-8.81 -19.68,-19.68 0.03,-10.85 8.82,-19.65 19.68,-19.68 10.87,0.03 19.66,8.83 19.68,19.68l30.75 0c-0.02,-27.85 -22.57,-50.41 -50.43,-50.42 -27.86,0.01 -50.42,22.57 -50.43,50.42 0.01,27.86 22.57,50.41 50.43,50.43 27.86,0 50.43,-22.57 50.43,-50.43l-15.38 0z"/>
  <path class="fil14" d="M4579.22 2126.17l84.53 -114.35 -348.09 -374.49 -51.97 48.57c0,0 -100.69,-112.62 -116.03,-129.81 -15.36,-17.17 -72.15,-15.19 -83.17,0 -21.7,29.92 95.18,178.07 98.65,221.7 3.46,43.63 -83.59,153.6 -15.48,348.38l431.56 0z"/>
  <path class="fil0" d="M4854.59 2167.35c-49.24,44.03 -124.89,39.82 -168.92,-9.44l-642.88 -719.09 178.38 -159.5 642.89 719.11c44.03,49.26 39.79,124.89 -9.47,168.92z"/>
  <path class="fil1" d="M4384.1 1563.43l-4.55 4.07c-16.48,14.76 -40.98,16.13 -59.04,3.32l-18.07 -12.82c-18.05,-12.79 -42.55,-11.41 -59.06,3.34 -19.51,17.46 -21.2,47.44 -3.73,66.97l31.93 35.72 427.96 478.7c36.5,40.84 99.21,44.34 140.06,7.83 40.82,-36.52 44.32,-99.21 7.81,-140.05l-459.55 -514.05c17.46,19.53 15.77,49.52 -3.76,66.97z"/>
  <path class="fil1" d="M4379.55 1567.5l4.55 -4.07c19.53,-17.45 21.22,-47.44 3.76,-66.97 -15.04,-16.79 -42.5,-10.83 -54.06,13.43 -9.42,19.82 7.9,48.57 3.61,68.36 14.64,3.33 30.4,-0.27 42.14,-10.75z"/>
  <g style="clip-path:url(#id4)">
   <image x="4319.7" y="1475.09" width="89.48" height="118.69" xlink:href="about-vector_Images\about-vector_ImgID5.png"/>
  </g>
  <path class="fil0" d="M4256.4 1304.86l-192.18 171.81c-8.97,8.04 -22.76,7.25 -30.81,-1.72 -8.02,-8.98 -7.27,-22.77 1.73,-30.81l192.18 -171.83c8.97,-8.02 22.78,-7.24 30.8,1.74 8.05,9 7.28,22.77 -1.72,30.81z"/>
  <path class="fil2" d="M4185.78 1523.07l0 0c-6.32,5.64 -16.02,5.1 -21.68,-1.22l-24.82 -27.76c-5.64,-6.32 -5.1,-16.02 1.21,-21.66 6.32,-5.65 16.03,-5.11 21.69,1.21l24.79 27.75c5.68,6.32 5.12,16.03 -1.19,21.68z"/>
  <path class="fil3" d="M4539.08 1823.81c-6.34,0 -12.62,-2.59 -17.17,-7.67 -8.46,-9.47 -7.65,-24.02 1.82,-32.49 4.39,-3.92 9.87,-5.86 15.33,-5.86 6.32,0 12.61,2.6 17.16,7.67 8.47,9.47 7.65,24.03 -1.82,32.5 -4.39,3.92 -9.87,5.85 -15.32,5.85z"/>
  <path class="fil3" d="M4663.75 1933.77c-3.57,0 -7.12,-1.46 -9.69,-4.34 -4.78,-5.35 -4.32,-13.56 1.03,-18.36 2.48,-2.21 5.57,-3.31 8.66,-3.31 3.56,0 7.12,1.46 9.68,4.34 4.8,5.35 4.33,13.56 -1.01,18.36 -2.47,2.21 -5.58,3.31 -8.67,3.31z"/>
  <path class="fil3" d="M4605.19 1922.28c-3.57,0 -7.12,-1.46 -9.69,-4.33 -4.8,-5.36 -4.34,-13.57 1.02,-18.37 2.48,-2.21 5.57,-3.3 8.67,-3.3 3.56,0 7.12,1.46 9.68,4.35 4.8,5.34 4.34,13.55 -1.03,18.34 -2.47,2.22 -5.56,3.31 -8.65,3.31z"/>
  <path class="fil14" d="M4744.56 1864.78c0,0 59.4,-229.14 -107.12,-382.55 -96.21,-88.66 -190.22,-92.67 -221.27,-76.61 -31.07,16.07 -188.59,161.29 -188.59,161.29 0,0 31.44,104.66 223.05,-30.92l-134.96 101.34c0,0 -27.43,132.16 211.66,-15.54l-145.76 95.24c0,0 22.74,105.07 210.63,-22.54l-132.85 88.07c0,0 23.87,97.88 191.39,-22.73l93.82 104.95z"/>
  <path class="fil15" d="M4319.18 1764.2c40.71,69.2 45.46,156.97 11.78,229.99 -3.63,7.84 8.01,14.72 11.65,6.82 35.76,-77.47 31.55,-169.99 -11.76,-243.63 -4.4,-7.5 -16.08,-0.71 -11.67,6.82z"/>
  <path class="fil15" d="M4430.95 1554.59c25.38,-14.61 50.75,-29.23 76.15,-43.82 7.51,-4.34 0.74,-16.02 -6.85,-11.67 -25.36,14.61 -50.75,29.21 -76.13,43.82 -7.53,4.32 -0.73,16 6.83,11.67z"/>
  <path class="fil15" d="M4493.89 1651.91c32.71,-19.88 65.4,-39.75 98.11,-59.61 7.44,-4.52 0.64,-16.21 -6.81,-11.67 -32.71,19.86 -65.41,39.74 -98.12,59.61 -7.42,4.5 -0.63,16.2 6.82,11.67z"/>
  <path class="fil15" d="M4562.83 1720.31c26,-12.47 50.74,-27.4 73.91,-44.56 2.93,-2.18 4.41,-5.86 2.44,-9.25 -1.71,-2.88 -6.3,-4.6 -9.25,-2.42 -23.18,17.16 -47.91,32.09 -73.93,44.57 -3.29,1.58 -4.15,6.27 -2.41,9.24 1.97,3.37 5.95,4.02 9.24,2.42z"/>
  <polygon class="fil16" points="4116.36,2305.99 4607.54,2305.99 4607.54,2117.92 4116.36,2117.92 "/>
  <path class="fil2" d="M2975.97 2087.18c0,0 113.52,133.9 292.34,497.66 178.82,363.77 352.18,824.97 352.18,824.97l448.96 -1129.29 591.48 0c0,0 24.68,2110.6 -972.59,2110.6 -997.27,0 -1269.51,-1519.2 -1269.51,-1519.2l557.14 -784.74z"/>
  <g style="clip-path:url(#id5)">
   <image x="2960.61" y="2071.61" width="1714.55" height="2326.45" xlink:href="about-vector_Images\about-vector_ImgID6.png"/>
  </g>
  <path class="fil2" d="M2046.95 1669.76c0,0 -1057.72,251.07 -1257.09,1046.42 -191.6,764.3 -402.2,2061.75 -418.37,2162l2755.23 0 -150.75 -2791c0,0 -175.18,-278.79 -929.02,-417.42z"/>
  <g style="clip-path:url(#id6)">
   <image x="991.15" y="2832.64" width="1351.71" height="1573.1" xlink:href="about-vector_Images\about-vector_ImgID7.png"/>
  </g>
  <path class="fil17" d="M2553.4 3571.9l0 1306.28 15.38 0 0 -1306.28c0,-4.26 -3.45,-7.68 -7.69,-7.68 -4.26,0 -7.69,3.42 -7.69,7.68z"/>
  <polygon class="fil16" points="2288.72,2243.42 2760.19,2243.42 2589.91,3338.4 "/>
  <path class="fil18" d="M2510.09 993.68c0,156.14 -126.56,282.71 -282.7,282.71 -156.13,0 -282.69,-126.57 -282.69,-282.71 0,-156.12 126.56,-282.68 282.69,-282.68 156.14,0 282.7,126.56 282.7,282.68z"/>
  <path class="fil14" d="M2342.27 1091.26l-215.59 825.07c0,0 102.49,425.61 434.41,425.61 331.89,0 199.1,-917.63 199.1,-917.63l-417.92 -333.05z"/>
  <g style="clip-path:url(#id7)">
   <image x="2111.94" y="1075.36" width="696.77" height="1279.45" xlink:href="about-vector_Images\about-vector_ImgID8.png"/>
  </g>
  <g style="clip-path:url(#id8)">
   <image x="2746.9" y="1415.13" width="23.37" height="23.37" xlink:href="about-vector_Images\about-vector_ImgID9.png"/>
  </g>
  <g style="clip-path:url(#id9)">
   <image x="2393.29" y="1156.84" width="413.88" height="776.71" xlink:href="about-vector_Images\about-vector_ImgID10.png"/>
  </g>
  <polygon class="fil2" points="2707.77,1689.56 2589.91,3338.4 2879.32,2649.48 2751.33,2453.89 2896.1,2273.52 2807.56,1689.56 "/>
  <path class="fil17" d="M2597 3341.38l290.99 -692.69 -127.17 -194.33 143.38 -178.66 -47.03 -310.13c-0.63,-4.19 -4.55,-7.07 -8.75,-6.44 -4.2,0.63 -7.09,4.55 -6.44,8.75l46 303.48 -146.15 182.07 128.82 196.84 -287.82 685.14c-1.63,3.92 0.2,8.43 4.12,10.07 3.91,1.65 8.42,-0.2 10.05,-4.1z"/>
  <path class="fil14" d="M3383.12 938.1c0,0 -9.43,58.76 -30.28,145 -3.65,15.22 -7.63,31.27 -12.08,48.15 -62.89,239.15 -201.09,617.99 -449.01,639.16 -136.38,11.59 -244.61,-45.01 -326.54,-120.15 -144.15,-132.57 -213.15,-328.35 -192.98,-523.14 27.15,-262.83 136.89,-659.68 557.09,-602.59 274.39,37.4 502.96,132.89 453.8,413.57z"/>
  <path class="fil15" d="M2384.62 1378.31c0.09,0.23 22.71,54.62 61.79,120.11 39.15,65.5 94.54,142.19 161.43,187.03 3.52,2.37 8.31,1.42 10.66,-2.1 2.37,-3.54 1.41,-8.32 -2.11,-10.67 -63.51,-42.42 -118.32,-117.58 -156.77,-182.13 -19.25,-32.27 -34.48,-61.87 -44.88,-83.36 -5.19,-10.75 -9.19,-19.46 -11.87,-25.49 -2.69,-6.03 -4.04,-9.29 -4.04,-9.29 -1.63,-3.91 -6.14,-5.78 -10.05,-4.15 -3.93,1.63 -5.79,6.14 -4.16,10.05z"/>
  <path class="fil19" d="M2441.75 849.26c0,0 101.17,169.85 35.44,269.76 -65.72,99.9 11.49,173.76 11.49,173.76 0,0 -16.63,-86.34 25.3,-133.7 41.96,-47.35 110.83,-134.17 111.34,-257.35 0,0 189.23,59.33 415.23,12.34 0,0 -32.31,47.86 -69.75,61.01 0,0 307.4,64.79 498.45,-81.01 191.06,-145.81 -32.61,-502.28 -364.03,-620.86 -234.85,-84.03 -657.59,-113.14 -797.15,318.94 -58.68,181.74 0,457.7 0,457.7l133.68 -200.59z"/>
  <path class="fil15" d="M3117.46 1260.84c4.18,75.52 8.21,156.47 -29.06,225.16 -4.71,8.69 8.56,16.47 13.28,7.76 38.67,-71.29 35.5,-154.43 31.15,-232.92 -0.54,-9.83 -15.93,-9.9 -15.37,0z"/>
  <path class="fil2" d="M2278.73 1341.28c0,0 -213.02,56.87 -231.78,143.35 -18.75,86.48 -131.88,794.61 -131.88,794.61l310.49 149.95 -135.44 269.4 499.79 639.81 -359.63 -1818.5 48.45 -178.62z"/>
  <path class="fil17" d="M2005.7 1674.63c-39.85,237.93 -98.22,603.38 -98.22,603.4l-0.89 5.64 308.59 149.05 -134.11 266.77 502.79 643.64c2.61,3.35 7.45,3.94 10.79,1.32 3.35,-2.61 3.95,-7.44 1.34,-10.79l-496.81 -635.96 136.76 -272.03 -317.53 -153.36 -3.34 6.93 7.6 1.2c0,-0.06 3.64,-22.83 9.73,-60.81 18.3,-113.92 58.59,-364.09 88.48,-542.46 0.69,-4.18 -2.12,-8.15 -6.32,-8.86 -4.18,-0.69 -8.15,2.12 -8.84,6.32l-0.02 0z"/>
  <path class="fil17" d="M2222.11 2436.06l87.95 44.14c3.78,1.9 8.41,0.38 10.31,-3.41 1.91,-3.8 0.37,-8.41 -3.42,-10.32l-87.93 -44.14c-3.8,-1.91 -8.43,-0.39 -10.33,3.42 -1.89,3.79 -0.37,8.4 3.42,10.31z"/>
  <path class="fil17" d="M2745.52 2448.85l-46.29 53.26c-2.79,3.2 -2.45,8.06 0.77,10.84 3.19,2.78 8.05,2.44 10.83,-0.76l46.3 -53.25c2.78,-3.22 2.44,-8.06 -0.75,-10.84 -3.22,-2.8 -8.08,-2.46 -10.86,0.75z"/>
  <path class="fil17" d="M1337.51 4451.19l-4.34 -6.35 -538.66 367.89c-23.66,16.16 -39.28,39.72 -45.87,65.45l15.95 0c6.21,-20.75 19.3,-39.58 38.6,-52.75l538.65 -367.89 -4.33 -6.35zm-237.44 426.99l454.37 -310.31 -63.74 -93.34c-21.94,-32.13 -57.53,-49.46 -93.71,-49.44 -22,0 -44.29,6.41 -63.82,19.75l4.34 6.35 4.33 6.35c16.93,-11.56 36.12,-17.08 55.15,-17.08 31.32,0.02 62.04,14.94 81.01,42.74l55.08 80.64 -460.27 314.34 27.26 0z"/>
  <path class="fil0" d="M3925.58 3229.56c-75.18,0 -136.16,-60.96 -136.16,-136.16l0 -1097.82 272.33 0 0 1097.82c0,75.2 -60.96,136.16 -136.17,136.16z"/>
  <path class="fil17" d="M3984.49 2360.25l-6.94 0c-25.19,0 -47.02,-17.42 -52.62,-41.96l-5.63 -24.59c-5.59,-24.56 -27.44,-41.98 -52.62,-41.98 -29.81,0 -53.97,24.19 -53.97,53.98l0 785.34c0,62.36 50.54,112.89 112.87,112.89 62.36,0 112.89,-50.53 112.89,-112.89l0 -784.77c0,29.81 -24.17,53.98 -53.98,53.98z"/>
  <path class="fil20" d="M3977.55 2360.25l6.94 0c29.81,0 53.98,-24.17 53.98,-53.98 0,-25.66 -27.84,-41.4 -56.05,-29.6 -23.02,9.64 -30.14,47.19 -48.79,60.73 9.89,13.93 25.99,22.85 43.92,22.85z"/>
  <g style="clip-path:url(#id10)">
   <image x="3919.97" y="2263.79" width="127.91" height="104.85" xlink:href="about-vector_Images\about-vector_ImgID11.png"/>
  </g>
  <path class="fil0" d="M4072.28 2043.98l-293.39 0c-13.71,0 -24.84,-11.11 -24.84,-24.83 0,-13.71 11.13,-24.84 24.84,-24.84l293.39 0c13.73,0 24.85,11.13 24.85,24.84 0,13.72 -11.12,24.83 -24.85,24.83z"/>
  <path class="fil2" d="M3846.83 2175.54l0 0c-9.65,0 -17.46,-7.81 -17.46,-17.45l0 -42.39c0,-9.63 7.81,-17.46 17.46,-17.46 9.64,0 17.47,7.83 17.47,17.46l0 42.39c0,9.64 -7.83,17.45 -17.47,17.45z"/>
  <path class="fil21" d="M3935.91 2705.39c-14.45,0 -26.18,-11.72 -26.18,-26.18 0,-14.46 11.73,-26.19 26.18,-26.19 14.47,0 26.18,11.73 26.18,26.19 0,14.46 -11.71,26.18 -26.18,26.18z"/>
  <path class="fil21" d="M3950.7 2890.37c-8.16,0 -14.79,-6.64 -14.79,-14.81 0,-8.17 6.63,-14.78 14.79,-14.78 8.18,0 14.8,6.61 14.8,14.78 0,8.17 -6.62,14.81 -14.8,14.81z"/>
  <path class="fil21" d="M3909.73 2836.19c-8.17,0 -14.79,-6.62 -14.79,-14.79 0,-8.18 6.62,-14.8 14.79,-14.8 8.16,0 14.79,6.62 14.79,14.8 0,8.17 -6.63,14.79 -14.79,14.79z"/>
  <path class="fil14" d="M3544.25 2786.06c0,0 185.29,-462.25 270.67,-470.67 85.37,-8.41 497.75,122.07 500.11,140.7 2.32,18.64 -50.78,102.52 -245.58,51.26 0,0 126.67,53.6 96.41,142.13 0,0 35,70.5 -27.91,114.47 0,0 42.7,103.18 -76.51,157.43l0 -60.02c0,0 -100.05,2.15 -131.77,48.91 -31.7,46.75 -34.04,209.03 -197.13,275.84l-188.29 -400.05z"/>
  <path class="fil16" d="M3361.09 2879.72l183.16 -93.66c0,0 162.71,166.3 188.29,400.05l-168.38 106.09 -203.07 -412.48z"/>
  <path class="fil2" d="M1349.04 2076.44c0,0 308.93,-73.29 462.01,378.01 153.07,451.31 235.9,894 235.9,894l1336.21 -510.49c0,0 190.99,210.05 218.14,471.73 0,0 -1164.97,1026.64 -1742.8,1026.64 -577.82,0 -818.53,-1399.33 -896.99,-1659.59 -78.45,-260.27 194.92,-600.3 387.53,-600.3z"/>
  <path class="fil17" d="M3596.21 3303.93c-0.01,0 -4.52,3.98 -13.17,11.48 -64.93,56.29 -361.73,309.93 -709.76,549.33 -173.99,119.7 -360.8,235.84 -537.66,321.93 -176.82,86.13 -343.8,142.05 -477.12,141.97 -70.65,-0.01 -136.1,-21.33 -197.15,-59.46 -106.8,-66.7 -199.76,-185.3 -279.6,-329.52 -119.82,-216.29 -210.26,-489.83 -277.01,-730.53 -66.82,-240.83 -109.93,-448.46 -135.88,-534.6 -1.23,-4.07 -5.51,-6.36 -9.58,-5.15 -4.06,1.23 -6.36,5.52 -5.13,9.58 19.43,64.43 49.26,200.93 91.9,368.78 64.02,251.91 156.98,574.91 288.54,835.57 65.81,130.34 141.24,245.14 228,327.74 86.66,82.55 185.13,132.98 295.91,132.97 146.7,-0.08 328.51,-64.78 519.56,-161.24 572.79,-289.51 1228.06,-867.14 1228.32,-867.32 3.18,-2.81 3.49,-7.66 0.69,-10.85 -2.82,-3.19 -7.68,-3.5 -10.86,-0.68z"/>
  <path class="fil17" d="M1350.81 2083.93l0.67 -0.16c3.55,-0.75 20.56,-4.06 46.42,-4.06 45.5,0.02 118.23,10.17 193.87,62.11 75.62,51.99 154.6,145.97 212.01,315.1 76.42,225.33 135.34,448.64 175.14,615.56 19.91,83.47 35.03,152.84 45.18,201.33 5.07,24.25 8.89,43.28 11.46,56.24 2.56,12.96 3.83,19.8 3.85,19.81l1.69 9.06 1344.81 -513.78c3.97,-1.51 5.95,-5.95 4.43,-9.92 -1.51,-3.96 -5.96,-5.95 -9.92,-4.44l-1336.2 510.49 2.73 7.18 7.57 -1.41c-0.04,-0.2 -82.91,-443.11 -236.18,-895.07 -58.16,-171.51 -139.12,-268.74 -217.87,-322.81 -78.74,-54.09 -154.84,-64.82 -202.57,-64.82 -31.04,0.02 -50.18,4.52 -50.65,4.63 -4.13,0.96 -6.69,5.12 -5.7,9.25 0.98,4.12 5.12,6.67 9.26,5.71z"/>
  <path class="fil17" d="M2044.37 3341.21l-233.89 83.27 -3.07 0.57c-2.17,0 -3.97,-0.9 -5.49,-2.51 -1.51,-1.61 -2.41,-3.92 -2.4,-5.97 0.08,-2.19 0.71,-4.05 3.23,-6.12l117.06 -91.61c3.35,-2.62 3.94,-7.46 1.32,-10.79 -2.61,-3.35 -7.46,-3.94 -10.79,-1.33l-117.06 91.62c-6.13,4.72 -9.2,11.72 -9.13,18.23 0.03,6.18 2.41,11.95 6.45,16.38 4.02,4.39 10.01,7.48 16.81,7.47 2.7,0 5.49,-0.47 8.22,-1.46l233.91 -83.27c3.99,-1.41 6.09,-5.81 4.66,-9.8 -1.42,-4.01 -5.81,-6.09 -9.83,-4.68z"/>
  <path class="fil17" d="M3613.11 3407.63l-85.79 290.28 -0.77 1.25 -1.24 0.33 -1.75 -0.6 -0.58 -1.61 0 -143.92c0,-4.26 -3.44,-7.69 -7.68,-7.69 -4.24,0 -7.69,3.43 -7.69,7.69l0 143.92c-0.04,5.21 2.25,10.06 5.69,13.07 3.43,3.04 7.7,4.52 12.01,4.52 3.43,0 6.98,-0.95 10.05,-3.11 3.09,-2.14 5.57,-5.52 6.7,-9.5l85.79 -290.28c1.2,-4.07 -1.12,-8.35 -5.19,-9.55 -4.06,-1.2 -8.35,1.12 -9.55,5.2z"/>
  <path class="fil17" d="M3097.71 4198.64l-25.59 -459.19c-0.23,-4.24 -3.86,-7.49 -8.1,-7.26 -4.25,0.25 -7.49,3.87 -7.26,8.11l25.61 459.19c0.23,4.24 3.86,7.48 8.11,7.25 4.22,-0.25 7.46,-3.87 7.23,-8.1z"/>
  <path class="fil17" d="M3029.58 2965.91l-45.94 -793.75c-0.25,-4.24 -3.88,-7.47 -8.12,-7.23 -4.24,0.25 -7.47,3.88 -7.22,8.12l45.93 793.75c0.25,4.22 3.88,7.47 8.12,7.22 4.24,-0.24 7.47,-3.87 7.23,-8.11z"/>
  <path class="fil15" d="M3925.76 2469.77c53.2,5.97 105.15,21.35 153.1,45.13 8.83,4.37 16.62,-8.89 7.75,-13.3 -50.55,-25.04 -104.78,-40.91 -160.85,-47.2 -9.81,-1.11 -9.73,14.29 0,15.37z"/>
  <path class="fil15" d="M3921.26 2582.71c87.51,2.83 173.3,33.54 242.44,87.36 7.72,6.01 18.68,-4.8 10.87,-10.87 -72.53,-56.45 -161.39,-88.89 -253.31,-91.86 -9.9,-0.32 -9.89,15.05 0,15.37z"/>
  <path class="fil15" d="M3921.23 2697.18c41.12,5.09 81.73,14.28 121.04,27.36 18.72,6.26 37.56,13.04 55.38,21.6 15.01,7.2 30.66,16.76 36.31,33.34 3.18,9.3 18.04,5.3 14.84,-4.09 -12.7,-37.19 -59.07,-50.48 -92.34,-62.21 -43.82,-15.42 -89.16,-25.69 -135.23,-31.38 -9.8,-1.21 -9.72,14.18 0,15.38z"/>
  <path class="fil2" d="M3253.37 1393.97l0.01 -0.06c-220.54,83.33 -525.19,-111.31 -525.19,-111.31 -102.84,181.06 -125.56,398.76 -125.58,398.9 76.55,58.82 172.46,98.78 289.11,88.83 166.61,-14.22 283.67,-189.99 361.65,-376.36z"/>
  <path class="fil22" d="M2700.83 1748.06c0.17,0.07 16.78,7.87 39.88,15.71 23.12,7.81 52.61,15.75 79.33,15.79 4.24,0 7.69,-3.44 7.69,-7.69 0,-4.26 -3.45,-7.69 -7.69,-7.69 -23.66,0.03 -52.15,-7.41 -74.4,-14.97 -11.14,-3.78 -20.75,-7.56 -27.56,-10.39 -3.42,-1.43 -6.11,-2.6 -7.95,-3.42 -1.85,-0.83 -2.77,-1.26 -2.77,-1.26 -3.84,-1.8 -8.42,-0.15 -10.22,3.69 -1.82,3.85 -0.16,8.43 3.69,10.23z"/>
  <path class="fil2" d="M2758.77 1317.62l-310.47 -504.32c-2.22,-3.63 -6.96,-4.75 -10.57,-2.53 -3.62,2.24 -4.75,6.97 -2.53,10.58l310.47 504.33c2.23,3.63 6.97,4.75 10.58,2.52 3.61,-2.23 4.75,-6.96 2.52,-10.58z"/>
  <path class="fil2" d="M2334.93 1093.59c0.12,0.33 88.45,279.13 270.58,586.22 2.16,3.66 6.87,4.86 10.53,2.69 3.64,-2.15 4.86,-6.87 2.69,-10.53 -90.59,-152.73 -157.91,-298.57 -202.56,-406.19 -22.32,-53.81 -38.99,-98.06 -50.06,-128.84 -5.52,-15.39 -9.67,-27.41 -12.42,-35.57 -2.74,-8.17 -4.09,-12.41 -4.09,-12.43 -1.29,-4.04 -5.61,-6.29 -9.66,-5.01 -4.04,1.29 -6.29,5.61 -5.01,9.66z"/>
  <path class="fil14" d="M2465 914.07c0,0 -12.95,-169.67 -109.36,-169.67 -96.38,0 -197.88,307.42 40.82,401.04l68.54 -231.37z"/>
  <path class="fil18" d="M3022.75 1245.99c0,25.85 -20.94,46.79 -46.78,46.79 -25.83,0 -46.77,-20.94 -46.77,-46.79 0,-25.83 20.94,-46.78 46.77,-46.78 25.84,0 46.78,20.95 46.78,46.78z"/>
  <path class="fil18" d="M3264.53 1295.96c-9.31,24.1 -31.63,37.93 -49.88,30.89 -18.23,-7.06 -25.49,-32.29 -16.17,-56.41 9.3,-24.09 31.64,-37.92 49.89,-30.87 18.23,7.04 25.48,32.3 16.16,56.39z"/>
  <path class="fil18" d="M2830.85 1091.26c0,0 245.47,-91.67 264.19,46.78 2.6,19.12 -219.92,-45.12 -264.19,-46.78z"/>
  <path class="fil18" d="M3352.84 1083.1c-3.65,15.22 -7.63,31.27 -12.08,48.15 -73.49,17.05 -153.43,35.75 -151.78,24.34 10.6,-78.28 93.5,-83.1 163.86,-72.49z"/>
  <path class="fil15" d="M2342.93 826.33c17.89,9.43 27.36,28.83 34.84,46.79 7.98,19.22 13.43,39.72 16.06,60.36 5.26,41.49 -0.23,84.32 -16.54,122.87 -3.82,8.99 9.42,16.85 13.28,7.75 18.16,-42.93 24.45,-89.67 17.93,-135.87 -3.26,-23.15 -9.73,-45.63 -19.24,-67 -8.46,-19.05 -19.53,-38.12 -38.57,-48.18 -8.73,-4.61 -16.51,8.65 -7.76,13.28z"/>
  <path class="fil15" d="M2385.88 886.42c-21.64,-0.5 -42.75,10.54 -54.64,28.67 -12.4,18.93 -12.8,43.99 -2.5,63.88 4.55,8.79 17.81,1.03 13.26,-7.76 -7.85,-15.18 -6.84,-34.07 2.53,-48.35 8.95,-13.66 25.23,-21.46 41.35,-21.07 9.9,0.22 9.9,-15.16 0,-15.37z"/>
  <polygon class="fil23" points="6009.54,3969.47 3567.89,3969.47 3567.89,4878.18 6009.54,4878.18 "/>
  <polygon class="fil24" points="3469.56,4131.3 6009.54,4131.3 6009.54,3870.35 3469.56,3870.35 "/>
  <path class="fil25" d="M4014.92 3650.16l1407.48 0 0 128.31c0,50.75 -41.15,91.88 -91.9,91.88l-1223.7 0c-50.74,0 -91.88,-41.13 -91.88,-91.88l0 -128.31z"/>
  <g style="clip-path:url(#id11)">
   <image x="5315.96" y="3858.11" width="23.37" height="23.37" xlink:href="about-vector_Images\about-vector_ImgID12.png"/>
  </g>
  <g style="clip-path:url(#id12)">
   <image x="5322.11" y="3858.11" width="24.91" height="23.37" xlink:href="about-vector_Images\about-vector_ImgID13.png"/>
  </g>
  <g style="clip-path:url(#id13)">
   <image x="4001.45" y="3636.72" width="1433.2" height="244.76" xlink:href="about-vector_Images\about-vector_ImgID14.png"/>
  </g>
  <path class="fil2" d="M4662.26 3726.63l-467.42 0c-8.18,0 -14.82,-6.64 -14.82,-14.82 0,-8.2 6.64,-14.84 14.82,-14.84l467.42 0c8.19,0 14.82,6.64 14.82,14.84 0,8.18 -6.63,14.82 -14.82,14.82z"/>
  <path class="fil2" d="M4845.95 3726.63l-84.1 0c-8.16,0 -14.82,-6.64 -14.82,-14.82 0,-8.2 6.66,-14.84 14.82,-14.84l84.1 0c8.18,0 14.84,6.64 14.84,14.84 0,8.18 -6.66,14.82 -14.84,14.82z"/>
  <path class="fil2" d="M3933.62 1112.31l2075.92 0 0 -129.97 -2075.92 0c-35.88,0 -64.99,29.1 -64.99,65 0,35.88 29.11,64.97 64.99,64.97z"/>
  <polygon class="fil26" points="4163.14,982.34 4365.44,982.34 4365.44,0.13 4163.14,0.13 "/>
  <polygon class="fil7" points="4364.46,982.34 4730.98,982.34 4730.98,0.13 4364.46,0.13 "/>
  <g style="clip-path:url(#id14)">
   <image x="4356.6" y="-8.54" width="384.67" height="1004.25" xlink:href="about-vector_Images\about-vector_ImgID15.png"/>
  </g>
  <polygon class="fil26" points="4562.08,982.34 4764.37,982.34 4764.37,0.13 4562.08,0.13 "/>
  <polygon class="fil7" points="4763.39,982.34 5129.91,982.34 5129.91,0.13 4763.39,0.13 "/>
  <g style="clip-path:url(#id15)">
   <image x="4754.79" y="-8.54" width="384.67" height="1004.25" xlink:href="about-vector_Images\about-vector_ImgID16.png"/>
  </g>
  <polygon class="fil7" points="4612.68,883.68 4707.72,883.68 4707.72,788.65 4612.68,788.65 "/>
  <polygon class="fil7" points="4612.68,739.24 4707.72,739.24 4707.72,711 4612.68,711 "/>
  <polygon class="fil7" points="4216.17,883.68 4311.21,883.68 4311.21,788.65 4216.17,788.65 "/>
  <polygon class="fil7" points="4216.17,739.24 4311.21,739.24 4311.21,711 4216.17,711 "/>
  <polygon class="fil7" points="4943.59,982.35 6009.54,982.35 6009.54,725.11 4943.59,725.11 "/>
  <polygon class="fil2" points="4943.59,958.16 6009.54,958.16 6009.54,755.86 4943.59,755.86 "/>
  <polygon class="fil26" points="4943.59,783.12 5669.92,783.12 5669.92,776.78 4943.59,776.78 "/>
  <polygon class="fil26" points="4943.59,812.62 5669.92,812.62 5669.92,806.27 4943.59,806.27 "/>
  <polygon class="fil26" points="4943.59,842.14 5669.92,842.14 5669.92,835.78 4943.59,835.78 "/>
  <polygon class="fil26" points="4943.59,871.66 5669.92,871.66 5669.92,865.31 4943.59,865.31 "/>
  <polygon class="fil26" points="4943.59,901.16 5669.92,901.16 5669.92,894.81 4943.59,894.81 "/>
  <polygon class="fil26" points="4943.59,930.68 5669.92,930.68 5669.92,924.32 4943.59,924.32 "/>
  <g style="clip-path:url(#id16)">
   <image x="5654.19" y="714.05" width="363.14" height="281.66" xlink:href="about-vector_Images\about-vector_ImgID17.png"/>
  </g>
  <g style="clip-path:url(#id17)">
   <image x="5654.19" y="743.27" width="363.14" height="223.24" xlink:href="about-vector_Images\about-vector_ImgID18.png"/>
  </g>
  <polygon class="fil7" points="5065.85,725.11 6009.54,725.11 6009.54,467.87 5065.85,467.87 "/>
  <polygon class="fil2" points="5065.85,700.91 6009.54,700.91 6009.54,498.61 5065.85,498.61 "/>
  <polygon class="fil26" points="5065.85,525.89 5792.19,525.89 5792.19,519.54 5065.85,519.54 "/>
  <polygon class="fil26" points="5065.85,555.39 5792.19,555.39 5792.19,549.04 5065.85,549.04 "/>
  <polygon class="fil26" points="5065.85,584.91 5792.19,584.91 5792.19,578.56 5065.85,578.56 "/>
  <polygon class="fil26" points="5065.85,614.43 5792.19,614.43 5792.19,608.07 5065.85,608.07 "/>
  <polygon class="fil26" points="5065.85,643.93 5792.19,643.93 5792.19,637.58 5065.85,637.58 "/>
  <polygon class="fil26" points="5065.85,673.45 5792.19,673.45 5792.19,667.11 5065.85,667.11 "/>
  <g style="clip-path:url(#id18)">
   <image x="5780.26" y="455.77" width="237.07" height="281.66" xlink:href="about-vector_Images\about-vector_ImgID19.png"/>
  </g>
  <g style="clip-path:url(#id19)">
   <image x="5780.26" y="484.98" width="237.07" height="230.92" xlink:href="about-vector_Images\about-vector_ImgID20.png"/>
  </g>
  <path class="fil27" d="M5330.65 3870.38l-1223.98 0c0,0 -0.41,0 -0.82,-0.07 -50.37,-0.49 -90.99,-41.42 -90.99,-91.85l0 0 0 -128.28 60.53 0 0 57.37c0,50.79 41.03,91.93 91.81,91.93l1223.98 0c10.16,0 20.31,-2.15 29.65,-5.41 -7.3,42.59 -43.87,75.27 -88.15,76.24 0,0 0,0 0,0 0,0 0,0 -0.4,0 0,0 0,0 0,0 0,0 0,0 0,0 0,0 0,0 -0.41,0 0,0 0,0 0,0 0,0 0,0 0,0 0,0 0,0 -0.41,0 0,0 0,0 0,0 0,0 0,0 0,0 0,0 -0.4,0 -0.4,0 0,0 0,0.07 0,0.07 0,0 0,0 0,0 -0.41,0 -0.41,0 -0.41,0 0,0 0,0 0,0l0 0 0 0z"/>
 </g>
</svg>
