<svg width="1920" height="267" viewBox="0 0 1920 267" fill="none" xmlns="http://www.w3.org/2000/svg">
<path fill-rule="evenodd" clip-rule="evenodd" d="M1920 33.5922L1856 55.6009C1792 78.1887 1664 122.206 1536 127.998C1408 133.79 1280 100.197 1152 66.6052C1024 33.5922 896 0 768 22.5879C640 44.5965 512 122.206 384 127.998C256 133.79 128 66.6052 64 33.5922L0 0V267H64C128 267 256 267 384 267C512 267 640 267 768 267C896 267 1024 267 1152 267C1280 267 1408 267 1536 267C1664 267 1792 267 1856 267H1920V33.5922Z" fill="#010030"/>
</svg>
