<?xml version="1.0" encoding="UTF-8"?>
<!DOCTYPE svg PUBLIC "-//W3C//DTD SVG 1.1//EN" "http://www.w3.org/Graphics/SVG/1.1/DTD/svg11.dtd">
<!-- Creator: CorelDRAW 2019 (64-Bit Evaluation Version) -->
<svg xmlns="http://www.w3.org/2000/svg" xml:space="preserve" width="1500px" height="915px" version="1.1" style="shape-rendering:geometricPrecision; text-rendering:geometricPrecision; image-rendering:optimizeQuality; fill-rule:evenodd; clip-rule:evenodd"
viewBox="0 0 1465.05 894.39"
 xmlns:xlink="http://www.w3.org/1999/xlink">
 <defs>
  <style type="text/css">
   <![CDATA[
    .fil6 {fill:#FEFEFE;fill-rule:nonzero}
    .fil19 {fill:#F9A34A;fill-rule:nonzero}
    .fil13 {fill:#F5927A;fill-rule:nonzero}
    .fil9 {fill:#F05E63;fill-rule:nonzero}
    .fil27 {fill:#F6A93D;fill-rule:nonzero}
    .fil17 {fill:#EF6F56;fill-rule:nonzero}
    .fil14 {fill:#E8674F;fill-rule:nonzero}
    .fil1 {fill:#D3D7E1;fill-rule:nonzero}
    .fil20 {fill:#D57C43;fill-rule:nonzero}
    .fil26 {fill:#C9D1E2;fill-rule:nonzero}
    .fil5 {fill:#C5CADC;fill-rule:nonzero}
    .fil11 {fill:#C2D0E0;fill-rule:nonzero}
    .fil25 {fill:#C2C9DC;fill-rule:nonzero}
    .fil7 {fill:#C0C7DB;fill-rule:nonzero}
    .fil18 {fill:#C04059;fill-rule:nonzero}
    .fil28 {fill:#BD7958;fill-rule:nonzero}
    .fil30 {fill:#61545F;fill-rule:nonzero}
    .fil16 {fill:#605F63;fill-rule:nonzero}
    .fil8 {fill:#45444A;fill-rule:nonzero}
    .fil12 {fill:#2C2A2C;fill-rule:nonzero}
    .fil29 {fill:#354144;fill-rule:nonzero}
    .fil23 {fill:#2271B7;fill-rule:nonzero}
    .fil10 {fill:#00AC74;fill-rule:nonzero}
    .fil22 {fill:#355CA7;fill-rule:nonzero}
    .fil15 {fill:#0C855F;fill-rule:nonzero}
    .fil3 {fill:#547B37;fill-rule:nonzero}
    .fil21 {fill:#547B37;fill-rule:nonzero}
    .fil4 {fill:#97C570;fill-rule:nonzero}
    .fil24 {fill:#97C570;fill-rule:nonzero}
    .fil2 {fill:#AAD576;fill-rule:nonzero}
    .fil0 {fill:#AAD576;fill-rule:nonzero}
   ]]>
  </style>
 </defs>
 <g id="Layer_x0020_1">
  <metadata id="CorelCorpID_0Corel-Layer"/>
  <path class="fil0" d="M856.88 724.52c-99.07,0 -191.52,-16.12 -274.57,-41.27 142.63,-0.48 277.19,-17.77 387.94,-58.27l77.26 0c-5.92,20.7 -7.4,45.15 -0.52,73.97 -30.86,10.33 -64.6,17.64 -101.28,21.23 -30.15,2.96 -59.76,4.34 -88.83,4.34zm327.07 -246.85c10,-13.28 19.04,-27.32 27.06,-42.12 4.72,7.83 10.81,13.16 16.9,13.16 0.63,0 1.25,-0.06 1.88,-0.17l38.45 5.49c2.32,0.41 4.65,0.64 6.94,0.64 4.17,0 8.22,-0.77 11.92,-2.6 -1.95,7.19 -4.15,14.36 -6.62,21.53 -8.52,-2.07 -17.12,-3.5 -17.12,-3.5l-30.61 -5.56c-0.16,-0.01 -0.32,-0.01 -0.48,-0.01 -7.04,0 -16.81,2.98 -22.84,4.42 -6.8,1.63 -16.24,4.7 -25.48,8.72zm113.87 -114.03c-14.66,-14.83 -26.91,-15.42 -28.78,-15.42 -0.16,0 -0.24,0.01 -0.24,0.01 -2.88,-1.32 -8.12,-2.5 -14.47,-2.5 -3.12,0 -6.5,0.29 -10.01,0.97 6.93,-30.09 10.55,-62.54 10.55,-97.49 0,-3.49 -0.09,-6.99 -0.26,-10.49 27.1,32.67 41.61,76.7 43.21,124.92zm-1151.19 -65.69l-3.9 0c4.84,-72.67 45.82,-147.57 153.22,-181.99 22.85,-7.32 45.88,-10.63 68.68,-10.86 -5.28,4.63 -8.61,11.42 -8.61,18.99l0 55.9c-36.78,1.15 -75.85,8.58 -118.48,26.41 -38.53,16.13 -70.55,49.54 -90.91,91.55z"/>
  <path class="fil1" d="M1290.99 219.86c-8.88,0 -16.07,-7.74 -16.07,-17.29 0,-9.55 7.19,-17.29 16.07,-17.29 8.87,0 16.06,7.74 16.06,17.29 0,9.55 -7.19,17.29 -16.06,17.29z"/>
  <path class="fil2" d="M243.68 109.16c-1.58,0 -3.28,-0.31 -5.06,-0.99 -9,-6.67 -5.08,-17.91 3.57,-19.5 0.63,-0.12 1.27,-0.18 1.9,-0.18 4.26,0 8.24,2.6 9.75,6.7 2.46,6.66 -2.46,13.97 -10.16,13.97z"/>
  <path class="fil2" d="M1247.13 68.95c-11.56,0 -20.93,-9.37 -20.93,-20.93 0,-11.56 9.37,-20.93 20.93,-20.93 11.56,0 20.93,9.37 20.93,20.93 0,11.56 -9.37,20.93 -20.93,20.93z"/>
  <path class="fil3" d="M285.26 99.02c-9.24,0 -17.73,-6.11 -20.35,-15.44 -3.15,-11.25 3.41,-22.91 14.65,-26.06 1.91,-0.54 3.83,-0.79 5.72,-0.79 9.24,0 17.73,6.1 20.34,15.43 3.16,11.25 -3.4,22.91 -14.65,26.07 -1.9,0.53 -3.82,0.79 -5.71,0.79z"/>
  <path class="fil2" d="M1207.7 28.87c-7.1,0 -12.87,-5.76 -12.87,-12.87 0,-7.11 5.77,-12.88 12.87,-12.88 7.12,0 12.88,5.77 12.88,12.88 0,7.11 -5.76,12.87 -12.88,12.87z"/>
  <path class="fil2" d="M576.19 683.26c-20.4,0 -41.01,-0.35 -61.67,-1.01 -365.23,-11.72 -431.97,-233.43 -372.82,-373.42l0.57 0c-0.73,40.49 9.39,79.61 25.05,109.89 18.92,36.58 86.27,102.8 188.7,164.28l0 16.74c0,13.94 11.3,25.24 25.24,25.24l52.35 0c45.14,21.93 94.96,41.99 148.7,58.27 -2.05,0 -4.08,0.01 -6.12,0.01z"/>
  <path class="fil4" d="M582.31 683.25c-53.74,-16.28 -103.56,-36.34 -148.7,-58.27l536.64 0c-110.75,40.5 -245.31,57.79 -387.94,58.27zm-226.29 -100.25c-102.43,-61.48 -169.78,-127.7 -188.7,-164.28 -15.66,-30.28 -25.78,-69.4 -25.05,-109.89l101.37 0 4.68 -10.88 -101.69 0c20.36,-42.01 52.38,-75.42 90.91,-91.55 42.63,-17.83 81.7,-25.26 118.48,-26.41l0 403.01z"/>
  <path class="fil2" d="M1254.61 238.72c-16.58,-19.98 -37.87,-35.71 -63.81,-45.59 -3.28,-1.24 -6.52,-2.41 -9.72,-3.49l0 -65.55c0,-12.19 -8.65,-22.37 -20.15,-24.72 -0.21,-0.05 -0.41,-0.09 -0.62,-0.12l-0.3 -0.05c-0.22,-0.05 -0.42,-0.08 -0.64,-0.1 -0.32,-0.05 -0.65,-0.09 -0.97,-0.11 -0.2,-0.03 -0.4,-0.05 -0.59,-0.06l-0.03 0c-0.27,-0.03 -0.54,-0.04 -0.82,-0.05 -0.37,-0.02 -0.74,-0.03 -1.12,-0.03l-296.35 0c41.92,-51.43 85.99,-98.85 164.65,-98.85 3.09,0 6.25,0.07 9.44,0.22 2.13,0.1 4.25,0.22 6.34,0.35 115.56,7.38 209.1,126.1 214.69,238.15z"/>
  <path class="fil5" d="M1181.08 478.96l0 -289.32c3.2,1.08 6.44,2.25 9.72,3.49 25.94,9.88 47.23,25.61 63.81,45.59 0.17,3.5 0.26,7 0.26,10.49 0,34.95 -3.62,67.4 -10.55,97.49 -9.44,1.85 -19.75,6.63 -28.05,16.7l0 0.01c-0.56,0.47 -11.32,11.88 -13.81,35.83 -1.27,12.24 2.53,26.31 8.55,36.31 -8.02,14.8 -17.06,28.84 -27.06,42.12 -0.96,0.42 -1.91,0.85 -2.87,1.29z"/>
  <path class="fil0" d="M1176.24 802.95c0,11.19 -175.84,20.26 -392.76,20.26 -216.92,0 -392.76,-9.07 -392.76,-20.26 0,-11.19 175.84,-20.26 392.76,-20.26 216.92,0 392.76,9.07 392.76,20.26z"/>
  <path class="fil6" d="M1038.92 802.85l-521.2 0 0 -22.58c0,-18.79 15.23,-34.03 34.03,-34.03l453.14 0c18.79,0 34.03,15.24 34.03,34.03l0 22.58z"/>
  <polygon class="fil6" points="682.38,746.24 871.31,746.24 871.31,624.95 682.38,624.95 "/>
  <polygon class="fil0" points="682.38,662.19 871.31,647.07 871.34,624.95 682.41,625.18 "/>
  <path class="fil6" d="M1181.08 124.09l0 475.65c0,13.94 -11.3,25.24 -25.24,25.24l-774.58 0c-13.94,0 -25.24,-11.3 -25.24,-25.24l0 -475.65c0,-13.93 11.3,-25.24 25.24,-25.24l774.58 0c0.38,0 0.75,0.01 1.12,0.03 0.28,0.01 0.55,0.02 0.82,0.05l0.03 0c0.19,0.01 0.39,0.03 0.59,0.06 0.32,0.02 0.65,0.06 0.97,0.11 0.22,0.02 0.42,0.05 0.64,0.1l0.3 0.05c0.21,0.03 0.41,0.07 0.62,0.12 11.5,2.35 20.15,12.53 20.15,24.72z"/>
  <path class="fil7" d="M794.2 590.82c0,9.64 -7.82,17.45 -17.45,17.45 -9.64,0 -17.45,-7.81 -17.45,-17.45 0,-9.63 7.81,-17.45 17.45,-17.45 9.63,0 17.45,7.82 17.45,17.45z"/>
  <path class="fil8" d="M1148.36 520.57c0,3.79 -3.07,6.86 -6.87,6.86l-745.88 0c-3.8,0 -6.87,-3.07 -6.87,-6.86l0 -382.12c0,-3.8 3.07,-6.87 6.87,-6.87l745.88 0c3.8,0 6.87,3.07 6.87,6.87l0 382.12zm12.57 -421.2c-0.21,-0.05 -0.41,-0.09 -0.62,-0.12l-0.3 -0.05c-0.22,-0.05 -0.42,-0.08 -0.64,-0.1 -0.32,-0.05 -0.65,-0.09 -0.97,-0.11 -0.2,-0.03 -0.4,-0.05 -0.59,-0.06l-0.03 0c-0.27,-0.03 -0.54,-0.04 -0.82,-0.05 -0.37,-0.02 -0.74,-0.03 -1.12,-0.03l-774.58 0c-13.94,0 -25.24,11.31 -25.24,25.24l0 440.47 825.06 0 0 -440.47c0,-12.19 -8.65,-22.37 -20.15,-24.72z"/>
  <path class="fil7" d="M1148.36 138.45l0 382.12c0,3.79 -3.07,6.86 -6.87,6.86l-745.88 0c-3.8,0 -6.87,-3.07 -6.87,-6.86l0 -382.12c0,-3.8 3.07,-6.87 6.87,-6.87l745.88 0c3.8,0 6.87,3.07 6.87,6.87z"/>
  <path class="fil6" d="M1148.36 138.45l0 36.05 -759.62 0 0 -36.05c0,-3.8 3.07,-6.87 6.87,-6.87l745.88 0c3.8,0 6.87,3.07 6.87,6.87z"/>
  <path class="fil9" d="M1089.52 152.47c0,3.22 -2.61,5.83 -5.83,5.83 -3.22,0 -5.83,-2.61 -5.83,-5.83 0,-3.22 2.61,-5.84 5.83,-5.84 3.22,0 5.83,2.62 5.83,5.84z"/>
  <path class="fil10" d="M1108.43 152.47c0,3.22 -2.62,5.83 -5.84,5.83 -3.22,0 -5.83,-2.61 -5.83,-5.83 0,-3.22 2.61,-5.84 5.83,-5.84 3.22,0 5.84,2.62 5.84,5.84z"/>
  <path class="fil11" d="M1054.17 158.64l-593.89 0c-2.87,0 -5.21,-2.34 -5.21,-5.21l0 -1.93c0,-2.86 2.34,-5.2 5.21,-5.2l593.89 0c2.86,0 5.21,2.34 5.21,5.2l0 1.93c0,2.87 -2.35,5.21 -5.21,5.21z"/>
  <path class="fil12" d="M416.17 152.47l0 5.71c0,0.8 -0.87,1.31 -1.57,0.9l-4.95 -2.85 -4.95 -2.86c-0.69,-0.4 -0.69,-1.41 0,-1.81l4.95 -2.86 4.95 -2.85c0.7,-0.41 1.57,0.1 1.57,0.9l0 5.72z"/>
  <path class="fil12" d="M424.86 152.47l0 5.71c0,0.8 0.88,1.31 1.57,0.9l4.95 -2.85 4.95 -2.86c0.69,-0.4 0.69,-1.41 0,-1.81l-4.95 -2.86 -4.95 -2.85c-0.69,-0.41 -1.57,0.1 -1.57,0.9l0 5.72z"/>
  <path class="fil8" d="M1116.33 157.38l-0.35 -0.35c-0.55,-0.54 -0.55,-1.43 0,-1.98l7.93 -7.92c0.54,-0.55 1.43,-0.55 1.97,0l0.36 0.35c0.54,0.55 0.54,1.43 0,1.98l-7.93 7.92c-0.55,0.55 -1.43,0.55 -1.98,0z"/>
  <path class="fil8" d="M1125.88 157.38l0.36 -0.35c0.54,-0.54 0.54,-1.43 0,-1.98l-7.93 -7.92c-0.55,-0.55 -1.43,-0.55 -1.98,0l-0.35 0.35c-0.55,0.55 -0.55,1.43 0,1.98l7.93 7.92c0.54,0.55 1.43,0.55 1.97,0z"/>
  <path class="fil6" d="M1046.73 512.06l-558.39 0c-7.59,0 -13.73,-6.15 -13.73,-13.73l0 -301.39c0,-7.58 6.14,-13.73 13.73,-13.73l558.39 0c7.58,0 13.73,6.15 13.73,13.73l0 301.39c0,7.58 -6.15,13.73 -13.73,13.73z"/>
  <path class="fil7" d="M636.22 425.36l-135.62 0c-3.55,0 -6.44,-2.88 -6.44,-6.44l0 -70.48c0,-3.56 2.89,-6.44 6.44,-6.44l135.62 0c3.56,0 6.44,2.88 6.44,6.44l0 70.48c0,3.56 -2.88,6.44 -6.44,6.44z"/>
  <path class="fil7" d="M1031.61 286.16l-135.62 0c-3.55,0 -6.44,-2.89 -6.44,-6.45l0 -70.48c0,-3.55 2.89,-6.44 6.44,-6.44l135.62 0c3.56,0 6.44,2.89 6.44,6.44l0 70.48c0,3.56 -2.88,6.45 -6.44,6.45z"/>
  <path class="fil7" d="M639.25 280.73l-141.9 0c-1.88,0 -3.41,-1.53 -3.41,-3.41l0 -0.31c0,-1.89 1.53,-3.41 3.41,-3.41l141.9 0c1.89,0 3.41,1.52 3.41,3.41l0 0.31c0,1.88 -1.52,3.41 -3.41,3.41z"/>
  <path class="fil7" d="M639.25 250.54l-141.9 0c-1.88,0 -3.41,-1.53 -3.41,-3.41l0 -0.31c0,-1.89 1.53,-3.41 3.41,-3.41l141.9 0c1.89,0 3.41,1.52 3.41,3.41l0 0.31c0,1.88 -1.52,3.41 -3.41,3.41z"/>
  <path class="fil7" d="M639.25 310.92l-141.9 0c-1.88,0 -3.41,-1.52 -3.41,-3.41l0 -0.31c0,-1.88 1.53,-3.41 3.41,-3.41l141.9 0c1.89,0 3.41,1.53 3.41,3.41l0 0.31c0,1.89 -1.52,3.41 -3.41,3.41z"/>
  <path class="fil7" d="M1034.64 351.47l-141.68 0c-1.88,0 -3.41,-1.53 -3.41,-3.41l0 -0.32c0,-1.88 1.53,-3.41 3.41,-3.41l141.68 0c1.89,0 3.41,1.53 3.41,3.41l0 0.32c0,1.88 -1.52,3.41 -3.41,3.41z"/>
  <path class="fil7" d="M1034.64 321.28l-141.68 0c-1.88,0 -3.41,-1.53 -3.41,-3.41l0 -0.32c0,-1.88 1.53,-3.41 3.41,-3.41l141.68 0c1.89,0 3.41,1.53 3.41,3.41l0 0.32c0,1.88 -1.52,3.41 -3.41,3.41z"/>
  <path class="fil7" d="M1034.64 381.66l-141.68 0c-1.88,0 -3.41,-1.53 -3.41,-3.41l0 -0.31c0,-1.89 1.53,-3.42 3.41,-3.42l141.68 0c1.89,0 3.41,1.53 3.41,3.42l0 0.31c0,1.88 -1.52,3.41 -3.41,3.41z"/>
  <path class="fil8" d="M474.61 460.99l585.85 0 0 48.03c0,1.67 -1.36,3.04 -3.05,3.04l-579.76 0c-1.68,0 -3.04,-1.37 -3.04,-3.04l0 -48.03z"/>
  <path class="fil6" d="M1018.45 479.92l0 -4.33 5.42 0 0 -3.85 -7.34 0c-1.07,0 -1.93,0.86 -1.93,1.93l0 6.25 3.85 0z"/>
  <path class="fil6" d="M1018.45 487.62l-3.85 0 0 6.59c0,1.06 0.86,1.93 1.93,1.93l7.34 0 0 -3.86 -5.42 0 0 -4.66z"/>
  <path class="fil6" d="M1035.15 479.92l3.85 0 0 -6.25c0,-1.07 -0.86,-1.93 -1.93,-1.93l-7.06 0 0 3.85 5.14 0 0 4.33z"/>
  <path class="fil6" d="M1035.15 487.62l0 4.66 -5.14 0 0 3.86 7.06 0c1.07,0 1.93,-0.87 1.93,-1.93l0 -6.59 -3.85 0z"/>
  <polygon class="fil7" points="474.61,460.99 1060.46,460.99 1060.46,451.39 474.61,451.39 "/>
  <polygon class="fil8" points="517.17,193.24 523.78,193.24 523.78,207.72 532.63,207.72 532.63,212.84 517.17,212.84 "/>
  <polygon class="fil8" points="534.45,212.84 541.06,212.84 541.06,193.24 534.45,193.24 "/>
  <polygon class="fil8" points="565.2,193.24 556.91,212.84 550.41,212.84 542.12,193.24 549.23,193.24 553.91,204.69 558.7,193.24 "/>
  <polygon class="fil8" points="582.14,207.86 582.14,212.84 565.84,212.84 565.84,193.24 581.77,193.24 581.77,198.22 572.33,198.22 572.33,200.52 580.63,200.52 580.63,205.28 572.33,205.28 572.33,207.86 "/>
  <path class="fil9" d="M506.29 202.88c0,4.45 -3.61,8.06 -8.06,8.06 -4.45,0 -8.06,-3.61 -8.06,-8.06 0,-4.45 3.61,-8.06 8.06,-8.06 4.45,0 8.06,3.61 8.06,8.06z"/>
  <path class="fil9" d="M984.12 418.83c0,3.91 -3.17,7.08 -7.08,7.08 -3.91,0 -7.08,-3.17 -7.08,-7.08 0,-3.91 3.17,-7.08 7.08,-7.08 3.91,0 7.08,3.17 7.08,7.08z"/>
  <path class="fil9" d="M990.27 436.75l-26.47 0c0,0 3.01,-8.41 13.04,-8.41l0.2 0 0.2 0c10.03,0 13.03,8.41 13.03,8.41z"/>
  <polygon class="fil8" points="1014.69,414.54 1014.69,418.98 1007.56,435.98 999.66,435.98 1006.45,420.15 1002.32,420.15 1002.32,423.27 996.35,423.27 996.35,414.54 "/>
  <path class="fil8" d="M1033.49 430.38l0 5.6 -17.18 0 0 -4.44 7.75 -7.17c1.47,-1.37 1.68,-2.2 1.68,-2.94 0,-1.04 -0.7,-1.68 -2.08,-1.68 -1.28,0 -2.51,0.7 -3.15,1.99l-5.45 -2.72c1.56,-2.94 4.65,-4.96 9.28,-4.96 5.08,0 8.66,2.63 8.66,6.7 0,2.11 -0.55,4.01 -3.67,6.83l-3.06 2.79 7.22 0z"/>
  <path class="fil13" d="M926.84 262.23c0,0 5.28,16.98 18.51,18.31 10.69,1.07 19.04,-10.22 21.87,-14.6 0.67,-1.05 1.03,-1.7 1.03,-1.7 0,0 0.78,-0.02 1.92,-0.2 2.69,-0.41 7.41,-1.63 8.82,-5.21 2.01,-5.09 -8.16,-6.96 -8.16,-6.96 0,0 4.36,-5.15 2.66,-8.22 -1.67,-3.01 -8.46,-2.74 -8.46,-2.74 0,0 6.55,-5.68 3.57,-9.42 -4.48,-5.63 -10.99,2.15 -11.53,2.61 0.39,-0.61 17.19,-26.13 11.84,-27.15 -4.67,-0.9 -20.11,19.71 -24.24,25.35 -0.66,0.89 -1.02,1.41 -1.02,1.41 0,0 -0.32,-0.18 -0.88,-0.45 -2.64,-1.27 -10.64,-4.56 -14.81,0.04 -5.03,5.55 -1.12,28.93 -1.12,28.93z"/>
  <path class="fil14" d="M959.46 254.98c-2.01,1.61 -3.67,3.63 -4.06,5.48 -0.25,1.2 0.04,2.25 0.83,3.04 0.54,0.55 1.39,0.98 2.42,1.31 2.56,0.83 6.16,1.07 8.57,1.13 0.67,-1.05 1.02,-1.7 1.02,-1.7 0,0 0.79,-0.02 1.94,-0.2 -0.17,-0.1 -0.36,-0.15 -0.56,-0.14 -3.82,0.08 -10.44,-0.34 -11.94,-1.84 -0.2,-0.2 -0.41,-0.52 -0.27,-1.18 0.42,-2.04 3.72,-5.12 6.76,-6.34 0.49,-0.19 0.76,-0.72 0.62,-1.22 -0.14,-0.51 -0.64,-0.83 -1.15,-0.75 -2.51,0.4 -9.47,0.94 -11.66,-1.26 -0.31,-0.32 -0.27,-0.52 -0.25,-0.63 0.1,-0.48 0.62,-1.04 1.35,-1.62 1.49,-1.17 3.91,-2.4 5.7,-3.1 0.2,-0.08 0.37,-0.21 0.48,-0.39 0.18,-0.27 0.23,-0.61 0.1,-0.94 -0.2,-0.52 -0.8,-0.78 -1.33,-0.58 -0.8,0.31 -3.6,1.46 -5.74,3.03 -0.78,0.58 -1.48,1.21 -1.95,1.88 -0.31,0.42 -0.52,0.86 -0.62,1.3 -0.13,0.64 -0.1,1.58 0.81,2.5 1.93,1.94 5.82,2.3 8.93,2.22z"/>
  <path class="fil14" d="M949.53 240.09c0.3,0.29 0.4,0.73 0.24,1.12 -0.52,1.23 -0.79,2.4 -0.67,3.24 0.11,0.66 0.41,0.89 0.67,1.01 0.41,0.19 1.03,0.26 1.78,0.23 1.86,-0.08 4.56,-0.75 6.97,-1.51 -0.11,0.17 -0.28,0.3 -0.48,0.38 -1.78,0.7 -4.21,1.93 -5.7,3.1 -0.24,0.03 -0.49,0.04 -0.72,0.05 -0.74,0.03 -1.44,-0.01 -2.02,-0.15 -0.26,-0.07 -0.49,-0.14 -0.7,-0.24 -1.02,-0.48 -1.65,-1.37 -1.82,-2.57 -0.19,-1.27 0.15,-2.81 0.8,-4.35 0.27,-0.66 1.11,-0.82 1.62,-0.33l0.03 0.02z"/>
  <path class="fil14" d="M931.19 243.51c0.22,0.14 3.57,2.34 7.29,3.54 2.07,0.68 4.25,1.04 6.08,0.59 1.51,-0.37 2.65,-1.24 3.39,-2.59 2.61,-4.77 -0.93,-10.04 -3.28,-12.75 -0.66,0.89 -1.02,1.41 -1.02,1.41 0,0 -0.32,-0.18 -0.88,-0.45 2.01,2.23 5.5,6.94 3.38,10.8 -0.46,0.84 -1.14,1.36 -2.08,1.59 -3.53,0.87 -9.68,-2.48 -11.75,-3.85 -0.47,-0.32 -1.11,-0.19 -1.42,0.29 -0.31,0.47 -0.18,1.1 0.29,1.42z"/>
  <path class="fil14" d="M941.69 271.04c0.34,0.11 0.72,0.04 1,-0.21 0.42,-0.38 0.46,-1.03 0.08,-1.45 -2.03,-2.28 -2.91,-4.76 -2.61,-7.39 0.78,-6.75 8.86,-12.46 8.94,-12.52 0.46,-0.32 0.58,-0.96 0.25,-1.43 -0.32,-0.46 -0.96,-0.58 -1.43,-0.25 -0.36,0.25 -8.91,6.31 -9.8,13.96 -0.37,3.24 0.68,6.27 3.12,9l0.45 0.29z"/>
  <path class="fil10" d="M813.86 186.88l10.41 26.34c1.56,4.41 3.14,8.8 4.75,13.18 1.58,4.38 3.17,8.75 4.8,13.09 1.63,4.33 3.25,8.65 4.9,12.91 1.65,4.25 3.35,8.46 5.07,12.54 1.69,4.08 3.44,8.09 5.17,11.65 0.85,1.76 1.72,3.42 2.45,4.71l0.49 0.85 0.2 0.34 0.06 0.15 0.11 0.38 0.03 0.43c0.07,0.17 0.32,0.39 0.86,0.64 1.1,0.48 3.44,0.84 6.4,0.7 2.96,-0.13 6.47,-0.73 10.12,-1.66 3.66,-0.95 7.52,-2.16 11.41,-3.63 7.78,-2.96 15.75,-6.69 23.62,-10.87 7.89,-4.16 13.68,-7.52 21.34,-12.32 2.45,11.37 10.5,20.56 22.16,24.94 -7.47,6.8 -15.28,13.11 -23.53,19.12 -8.27,5.95 -16.94,11.61 -26.49,16.59 -4.79,2.48 -9.78,4.85 -15.18,6.87 -5.4,2.03 -11.16,3.81 -17.66,4.93 -3.25,0.55 -6.68,0.94 -10.36,1 -3.67,0.05 -7.58,-0.2 -11.69,-0.99 -4.1,-0.8 -8.4,-2.14 -12.55,-4.2 -4.15,-2.04 -8.1,-4.79 -11.47,-7.95 -1.69,-1.58 -3.24,-3.25 -4.64,-4.97l-1.01 -1.29 -0.82 -1.11c-0.29,-0.39 -0.52,-0.72 -0.77,-1.08 -0.24,-0.34 -0.51,-0.72 -0.73,-1.04 -1.84,-2.73 -3.34,-5.21 -4.75,-7.63 -2.8,-4.84 -5.18,-9.43 -7.48,-14 -2.27,-4.58 -4.37,-9.11 -6.44,-13.63 -2.05,-4.52 -4.05,-9.03 -5.95,-13.55 -1.91,-4.52 -3.79,-9.03 -5.61,-13.55 -1.81,-4.52 -3.58,-9.05 -5.33,-13.58 -1.72,-4.54 -3.43,-9.08 -5.08,-13.64l-2.45 -6.86 -1.19 -3.45c-0.41,-1.17 -0.79,-2.29 -1.2,-3.53l48.03 -16.83z"/>
  <path class="fil15" d="M842.2 296.44c0.4,0 0.79,-0.19 1.06,-0.53 0.05,-0.07 5.05,-6.71 9.43,-9.83 0.59,-0.42 0.73,-1.25 0.3,-1.84 -0.42,-0.59 -1.24,-0.72 -1.83,-0.3 -4.71,3.36 -9.79,10.11 -10.01,10.39 -0.43,0.58 -0.31,1.41 0.27,1.84 0.23,0.18 0.51,0.27 0.78,0.27z"/>
  <path class="fil15" d="M851.13 297.75l0.29 -0.03c0.71,-0.16 1.16,-0.86 1,-1.57 -0.01,-0.05 -1.23,-5.65 -0.02,-9.86 0.2,-0.7 -0.21,-1.43 -0.9,-1.63 -0.7,-0.2 -1.43,0.21 -1.63,0.91 -1.39,4.86 -0.07,10.9 -0.02,11.15 0.14,0.61 0.68,1.03 1.28,1.03z"/>
  <path class="fil8" d="M838.94 438.11c-24.32,14 -83.12,21.21 -121.48,5.97 -14.07,-5.58 -16.54,-9.02 -15.47,-34.28 0.04,-0.94 0.08,-1.88 0.13,-2.82 0.1,-1.99 0.23,-3.97 0.37,-5.94 0.08,-0.95 0.15,-1.9 0.23,-2.84 0.29,-3.53 0.63,-6.99 1,-10.31 0.1,-0.91 0.2,-1.82 0.31,-2.71 0.88,-7.41 2.27,-14.05 3.57,-19.19 0.23,-0.93 0.47,-1.81 0.69,-2.64 1.36,-5.04 2.46,-8.07 2.46,-8.07 6.19,1 12.56,1.58 18.96,1.84 0.91,0.04 1.81,0.07 2.72,0.09 33.17,0.88 66.92,-6.64 82.57,-10.7 0.94,-0.25 1.82,-0.48 2.62,-0.7 4.07,-1.09 6.36,-1.8 6.36,-1.8 0,0 1.43,2.51 3.45,6.65 0.37,0.77 0.76,1.59 1.17,2.46 3.18,6.83 7.25,16.76 9.56,27.1l0.08 0.38c0.2,0.89 0.39,1.79 0.58,2.69l0.12 0.54c1.58,7.51 3.03,15.38 4.01,22.91l0 0.01c0.13,0.97 0.25,1.93 0.36,2.88 1.92,16.52 2.21,24.69 -4.37,28.48z"/>
  <path class="fil16" d="M838.94 383.83l-0.18 -0.09c-4.95,-2.69 -9.3,-6.77 -13.05,-12.17 -0.5,-0.74 -1,-1.5 -1.49,-2.29l0 0c-3.77,-6.1 -6.86,-13.71 -9.22,-22.77 0.94,-0.25 1.82,-0.48 2.62,-0.7 2.33,8.93 5.36,16.37 9.06,22.27 0.48,0.79 1,1.55 1.51,2.29 2.94,4.17 6.26,7.47 9.97,9.85l0.08 0.38c0.2,0.89 0.39,1.79 0.58,2.69l0.12 0.54z"/>
  <path class="fil16" d="M732.43 357.21c-1.08,9.53 -3.2,17.59 -6.34,24.15 -0.41,0.87 -0.84,1.71 -1.29,2.52 -2.56,4.64 -5.71,8.42 -9.41,11.32 -4.54,3.56 -9.15,5.16 -12.9,5.84 0.08,-0.95 0.15,-1.9 0.23,-2.84 3.28,-0.69 7.21,-2.16 11.04,-5.18 3.2,-2.51 5.94,-5.74 8.23,-9.68 0.46,-0.81 0.91,-1.64 1.34,-2.5 3.16,-6.34 5.29,-14.26 6.38,-23.72 0.91,0.04 1.81,0.07 2.72,0.09z"/>
  <path class="fil16" d="M828.6 353.12c-1.88,0.83 -3.9,1.68 -6.05,2.55 -0.83,0.34 -1.68,0.68 -2.56,1.02 -12.52,4.89 -28.92,9.91 -46.61,11.73 -0.68,0.07 -1.36,0.14 -2.04,0.2 -16.06,1.47 -32.4,0.79 -45.87,-0.47 -0.96,-0.09 -1.91,-0.18 -2.84,-0.28 -5.69,-0.58 -10.79,-1.25 -15.03,-1.88 0.23,-0.93 0.47,-1.81 0.69,-2.64 4.35,0.64 9.6,1.33 15.45,1.92 0.92,0.08 1.85,0.17 2.8,0.26 13.73,1.25 30.37,1.87 46.56,0.19 17.27,-1.78 33.29,-6.66 45.57,-11.42l0.01 0c0.86,-0.34 1.71,-0.68 2.53,-1.01 2.22,-0.89 4.3,-1.78 6.22,-2.63 0.37,0.77 0.76,1.59 1.17,2.46z"/>
  <path class="fil8" d="M866.37 553.66c-3.55,-54.85 -11.61,-105.7 -23.42,-146.91l-65.21 30.37c2.02,49.92 12.06,84.49 23.6,116.54l65.03 0z"/>
  <path class="fil16" d="M811.88 553.66c-18.92,-53.98 -22.24,-98.14 -22.27,-98.7 -0.06,-0.75 -0.71,-1.31 -1.45,-1.26 -0.75,0.05 -1.32,0.7 -1.27,1.45 0.04,0.56 3.35,44.56 22.12,98.51l2.87 0z"/>
  <path class="fil8" d="M764.78 553.66c4.02,-38.96 8.66,-86.82 9.25,-105.35l-72.04 -38.51c0,0 -12.69,43.82 -4.37,143.86l67.16 0z"/>
  <path class="fil16" d="M758.18 553.66l12.08 -99.78c0.1,-0.84 -0.5,-1.62 -1.35,-1.72 -0.84,-0.1 -1.61,0.5 -1.71,1.35l-12.13 100.15 3.11 0z"/>
  <path class="fil16" d="M780.29 439.46c0.09,0.75 0.77,1.28 1.51,1.19l0.01 0c0.74,-0.09 1.27,-0.77 1.18,-1.51 -0.6,-5.06 -1.18,-10.25 -1.73,-15.45 -0.1,-0.91 -0.19,-1.82 -0.29,-2.73 -1.76,-16.97 -3.19,-33.68 -4.13,-45.48 -0.08,-0.96 -0.15,-1.88 -0.22,-2.77 -0.2,-2.6 -0.38,-4.89 -0.53,-6.84 -0.91,0.01 -1.82,0.01 -2.73,0.01 0.15,1.95 0.33,4.27 0.54,6.89 0.07,0.88 0.14,1.81 0.22,2.77 0.93,11.7 2.34,28.26 4.09,45.12 0.1,0.93 0.2,1.87 0.29,2.8 0.57,5.38 1.17,10.76 1.79,16z"/>
  <path class="fil16" d="M773.51 422.41c0.45,0.13 2.48,0.71 4.99,1.05 0.88,0.12 1.81,0.21 2.76,0.23 0.87,0.03 1.74,0.01 2.59,-0.09 1.64,-0.18 3.18,-0.63 4.37,-1.5 1.5,-1.09 2.31,-2.74 2.34,-4.76 0.11,-5.35 -1.44,-27.08 -2.6,-42.44 -0.07,-0.94 -0.14,-1.87 -0.21,-2.76 -0.19,-2.46 -0.36,-4.69 -0.51,-6.59 -0.9,0.04 -1.81,0.08 -2.72,0.12 0.15,1.9 0.33,4.17 0.51,6.65 0.07,0.89 0.14,1.82 0.22,2.77 1.15,15.32 2.69,37.02 2.59,42.19 -0.02,1.2 -0.41,2.03 -1.22,2.63 -1.3,0.94 -3.45,1.16 -5.65,1.05 -0.93,-0.05 -1.87,-0.16 -2.76,-0.3 -1.62,-0.25 -3.05,-0.6 -3.92,-0.86 -0.72,-0.21 -1.48,0.2 -1.69,0.92 -0.22,0.71 0.19,1.47 0.91,1.69z"/>
  <path class="fil8" d="M691.43 208.99l103.96 -2.67c-3.22,-4.52 -2.92,-47.6 -4.37,-56.5 -1.48,-9.18 -0.34,-27.39 1.04,-42.26 2.64,-28.56 -20.54,-53.03 -49.18,-51.62 -0.44,0.02 -0.87,0.05 -1.31,0.07 -43.7,2.79 -46.92,40.23 -42.85,62.91 3.71,20.64 6.32,76.91 -7.29,90.07z"/>
  <path class="fil6" d="M713.99 344.02l8.39 35.15c20.94,-1.67 45.72,-4.7 64.38,-14.35 0,0 24.86,8.36 37.46,4.46l-9.22 -25.26 -101.01 0z"/>
  <path class="fil10" d="M837.05 370.04c-24.15,-0.16 -38.65,-3.29 -51.82,-14.08 -24.7,25.67 -85.73,26.66 -85.73,26.66 6.11,-19.72 8.1,-54.57 8.1,-54.57 -0.49,-3.62 -0.74,-7.38 -1.13,-11.2 -0.38,-3.81 -0.89,-7.67 -1.88,-11.48 -6.02,-17.38 -13.06,-29.85 -19.33,-47.81 -0.41,-1.17 -0.82,-2.32 -1.24,-3.49 -0.27,-0.75 -0.54,-1.51 -0.83,-2.27 -2.06,-5.62 -4.27,-11.22 -6.59,-16.61 -10.1,-23.54 -11.73,-50.08 12.57,-58.17 1.77,-0.59 3.51,-1.16 5.2,-1.69 11.5,-3.64 21.07,-6.03 23.74,-6.67 0.48,-0.11 0.73,-0.17 0.73,-0.17l51.02 4.22 4.85 0.41c7.13,0.79 14.69,0.59 19.47,1.64 4.19,0.93 6.74,0.7 11.01,1.96 10.06,2.98 9.77,16.49 12.9,33.29 0.05,0.29 0.1,0.58 0.15,0.88l0.07 0.28c0.54,2.86 1.2,5.68 1.93,8.48 0.83,3.12 1.75,6.21 2.71,9.21 5.88,18.46 12.97,26.92 11.77,38.53 -1.1,10.52 -11.83,24.86 -14.68,27.92 -0.66,0.7 -1.04,1.08 -1.04,1.08l0.02 0.16c0.04,0.41 0.09,0.86 0.15,1.32 0.21,1.77 0.52,3.88 0.92,6.26 0.88,8.88 2.13,16.93 3.55,24.09 0.77,3.87 1.59,7.48 2.44,10.82 5.09,20.25 10.97,31 10.97,31z"/>
  <path class="fil15" d="M826.08 339.04c-6.89,3.66 -12.48,6.09 -12.48,6.09l-5.15 -9.69c4.93,-1.77 10.22,-4.4 15.19,-7.22 1.13,3.01 2.18,6.06 2.44,10.82z"/>
  <path class="fil15" d="M714.76 329.94c0,0 23.22,9.86 40.39,11.52l-2.62 10.66c0,0 -28.14,-4.64 -39.42,-12.66l1.65 -9.52z"/>
  <path class="fil15" d="M823.16 293.76c0.35,0 0.69,-0.14 0.95,-0.41 0.63,-0.66 15.37,-16.39 10.23,-30.74 -1.43,-3.98 -3.09,-8.01 -4.85,-12.28 -5.33,-12.94 -11.38,-27.61 -12.93,-46.64 -0.06,-0.72 -0.7,-1.27 -1.42,-1.2 -0.72,0.06 -1.26,0.69 -1.2,1.41 1.58,19.44 7.72,34.31 13.13,47.43 1.74,4.24 3.39,8.24 4.8,12.17 4.59,12.82 -9.52,27.89 -9.66,28.04 -0.5,0.53 -0.48,1.36 0.04,1.86 0.26,0.24 0.58,0.36 0.91,0.36z"/>
  <path class="fil15" d="M780.3 237.69c0,1.58 -1.29,2.86 -2.87,2.86 -1.58,0 -2.86,-1.28 -2.86,-2.86 0,-1.58 1.28,-2.86 2.86,-2.86 1.58,0 2.87,1.28 2.87,2.86z"/>
  <path class="fil15" d="M784.55 263.05c0,1.59 -1.28,2.87 -2.86,2.87 -1.58,0 -2.86,-1.28 -2.86,-2.87 0,-1.58 1.28,-2.86 2.86,-2.86 1.58,0 2.86,1.28 2.86,2.86z"/>
  <path class="fil15" d="M787.12 288.84c0,1.58 -1.29,2.86 -2.87,2.86 -1.58,0 -2.86,-1.28 -2.86,-2.86 0,-1.59 1.28,-2.87 2.86,-2.87 1.58,0 2.87,1.28 2.87,2.87z"/>
  <path class="fil15" d="M788.22 315.36c0,1.58 -1.28,2.86 -2.87,2.86 -1.58,0 -2.86,-1.28 -2.86,-2.86 0,-1.58 1.28,-2.87 2.86,-2.87 1.59,0 2.87,1.29 2.87,2.87z"/>
  <path class="fil15" d="M788.09 342.94c0,1.58 -1.28,2.87 -2.86,2.87 -1.59,0 -2.87,-1.29 -2.87,-2.87 0,-1.58 1.28,-2.86 2.87,-2.86 1.58,0 2.86,1.28 2.86,2.86z"/>
  <path class="fil15" d="M764 172.66c0,0 11.09,-1.01 18.85,1.06l-0.84 29.1 -6.63 1.42 5.58 5.49 -6.69 19.53c0,0 -9.14,-32.5 -10.27,-56.6z"/>
  <path class="fil15" d="M718.84 168.48l-20.27 5.55 23.81 31.64 17.84 -1.43 -6.26 13.65 40.31 11.37c0,0 -46.68,-44.33 -50.42,-60.36l-5.01 -0.42z"/>
  <path class="fil6" d="M722.38 170.85c0,0 11.64,24.8 51.89,58.41 0,0 -2.15,-26.44 -10.25,-54.78 0,0 -23.69,8.25 -41.64,-3.63z"/>
  <path class="fil15" d="M779.89 250.02c-13.26,0 -40.31,-18.99 -41.46,-19.8 -0.49,-0.35 -0.6,-1.03 -0.26,-1.52 0.35,-0.49 1.03,-0.61 1.52,-0.26 0.27,0.19 27.63,19.4 40.2,19.4 12.03,0 14.69,-13.14 14.72,-13.27 0.11,-0.59 0.68,-0.98 1.27,-0.87 0.6,0.12 0.98,0.69 0.87,1.28 -0.03,0.15 -3.05,15.04 -16.86,15.04z"/>
  <path class="fil13" d="M764 172.66l0.55 6.87c1.01,12.8 -8.09,16.44 -21.35,9.65 -10.48,-5.36 -19.37,-13.37 -20.82,-18.33l41.62 1.81z"/>
  <path class="fil15" d="M745.01 303.45c0.22,0.37 0.61,0.59 1.03,0.59 0.2,0 0.4,-0.05 0.58,-0.16 0.19,-0.11 19.34,-10.9 42.73,-6.34 11.88,2.32 21.98,2.09 29.82,0.34 -0.06,-0.47 -0.11,-0.91 -0.15,-1.33l-0.02 -0.16c0,0 0.39,-0.38 1.04,-1.08 -7.67,1.95 -17.93,2.32 -30.24,-0.08 -24.27,-4.73 -43.55,6.15 -44.35,6.61 -0.57,0.32 -0.76,1.04 -0.44,1.61z"/>
  <path class="fil8" d="M785.87 87.17c0,0 5.89,23.11 2.12,27.14 -3.77,4.03 -9.34,-4.62 -9.34,-4.62 0,0 2.74,-21.59 7.22,-22.52z"/>
  <path class="fil14" d="M779.38 117.76c0,0 6.09,-7.18 9.53,0 3.43,7.19 0.79,21.74 -8.47,19.36l-1.06 -19.36z"/>
  <path class="fil6" d="M774.05 135.65c-3.39,1.58 -5.74,5.01 -5.74,8.98 0,5.47 4.45,9.91 9.91,9.91 5.47,0 9.91,-4.44 9.91,-9.91 0,-3.93 -2.29,-7.32 -5.61,-8.92 -1.14,-0.56 -2.39,-0.89 -3.71,-0.97 -0.24,-0.61 -0.44,-1.24 -0.7,-1.84l0.11 0c1.63,0 3.18,0.33 4.58,0.93 4.2,1.79 7.15,5.96 7.15,10.8 0,6.47 -5.26,11.73 -11.73,11.73 -6.47,0 -11.73,-5.26 -11.73,-11.73 0,-4.35 2.39,-8.16 5.92,-10.19l1.64 1.21z"/>
  <path class="fil13" d="M764.02 154.65l0 19.83c0,0 -10.45,17.11 -41.64,-3.63 5.9,-6.59 6.08,-19.34 3.7,-26.94 0,0 2.28,1.54 6.06,3.22 0.77,0.35 1.6,0.71 2.48,1.08 7.8,3.27 19.53,7.21 29.4,6.44z"/>
  <path class="fil8" d="M764.02 154.65l0 9.28c-8.48,-1.88 -23.35,-6.51 -31.88,-16.8 0.77,0.35 1.6,0.71 2.48,1.08 7.8,3.27 19.53,7.21 29.4,6.44z"/>
  <path class="fil13" d="M780.96 148.17c-16.65,17.23 -53.62,-3.33 -54.8,-4l-0.03 -0.02c-0.35,-1.54 -0.65,-3.07 -0.93,-4.58 -2.35,-12.82 -2.5,-24.72 -1.2,-36.03 -0.62,-11.93 6.48,-23.03 17.7,-27.12 11.62,-4.24 22.05,0.87 28.31,2.81 9.46,2.91 15.4,15.13 15.46,32.54 0.07,21.37 -0.37,32.12 -4.51,36.4z"/>
  <path class="fil8" d="M783.49 91.9c-3.85,0.53 -7.8,0.95 -11.86,1.27l-2.23 -10.64 -0.72 10.85c-7.47,0.51 -15.24,0.71 -23.21,0.72l-0.99 -11.22 -2.18 11.21c-5.89,-0.03 -11.88,-0.14 -17.91,-0.31 -4.83,-22.33 19.38,-32.06 39.74,-27.42 20.37,4.64 19.36,25.54 19.36,25.54z"/>
  <path class="fil8" d="M739.84 87.17c0,0 -7.51,10 -3.4,19.29 4.11,9.29 1.25,18.4 -0.71,25.19 0,0 -4.25,-14.96 -14.27,-17.75 -10.02,-2.79 -4.84,-30.21 18.38,-26.73z"/>
  <path class="fil14" d="M766.68 138.77c2.2,0.33 3.97,-0.26 4.08,-0.3 0.38,-0.12 0.57,-0.53 0.45,-0.9 -0.13,-0.37 -0.53,-0.57 -0.9,-0.44 -0.04,0.01 -3.48,1.13 -6.36,-0.97 -0.31,-0.23 -0.76,-0.16 -0.99,0.16 -0.23,0.32 -0.17,0.76 0.15,0.99 1.19,0.87 2.43,1.29 3.57,1.46z"/>
  <path class="fil6" d="M777.26 127.63c0,0 -11.58,4.04 -20.28,-1.7 0,0 3.05,7.84 10.55,8.58 7.5,0.74 9.73,-6.88 9.73,-6.88z"/>
  <path class="fil8" d="M758.81 95.94c0,0 3.46,0.34 2.25,3.51 -1.22,3.17 -8.15,-0.33 -13.11,5.51 0,0 -2.12,-7.6 10.86,-9.02z"/>
  <path class="fil8" d="M774.47 95.94c0,0 -3.45,0.34 -2.24,3.51 1.22,3.17 8.15,-0.33 13.11,5.51 0,0 2.11,-7.6 -10.87,-9.02z"/>
  <path class="fil17" d="M749.51 122.34c-4.09,0 -7.41,-1.31 -7.41,-2.92 0,-1.61 3.32,-2.92 7.41,-2.92 4.1,0 7.42,1.31 7.42,2.92 0,1.61 -3.32,2.92 -7.42,2.92z"/>
  <path class="fil14" d="M787.15 122.25c-0.57,0.06 -1.17,0.09 -1.78,0.09 -4.1,0 -7.42,-1.31 -7.42,-2.92 0,-1.61 3.32,-2.92 7.42,-2.92 0.55,0 1.09,0.02 1.61,0.07l0.17 5.68z"/>
  <path class="fil8" d="M757.78 111.77c0,2.21 -1,4.01 -2.25,4.01 -1.23,0 -2.24,-1.8 -2.24,-4.01 0,-2.21 1.01,-4.01 2.24,-4.01 1.25,0 2.25,1.8 2.25,4.01z"/>
  <path class="fil8" d="M779.69 111.77c0,2.21 -1.01,4.01 -2.24,4.01 -1.24,0 -2.25,-1.8 -2.25,-4.01 0,-2.21 1.01,-4.01 2.25,-4.01 1.23,0 2.24,1.8 2.24,4.01z"/>
  <path class="fil8" d="M771.09 120.22c1.07,0 1.78,-0.18 1.84,-0.19 0.25,-0.07 0.46,-0.23 0.58,-0.46 0.12,-0.22 0.14,-0.49 0.06,-0.73l-3.37 -9.66c-0.17,-0.47 -0.69,-0.72 -1.16,-0.56 -0.48,0.17 -0.73,0.69 -0.56,1.16l3 8.6c-0.92,0.05 -2.33,-0.05 -3.73,-0.8 -0.45,-0.24 -1,-0.07 -1.24,0.37 -0.24,0.44 -0.07,1 0.37,1.23 1.54,0.83 3.08,1.04 4.21,1.04z"/>
  <path class="fil8" d="M733.36 135.18c-0.1,0.25 -3.01,7.01 -7.2,8.99l-0.01 0 -0.02 -0.02c-0.34,-1.54 -0.65,-3.07 -0.93,-4.58 0.16,-0.03 4.39,-0.77 8.16,-4.39z"/>
  <path class="fil13" d="M729.3 119.8c0,0 -8.85,-11.89 -15.34,-2.54 -5.34,7.7 4.72,28.2 15.55,20.72l-0.21 -18.18z"/>
  <path class="fil6" d="M720.13 138.11c-3.38,1.58 -5.74,5.05 -5.74,9.03 0,5.46 4.45,9.91 9.92,9.91 5.46,0 9.91,-4.45 9.91,-9.91 0,-3.93 -2.3,-7.33 -5.61,-8.93 -1.14,-0.55 -2.4,-0.89 -3.72,-0.97 -0.24,-0.61 -0.44,-1.23 -0.7,-1.83l0.12 -0.01c1.62,0 3.17,0.34 4.58,0.94 4.19,1.78 7.15,5.95 7.15,10.8 0,6.46 -5.27,11.73 -11.73,11.73 -6.47,0 -11.74,-5.27 -11.74,-11.73 0,-4.36 2.46,-8.24 6,-10.27 0.5,0.46 1.02,0.89 1.56,1.24z"/>
  <path class="fil8" d="M728.1 134.57l0.1 0c0.5,-0.06 0.86,-0.51 0.8,-1.01 -1.1,-10.11 -9.62,-13.62 -9.98,-13.76 -0.47,-0.19 -1,0.04 -1.18,0.51 -0.19,0.47 0.04,1 0.51,1.18 0.33,0.14 7.86,3.28 8.84,12.27 0.05,0.47 0.45,0.81 0.91,0.81z"/>
  <path class="fil8" d="M719.59 129.05c0.21,0 0.41,-0.07 0.58,-0.2 0.79,-0.65 3.19,-2.22 4.76,-1.82 0.49,0.12 0.99,-0.17 1.11,-0.66 0.13,-0.49 -0.17,-0.98 -0.66,-1.11 -2.73,-0.7 -6,1.88 -6.36,2.17 -0.39,0.32 -0.45,0.89 -0.14,1.28 0.18,0.23 0.45,0.34 0.71,0.34z"/>
  <path class="fil15" d="M659.11 308.06c0,0 2.91,6.28 -0.45,20 -3.35,13.72 -8.98,22.32 -8.98,22.32 0,0 -14.07,-21.36 9.43,-42.32z"/>
  <path class="fil13" d="M597.05 294.95c0.04,0.69 0.08,1.38 0.14,2.06 0.09,0.68 0.19,1.35 0.3,2.03 0.06,0.33 0.11,0.67 0.19,0.99l0.22 0.97c0.61,2.61 1.54,4.93 2.56,7.07 0.53,1.02 1.08,2.07 1.66,2.97 0.29,0.45 0.58,0.93 0.88,1.36l0.91 1.26c2.44,3.32 5.01,5.79 7.53,7.92 2.52,2.11 5.02,3.84 7.46,5.41 1.22,0.78 2.44,1.5 3.65,2.2 1.21,0.7 2.4,1.35 3.59,1.99 2.4,1.25 4.75,2.41 7.11,3.48 4.7,2.15 9.36,3.97 14.01,5.62 4.65,1.65 9.29,3.11 13.92,4.46 4.64,1.37 9.27,2.61 13.9,3.74 4.64,1.15 9.29,2.17 13.95,3.15 1.7,0.36 4.01,0.58 6.45,0.77 3.72,0.28 7.76,0.48 10.4,0.93 0.64,-3.84 -2.61,-6.95 -1.97,-10.79 0.75,-4.5 1.5,-9 2.32,-13.49l-1.86 -4.01c-2.83,-0.67 -5.66,-1.4 -8.48,-2.17l-0.26 -0.07c-4.12,-1.12 -8.21,-2.35 -12.27,-3.67 -4.13,-1.33 -8.22,-2.75 -12.26,-4.26 -4.01,-1.53 -7.96,-3.15 -11.78,-4.88 -3.82,-1.72 -7.52,-3.55 -10.97,-5.49 -1.71,-0.96 -3.39,-1.95 -4.94,-3 -0.76,-0.51 -1.52,-1.03 -2.24,-1.56 -0.71,-0.53 -1.39,-1.07 -2.03,-1.61 -0.99,-0.82 -1.88,-1.67 -2.6,-2.46 -0.21,-0.23 -0.41,-0.46 -0.59,-0.68l-0.03 -0.04 0.66 -0.91 1.19 -1.62c0.61,-0.85 1.22,-1.7 1.89,-2.56 1.32,-1.73 2.61,-3.44 3.95,-5.17l4.08 -5.18c2.78,-3.45 5.53,-6.92 8.37,-10.37l2.12 -2.6 2.15 -2.59 3 -3.63 1.28 -1.55 1.56 -1.87 2.75 -3.31 4.36 -5.16c2.89,-3.45 5.79,-6.9 8.71,-10.33l17.46 -20.6 0.11 -0.13c7.36,-8.69 6.28,-21.69 -2.4,-29.05 -8.61,-7.3 -21.47,-6.29 -28.86,2.18l-4.58 5.26 -4.5 5.25c-1.49,1.75 -2.97,3.52 -4.45,5.28 -1.48,1.77 -2.97,3.53 -4.43,5.31 -2.93,3.55 -5.85,7.13 -8.76,10.71l-4.34 5.4 -0.57 0.72 -3.73 4.72c-1.44,1.81 -2.87,3.64 -4.29,5.48l-2.13 2.75 -0.95 1.26 -1.16 1.52c-2.83,3.69 -5.63,7.44 -8.41,11.22l-4.14 5.75c-1.38,1.94 -2.74,3.93 -4.11,5.89 -0.68,0.97 -1.36,2 -2.04,3.03l-2.03 3.07 -0.51 0.77 -0.13 0.19 -0.07 0.1 -0.1 0.15 -0.42 0.69c-0.28,0.46 -0.55,0.93 -0.83,1.39 -0.13,0.22 -0.27,0.48 -0.39,0.74l-0.4 0.76c-0.26,0.51 -0.52,1.01 -0.76,1.55 -0.24,0.55 -0.47,1.11 -0.69,1.68l-0.33 0.84c-0.1,0.29 -0.21,0.6 -0.31,0.9 -0.19,0.6 -0.38,1.21 -0.56,1.82 -0.17,0.62 -0.31,1.28 -0.45,1.92 -0.14,0.65 -0.27,1.29 -0.36,1.98 -0.09,0.67 -0.18,1.34 -0.24,2.02 -0.06,0.68 -0.08,1.37 -0.11,2.06l-0.01 1.03c0,0.35 0.03,0.7 0.04,1.04z"/>
  <path class="fil12" d="M687.19 320.34c0,0 -3.34,-3.25 -7.45,-2.4 0,0 -9.69,16.44 -4.66,30.54 0,0 2.25,2.03 6.97,1.64 0,0 -4.7,-16.96 5.14,-29.78z"/>
  <path class="fil12" d="M668.36 334.7c0.31,5.4 4.93,9.53 10.33,9.23 5.41,-0.3 9.55,-4.93 9.24,-10.33 -0.3,-5.4 -4.93,-9.54 -10.33,-9.24 -5.4,0.3 -9.54,4.93 -9.24,10.34z"/>
  <path class="fil6" d="M678.56 341.46c4.03,-0.22 7.13,-3.69 6.91,-7.72 -0.23,-4.04 -3.7,-7.14 -7.73,-6.91 -4.04,0.23 -7.13,3.69 -6.91,7.73 0.23,4.03 3.69,7.13 7.73,6.9z"/>
  <path class="fil14" d="M695.45 351.89c3.73,0.29 7.76,0.49 10.4,0.93 0.64,-3.84 -2.61,-6.95 -1.97,-10.79 0.75,-4.49 1.5,-9 2.32,-13.48l-1.86 -4.02c-2.82,-0.67 -5.66,-1.4 -8.48,-2.17l-0.26 -0.07c-1.15,6.39 -2.95,19.78 -0.15,29.6z"/>
  <path class="fil10" d="M704.58 198.68c1.98,6.42 0.47,13.41 -3.93,18.49 -8.26,9.54 -24.03,27.96 -32.78,39.53 -12.21,16.16 -27.66,36.44 -27.66,36.44 0,0 11.11,9.77 18.9,14.92 0,0 -19.06,16.12 -9.43,42.32 0,0 -34.26,-18.83 -51.6,-36.92 -12.66,-13.21 -9.15,-29.7 2.42,-45.46 5.84,-7.96 50.87,-59.27 66.86,-77.22 5.9,-6.62 15.21,-9.28 23.6,-6.39 5.36,1.85 11.02,5.87 13.62,14.29z"/>
  <path class="fil13" d="M696.24 327.17c0,0 1.34,-7.83 3.37,-15.37 1.69,-6.28 5.11,-8.22 5.11,-8.22 0.74,4.27 1.79,6.85 1.93,14.64 0,0 1.9,-1.77 5.36,-1.07 3.46,0.7 15.4,3.23 15.56,5.99 0.35,6.3 -14.61,3.3 -14.61,3.3 0,0 16.01,3.02 15.6,7.44 -0.33,3.57 -14.82,4.25 -14.82,4.25 0,0 13.97,0.13 12.29,5.14 -1.78,5.33 -14.74,1.97 -14.74,1.97 0,0 9.34,4.48 8.44,6.36 -1.3,2.71 -6.83,3.47 -15.78,1.29 -9.15,-2.23 -7.71,-25.72 -7.71,-25.72z"/>
  <path class="fil15" d="M679.74 245.16c-0.34,0.05 -0.7,-0.03 -0.99,-0.27 -0.52,-0.44 -0.59,-1.22 -0.15,-1.74l20.69 -24.56c0.44,-0.52 1.22,-0.59 1.74,-0.15 0.52,0.44 0.59,1.22 0.15,1.74l-20.69 24.56c-0.2,0.24 -0.47,0.38 -0.75,0.42z"/>
  <path class="fil15" d="M702.23 226.96l-7.82 1.2c-0.68,0.1 -1.31,-0.36 -1.41,-1.03 -0.1,-0.68 0.36,-1.31 1.03,-1.41l7.82 -1.2c0.68,-0.11 1.31,0.36 1.41,1.03 0.1,0.68 -0.36,1.31 -1.03,1.41z"/>
  <path class="fil15" d="M618.04 298.46l0.49 0.31c0.22,0.04 0.45,-0.01 0.64,-0.15 5.89,-4.39 16.39,-4.85 21.59,-4.78 -0.21,-0.24 -0.41,-0.46 -0.59,-0.68l-0.04 -0.04 0.67 -0.91c-0.47,0 -0.99,-0.01 -1.54,-0.01 -3.26,-3.12 -12.02,-6.15 -12.4,-6.29 -0.42,-0.14 -0.88,0.08 -1.02,0.5 -0.15,0.43 0.08,0.88 0.5,1.02 0.08,0.03 6.75,2.34 10.42,4.84 -5.72,0.25 -13.54,1.33 -18.55,5.06 -0.36,0.26 -0.44,0.77 -0.17,1.13z"/>
  <path class="fil0" d="M560.67 877.78c0,9.18 -121.89,16.61 -272.23,16.61 -150.35,0 -272.23,-7.43 -272.23,-16.61 0,-9.18 121.88,-16.61 272.23,-16.61 150.34,0 272.23,7.43 272.23,16.61z"/>
  <path class="fil13" d="M328.17 358.64l0.34 1.62 0.25 1.3 0.45 2.45c0.28,1.6 0.54,3.17 0.77,4.73 0.46,3.11 0.84,6.17 1.17,9.23 0.67,6.11 1.15,12.17 1.44,18.23 0.27,6.06 0.37,12.11 0.3,18.15 -0.09,6.05 -0.34,12.09 -0.75,18.12 -0.42,6.03 -1.05,12.04 -1.8,18.05 -0.43,3 -0.81,6 -1.31,8.99 -0.25,1.49 -0.47,2.99 -0.74,4.48l-0.82 4.48c-0.27,1.49 -0.6,2.97 -0.9,4.46 -0.32,1.48 -0.61,2.97 -0.96,4.45 -0.69,2.96 -1.34,5.92 -2.13,8.86 -0.38,1.47 -0.74,2.95 -1.15,4.41l-1.24 4.4 -0.31 1.09 -0.16 0.55 -0.33 1.12c-0.31,1.05 -0.64,1.95 -1,2.87 -0.34,0.87 -0.71,1.74 -1.07,2.51 -0.38,0.81 -0.74,1.51 -1.13,2.24l-0.56 1.01c-0.19,0.34 -0.38,0.67 -0.57,0.97l-0.57 0.94 -0.57 0.86c-0.38,0.6 -0.75,1.1 -1.13,1.65 -1.5,2.09 -2.96,3.85 -4.4,5.45 -1.43,1.59 -2.83,3.01 -4.2,4.34 -2.76,2.64 -5.43,4.9 -8.07,7 -5.27,4.18 -10.42,7.71 -15.56,11.01 -10.27,6.57 -20.46,12.23 -30.72,17.55 -10.25,5.32 -20.54,10.24 -30.9,14.94 -5.18,2.33 -10.38,4.61 -15.6,6.84 -2.61,1.12 -5.22,2.23 -7.85,3.32l-3.97 1.61 -4.08 1.63 -17.92 -40.48 3.48 -1.78 3.57 -1.85 7.17 -3.73c4.77,-2.52 9.52,-5.07 14.24,-7.67 9.45,-5.16 18.78,-10.46 27.86,-15.9 4.54,-2.73 9,-5.52 13.36,-8.32 4.36,-2.81 8.61,-5.67 12.63,-8.58 4.01,-2.91 7.84,-5.87 11.1,-8.73 1.62,-1.42 3.1,-2.83 4.27,-4.09 1.16,-1.23 2.03,-2.39 2.21,-2.77l0.02 -0.08 -0.01 0 -0.04 0.04 -0.06 0.07 -0.07 0.1 -0.21 0.38c-0.07,0.14 -0.19,0.37 -0.27,0.59 -0.12,0.28 -0.21,0.53 -0.34,0.91l-0.07 0.27 0 -0.03 0.03 -0.12 0.1 -0.45 0.21 -0.91 0.84 -3.64c0.27,-1.22 0.5,-2.44 0.76,-3.66 0.52,-2.44 0.93,-4.9 1.38,-7.35 0.23,-1.23 0.4,-2.47 0.6,-3.7 0.19,-1.24 0.41,-2.46 0.56,-3.71 0.72,-4.95 1.28,-9.92 1.74,-14.91 0.43,-4.99 0.71,-10 0.92,-15.02 0.17,-5.01 0.21,-10.04 0.13,-15.05 -0.07,-5.02 -0.27,-10.03 -0.62,-15.02 -0.32,-4.98 -0.77,-9.95 -1.37,-14.83 -0.31,-2.43 -0.64,-4.86 -1.02,-7.21 -0.18,-1.18 -0.37,-2.34 -0.56,-3.47l-0.3 -1.62 -0.22 -1.15 55.73 -12.44z"/>
  <path class="fil18" d="M268.61 372.44l-10.18 77.17c15.19,8.51 29.61,14.6 42.84,17.01l-32.66 -94.18z"/>
  <path class="fil14" d="M290.21 491.71c-0.22,0 -0.44,-0.05 -0.64,-0.16 -7.91,-4.31 -18.79,-7.91 -18.9,-7.95 -0.71,-0.23 -1.1,-1 -0.86,-1.71 0.23,-0.71 1,-1.1 1.71,-0.86 0.45,0.15 11.22,3.72 19.34,8.14 0.66,0.36 0.9,1.18 0.54,1.84 -0.24,0.45 -0.71,0.7 -1.19,0.7z"/>
  <path class="fil14" d="M271.84 483.93c-0.68,0 -1.26,-0.52 -1.34,-1.21 -0.08,-0.74 0.45,-1.41 1.2,-1.49 5.61,-0.63 12.99,-0.67 13.3,-0.67l0 0c0.75,0 1.35,0.61 1.36,1.35 0,0.75 -0.61,1.36 -1.35,1.36 -0.08,0 -7.54,0.04 -13.01,0.65l-0.16 0.01z"/>
  <polygon class="fil13" points="125.49,800.71 111.46,823.64 84.72,811.8 96.86,787.17 "/>
  <path class="fil19" d="M0.05 824.83l101.13 44.76c1.35,-1.04 2.62,-2.79 3.81,-5.03 4.42,-8.27 7.73,-23.13 10.21,-32.33 0.28,-1.08 0.56,-2.08 0.82,-2.98 0.46,-1.52 0.87,-2.76 1.26,-3.64 3.11,-7.03 -3.64,-8.58 -3.64,-8.58 -14.68,5.51 -19.6,-14.67 -28.55,-12.73 0,0 -3.84,0.8 -15.07,4.47 -11.22,3.67 -26.98,2.39 -40.76,2.11 -17.78,-0.36 -24.81,4.01 -27.55,7.96 -2.17,3.13 -1.66,5.99 -1.66,5.99z"/>
  <path class="fil20" d="M0.05 824.83l101.13 44.76c1.35,-1.04 2.62,-2.79 3.81,-5.03l-103.28 -45.72c-2.17,3.13 -1.66,5.99 -1.66,5.99z"/>
  <path class="fil20" d="M90.86 865.02l3 1.33c-1.48,-4.75 -1.96,-11.25 1.73,-18.6 4.91,-9.77 13.89,-13.86 19.61,-15.52 0.28,-1.08 0.56,-2.08 0.82,-2.98 -6,1.45 -16.89,5.61 -22.78,17.32 -3.53,7.02 -3.54,13.41 -2.38,18.45z"/>
  <path class="fil6" d="M69.1 815.5c0.75,0.33 1.65,0.12 2.17,-0.55 0.62,-0.8 0.48,-1.94 -0.32,-2.56l-5.62 -4.36c-0.79,-0.62 -1.94,-0.48 -2.56,0.32 -0.61,0.79 -0.47,1.94 0.32,2.55l5.63 4.37 0.38 0.23z"/>
  <path class="fil6" d="M77.7 813.02c0.75,0.33 1.66,0.12 2.18,-0.55 0.62,-0.8 0.47,-1.94 -0.32,-2.56l-5.63 -4.37c-0.79,-0.61 -1.93,-0.47 -2.55,0.33 -0.62,0.79 -0.48,1.94 0.32,2.55l5.62 4.37 0.38 0.23z"/>
  <path class="fil6" d="M61.16 816.37c0.74,0.33 1.65,0.13 2.17,-0.55 0.62,-0.79 0.48,-1.94 -0.32,-2.55l-5.62 -4.37c-0.8,-0.62 -1.94,-0.47 -2.56,0.32 -0.62,0.8 -0.47,1.94 0.32,2.56l5.63 4.36 0.38 0.23z"/>
  <path class="fil6" d="M53.28 817.11c0.74,0.33 1.65,0.12 2.17,-0.55 0.62,-0.8 0.48,-1.94 -0.32,-2.56l-5.62 -4.36c-0.8,-0.62 -1.94,-0.48 -2.56,0.32 -0.62,0.79 -0.47,1.94 0.32,2.55l5.63 4.37 0.38 0.23z"/>
  <path class="fil6" d="M44.94 817.32c0.75,0.33 1.66,0.13 2.18,-0.55 0.62,-0.79 0.47,-1.94 -0.32,-2.56l-5.62 -4.36c-0.8,-0.62 -1.94,-0.47 -2.56,0.32 -0.62,0.8 -0.47,1.94 0.32,2.56l5.62 4.36 0.38 0.23z"/>
  <path class="fil6" d="M36.24 816.8c0.75,0.33 1.66,0.13 2.18,-0.55 0.62,-0.79 0.47,-1.94 -0.32,-2.56l-5.63 -4.36c-0.79,-0.62 -1.94,-0.48 -2.55,0.32 -0.62,0.79 -0.48,1.94 0.32,2.56l5.62 4.36 0.38 0.23z"/>
  <path class="fil8" d="M188.28 579.55c9.38,-9.23 83.42,-29.88 132.58,-16.16 5.63,10.84 12.79,38.31 -4.82,63.72 -64.62,10.56 -100.68,32.29 -100.68,32.29 0,0 -22.91,52.95 -36.53,72.39 -13.61,19.43 -44.84,81.14 -44.84,81.14l-47.04 -20.1c0,0 75.78,-188.13 101.33,-213.28z"/>
  <path class="fil16" d="M139.03 801.29l-0.52 -0.11 -46.04 -19.13c-0.69,-0.29 -1.02,-1.08 -0.73,-1.77 0.29,-0.69 1.08,-1.02 1.77,-0.73l46.04 19.13c0.69,0.29 1.02,1.08 0.73,1.77 -0.22,0.53 -0.72,0.84 -1.25,0.84z"/>
  <path class="fil16" d="M131.29 797.42l-0.5 -0.1c-0.69,-0.27 -1.03,-1.06 -0.76,-1.75 0.1,-0.24 9.73,-24.28 32.2,-58.37 22.32,-33.87 45.65,-91.12 45.89,-91.69 0.28,-0.69 1.07,-1.03 1.76,-0.75 0.69,0.28 1.02,1.07 0.74,1.77 -0.23,0.57 -23.67,58.06 -46.13,92.16 -22.32,33.86 -31.85,57.64 -31.94,57.87 -0.21,0.53 -0.72,0.86 -1.26,0.86z"/>
  <polygon class="fil13" points="244.22,804.75 240.67,831.4 211.43,831.4 212.56,803.96 "/>
  <path class="fil19" d="M139.28 877.58l110.58 0c0.83,-1.5 1.27,-3.62 1.46,-6.15 0.69,-9.35 -2.29,-24.28 -3.75,-33.69 -0.18,-1.1 -0.33,-2.13 -0.45,-3.06 -0.21,-1.57 -0.33,-2.88 -0.33,-3.84 0,-7.68 -6.8,-6.37 -6.8,-6.37 -11.19,10.98 -23.86,-5.48 -31.26,-0.08 0,0 -3.19,2.28 -11.97,10.18 -8.77,7.9 -23.71,13.11 -36.42,18.43 -16.41,6.86 -21.06,13.71 -21.97,18.43 -0.72,3.74 0.91,6.15 0.91,6.15z"/>
  <path class="fil20" d="M139.28 877.58l110.58 0c0.83,-1.5 1.27,-3.62 1.46,-6.15l-112.95 0c-0.72,3.74 0.91,6.15 0.91,6.15z"/>
  <path class="fil20" d="M238.58 877.58l3.29 0c-3.28,-3.75 -6.35,-9.5 -5.95,-17.71 0.54,-10.93 7.09,-18.3 11.65,-22.13 -0.18,-1.1 -0.33,-2.13 -0.45,-3.06 -4.91,3.75 -13.19,11.97 -13.83,25.06 -0.38,7.84 2.19,13.69 5.29,17.84z"/>
  <path class="fil6" d="M198.64 841.09c0.82,0 1.56,-0.55 1.77,-1.38 0.24,-0.97 -0.36,-1.96 -1.33,-2.21l-6.91 -1.71c-0.98,-0.25 -1.97,0.35 -2.21,1.33 -0.24,0.97 0.35,1.96 1.33,2.21l6.91 1.71 0.44 0.05z"/>
  <path class="fil6" d="M205.5 835.34c0.82,0 1.56,-0.55 1.77,-1.38 0.24,-0.98 -0.35,-1.97 -1.33,-2.21l-6.91 -1.71c-0.97,-0.25 -1.96,0.35 -2.2,1.33 -0.25,0.97 0.35,1.96 1.32,2.21l6.91 1.71 0.44 0.05z"/>
  <path class="fil6" d="M191.73 845.11c0.82,0 1.56,-0.55 1.77,-1.38 0.24,-0.98 -0.36,-1.97 -1.33,-2.21l-6.91 -1.72c-0.98,-0.24 -1.96,0.36 -2.21,1.33 -0.24,0.98 0.36,1.97 1.33,2.21l6.91 1.72 0.44 0.05z"/>
  <path class="fil6" d="M184.82 848.97c0.82,0 1.56,-0.55 1.77,-1.38 0.24,-0.98 -0.35,-1.97 -1.33,-2.21l-6.91 -1.72c-0.98,-0.24 -1.96,0.36 -2.2,1.33 -0.25,0.98 0.35,1.97 1.32,2.21l6.91 1.72 0.44 0.05z"/>
  <path class="fil6" d="M177.29 852.54c0.82,0 1.56,-0.55 1.77,-1.38 0.24,-0.98 -0.35,-1.97 -1.33,-2.21l-6.91 -1.72c-0.98,-0.24 -1.97,0.36 -2.21,1.33 -0.24,0.98 0.36,1.97 1.33,2.21l6.91 1.72 0.44 0.05z"/>
  <path class="fil6" d="M169.12 855.59c0.82,0 1.56,-0.56 1.77,-1.39 0.24,-0.98 -0.35,-1.96 -1.33,-2.21l-6.91 -1.71c-0.98,-0.25 -1.96,0.35 -2.21,1.33 -0.24,0.97 0.36,1.96 1.33,2.21l6.91 1.71 0.44 0.06z"/>
  <path class="fil9" d="M465.77 584.37c-0.04,0.44 -0.1,0.87 -0.15,1.28 -0.23,0.18 -0.45,0.35 -0.66,0.51 -17.17,13.17 -37.19,21.93 -57.65,26.9 -0.72,0.18 -1.43,0.35 -2.16,0.51 -3.51,0.81 -7.04,1.51 -10.55,2.1 -4.77,0.8 -9.54,1.41 -14.26,1.81 -4.19,0.37 -8.35,0.59 -12.46,0.67 -17.69,0.32 -34.48,-1.98 -48.67,-6.51 -0.54,-0.17 -1.09,-0.34 -1.62,-0.53 -3.76,-1.25 -7.32,-2.67 -10.65,-4.23 -0.51,-0.23 -1.02,-0.47 -1.52,-0.72 -2.07,-1.02 -4.06,-2.1 -5.94,-3.24 0.28,-6.82 0.38,-14.98 0.31,-23.71 -0.01,-0.73 0,-1.45 -0.02,-2.18 -0.12,-12.14 -0.5,-25.23 -0.97,-37.22 -0.03,-0.56 -0.05,-1.12 -0.06,-1.69 -0.27,-6.26 -0.55,-12.2 -0.82,-17.49 -0.04,-0.56 -0.06,-1.13 -0.1,-1.67 -0.23,-4.47 -0.47,-8.45 -0.69,-11.73 -0.05,-0.83 -0.1,-1.65 -0.17,-2.47 -0.03,-0.64 -0.08,-1.28 -0.12,-1.91l0 0c-0.17,-2.31 -0.37,-4.56 -0.56,-6.79 -0.3,-3.54 -0.64,-6.98 -1,-10.33 -0.42,-3.81 -0.87,-7.52 -1.35,-11.1 -0.53,-3.85 -1.07,-7.56 -1.65,-11.14 -0.63,-3.82 -1.27,-7.51 -1.94,-11.04 -2.38,-12.44 -5.05,-23.13 -7.72,-32.35 -0.2,-0.63 -0.37,-1.25 -0.56,-1.87 -1.08,-3.67 -2.16,-7.08 -3.22,-10.27 -0.23,-0.71 -0.46,-1.4 -0.69,-2.09 -5.93,-17.64 -10.85,-28.28 -10.94,-35.42 -0.17,-14.86 10.69,-19.63 22.01,-25.61 0.54,-0.29 1.08,-0.56 1.6,-0.85 1.91,-1.03 3.82,-2.11 5.68,-3.29 0.78,-0.49 1.56,-1 2.31,-1.55 0.53,-0.37 1.03,-0.74 1.53,-1.11 4.5,-3.45 8.43,-7.81 10.98,-13.95l42.82 -9.03c0,0 4.11,2.11 10.96,3.96 0.65,0.17 1.31,0.35 2.01,0.51 0.8,0.18 1.64,0.38 2.52,0.54 0.54,0.12 1.1,0.22 1.68,0.31 0.42,0.09 0.88,0.17 1.33,0.23 4.1,0.64 8.85,1.05 14.21,0.94 0.54,-0.01 1.08,-0.02 1.64,-0.04 0.38,-0.02 0.76,-0.04 1.16,-0.05 3.63,-0.19 7.1,0.28 10.42,1.35l0.01 0c0.63,0.2 1.27,0.42 1.89,0.68 13.91,5.56 24.85,22.18 31.94,47.72 1.97,7.1 3.9,14.01 5.79,20.78 0.2,0.73 0.4,1.47 0.61,2.2 0.41,1.49 0.81,2.96 1.22,4.43l0 0c0.16,0.54 0.3,1.07 0.44,1.61 1.46,5.24 2.87,10.4 4.23,15.52l0 0.01c0.14,0.54 0.29,1.08 0.43,1.63l0.01 0.01c0.07,0.3 0.15,0.58 0.23,0.86l0.77 2.98c4.74,18.29 8.71,35.89 11.24,53.66 0.53,3.69 1,7.39 1.4,11.11 0.1,0.91 0.21,1.91 0.32,3.03 0.02,0.21 0.04,0.42 0.06,0.63 0.04,0.38 0.08,0.77 0.13,1.18 0.02,0.2 0.04,0.4 0.06,0.6 0.68,6.73 1.57,16.06 2.43,26.33 0.05,0.54 0.1,1.1 0.14,1.64 1.99,23.95 3.76,52.43 2.35,64.95z"/>
  <path class="fil18" d="M335.48 349.28c17.11,-3.6 26.34,-24.99 26.73,-25.92 0.26,-0.62 -0.03,-1.34 -0.65,-1.61 -0.62,-0.26 -1.34,0.03 -1.6,0.65 -0.1,0.22 -9.48,22 -25.96,24.67 -16.23,2.64 -22.69,-9.31 -22.95,-9.81 -0.32,-0.6 -1.05,-0.84 -1.65,-0.52 -0.6,0.31 -0.84,1.05 -0.53,1.64 0.08,0.15 7.51,14.03 25.52,11.11 0.36,-0.06 0.73,-0.13 1.09,-0.21z"/>
  <path class="fil18" d="M352.82 576.79c16.08,-3.39 32.69,-11.64 49.29,-24.62 22.78,-17.8 37.75,-38.45 37.89,-38.66 0.4,-0.55 0.27,-1.31 -0.28,-1.71 -0.54,-0.39 -1.31,-0.27 -1.7,0.28 -0.15,0.2 -14.95,20.61 -37.46,38.2 -20.66,16.14 -52.24,33.15 -85.42,22.54 -0.65,-0.2 -1.34,0.15 -1.54,0.8 -0.21,0.64 0.15,1.33 0.79,1.53 12.25,3.92 25.16,4.44 38.43,1.64z"/>
  <path class="fil18" d="M343.2 564.52l0.02 0c25.04,-5.7 38.49,-43.49 39.05,-45.1 0.22,-0.64 -0.12,-1.34 -0.75,-1.56 -0.64,-0.22 -1.34,0.11 -1.56,0.75 -0.13,0.38 -13.57,38.12 -37.28,43.52 -0.66,0.15 -1.07,0.81 -0.92,1.46 0.15,0.66 0.79,1.07 1.44,0.93z"/>
  <path class="fil18" d="M296.97 504.76c3.1,-2.13 6.02,-4.8 8.32,-7.8 5.58,-7.28 6.33,-14.71 2.11,-20.94 -0.84,-1.24 -1.63,-2.39 -2.36,-3.45 -8.61,-12.57 -9.51,-13.88 -8.75,-34.54 0.24,-6.51 -1.6,-11.62 -5.45,-15.19 -2.59,-2.4 -5.75,-3.8 -8.78,-4.61 0.19,0.62 0.37,1.24 0.56,1.87 2.52,0.78 5.04,2.01 7.12,3.94 3.48,3.24 5.14,7.92 4.92,13.93 -0.78,21.2 0.34,22.83 9.04,35.53 0.73,1.06 1.51,2.2 2.34,3.44 5.13,7.54 0.92,15.16 -2.05,19.03 -1.98,2.58 -4.48,4.94 -7.15,6.87l0 0.01c0.04,0.63 0.09,1.27 0.13,1.91z"/>
  <path class="fil18" d="M460.85 491.45c-3.33,1.94 -6.57,3.17 -9.65,3.82 -8.32,1.75 -15.51,-0.76 -20.15,-5.42 -5.53,-5.58 -7.69,-15.17 -1.09,-22.69 6.38,-7.28 3.64,-11.17 0.17,-16.08 -3.41,-4.84 -7.67,-10.86 -3.25,-21.43 2.54,-6.1 6.46,-10.26 11.63,-12.35 2.59,-1.05 5.22,-1.48 7.69,-1.54 0.14,0.54 0.29,1.08 0.43,1.63 -2.42,0.03 -5,0.41 -7.52,1.43 -4.75,1.93 -8.36,5.79 -10.73,11.46 -4.07,9.74 -0.43,14.89 3.08,19.86 3.58,5.06 6.95,9.85 -0.27,18.1 -5.32,6.07 -4.91,14.48 1.02,20.46 5.99,6.03 16.65,8.11 28.45,0.97 0.04,0.38 0.08,0.77 0.13,1.18 0.02,0.2 0.04,0.4 0.06,0.6z"/>
  <path class="fil18" d="M358.12 470.58c11.44,-11.08 7.7,-19.91 3.75,-29.24 -3.76,-8.87 -7.63,-18.03 -0.92,-31.12 0.14,-0.28 0.28,-0.55 0.42,-0.82 1.28,-2.41 3.23,-4.19 5.53,-5.17 2.06,-0.88 4.38,-1.13 6.76,-0.65 5.04,1.04 8.57,5.02 8.99,10.16 0.48,5.77 2.19,12.08 5.11,18.9 2.31,5.4 5.38,11.09 9.19,17.08 5.45,8.55 6.46,17.51 3.03,26.65 -5.03,13.37 -19.21,24.63 -30.01,27.78 -7.47,2.18 -15.62,-0.92 -19.36,-7.37 -4.41,-7.58 -1.6,-17.36 7.51,-26.2zm-8.93 27.01c4.13,7.09 13.05,10.5 21.23,8.12 1.25,-0.37 2.54,-0.83 3.85,-1.39 10.49,-4.49 22.61,-15.07 27.24,-27.38 3.57,-9.5 2.47,-19.21 -3.18,-28.09 -8.38,-13.13 -13.23,-25.32 -14.05,-35.25 -0.48,-5.87 -4.52,-10.43 -10.28,-11.61 -5.79,-1.19 -11.31,1.42 -14.07,6.65 -0.14,0.27 -0.29,0.55 -0.44,0.83 -7.05,13.77 -2.84,23.73 0.88,32.51 3.89,9.18 7.25,17.12 -3.39,27.43 -9.68,9.39 -12.6,19.92 -7.79,28.18z"/>
  <path class="fil18" d="M278.16 405.87c0.22,0.69 0.45,1.37 0.68,2.09 5.7,2.28 10.96,2.19 15.17,1.3 2.13,-0.45 3.99,-1.11 5.51,-1.76 10.44,-4.51 17.54,-14.18 17.37,-20.04 -0.07,-2.2 -1.17,-3.81 -3.11,-4.51 -11.24,-4.1 -15.83,-11.53 -17.53,-28.39 -0.47,-4.58 -2.29,-8.13 -5.42,-10.57 -0.54,0.29 -1.07,0.56 -1.6,0.84l0.4 0.29c2.88,2.16 4.56,5.39 4.99,9.6 1.78,17.62 6.65,25.41 18.59,29.76 1.33,0.49 2,1.47 2.04,3.02 0.16,5.33 -6.82,14.37 -16.38,18.5 -4.46,1.92 -12.12,3.83 -20.71,-0.13z"/>
  <path class="fil18" d="M338.96 372.84c2.27,-4.5 6.43,-7.73 11.12,-8.71 0.55,-0.12 1.1,-0.2 1.66,-0.26 4.44,-0.42 7.59,1.16 9.34,4.66 2.13,4.25 -0.29,6.48 -3.64,9.56 -3.72,3.42 -8.34,7.67 -6.04,16.08 1.73,6.37 0.1,11.66 -4.36,14.12 -3.36,1.87 -7.51,1.52 -9.65,-0.81 -7.49,-8.12 -3.01,-25.56 1.57,-34.64zm-2.78 35.75c2.02,2.18 5.27,2.99 8.49,2.32 1.07,-0.23 2.13,-0.63 3.15,-1.18 5.18,-2.87 7.1,-8.84 5.14,-15.99 -2.02,-7.45 1.85,-11.01 5.58,-14.45 3.28,-3.02 6.68,-6.14 4,-11.49 -2.06,-4.11 -5.85,-6.03 -10.95,-5.55 -6,0.57 -11.26,4.25 -14.09,9.86 -4.78,9.47 -9.37,27.75 -1.32,36.48z"/>
  <path class="fil18" d="M313.82 444.85c0.51,-3.86 2.21,-7.34 4.71,-10.06 2.5,-2.72 5.77,-4.66 9.44,-5.43 0.66,-0.14 1.33,-0.24 2.02,-0.3 4.68,-0.41 7.62,1.05 8.96,4.49 1.86,4.76 -1.58,8.37 -5.22,12.21 -4.53,4.76 -9.67,10.17 -4.07,18.29 3.7,5.37 4.62,9.74 2.54,11.97 -2.34,2.51 -7.92,1.93 -13.59,-1.41 -5.22,-3.07 -6.92,-13.64 -4.79,-29.76zm-1.69 21.58c0.91,4.32 2.65,7.82 5.65,9.59 4.49,2.63 8.9,3.65 12.14,2.97 1.41,-0.3 2.59,-0.91 3.48,-1.86 2.64,-2.84 1.77,-7.95 -2.41,-14.01 -4.84,-7.03 -0.59,-11.5 3.92,-16.24 3.83,-4.04 7.8,-8.21 5.57,-13.91 -1.61,-4.1 -5.28,-6.01 -10.64,-5.53 -9.01,0.8 -16.43,8.03 -17.64,17.2 -0.94,7.1 -1.42,15.37 -0.07,21.79z"/>
  <path class="fil18" d="M298.8 539.81c6.56,-2.37 8.76,0.92 11.96,5.68 2.86,4.26 6.41,9.55 14.39,11.43 2.71,0.64 5.32,0.62 7.77,0.1 6.44,-1.35 11.69,-6.15 14.21,-11.54 3.4,-7.25 1.9,-14.48 -3.93,-18.88 -2.53,-1.91 -3.87,-3.72 -4.11,-5.53 -0.35,-2.57 1.58,-5.05 3.63,-7.68 2.84,-3.65 6.06,-7.79 3.6,-13.07 -1.94,-4.18 -5.6,-6.66 -10.3,-7 -7.82,-0.57 -16.58,4.72 -22.34,13.47 -4.9,7.48 -11.13,10.75 -15.86,12.17 0.04,0.54 0.06,1.11 0.1,1.67 5.07,-1.46 11.84,-4.89 17.12,-12.94 4.37,-6.63 10.49,-11.16 16.48,-12.42 1.48,-0.31 2.95,-0.43 4.39,-0.32 4.08,0.29 7.25,2.44 8.94,6.06 2.04,4.38 -0.61,7.78 -3.42,11.38 -2.16,2.77 -4.39,5.64 -3.97,8.89 0.31,2.27 1.86,4.43 4.76,6.63 6.18,4.66 5.83,11.77 3.44,16.88 -3.21,6.84 -11.16,12.65 -20.14,10.54 -7.35,-1.72 -10.57,-6.52 -13.41,-10.74 -3.19,-4.76 -5.97,-8.92 -13.37,-6.47 0.01,0.56 0.03,1.12 0.06,1.69z"/>
  <path class="fil18" d="M383.51 519.74c-0.03,-0.61 -0.41,-7.72 3.53,-11.76 2.04,-2.08 4.92,-3.02 8.58,-2.8 8.96,0.54 13.02,-2.62 17.32,-5.97 2.8,-2.17 5.69,-4.42 10.23,-5.93 5.7,-1.87 10.01,1.66 11.61,5.74 1.8,4.58 0.66,10.91 -6.07,13.96 -6.5,2.95 -11.45,2.25 -15.81,1.62 -2.52,-0.37 -4.84,-0.69 -7.06,-0.23 -1.85,0.39 -3.63,1.35 -5.38,3.32 -4.12,4.67 -9.61,7.22 -13.35,6.22 -1.9,-0.52 -3.15,-1.96 -3.6,-4.17zm-1.61 0.27c0.56,2.84 2.26,4.79 4.78,5.47 1.35,0.36 2.86,0.37 4.44,0.03 3.53,-0.74 7.39,-3.14 10.56,-6.73 3.25,-3.68 6.5,-3.22 10.99,-2.57 4.35,0.63 9.78,1.41 16.71,-1.73 7.7,-3.5 8.99,-10.78 6.93,-16.05 -1.88,-4.78 -6.94,-8.91 -13.66,-6.69 -4.8,1.59 -7.94,4.03 -10.72,6.19 -4.22,3.29 -7.87,6.12 -16.21,5.62 -4.16,-0.25 -7.47,0.86 -9.85,3.3 -4.62,4.74 -4.01,12.73 -3.98,13.07l0.01 0.09z"/>
  <path class="fil18" d="M453.46 559.34c-5.61,9.27 -3.24,19.6 2.3,24.23 2.68,2.23 5.84,3.09 9.2,2.59 0.22,-0.16 0.43,-0.33 0.66,-0.51 0.05,-0.41 0.11,-0.84 0.16,-1.29 -3.28,0.8 -6.37,0.13 -8.97,-2.04 -5.01,-4.19 -7.11,-13.62 -1.95,-22.13 5.23,-8.64 1.11,-11.31 -3.26,-14.14 -4,-2.6 -8.16,-5.29 -7.53,-13.04 0.31,-3.82 1.86,-6.9 4.61,-9.14 2.4,-1.95 5.45,-3.08 8.45,-3.71 2.22,-0.47 4.41,-0.67 6.29,-0.74 -0.04,-0.55 -0.09,-1.1 -0.13,-1.64 -4.65,0.17 -11.11,1.13 -15.64,4.82 -3.11,2.54 -4.86,5.99 -5.21,10.28 -0.7,8.73 4.28,11.95 8.28,14.54 4.3,2.79 7.15,4.64 2.74,11.92z"/>
  <path class="fil18" d="M317.59 611.11c0.54,0.19 1.08,0.37 1.62,0.53 0.06,-2.52 0.67,-7.93 4.41,-11.55 3.11,-3.03 7.77,-4.22 13.84,-3.56 8.05,0.9 11.71,4.24 14.93,7.2 5.41,4.96 9.16,7.31 23.27,-1.91 5.37,-3.52 10.34,-5.56 14.68,-6.47 7.02,-1.48 12.41,-0.03 15.23,2.87 3.47,3.58 3.3,9.23 -0.41,15.36 0.72,-0.17 1.43,-0.34 2.15,-0.52 3.36,-6.28 3.2,-12.11 -0.56,-15.98 -5.02,-5.17 -17.17,-6.32 -31.98,3.36 -13.75,9 -16.58,6.39 -21.28,2.09 -3.23,-2.97 -7.26,-6.67 -15.85,-7.62 -6.59,-0.72 -11.69,0.63 -15.17,4.02 -3.94,3.84 -4.75,9.25 -4.88,12.18z"/>
  <path class="fil18" d="M413.37 577.36c5.6,-3.83 4.8,-6.21 3.03,-9.78 -1.21,-2.45 -2.72,-5.49 -2.04,-10.6 0.35,-2.7 1.53,-4.74 3.5,-6.08 4.81,-3.27 12.86,-1.53 13.7,-1.33 5.86,2.72 8.08,8.44 7.66,19.7 -0.28,7.55 -3.01,17.22 -14.39,20.44 -5.66,1.6 -12.19,-1.69 -14.01,-5.58 -1.16,-2.5 -0.28,-4.84 2.55,-6.77zm-4.03 7.46c2.05,4.38 8.81,7.99 15.11,6.67 0.27,-0.06 0.55,-0.13 0.82,-0.21 9.62,-2.72 15.16,-10.52 15.58,-21.95 0.33,-8.84 -0.49,-17.53 -8.69,-21.28l-0.14 -0.04c-0.37,-0.1 -9.44,-2.3 -15.08,1.54 -2.37,1.61 -3.78,4.04 -4.2,7.21 -0.74,5.61 0.96,9.05 2.19,11.55 1.54,3.08 2.23,4.48 -2.47,7.7 -3.49,2.37 -4.62,5.59 -3.12,8.81z"/>
  <path class="fil18" d="M305.43 606.15c0.49,0.26 1,0.49 1.51,0.73 3.42,-4.01 4.83,-8.36 4.16,-12.92 -1.07,-7.4 -7.25,-13.58 -11.33,-16.93 0.02,0.73 0.02,1.46 0.02,2.18 3.82,3.35 8.81,8.78 9.7,14.98 0.6,4.14 -0.72,8.11 -3.92,11.8l-0.14 0.16z"/>
  <path class="fil8" d="M273.94 250.46c0,0 -24.27,-5.12 -24.83,-14.38 -0.51,-8.55 9.58,-7.64 9.58,-7.64 0,0 -11.78,-19.32 -5.02,-23.12 6.76,-3.8 15.27,7.03 15.27,7.03 0,0 -6.18,-22.9 2.08,-21.26 8.25,1.64 9.31,14.23 9.31,14.23 0,0 27.43,-9.77 43.02,-5.08 10.61,3.19 13.12,13.41 13.12,13.41 0,0 6.31,-3.76 10.79,-1.44 4.47,2.31 0.39,10.18 0.39,10.18 0,0 6.92,5.33 4.8,13.78 -2.12,8.46 -8.17,25.18 -8.17,25.18l-70.34 -10.89z"/>
  <path class="fil13" d="M308.18 317.8l2.35 11.15c1.52,0.78 3.04,1.42 4.53,1.93 21.8,7.55 39.65,-11.24 39.65,-11.24l-8.14 -38.65 -33.81 32.42 -4.58 4.39z"/>
  <path class="fil8" d="M308.18 317.8l2.35 11.15c1.52,0.78 3.04,1.42 4.53,1.93 15.11,-9.99 23.46,-29.82 23.46,-29.82l-25.76 12.35 -4.58 4.39z"/>
  <path class="fil8" d="M286.72 227.53c0,0 -26.4,8.21 -10.74,34.34 0,0 12.91,-27.11 10.74,-34.34z"/>
  <path class="fil14" d="M283.84 271.33c0,0 -7.91,-6.14 -9.91,2.09 -2,8.24 3.94,22.8 13.05,18.29l-3.14 -20.38z"/>
  <path class="fil13" d="M282.61 298.99c0,0 4.82,23.05 28.79,17.95 23.81,-5.06 36.11,-27.2 36.77,-28.24l0.02 -0.03 -0.76 -4.9 -3.94 -25.43 -2.11 -13.59c0,0 -2.06,-24.83 -25.98,-24.4 -17.48,0.32 -32.65,6.42 -38.75,16.86 -2.25,3.86 -3.26,8.3 -2.71,13.25l4.34 24.3 1.07 5.95 3.26 18.28z"/>
  <path class="fil8" d="M331.5 261.35c0,0 -3.53,14.16 -11.33,13.5 -7.8,-0.65 -16.47,0.23 -22.48,4.74 0,0 -12.08,-1.8 -17.79,4.21 -3.83,4.03 5.17,34.09 21.87,35.17 16.69,1.08 36.76,-8.93 38.76,-24.88 1.99,-15.95 -1,-28.53 -1,-28.53l-8.03 -4.21z"/>
  <path class="fil6" d="M292.77 286.34c0,0 13.49,-1.38 20.1,-5.16 0,0 2.96,13.17 -8.44,14.3 -9.16,0.91 -11.66,-9.14 -11.66,-9.14z"/>
  <path class="fil14" d="M310.18 271.13c0.35,1.68 4.09,2.31 8.36,1.42 4.26,-0.9 7.43,-2.99 7.08,-4.67 -0.36,-1.68 -4.1,-2.31 -8.36,-1.41 -4.27,0.9 -7.44,2.99 -7.08,4.66z"/>
  <path class="fil14" d="M279.35 280.71c0.61,-0.06 1.24,-0.17 1.88,-0.3 4.26,-0.9 7.43,-2.99 7.07,-4.67 -0.35,-1.67 -4.1,-2.31 -8.35,-1.41 -0.58,0.12 -1.14,0.27 -1.67,0.43l1.07 5.95z"/>
  <path class="fil8" d="M308.48 261.85c0.49,2.3 1.93,3.95 3.22,3.68 1.29,-0.28 1.94,-2.36 1.45,-4.67 -0.48,-2.3 -1.92,-3.95 -3.21,-3.68 -1.29,0.27 -1.94,2.36 -1.46,4.67z"/>
  <path class="fil8" d="M285.68 266.65c0.49,2.31 1.93,3.95 3.21,3.68 1.29,-0.27 1.95,-2.36 1.46,-4.66 -0.48,-2.31 -1.93,-3.96 -3.21,-3.69 -1.29,0.28 -1.95,2.36 -1.46,4.67z"/>
  <path class="fil8" d="M299.85 275.78c0.52,-0.11 0.86,-0.62 0.75,-1.15 -0.11,-0.52 -0.63,-0.86 -1.15,-0.74 -3.49,0.73 -5.5,-0.76 -6.22,-1.45 2.14,-8.6 4.25,-17.24 4.27,-17.33 0.12,-0.52 -0.19,-1.04 -0.72,-1.17 -0.52,-0.13 -1.04,0.19 -1.16,0.71 -0.03,0.09 -2.21,9.07 -4.39,17.82 -0.07,0.29 -0.01,0.59 0.16,0.82 0.12,0.15 2.84,3.67 8.46,2.49z"/>
  <path class="fil8" d="M317.79 248.84c-1.04,-2.32 -4.03,-6.47 -11.88,-5.17 -0.96,0.15 -1.68,0.96 -1.74,1.93 -0.08,1.22 0.91,2.25 2.13,2.21 2.14,-0.06 5.37,0.43 7.79,3.44 0.76,0.94 2.17,0.99 3.04,0.16l0.21 -0.2c0.64,-0.61 0.81,-1.56 0.45,-2.37z"/>
  <path class="fil8" d="M277.92 257.24c0.02,-2.54 1.08,-7.54 8.79,-9.53 0.94,-0.24 1.92,0.21 2.37,1.07 0.56,1.08 0.08,2.43 -1.05,2.88 -1.99,0.81 -4.75,2.56 -5.75,6.29 -0.31,1.17 -1.58,1.79 -2.72,1.38l-0.26 -0.1c-0.84,-0.3 -1.38,-1.1 -1.38,-1.99z"/>
  <path class="fil8" d="M338.7 280.93c0.16,0.23 4.67,6.63 9.47,7.77l0.02 -0.03 -0.76 -4.9c0,0 -3.92,0.15 -8.73,-2.84z"/>
  <path class="fil13" d="M339.54 264.03c0,0 6.61,-14.32 15.41,-6.01 7.25,6.84 1.14,29.95 -11.38,25.11l-4.03 -19.1z"/>
  <path class="fil8" d="M344.04 279.14c0.48,-0.1 0.81,-0.55 0.76,-1.05 -0.94,-9.58 6.22,-14.5 6.52,-14.71 0.44,-0.29 0.56,-0.89 0.27,-1.34 -0.3,-0.44 -0.9,-0.57 -1.34,-0.27 -0.35,0.23 -8.44,5.74 -7.37,16.51 0.05,0.54 0.52,0.92 1.06,0.87l0.1 -0.01z"/>
  <path class="fil8" d="M351.68 271.52c0.27,-0.05 0.52,-0.23 0.66,-0.5 0.25,-0.48 0.06,-1.06 -0.42,-1.31 -0.44,-0.22 -4.4,-2.19 -7.1,-0.86 -0.48,0.24 -0.68,0.82 -0.44,1.3 0.24,0.48 0.82,0.68 1.3,0.44 1.55,-0.76 4.46,0.39 5.36,0.85 0.2,0.1 0.43,0.13 0.64,0.08z"/>
  <path class="fil8" d="M276.65 237.21c0.34,0.78 0.83,1.4 1.48,1.85 5.69,3.9 16.34,-0.15 25.87,-5.45 9.54,-5.3 18.26,0.59 18.26,0.59 -0.77,10.37 9,9.13 8.51,16.96 -0.49,7.84 2.36,17.44 2.36,17.44l5.82 -2.05c0.56,-3.75 2.89,-6.6 4.54,-8.2l-2.11 -13.6c0,0 -2.06,-24.83 -25.98,-24.4 -17.48,0.32 -32.65,6.42 -38.75,16.86z"/>
  <path class="fil8" d="M455.23 564.14c0,0 22.82,90.05 -95.52,90.05 -63.22,0 -93.26,-6.1 -93.26,-6.1 0,0 -1.52,55.81 -4.46,79.36 -2.94,23.54 -13.36,82.21 -13.36,82.21l-49.79 3.86c0,0 -7.95,-204.34 22.56,-223.15 30.51,-18.82 74.38,-19.38 149.71,-26.61 0,0 67.63,-11.44 84.12,0.38z"/>
  <path class="fil16" d="M241.81 793.34l-0.31 -0.03c-0.73,-0.18 -1.18,-0.91 -1,-1.64 6.87,-28.74 9.61,-69.92 11.8,-103 2.17,-32.62 3.46,-49.78 6.85,-52.78 3.73,-3.3 14.82,-2.12 33.18,-0.17 22.76,2.42 57.15,6.08 94.22,1.83 18.42,-2.11 32.53,-9.33 41.96,-21.44 16.91,-21.73 13.03,-52.23 12.99,-52.54 -0.1,-0.74 0.42,-1.42 1.16,-1.52 0.75,-0.1 1.43,0.42 1.52,1.16 0.18,1.29 4.09,31.9 -13.52,54.55 -9.89,12.72 -24.63,20.28 -43.8,22.48 -37.37,4.28 -71.94,0.61 -94.81,-1.82 -15.8,-1.68 -28.27,-3.01 -31.11,-0.5 -0.64,0.57 -1.91,3.37 -3.23,15.75 -0.98,9.14 -1.78,21.21 -2.71,35.18 -2.2,33.18 -4.94,74.49 -11.87,103.46 -0.15,0.62 -0.7,1.03 -1.32,1.03z"/>
  <path class="fil16" d="M199.39 797.41c-0.72,0 -1.31,-0.56 -1.35,-1.28 -0.05,-0.74 0.52,-1.38 1.26,-1.43l50.92 -3.07c0.75,-0.05 1.38,0.53 1.43,1.27 0.04,0.75 -0.52,1.39 -1.27,1.43l-50.91 3.07 -0.08 0.01z"/>
  <path class="fil7" d="M336.34 589.91l-149.13 0c-0.34,0 -0.61,-0.27 -0.61,-0.61l0 -18.37c0,-0.34 0.27,-0.61 0.61,-0.61l149.13 0c0.34,0 0.62,0.27 0.62,0.61l0 18.37c0,0.34 -0.28,0.61 -0.62,0.61z"/>
  <path class="fil6" d="M170.9 589.91c-5.66,0 -10.61,-3.8 -12.07,-9.27l-28.12 -105.31c-1.72,-6.43 3.13,-12.75 9.8,-12.75l67.32 0c4.54,0 8.53,3.02 9.76,7.4l33.69 119.93 -80.38 0z"/>
  <path class="fil7" d="M217.59 469.98l33.41 118.94 7.69 0 -33.41 -118.94c-1.23,-4.38 -5.22,-7.4 -9.76,-7.4l-7.69 0c4.54,0 8.52,3.02 9.76,7.4z"/>
  <path class="fil21" d="M198.57 527.95c1.53,6.62 -2.59,11.98 -9.2,11.98 -6.62,0 -13.22,-5.36 -14.75,-11.98 -1.53,-6.61 2.59,-11.97 9.21,-11.97 6.61,0 13.21,5.36 14.74,11.97z"/>
  <path class="fil13" d="M290.4 547c0,0 -30.52,2.1 -40.27,11.43l5.93 21.12c0,0 18.25,-7.46 23.31,-6.73 5.05,0.72 8.07,9.02 24.97,3.97l-13.94 -29.79z"/>
  <path class="fil13" d="M290.56 545.62l3.44 -1.41 3.58 -1.5c2.38,-1.01 4.77,-2.05 7.15,-3.11 4.77,-2.11 9.5,-4.3 14.19,-6.56 9.38,-4.51 18.59,-9.29 27.48,-14.37 8.87,-5.08 17.45,-10.47 25.29,-16.24 1.95,-1.45 3.87,-2.91 5.71,-4.39 1.84,-1.49 3.62,-3 5.32,-4.52 3.36,-3.04 6.44,-6.16 8.84,-9.19 1.19,-1.5 2.26,-3.01 3.05,-4.34 0.72,-1.22 1.38,-2.57 1.99,-4.08 1.2,-3.02 2.14,-6.59 2.78,-10.5 1.26,-7.87 1.31,-16.95 0.49,-26.25 -0.81,-9.32 -2.45,-18.93 -4.63,-28.5 -1.08,-4.79 -2.31,-9.58 -3.67,-14.31 -0.67,-2.37 -1.38,-4.72 -2.11,-7.04 -0.37,-1.16 -0.74,-2.31 -1.12,-3.43l-0.57 -1.66 -0.27 -0.78 -0.14 -0.36 -0.06 -0.17 -0.03 -0.06c-6.43,-13.42 -0.76,-29.53 12.66,-35.96 13.43,-6.44 29.54,-0.77 35.97,12.66 0.63,1.29 1.14,2.62 1.54,3.96l0.81 2.8 0.22 0.75 0.17 0.6 0.3 1.15 0.58 2.22c0.38,1.47 0.73,2.91 1.07,4.35 0.68,2.89 1.32,5.75 1.91,8.63 1.19,5.74 2.22,11.49 3.09,17.31 1.75,11.63 2.9,23.45 3.05,35.67 0.08,6.11 -0.11,12.33 -0.68,18.67 -0.59,6.35 -1.56,12.83 -3.16,19.45 -1.64,6.62 -3.91,13.41 -7.3,20.15 -1.7,3.37 -3.7,6.72 -6.03,9.95 -2.26,3.11 -4.57,5.81 -6.95,8.35 -4.75,5.05 -9.65,9.23 -14.58,13.06 -4.95,3.79 -9.94,7.18 -14.96,10.33 -10.04,6.29 -20.21,11.62 -30.44,16.52 -10.24,4.88 -20.55,9.28 -30.95,13.36 -5.19,2.04 -10.41,3.99 -15.66,5.87 -2.63,0.94 -5.26,1.86 -7.92,2.76l-3.99 1.33 -4.17 1.35c-9.05,2.91 -18.74,-2.06 -21.66,-11.1 -2.78,-8.62 1.59,-17.82 9.82,-21.2l0.55 -0.22z"/>
  <path class="fil14" d="M415.44 487.65l-0.31 -0.04c-10.41,-3.13 -22.03,-2.64 -22.15,-2.64 -0.59,0.03 -1.08,-0.43 -1.11,-1.02 -0.03,-0.59 0.43,-1.09 1.01,-1.11 0.49,-0.02 12.1,-0.51 22.87,2.72 0.56,0.17 0.88,0.77 0.72,1.33 -0.14,0.46 -0.57,0.76 -1.03,0.76z"/>
  <path class="fil14" d="M395.61 484.94c-0.3,0 -0.59,-0.12 -0.8,-0.37 -0.39,-0.45 -0.34,-1.12 0.11,-1.51 3.88,-3.36 8.76,-4.83 8.96,-4.89 0.57,-0.16 1.16,0.16 1.33,0.73 0.17,0.56 -0.15,1.15 -0.72,1.32 -0.04,0.02 -4.65,1.41 -8.18,4.46 -0.2,0.17 -0.45,0.26 -0.7,0.26z"/>
  <path class="fil9" d="M453.49 419.6l-22.12 6.07 -1.63 0.44 -15.28 4.19 -1.86 0.52 -19.66 5.38 -1.52 -6.96 -0.34 -1.67 -3.55 -16.37 -0.37 -1.65 -6.69 -30.89c-1.81,-7.14 -3.01,-16.07 -2,-23.36 1.47,-10.79 10.94,-24.79 28.4,-25.73 3.12,-0.18 6.05,0.29 8.79,1.3 0.55,0.17 1.11,0.41 1.64,0.64 5.28,2.39 9.86,6.8 13.79,12.46 0.32,0.45 0.62,0.9 0.9,1.37 7.48,11.37 12.59,27.27 16.01,42.15 0.15,0.58 0.28,1.16 0.4,1.73 1.58,7.08 2.78,13.9 3.68,19.79 0.15,0.92 0.28,1.82 0.38,2.7 0.43,2.93 0.77,5.58 1.03,7.89z"/>
  <path class="fil18" d="M452.08 409.01c-2.63,-2.39 -6.18,-4.06 -11.65,-3.07 -6.5,1.15 -11.61,-0.94 -13.66,-5.62 -1.56,-3.51 -0.83,-7.61 1.67,-9.54 5,-3.84 12.67,-3.52 19.96,-1.56 -0.12,-0.57 -0.25,-1.15 -0.4,-1.73 -7.48,-1.9 -15.31,-2.03 -20.57,1.99 -2.35,1.82 -3.44,4.98 -3.05,8.25 0.13,1.09 0.43,2.18 0.87,3.25 2.4,5.41 8.19,7.86 15.48,6.56 5.88,-1.07 9.13,1.22 11.73,4.17 -0.1,-0.88 -0.23,-1.78 -0.38,-2.7z"/>
  <path class="fil18" d="M428.97 360.64c-4.53,-6.56 -1.13,-10.9 3.02,-15.3 -0.28,-0.47 -0.58,-0.92 -0.9,-1.37 -4.38,4.6 -8.81,9.88 -3.46,17.61 3.7,5.37 4.61,9.73 2.54,11.97 -2.33,2.51 -7.93,1.93 -13.59,-1.41 -5.22,-3.07 -6.91,-13.63 -4.79,-29.75 0.51,-3.87 2.22,-7.35 4.7,-10.07 0.26,-0.28 0.54,-0.55 0.81,-0.81 -0.53,-0.23 -1.09,-0.47 -1.64,-0.64 -2.93,3.01 -4.9,6.92 -5.5,11.29 -0.92,7.11 -1.41,15.39 -0.06,21.8 0.92,4.31 2.65,7.82 5.64,9.59 4.49,2.63 8.92,3.66 12.14,2.98 1.41,-0.3 2.61,-0.92 3.49,-1.86 2.65,-2.85 1.77,-7.96 -2.4,-14.03z"/>
  <path class="fil18" d="M387.57 409.75c-3.63,-21.6 -8.23,-41.83 -8.28,-42.05 -0.1,-0.43 -0.53,-0.7 -0.96,-0.6 -0.43,0.1 -0.7,0.53 -0.6,0.96 0.04,0.21 4.61,20.32 8.23,41.82 0.24,0.85 1.61,0.9 1.61,-0.13z"/>
  <path class="fil18" d="M381.71 383.68l-0.43 -0.13 -8.34 -5.34c-0.37,-0.24 -0.48,-0.74 -0.24,-1.11 0.24,-0.38 0.73,-0.48 1.11,-0.25l8.34 5.35c0.37,0.24 0.48,0.74 0.24,1.11 -0.15,0.24 -0.41,0.37 -0.68,0.37z"/>
  <path class="fil6" d="M327.69 385.99c-2.82,0 -5.41,-1.03 -7.72,-3.06 -13.18,-11.61 -13.12,-53.79 -13.11,-55.59 0,-0.84 0.69,-1.52 1.53,-1.52l0.01 0c0.84,0 1.53,0.69 1.52,1.54 0,0.42 -0.06,42.58 12.08,53.27 2.07,1.83 4.33,2.55 6.89,2.21 16.21,-2.14 23.6,-49.35 25.08,-67.36 0.07,-0.85 0.81,-1.48 1.65,-1.41 0.85,0.07 1.47,0.81 1.4,1.66 -0.01,0.16 -1.4,16.8 -5.36,33.57 -5.44,23.03 -12.97,35.34 -22.37,36.58 -0.54,0.07 -1.07,0.11 -1.6,0.11z"/>
  <path class="fil22" d="M450.22 780.09l-159.84 0c-3.74,0 -6.77,-3.03 -6.77,-6.77 0,-3.74 3.03,-6.77 6.77,-6.77l159.84 0c3.73,0 6.77,3.03 6.77,6.77 0,3.74 -3.04,6.77 -6.77,6.77z"/>
  <path class="fil23" d="M275.68 883.49c-0.3,0 -0.61,-0.02 -0.91,-0.06 -3.71,-0.5 -6.31,-3.91 -5.81,-7.61l29.11 -217.39c0.45,-3.36 3.32,-5.87 6.71,-5.87l130.41 0c3.39,0 6.26,2.51 6.71,5.88l28.66 217.39c0.49,3.71 -2.12,7.11 -5.83,7.6 -3.7,0.49 -7.11,-2.12 -7.59,-5.83l-27.89 -211.5 -118.54 0 -28.33 211.51c-0.46,3.4 -3.36,5.88 -6.7,5.88z"/>
  <path class="fil23" d="M342.55 659.33l84.69 0c26.84,0 55.57,-14.69 59.69,-41.2 5.51,-35.45 6.87,-69.79 5.33,-101.3 -1.74,-35.63 -15.58,-68.71 -43.59,-90.8 0,0 12.09,137.44 1.18,175.41 -14.58,50.73 -107.3,57.89 -107.3,57.89z"/>
  <path class="fil23" d="M83.37 376.3l0 40.65c0,5.38 4.36,9.74 9.73,9.74l73.82 0 22.29 7.99c2.29,0.83 4.48,-1.42 3.6,-3.69l-8.43 -21.77 0 -32.92c0,-5.38 -4.36,-9.74 -9.74,-9.74l-81.54 0c-5.37,0 -9.73,4.36 -9.73,9.74z"/>
  <path class="fil22" d="M147.5 397.78c0,3.89 3.15,7.04 7.04,7.04 3.89,0 7.04,-3.15 7.04,-7.04 0,-3.89 -3.15,-7.04 -7.04,-7.04 -3.89,0 -7.04,3.15 -7.04,7.04z"/>
  <path class="fil22" d="M125.21 397.78c0,3.89 3.15,7.04 7.04,7.04 3.89,0 7.04,-3.15 7.04,-7.04 0,-3.89 -3.15,-7.04 -7.04,-7.04 -3.89,0 -7.04,3.15 -7.04,7.04z"/>
  <path class="fil22" d="M102.92 397.78c0,3.89 3.15,7.04 7.04,7.04 3.89,0 7.04,-3.15 7.04,-7.04 0,-3.89 -3.15,-7.04 -7.04,-7.04 -3.89,0 -7.04,3.15 -7.04,7.04z"/>
  <path class="fil24" d="M1383.32 216.51c0,31.4 -25.78,56.86 -57.57,56.86 -31.8,0 -57.57,-25.46 -57.57,-56.86 0,-31.4 25.77,-56.85 57.57,-56.85 31.79,0 57.57,25.45 57.57,56.85z"/>
  <path class="fil21" d="M1383.32 209.11c0,31.4 -25.78,56.85 -57.57,56.85 -31.8,0 -57.57,-25.45 -57.57,-56.85 0,-31.4 25.77,-56.85 57.57,-56.85 31.79,0 57.57,25.45 57.57,56.85z"/>
  <path class="fil6" d="M1325.75 255.33c-25.81,0 -46.8,-20.73 -46.8,-46.22 0,-25.48 20.99,-46.22 46.8,-46.22 25.8,0 46.8,20.74 46.8,46.22 0,25.49 -21,46.22 -46.8,46.22z"/>
  <path class="fil24" d="M1372.55 209.11c0,1.23 -0.05,2.45 -0.15,3.65 -1.89,-23.78 -22.09,-42.57 -46.65,-42.57 -24.57,0 -44.77,18.79 -46.66,42.57 -0.09,-1.2 -0.14,-2.42 -0.14,-3.65 0,-25.49 20.99,-46.22 46.8,-46.22 25.8,0 46.8,20.73 46.8,46.22z"/>
  <path class="fil8" d="M1325.75 213.92c-0.36,0 -0.72,-0.17 -0.94,-0.47l-22.96 -30.52c-0.39,-0.51 -0.28,-1.24 0.24,-1.62 0.52,-0.38 1.25,-0.28 1.64,0.24l22.4 29.78 25.46 -11.03c0.59,-0.26 1.28,0.01 1.54,0.59 0.26,0.59 0,1.27 -0.6,1.53l-26.31 11.4 -0.47 0.1z"/>
  <path class="fil23" d="M154.38 285.2l-15.58 0c-1.4,0 -2.54,-1.14 -2.54,-2.54l0 -83.05c0,-1.41 1.14,-2.55 2.54,-2.55l15.58 0c1.4,0 2.54,1.14 2.54,2.55l0 83.05c0,1.41 -1.14,2.54 -2.54,2.54z"/>
  <path class="fil22" d="M151.29 244.15l-9.4 0c-1.38,0 -2.49,-1.12 -2.49,-2.49l0 -1.05c0,-1.38 1.11,-2.49 2.49,-2.49l9.4 0c1.38,0 2.49,1.11 2.49,2.49l0 1.05c0,1.37 -1.11,2.49 -2.49,2.49z"/>
  <polygon class="fil22" points="136.26,207.58 156.92,207.58 156.92,204.18 136.26,204.18 "/>
  <polygon class="fil22" points="136.26,214.7 156.92,214.7 156.92,211.3 136.26,211.3 "/>
  <polygon class="fil22" points="136.26,267.23 156.92,267.23 156.92,263.83 136.26,263.83 "/>
  <polygon class="fil22" points="136.26,274.35 156.92,274.35 156.92,270.95 136.26,270.95 "/>
  <path class="fil10" d="M114.95 285.2l-19.39 0c-0.35,0 -0.64,-0.28 -0.64,-0.63l0 -86.87c0,-0.35 0.29,-0.64 0.64,-0.64l19.39 0c0.35,0 0.64,0.29 0.64,0.64l0 86.87c0,0.35 -0.29,0.63 -0.64,0.63z"/>
  <path class="fil15" d="M109.96 244.15l-9.4 0c-1.38,0 -2.5,-1.12 -2.5,-2.49l0 -1.05c0,-1.38 1.12,-2.49 2.5,-2.49l9.4 0c1.37,0 2.49,1.11 2.49,2.49l0 1.05c0,1.37 -1.12,2.49 -2.49,2.49z"/>
  <polygon class="fil15" points="94.92,207.58 115.59,207.58 115.59,204.18 94.92,204.18 "/>
  <polygon class="fil15" points="94.92,214.7 115.59,214.7 115.59,211.3 94.92,211.3 "/>
  <polygon class="fil15" points="94.92,267.23 115.59,267.23 115.59,263.83 94.92,263.83 "/>
  <polygon class="fil15" points="94.92,274.35 115.59,274.35 115.59,270.95 94.92,270.95 "/>
  <path class="fil9" d="M133.71 285.2l-15.57 0c-1.41,0 -2.55,-1.13 -2.55,-2.54l0 -83.05c0,-1.41 1.14,-2.55 2.55,-2.55l15.57 0c1.41,0 2.55,1.14 2.55,2.55l0 83.05c0,1.4 -1.14,2.54 -2.55,2.54z"/>
  <path class="fil18" d="M130.63 244.15l-9.41 0c-1.37,0 -2.49,-1.12 -2.49,-2.49l0 -1.05c0,-1.38 1.12,-2.49 2.49,-2.49l9.4 0c1.38,0 2.5,1.11 2.5,2.49l0 1.05c0,1.37 -1.12,2.49 -2.49,2.49z"/>
  <polygon class="fil18" points="115.59,207.58 136.26,207.58 136.26,204.18 115.59,204.18 "/>
  <polygon class="fil18" points="115.59,214.7 136.26,214.7 136.26,211.3 115.59,211.3 "/>
  <polygon class="fil18" points="115.59,267.23 136.26,267.23 136.26,263.83 115.59,263.83 "/>
  <polygon class="fil18" points="115.59,274.35 136.26,274.35 136.26,270.95 115.59,270.95 "/>
  <path class="fil19" d="M190.49 282.09l-19.15 3.09c-0.35,0.06 -0.67,-0.18 -0.73,-0.53l-13.83 -85.76c-0.05,-0.35 0.18,-0.67 0.53,-0.73l19.15 -3.09c0.35,-0.05 0.67,0.18 0.73,0.53l13.82 85.76c0.06,0.35 -0.18,0.68 -0.52,0.73z"/>
  <path class="fil20" d="M180.94 242.05l-13.12 2.11c-0.3,0.05 -0.58,-0.15 -0.63,-0.46l-0.79 -4.86c-0.05,-0.3 0.16,-0.59 0.46,-0.63l13.12 -2.12c0.3,-0.05 0.58,0.16 0.63,0.46l0.79 4.86c0.04,0.31 -0.16,0.59 -0.46,0.64z"/>
  <polygon class="fil20" points="178.76,205.36 158.36,208.65 157.82,205.29 178.22,202 "/>
  <polygon class="fil20" points="179.89,212.39 159.49,215.67 158.95,212.31 179.35,209.02 "/>
  <polygon class="fil20" points="188.25,264.25 167.85,267.54 167.31,264.18 187.71,260.89 "/>
  <polygon class="fil20" points="189.39,271.27 168.98,274.56 168.44,271.2 188.84,267.91 "/>
  <path class="fil2" d="M141.7 308.83l-85.24 0 -4.11 -10.88 90.38 0c-0.21,3.16 -0.36,6.32 -0.43,9.48 -0.2,0.46 -0.4,0.93 -0.6,1.4z"/>
  <path class="fil5" d="M142.3 307.43c0.07,-3.16 0.22,-6.32 0.43,-9.48l3.9 0c-1.51,3.11 -2.95,6.27 -4.33,9.48z"/>
  <path class="fil25" d="M142.27 308.83l-0.57 0c0.2,-0.47 0.4,-0.94 0.6,-1.4 -0.01,0.47 -0.02,0.93 -0.03,1.4z"/>
  <path class="fil25" d="M243.64 308.83l-101.37 0c0.01,-0.47 0.02,-0.93 0.03,-1.4 1.38,-3.21 2.82,-6.37 4.33,-9.48l101.69 0 -4.68 10.88z"/>
  <polygon class="fil8" points="52.35,297.95 248.32,297.95 248.32,285.02 52.35,285.02 "/>
  <polygon class="fil8" points="72.32,297.95 77.56,308.93 89.91,308.93 93.42,297.95 "/>
  <polygon class="fil8" points="228.35,297.95 223.11,308.93 210.76,308.93 207.25,297.95 "/>
  <path class="fil0" d="M1447.57 877.78c0,9.18 -126.37,16.61 -282.25,16.61 -155.88,0 -282.24,-7.43 -282.24,-16.61 0,-9.18 126.36,-16.61 282.24,-16.61 155.88,0 282.25,7.43 282.25,16.61z"/>
  <path class="fil8" d="M1275.96 885.54c-88.18,-3.09 -179.38,-15.12 -226.59,-177.61 -14.04,-48.3 -4.91,-84.88 10.49,-112.44 3.81,-6.81 8,-13.07 12.32,-18.82l0 0c1.63,-2.17 3.27,-4.27 4.93,-6.29 34.45,-42.25 92.24,-57.4 143.45,-38.73 28.73,10.47 65.58,25.95 98.43,46.09 66.02,40.45 81.5,86.57 103.07,165.7 1.85,6.79 3.7,14.41 5.11,22.5 0.75,4.33 1.38,8.78 1.8,13.32 4.78,50.6 -14.73,111.15 -153.01,106.28z"/>
  <path class="fil16" d="M1428.97 779.26c-2.93,8.23 -7.1,16.6 -12.65,24.56 -16.68,23.9 -51.4,52.76 -122.12,54.63 -3.12,0.08 -6.19,0.12 -9.22,0.12 -27.02,0 -50.85,-3.26 -72.63,-9.91 -22.77,-6.96 -42.66,-17.46 -60.79,-32.09 -30.3,-24.44 -55.27,-60.2 -80.95,-115.94 -10.14,-22.02 -15.4,-44.33 -15.63,-66.32 -0.13,-13.11 1.5,-26.12 4.88,-38.82 3.81,-6.81 8,-13.07 12.32,-18.82 -1.1,2.53 -2.16,5.17 -3.16,7.93 -9.24,25.33 -15.6,65.63 6.56,113.74 45.08,97.83 97.35,157.81 218.47,154.64 68.44,-1.8 101.82,-29.43 117.77,-52.29 8.33,-11.94 13.05,-24.01 15.35,-34.75 0.75,4.33 1.38,8.79 1.8,13.32z"/>
  <path class="fil22" d="M1302.83 479.4c0,0 55.36,75.12 68,112.53 12.63,37.41 -18.03,63.99 -18.03,63.99l-28.46 10.68c0,0 -29.26,-132.11 -21.51,-187.2z"/>
  <path class="fil6" d="M1297.95 689.8c-24.2,8.03 -83.31,29.05 -109,20.54 -1.08,-0.36 -2.1,-0.77 -3.07,-1.24 -2.79,-1.36 -5.05,-3.21 -6.62,-5.6 -10.07,-15.33 -20.05,-79.63 -15.57,-117.44 0.56,-4.72 0.83,-9.85 0.93,-15.23 0.13,-7.92 -0.13,-16.4 -0.47,-24.94 -1.27,-32.11 -6.33,-54.28 7.41,-62.08 12.33,-7 27.93,-12.48 37.87,-14.86 6.16,-1.47 16.25,-4.56 23.32,-4.41l30.61 5.56c0,0 26.42,4.41 32.52,8.91 6.1,4.49 9.21,24.31 20.23,42.45 11.01,18.16 13.4,36.36 2.89,56.28 -9.16,17.33 -7.54,10.75 -8.74,39.19 -1.47,34.83 34.94,57.21 -12.31,72.87z"/>
  <path class="fil26" d="M1217.33 557.45l-0.65 -30.88c0,0 15.54,-4.02 38.92,-4.02 10.78,0 23.22,0.85 36.58,3.35l1.02 29.26c0,0 -15.72,-1.74 -34.64,-1.74 -13.64,0 -28.95,0.9 -41.23,4.03z"/>
  <path class="fil26" d="M1254.79 501.85c-0.44,0 -0.9,-0.01 -1.36,-0.04 -18.13,-0.93 -34.75,-16.93 -35.45,-17.61 -0.49,-0.48 -0.5,-1.26 -0.02,-1.76 0.24,-0.25 0.56,-0.37 0.89,-0.37 0.31,0 0.62,0.11 0.87,0.35 0.16,0.16 16.65,16.03 33.83,16.91 0.43,0.03 0.85,0.04 1.25,0.04 15.32,0 17.21,-15.52 17.28,-16.2 0.07,-0.63 0.61,-1.1 1.23,-1.1 0.05,0 0.1,0 0.14,0.01 0.68,0.07 1.17,0.68 1.1,1.36 -0.02,0.19 -2.19,18.41 -19.76,18.41z"/>
  <path class="fil26" d="M1204.18 648.6c-0.28,0 -0.55,-0.09 -0.77,-0.25l-0.34 -0.37c-0.37,-0.61 -0.17,-1.41 0.44,-1.78 23.58,-14.26 46.19,-19.3 61.01,-21.01 6.1,-0.7 11.37,-0.93 15.59,-0.93 6.94,0 11.04,0.6 11.31,0.64 0.71,0.11 1.19,0.76 1.08,1.47 -0.09,0.64 -0.64,1.1 -1.27,1.1 -0.06,0 -0.13,0 -0.19,-0.01 -0.07,-0.01 -4.14,-0.6 -11,-0.6 -4.17,0 -9.36,0.22 -15.32,0.91 -14.54,1.69 -36.73,6.64 -59.87,20.65 -0.21,0.12 -0.44,0.18 -0.67,0.18z"/>
  <path class="fil23" d="M1234.22 701.44c-21.79,-6.89 -41.48,-20.79 -54.94,-33.18 -1.06,-0.98 -2.09,-1.95 -3.07,-2.91 -6.97,-6.76 -11.89,-3.28 -14.02,-7.19 -8.14,-14.9 -3.52,-73.36 0,-94.83 3.52,-21.47 -11.29,-60.8 -3.32,-74.86 7.97,-14.07 35.44,-18.98 35.44,-18.98 0,0 -3.89,-4.53 3.48,-9.71 7.38,-5.19 27.01,-3.04 27.01,-3.04 0.93,92.92 14.09,179.23 9.42,244.7z"/>
  <path class="fil6" d="M1212.81 674.81c-0.59,0 -1.11,-0.43 -1.2,-1.03 -9.91,-64.45 -0.11,-185.68 -0.01,-186.89 0.05,-0.67 0.64,-1.17 1.31,-1.12 0.67,0.06 1.16,0.65 1.11,1.31 -0.1,1.22 -9.88,122.16 -0.01,186.33 0.1,0.66 -0.35,1.28 -1.02,1.39l-0.18 0.01z"/>
  <path class="fil22" d="M1232.74 684.48c-0.57,0 -1.09,-0.42 -1.19,-1.01 -12.97,-74.03 -14,-201.75 -14.01,-203.03 0,-0.67 0.54,-1.22 1.21,-1.22l0.01 0c0.66,0 1.21,0.54 1.21,1.21 0.01,1.28 1.04,128.8 13.97,202.63 0.12,0.66 -0.33,1.28 -0.99,1.4l-0.21 0.02z"/>
  <path class="fil22" d="M1211.23 479.7l-0.32 -0.04c-10.26,-2.74 -16.55,-8.8 -16.81,-9.05 -0.48,-0.47 -0.49,-1.24 -0.02,-1.72 0.47,-0.48 1.24,-0.49 1.72,-0.02 0.06,0.06 6.11,5.88 15.74,8.44 0.65,0.17 1.03,0.84 0.86,1.48 -0.15,0.55 -0.64,0.91 -1.17,0.91z"/>
  <path class="fil23" d="M1328.59 660.88c0,0 -7.77,26.15 -36.67,38.6 -3.58,-70.87 -11.73,-151.81 -22.21,-237.92 0,0 11.04,-1.94 15.65,4.37 1.98,2.72 2.41,7.33 2.41,7.33 0,0 5.65,1.09 11.83,3.97 6.18,2.88 5.48,6.84 6.95,16.88 1.48,10.04 16.99,25.59 22.04,46.64 5.05,21.05 -8.34,34.48 -12.51,52.15 -4.18,17.66 12.51,67.98 12.51,67.98z"/>
  <path class="fil6" d="M1303.78 671.85c-0.66,0 -1.2,-0.52 -1.22,-1.18 -2.79,-96.42 -20.4,-182.58 -20.58,-183.44 -0.13,-0.66 0.29,-1.3 0.95,-1.43 0.65,-0.14 1.29,0.28 1.43,0.94 0.18,0.86 17.83,87.21 20.63,183.86 0.02,0.67 -0.5,1.23 -1.18,1.25l-0.03 0z"/>
  <path class="fil22" d="M1277.18 482.37c-0.58,0 -1.1,-0.42 -1.2,-1.01 -0.11,-0.66 0.33,-1.29 0.99,-1.4 0.09,-0.02 7.86,-1.42 9.64,-7.06 0.21,-0.64 0.89,-1 1.53,-0.8 0.64,0.21 0.99,0.89 0.79,1.53 -2.24,7.06 -11.17,8.66 -11.55,8.72l-0.2 0.02z"/>
  <path class="fil22" d="M1300.95 671.85c-0.61,0 -1.13,-0.45 -1.21,-1.07 -8.55,-71.09 -22.05,-184.7 -22.19,-185.84 -0.08,-0.66 0.4,-1.27 1.06,-1.35 0.67,-0.08 1.28,0.4 1.35,1.06 0.14,1.15 13.65,114.76 22.2,185.84 0.08,0.66 -0.4,1.27 -1.06,1.35l-0.15 0.01z"/>
  <path class="fil10" d="M1229.15 722.89c3.69,2.65 9.52,5.4 18.25,8.18 49.59,15.78 95.05,-9.69 95.05,-9.69 2.75,-13.58 1.05,-29.01 -3.52,-34.66 1.44,-2.01 0.49,-4.4 0.49,-4.4l45.63 -47.38c-25.95,21.51 -58.05,28.55 -83.04,43.65l-0.01 0c-7.2,4.35 -13.68,8.18 -18.42,10.85 -7.24,4.06 -16.48,4.46 -25.54,3.21 -17.65,-2.44 -34.58,-11.13 -34.58,-11.13 0,0 -56.82,-25.76 -67.48,-24.9 -8.29,0.66 36.3,47.21 73.17,66.27z"/>
  <path class="fil13" d="M1316.99 762.59c0,0 -14.63,-4.2 -19.12,-8.95l-10.17 23.93 34.6 10.8c0,0 0.48,-21.02 -5.31,-25.78z"/>
  <path class="fil27" d="M1400.49 831.75l-44.73 -99.28c-1.67,-0.14 -3.76,0.32 -6.1,1.17 -8.68,3.17 -20.88,11.88 -28.74,17 -0.91,0.61 -1.77,1.16 -2.56,1.64 -1.33,0.82 -2.45,1.46 -3.32,1.85 -6.89,3.11 -3.26,6.83 -3.26,6.83 12.86,6.43 5.03,25.49 12.87,29.95 0,0 3.34,1.93 13.98,6.62 10.64,4.69 21.36,15.99 31.28,25.25 12.8,11.96 20.83,13.36 25.44,12.27 3.64,-0.87 5.14,-3.3 5.14,-3.3z"/>
  <path class="fil20" d="M1400.49 831.75l-44.73 -99.28c-1.67,-0.14 -3.76,0.32 -6.1,1.17l45.69 101.41c3.64,-0.87 5.14,-3.3 5.14,-3.3z"/>
  <path class="fil20" d="M1360.33 742.59l-1.33 -2.94c-2.04,4.45 -5.96,9.53 -13.5,12.49 -10.02,3.95 -19.29,1.04 -24.58,-1.5 -0.91,0.61 -1.77,1.16 -2.56,1.64 5.36,2.89 16.08,7 28.09,2.28 7.2,-2.83 11.41,-7.51 13.88,-11.97z"/>
  <path class="fil6" d="M1343.73 793.21c-0.33,-0.73 -1.13,-1.18 -1.96,-1.03 -0.97,0.18 -1.62,1.12 -1.44,2.09l1.25 6.9c0.18,0.97 1.11,1.62 2.09,1.44 0.98,-0.18 1.62,-1.11 1.44,-2.08l-1.25 -6.9 -0.13 -0.42z"/>
  <path class="fil6" d="M1335.79 789.38c-0.33,-0.74 -1.13,-1.18 -1.96,-1.03 -0.97,0.18 -1.62,1.11 -1.44,2.08l1.25 6.9c0.18,0.98 1.11,1.62 2.09,1.45 0.98,-0.18 1.62,-1.12 1.44,-2.09l-1.25 -6.9 -0.13 -0.41z"/>
  <path class="fil6" d="M1350.13 797.79c-0.33,-0.73 -1.13,-1.18 -1.96,-1.03 -0.97,0.18 -1.62,1.12 -1.44,2.09l1.25 6.89c0.18,0.98 1.11,1.63 2.09,1.45 0.97,-0.18 1.62,-1.11 1.44,-2.09l-1.25 -6.89 -0.13 -0.42z"/>
  <path class="fil6" d="M1356.39 802.43c-0.33,-0.73 -1.13,-1.18 -1.96,-1.03 -0.97,0.18 -1.62,1.12 -1.44,2.09l1.25 6.9c0.18,0.97 1.12,1.62 2.09,1.44 0.97,-0.18 1.62,-1.11 1.44,-2.09l-1.25 -6.89 -0.13 -0.42z"/>
  <path class="fil6" d="M1362.64 807.75c-0.33,-0.73 -1.13,-1.18 -1.95,-1.03 -0.98,0.18 -1.63,1.11 -1.45,2.09l1.26 6.89c0.17,0.98 1.1,1.63 2.08,1.45 0.97,-0.18 1.62,-1.11 1.44,-2.09l-1.25 -6.89 -0.13 -0.42z"/>
  <path class="fil6" d="M1368.68 813.85c-0.33,-0.73 -1.13,-1.18 -1.96,-1.02 -0.97,0.17 -1.62,1.11 -1.44,2.08l1.25 6.9c0.18,0.97 1.11,1.62 2.09,1.44 0.97,-0.18 1.62,-1.11 1.44,-2.08l-1.25 -6.9 -0.13 -0.42z"/>
  <path class="fil10" d="M1155.98 656.62c0,0 -35.97,-19.41 -56.8,-4.41 -38.1,27.44 26.54,80.22 100.49,105.99 73.95,25.78 97.96,22.26 97.96,22.26 0,0 16.07,-4.42 10.37,-30.46 0,0 -42.63,-16.2 -64.81,-33.18 -22.18,-16.98 -37.3,-37.78 -87.21,-60.2z"/>
  <path class="fil15" d="M1305.12 757.58c-15.51,-3.73 -47.11,-18.23 -84.54,-38.78 -28,-15.37 -60.28,-35.02 -65.02,-41.83 -2.56,-3.68 -3.2,-6.69 -1.91,-8.95 1.92,-3.38 7.47,-3.73 9.99,-3.7 0.66,0 1.17,0.56 1.12,1.21 -0.04,0.58 -0.53,1.04 -1.12,1.04 -2.49,-0.02 -6.81,0.41 -8.04,2.56 -1.02,1.8 0.42,4.55 1.81,6.55 3.82,5.5 30.84,22.8 64.25,41.15 28.77,15.8 65.94,34.22 83.99,38.56l-0.53 2.19z"/>
  <path class="fil15" d="M1302.2 746.54c-1.75,13.69 -5.29,26.13 -13.03,35.67 0,0 6.62,4.77 12.67,1.35 4.62,-2.61 13.53,-23.99 10.13,-35.4 -3.86,-2.11 -7.2,-2.85 -9.77,-1.62z"/>
  <path class="fil13" d="M1208.35 759.89c0,0 14.71,-2.84 18.87,-7.88l11.74 23.2 -33.8 13.08c0,0 -2.27,-23.27 3.19,-28.4z"/>
  <path class="fil27" d="M1130.04 836.8l38 -102.05c1.66,-0.25 3.77,0.07 6.17,0.77 8.87,2.57 21.62,10.45 29.8,15.04 0.96,0.54 1.85,1.03 2.67,1.46 1.38,0.73 2.54,1.29 3.43,1.62 7.09,2.64 4.14,4.64 4.14,4.64 -13.97,6.56 -3.74,27.73 -11.26,32.7 0,0 -3.2,2.16 -13.51,7.55 -10.3,5.38 -20.25,17.37 -29.52,27.28 -11.97,12.78 -19.9,14.72 -24.56,13.94 -3.7,-0.63 -5.36,-2.95 -5.36,-2.95z"/>
  <path class="fil20" d="M1130.04 836.8l38 -102.05c1.66,-0.25 3.77,0.07 6.17,0.77l-38.81 104.23c-3.7,-0.63 -5.36,-2.95 -5.36,-2.95z"/>
  <path class="fil20" d="M1164.16 745.16l1.13 -3.03c2.33,4.31 6.58,9.12 14.3,11.57 10.27,3.26 19.32,-0.26 24.42,-3.14 0.96,0.54 1.85,1.03 2.67,1.46 -5.15,3.24 -15.57,8.06 -27.87,4.15 -7.37,-2.34 -11.89,-6.73 -14.65,-11.01z"/>
  <path class="fil6" d="M1184.1 794.56c0.28,-0.76 1.05,-1.25 1.89,-1.16 0.98,0.11 1.69,1 1.58,1.99l-0.8 6.96c-0.1,0.99 -0.99,1.69 -1.98,1.58 -0.98,-0.11 -1.69,-1 -1.58,-1.98l0.79 -6.97 0.1 -0.42z"/>
  <path class="fil6" d="M1191.77 790.2c0.28,-0.76 1.05,-1.25 1.88,-1.16 0.99,0.11 1.7,1 1.58,1.99l-0.79 6.96c-0.11,0.98 -1,1.69 -1.98,1.58 -0.99,-0.11 -1.69,-1 -1.58,-1.98l0.79 -6.97 0.1 -0.42z"/>
  <path class="fil6" d="M1178.02 799.55c0.29,-0.75 1.05,-1.25 1.89,-1.15 0.98,0.11 1.69,1 1.58,1.98l-0.79 6.97c-0.11,0.98 -1,1.69 -1.99,1.58 -0.98,-0.12 -1.69,-1 -1.58,-1.99l0.79 -6.96 0.1 -0.43z"/>
  <path class="fil6" d="M1172.09 804.6c0.28,-0.75 1.05,-1.25 1.88,-1.16 0.99,0.12 1.69,1.01 1.58,1.99l-0.79 6.97c-0.11,0.98 -1,1.69 -1.98,1.58 -0.99,-0.12 -1.7,-1.01 -1.59,-1.99l0.8 -6.97 0.1 -0.42z"/>
  <path class="fil6" d="M1166.2 810.32c0.29,-0.75 1.05,-1.25 1.89,-1.15 0.98,0.11 1.69,1 1.58,1.98l-0.79 6.97c-0.11,0.98 -1,1.69 -1.99,1.58 -0.98,-0.11 -1.69,-1 -1.58,-1.99l0.8 -6.96 0.09 -0.43z"/>
  <path class="fil6" d="M1160.59 816.82c0.28,-0.76 1.05,-1.25 1.88,-1.16 0.99,0.11 1.69,1 1.58,1.99l-0.79 6.96c-0.11,0.98 -1,1.69 -1.98,1.58 -0.99,-0.11 -1.69,-1 -1.58,-1.99l0.79 -6.96 0.1 -0.42z"/>
  <path class="fil10" d="M1370.41 640.85c0,0 34.03,-22.63 56.15,-9.6 40.46,23.83 -19.07,82.32 -90.34,114.77 -71.28,32.44 -95.51,31.15 -95.51,31.15 0,0 -16.4,-2.93 -13.11,-29.38 0,0 40.96,-20.05 61.49,-38.99 20.52,-18.94 33.67,-41.04 81.32,-67.95z"/>
  <path class="fil15" d="M1308.16 758.22c-3.92,1.29 -7.92,2.59 -12.03,3.89 -15.95,5.02 -34.15,10.27 -50.64,14.32l-0.06 2.36c14.89,-3.63 32.36,-8.55 51.37,-14.54 3.71,-1.17 7.5,-2.4 11.3,-3.64l0.06 -2.39z"/>
  <path class="fil15" d="M1231.16 755.06c15.1,-5.13 45.24,-22.46 80.62,-46.37 26.47,-17.87 56.81,-40.4 60.91,-47.61 2.21,-3.91 2.57,-6.96 1.09,-9.09 -2.23,-3.19 -7.79,-3.03 -10.3,-2.77 -0.65,0.07 -1.11,0.66 -1,1.31 0.09,0.58 0.62,0.99 1.21,0.93 2.48,-0.25 6.82,-0.22 8.24,1.82 1.18,1.69 0,4.57 -1.2,6.69 -3.3,5.82 -28.62,25.53 -60.2,46.86 -27.2,18.37 -62.53,40.13 -80.1,46.1l0.73 2.13z"/>
  <path class="fil15" d="M1233.05 743.81c3,13.47 7.67,25.53 16.24,34.32 0,0 -6.15,5.36 -12.49,2.51 -4.83,-2.18 -15.66,-22.65 -13.33,-34.32 3.65,-2.46 6.9,-3.5 9.58,-2.51z"/>
  <path class="fil23" d="M1228.45 635.84l-2.73 39.05c0,0 -46.44,-6.63 -69.24,-12.44 -6.64,-1.69 -14.09,-3.86 -20.91,-7.5 -12.59,-6.69 -23.03,-18.33 -22.26,-41.02 0.25,-7.29 1.66,-15.72 4.51,-25.5 16.6,-56.71 44.37,-104.33 44.37,-104.33 35.77,15.31 32.76,40.78 32.76,40.78 -10.2,27.21 -32.76,85.16 -32.76,85.16 13.09,15.99 66.26,25.8 66.26,25.8z"/>
  <path class="fil22" d="M1162.19 611.25c-0.22,0 -0.44,-0.06 -0.64,-0.18 -3.94,-2.44 -14.7,-4.98 -14.81,-5.01 -0.66,-0.15 -1.06,-0.8 -0.91,-1.45 0.15,-0.66 0.81,-1.06 1.46,-0.91 0.38,0.09 7.92,1.87 12.91,3.99 -0.73,-1.63 -1.92,-3.36 -3.57,-5.24 -0.44,-0.51 -0.4,-1.28 0.11,-1.72 0.5,-0.44 1.27,-0.39 1.71,0.11 2.87,3.26 4.48,6.2 4.94,9 0.08,0.47 -0.13,0.94 -0.52,1.21 -0.21,0.13 -0.44,0.2 -0.68,0.2z"/>
  <path class="fil22" d="M1135.57 654.95c-12.59,-6.69 -23.03,-18.33 -22.26,-41.02 9.97,5.21 27.35,17.85 22.26,41.02z"/>
  <path class="fil22" d="M1199.24 629.85l-0.3 -0.04c-23.01,-5.93 -36.98,-18.34 -37.56,-18.87 -0.41,-0.37 -0.52,-0.96 -0.27,-1.45 16.41,-32.26 26.78,-57.87 32.67,-80.61 0.16,-0.65 0.82,-1.04 1.47,-0.87 0.65,0.17 1.04,0.83 0.88,1.48 -5.88,22.71 -16.18,48.23 -32.42,80.24 3.11,2.56 16.27,12.69 35.84,17.73 0.65,0.17 1.04,0.83 0.87,1.48 -0.14,0.55 -0.64,0.91 -1.18,0.91z"/>
  <path class="fil22" d="M1190.03 546.97c-0.26,0 -0.53,-0.09 -0.75,-0.27 -0.53,-0.41 -0.61,-1.18 -0.2,-1.7l8.53 -10.72c0.41,-0.52 1.18,-0.61 1.71,-0.19 0.52,0.42 0.61,1.18 0.19,1.71l-8.52 10.71c-0.24,0.3 -0.6,0.46 -0.96,0.46z"/>
  <path class="fil8" d="M1229.79 448.54l41.26 5.89c26.8,-2.68 35.33,-13.33 39.72,-35.86 2.2,-11.32 0.74,-21.33 -1.42,-28.76 -0.57,-8.47 -2.49,-15.78 -6.5,-20.61 -18.11,-21.83 -34.05,-20.97 -34.05,-20.97 -8.1,-3.72 -34.87,-6.26 -52.53,15.17l0 0.01c-0.56,0.47 -11.32,11.88 -13.81,35.83 -2.37,22.82 12.86,51.97 27.33,49.3z"/>
  <path class="fil8" d="M1252.84 354.22c0,0 4.28,-38.05 -29.48,-33.22 -22.06,3.15 -35.71,33.05 -15.54,46.62 20.17,13.57 45.02,-13.4 45.02,-13.4z"/>
  <path class="fil27" d="M1211.21 371.53l-0.51 -0.14c-0.52,-0.28 -0.71,-0.93 -0.42,-1.45 7.82,-14.22 18.97,-20.5 26.95,-23.28 8.66,-3 15.38,-2.63 15.67,-2.62 0.58,0.04 1.03,0.55 1,1.13 -0.03,0.59 -0.53,1.04 -1.13,1.01 -0.26,-0.02 -26.31,-1.22 -40.62,24.79 -0.2,0.35 -0.56,0.56 -0.94,0.56z"/>
  <path class="fil8" d="M1233.03 439.95c0,0 -26.32,-14.72 -21.14,-45.37 5.17,-30.65 25.35,-49.1 56.28,-40.21 0,0 -3,88.6 -35.14,85.58z"/>
  <path class="fil8" d="M1306.21 383.59c0,0 2.69,26.31 -2.11,30.12 -4.79,3.81 -9.49,-6.6 -9.49,-6.6 0,0 6.53,-23.23 11.6,-23.52z"/>
  <path class="fil14" d="M1294.1 416.1c0,0 7.85,-6.9 10.45,1.55 2.59,8.45 -2.68,23.98 -12.45,19.86l2 -21.41z"/>
  <path class="fil10" d="M1303.75 435.59c-1.07,0.99 -2.26,1.84 -3.55,2.54 -4.93,2.66 -11.38,2.97 -19.11,-1.1 0,0 -9.89,-12.86 4.73,-35.56 0,0 13.41,-3.52 21.07,4.58 0.84,0.89 1.62,1.93 2.3,3.13 0.41,0.73 0.79,1.52 1.13,2.38 2.72,6.9 0.19,17.9 -6.57,24.03z"/>
  <path class="fil6" d="M1303.4 403.3c0.61,-3.03 1.24,-6.79 1.64,-10.96 -0.18,0.09 -0.37,0.14 -0.59,0.16 -0.83,0.06 -1.65,-0.27 -2.46,-0.87 -0.36,3.89 -0.91,7.43 -1.47,10.34l2.88 1.33z"/>
  <path class="fil15" d="M1303.75 435.59c-1.07,0.99 -2.26,1.84 -3.55,2.54 6.78,-14.04 6.97,-26.86 6.69,-32.08 0.84,0.89 1.62,1.93 2.3,3.13 -0.01,5.89 -0.89,15.59 -5.44,26.41z"/>
  <path class="fil13" d="M1271.21 454.06l-3.23 21.76c0,0 -13.31,17.07 -44.15,-10.78 3.51,-8.86 8.89,-20.23 7.51,-28.96 0,0 2.25,2.06 6.12,4.52 0.8,0.51 1.65,1.04 2.55,1.59 8.02,4.87 20.25,11.1 31.2,11.87z"/>
  <path class="fil8" d="M1271.21 454.06l-1.51 10.19c-9,-3.46 -24.56,-10.96 -32.24,-23.65 0.8,0.51 1.65,1.04 2.55,1.59 8.02,4.87 20.25,11.1 31.2,11.87z"/>
  <path class="fil13" d="M1300.77 417.06c-0.34,2.26 -0.67,4.37 -1,6.37 -2.47,15.01 -4.74,23.09 -8.9,26.29 -21.09,16.18 -58.29,-12.42 -59.48,-13.34l-0.04 -0.03c-0.12,-1.75 -0.2,-3.47 -0.26,-5.18 -0.49,-14.45 1.29,-27.53 4.57,-39.72 1.26,-13.19 10.87,-24.21 23.84,-26.87 13.45,-2.75 24.05,4.56 30.61,7.7 9.9,4.75 14.43,19.12 11.64,38.24 -0.34,2.29 -0.65,4.48 -0.98,6.54z"/>
  <path class="fil8" d="M1281.92 434.54c-11.79,0 -16.51,-11.28 -16.56,-11.41 -0.22,-0.55 0.04,-1.17 0.59,-1.39 0.55,-0.23 1.17,0.04 1.4,0.59 0.2,0.5 5.15,12.21 18.02,9.73 0.59,-0.11 1.15,0.27 1.26,0.85 0.11,0.58 -0.27,1.14 -0.85,1.25 -1.36,0.27 -2.65,0.38 -3.86,0.38z"/>
  <path class="fil8" d="M1272.85 393.81c3.03,-1.05 2.42,-5.52 -0.78,-5.72 -5.47,-0.36 -14.22,-0.22 -14.95,4.18 -1.07,6.43 9.11,3.75 15.54,1.61l0.19 -0.07z"/>
  <path class="fil8" d="M1288.93 395.7c-2.34,-2.18 0.02,-6.02 3.03,-4.92 5.14,1.88 13.1,5.53 11.99,9.85 -1.61,6.32 -9.85,-0.24 -14.87,-4.79l-0.15 -0.14z"/>
  <path class="fil14" d="M1273.23 439.81c2.16,0.54 3.98,0.12 4.1,0.09 0.38,-0.09 0.62,-0.47 0.52,-0.85 -0.09,-0.38 -0.47,-0.62 -0.86,-0.53 -0.03,0.01 -3.56,0.8 -6.23,-1.56 -0.29,-0.26 -0.74,-0.23 -1,0.07 -0.26,0.29 -0.24,0.74 0.06,1 1.1,0.97 2.3,1.51 3.41,1.78z"/>
  <path class="fil8" d="M1280.63 425.15c-0.18,-0.09 -0.33,-0.25 -0.4,-0.45 -0.13,-0.42 0.09,-0.86 0.5,-0.99l5.15 -1.7 -3.06 -3.09c-0.16,-0.17 -0.24,-0.4 -0.22,-0.64l0.95 -8.52c0.05,-0.43 0.44,-0.74 0.87,-0.69 0.43,0.05 0.74,0.43 0.69,0.86l-0.91 8.15 3.69 3.73c0.19,0.19 0.26,0.47 0.2,0.74 -0.06,0.26 -0.26,0.47 -0.52,0.56l-6.34 2.08c-0.21,0.07 -0.42,0.05 -0.6,-0.04z"/>
  <path class="fil14" d="M1267.28 417c-0.26,1.77 -4.12,2.66 -8.62,1.99 -4.49,-0.67 -7.92,-2.64 -7.66,-4.41 0.27,-1.77 4.12,-2.66 8.62,-1.99 4.49,0.67 7.93,2.64 7.66,4.41z"/>
  <path class="fil28" d="M1299.77 425.5c-0.11,-0.02 -0.22,-0.05 -0.33,-0.07 0.11,-0.65 0.22,-1.32 0.33,-2 0.23,-1.38 0.46,-2.83 0.69,-4.33 0.11,0.01 0.21,0.02 0.31,0.03 -0.34,2.25 -0.67,4.37 -1,6.37z"/>
  <path class="fil17" d="M1299.44 425.43c-3.93,-0.8 -6.78,-2.6 -6.54,-4.22 0.2,-1.36 2.56,-2.21 5.7,-2.21 0.6,0 1.22,0.03 1.86,0.1 -0.23,1.5 -0.46,2.95 -0.69,4.33 -0.11,0.68 -0.22,1.35 -0.33,2z"/>
  <path class="fil8" d="M1271.66 410.67c-0.36,2.43 -1.75,4.23 -3.11,4.03 -1.36,-0.2 -2.17,-2.34 -1.81,-4.77 0.36,-2.43 1.76,-4.23 3.12,-4.03 1.36,0.2 2.17,2.34 1.8,4.77z"/>
  <path class="fil8" d="M1295.7 414.25c-0.36,2.43 -1.75,4.23 -3.11,4.03 -1.36,-0.2 -2.17,-2.34 -1.81,-4.77 0.37,-2.43 1.76,-4.23 3.12,-4.03 1.36,0.2 2.17,2.34 1.8,4.77z"/>
  <path class="fil8" d="M1240.76 427.7c-0.16,0.25 -4.46,7.19 -9.37,8.68l-0.01 0 -0.02 -0.03c-0.13,-1.75 -0.21,-3.47 -0.27,-5.18 0.18,0 4.93,-0.12 9.67,-3.47z"/>
  <path class="fil13" d="M1238.82 410.16c0,0 -7.78,-14.5 -16.42,-5.3 -7.12,7.58 0.57,31.72 13.67,25.27l2.75 -19.97z"/>
  <path class="fil8" d="M1235.08 426.17c-0.51,-0.08 -0.88,-0.52 -0.86,-1.04 0.39,-10.04 -7.37,-14.72 -7.7,-14.91 -0.48,-0.28 -0.65,-0.9 -0.37,-1.38 0.29,-0.48 0.9,-0.65 1.38,-0.37 0.38,0.22 9.15,5.45 8.71,16.74 -0.02,0.55 -0.49,0.99 -1.05,0.97l-0.11 -0.01z"/>
  <path class="fil8" d="M1226.65 418.72c-0.29,-0.05 -0.56,-0.21 -0.72,-0.49 -0.28,-0.48 -0.13,-1.1 0.35,-1.38 0.45,-0.27 4.45,-2.56 7.34,-1.34 0.52,0.21 0.76,0.81 0.54,1.32 -0.21,0.52 -0.81,0.76 -1.32,0.54 -1.66,-0.7 -4.62,0.68 -5.53,1.22 -0.2,0.12 -0.44,0.16 -0.66,0.13z"/>
  <path class="fil6" d="M1272.68 397.84c-6.5,-2.48 -13.81,0.79 -16.29,7.29 -2.48,6.5 0.79,13.81 7.29,16.29 6.49,2.48 13.8,-0.79 16.29,-7.29 2.48,-6.5 -0.79,-13.8 -7.29,-16.29zm-9.77 25.59c-7.61,-2.9 -11.44,-11.46 -8.53,-19.07 2.9,-7.61 11.46,-11.44 19.07,-8.53 7.61,2.91 11.44,11.46 8.53,19.07 -2.91,7.62 -11.46,11.44 -19.07,8.53z"/>
  <path class="fil6" d="M1254.84 406.33l-0.39 -0.09c-8,-3.67 -15.5,-0.87 -15.58,-0.84 -0.55,0.21 -1.17,-0.07 -1.39,-0.62 -0.21,-0.56 0.07,-1.18 0.62,-1.4 0.34,-0.13 8.44,-3.14 17.24,0.9 0.55,0.25 0.78,0.89 0.54,1.43 -0.19,0.41 -0.61,0.65 -1.04,0.62z"/>
  <path class="fil6" d="M1305.37 401.54c-6.5,-2.48 -13.81,0.79 -16.29,7.28 -2.48,6.5 0.78,13.81 7.28,16.29 6.5,2.49 13.81,-0.78 16.29,-7.28 2.49,-6.5 -0.78,-13.81 -7.28,-16.29zm-9.77 25.59c-7.62,-2.91 -11.44,-11.46 -8.54,-19.08 2.91,-7.6 11.47,-11.43 19.08,-8.53 7.61,2.91 11.43,11.47 8.53,19.08 -2.91,7.61 -11.47,11.44 -19.07,8.53z"/>
  <path class="fil6" d="M1281.28 408.64l-0.41 -0.38c-0.31,-0.5 -0.16,-1.17 0.34,-1.48 0.15,-0.1 3.75,-2.29 7.48,0.57 0.48,0.37 0.57,1.04 0.2,1.52 -0.36,0.47 -1.04,0.56 -1.51,0.2 -2.56,-1.97 -5,-0.48 -5.02,-0.47 -0.34,0.22 -0.75,0.22 -1.08,0.04z"/>
  <path class="fil8" d="M1289.2 359.02c8.97,4.04 16.02,11.51 19.16,20.83 1.97,5.84 3.62,13.55 -4.59,12.55 -22.41,-2.72 -34.39,-25.96 -34.39,-25.96 0,0 -4.36,21.42 -21.96,18.8 -17.59,-2.61 -17.03,-15.88 -7.03,-23.39 8.15,-6.11 28.9,-11.8 48.81,-2.83z"/>
  <path class="fil8" d="M1248.12 382.78c0,0 -10.02,10.75 -6.43,22.32 3.6,11.57 3.84,20.84 0.09,27.05 0,0 -0.96,-12.18 -5.42,-21.41 -3.66,-7.58 -7.08,-13.35 -4.44,-22.1 1.82,-6 6.21,-11.77 16.2,-5.86z"/>
  <path class="fil10" d="M1231.85 435.24c-7.76,1.87 -13.76,0.79 -18.21,-2 -0.7,-0.45 -1.38,-0.94 -2.01,-1.46 -9.32,-7.8 -10.01,-23.99 -4.3,-31.92 2.01,-2.81 4.35,-4.69 6.78,-5.88 0.75,-0.38 1.49,-0.68 2.25,-0.93 9.64,-3.15 20.09,2.63 20.09,2.63 10.95,30.09 -4.6,39.56 -4.6,39.56z"/>
  <path class="fil6" d="M1259.15 448.39c-22.68,-4.63 -32.32,-20.97 -32.77,-21.75 -0.36,-0.63 -0.14,-1.43 0.49,-1.79 0.63,-0.36 1.43,-0.14 1.79,0.49 0.14,0.25 11.92,20.05 39.42,21.55 0.72,0.04 1.27,0.66 1.23,1.38 -0.04,0.73 -0.66,1.28 -1.38,1.24 -3.12,-0.17 -6.05,-0.56 -8.78,-1.12z"/>
  <path class="fil29" d="M1275.31 449.16c-0.46,2.27 -2.68,3.74 -4.96,3.27 -2.27,-0.46 -3.74,-2.68 -3.27,-4.95 0.46,-2.28 2.68,-3.74 4.96,-3.28 2.27,0.47 3.73,2.69 3.27,4.96z"/>
  <path class="fil15" d="M1213.64 433.24c-0.7,-0.45 -1.38,-0.94 -2.01,-1.46 7.17,-16.25 4.75,-30.44 2.48,-37.8 0.75,-0.38 1.49,-0.68 2.25,-0.93 2.42,7.8 5.06,22.96 -2.72,40.19z"/>
  <path class="fil6" d="M1305.71 373.76c-1.91,-3.56 -4.03,-5.94 -5.07,-7.12 -0.87,-2.54 -1.82,-4.93 -3.24,-7.17 -4.74,-7.53 -12.25,-12.14 -22.33,-13.7 -10.89,-1.68 -20.33,0.46 -28.06,6.39 -2.42,1.85 -4.56,3.99 -6.47,6.3 -2.65,3.23 -4.84,6.79 -6.64,10.37 -6.24,12.49 -7.73,25.31 -7.75,25.49l-2.98 -0.32c0.14,-1.22 3.49,-30.03 22.02,-44.22 8.41,-6.44 18.62,-8.79 30.34,-6.97 10.98,1.7 19.18,6.77 24.42,15.07 3.02,4.8 4.8,10.28 5.76,15.88z"/>
  <path class="fil8" d="M1192.92 702.71l-10.34 -19.66c-2.57,-4.9 1.02,-10.78 6.56,-10.72l162.5 1.75 -4.79 25.17 -153.93 3.46z"/>
  <path class="fil8" d="M1344.05 697.17l-145.44 0c-3.5,0 -6.04,-2.84 -5.65,-6.35l9.92 -89.85c0.38,-3.51 3.54,-6.35 7.05,-6.35l145.43 0c3.51,0 6.04,2.84 5.65,6.35l-9.91 89.85c-0.39,3.51 -3.55,6.35 -7.05,6.35z"/>
  <path class="fil30" d="M1196.45 701.05l-0.16 -0.01c-0.67,-0.09 -1.15,-0.7 -1.06,-1.37l12.07 -96.24c0.08,-0.67 0.7,-1.15 1.37,-1.06 0.67,0.08 1.15,0.69 1.07,1.36l-12.08 96.25c-0.07,0.62 -0.6,1.07 -1.21,1.07z"/>
  <path class="fil16" d="M1267.2 647.49c-0.56,7.22 4.76,13.44 11.87,13.89 7.11,0.46 13.33,-5.02 13.89,-12.24 0.55,-7.22 -4.76,-13.44 -11.88,-13.89 -7.11,-0.45 -13.33,5.03 -13.88,12.24z"/>
  <path class="fil8" d="M1344.74 705l-147.43 0c-3.24,0 -5.74,-2.86 -5.3,-6.07l1.4 -10.27 158.23 0 -1.6 11.72c-0.36,2.65 -2.62,4.62 -5.3,4.62z"/>
  <path class="fil27" d="M1231.48 676l-3.98 0 -1.06 5.12 3.98 0 1.06 -5.12zm6.42 0l-1.05 5.13 4.86 0 -0.55 6.1 -5.62 0 -1.18 5.57 -6.43 0 1.18 -5.57 -3.97 -0.01 -1.18 5.58 -6.43 -0.01 1.18 -5.57 -4.86 0 0.54 -6.1 5.63 0 1.05 -5.13 -4.85 0 0.54 -6.1 5.62 0 1.18 -5.57 6.43 0 -1.18 5.57 3.98 0.01 1.17 -5.58 6.43 0.01 -1.18 5.57 4.86 0 -0.54 6.1 -5.63 0z"/>
  <path class="fil9" d="M1384.82 533.98c0,22.15 17.96,40.11 40.11,40.11 22.16,0 40.12,-17.96 40.12,-40.11 0,-22.16 -17.96,-40.11 -40.12,-40.11 -22.15,0 -40.11,17.95 -40.11,40.11z"/>
  <polygon class="fil9" points="1404.42,566.78 1382.87,571.35 1392.2,552.77 "/>
  <path class="fil6" d="M1418.77 548.16c0,-4.06 3.28,-7.15 8,-7.15 4.73,0 8,3.09 8,7.15 0,4 -3.27,7.27 -8,7.27 -4.72,0 -8,-3.27 -8,-7.27zm9.58 -22.79c0,-1.88 -1.82,-2.85 -4.06,-2.85 -2.61,0 -5.03,1.57 -6.31,4.12l-10.79 -5.4c3.1,-5.81 9.22,-9.81 18.92,-9.81 9.51,0 16.6,4 16.6,11.57 0,9.28 -9.69,10.91 -9.69,15.58l-12.49 0c0,-7.33 7.82,-9.52 7.82,-13.21z"/>
  <path class="fil10" d="M986.11 761.95c0,0 -16.38,-25.75 -56.18,-49.16 -28.1,-16.53 -44.47,-63.2 -44.47,-63.2 0,0 53.83,2.34 77.24,35.11 23.41,32.78 23.41,77.25 23.41,77.25z"/>
  <path class="fil8" d="M986.29 762.64c-0.36,0 -0.68,-0.24 -0.78,-0.59 -7.57,-28.58 -24.14,-49.3 -36.71,-61.65 -13.61,-13.38 -25.56,-20.08 -25.68,-20.14 -0.39,-0.22 -0.53,-0.71 -0.32,-1.09 0.22,-0.39 0.71,-0.53 1.09,-0.31 0.13,0.06 12.27,6.86 26.04,20.4 12.71,12.49 29.47,33.45 37.13,62.38 0.12,0.42 -0.14,0.86 -0.57,0.98l-0.2 0.02z"/>
  <path class="fil10" d="M979.05 761.36c0,0 -4.68,-9.36 -25.75,-7.02 -21.07,2.34 -32.77,14.05 -70.22,-7.02 0,0 28.09,-23.41 58.52,-18.73 30.43,4.68 32.77,16.39 37.45,32.77z"/>
  <path class="fil8" d="M979.15 762.17c-0.26,0 -0.52,-0.14 -0.68,-0.38 -0.09,-0.15 -9.52,-14.96 -24.67,-17.71 -26.48,-4.81 -44.51,3.65 -44.69,3.74 -0.4,0.19 -0.88,0.02 -1.07,-0.38 -0.19,-0.4 -0.03,-0.87 0.37,-1.07 0.19,-0.09 18.66,-8.78 45.68,-3.87 15.86,2.89 25.35,17.8 25.74,18.44 0.24,0.38 0.12,0.87 -0.25,1.1l-0.43 0.13z"/>
  <path class="fil10" d="M988.25 759.1c0,0 -1.84,-10.3 16.46,-21.01 18.29,-10.7 34.67,-8.31 52.13,-47.57 0,0 -36.51,-2 -58.12,19.93 -21.61,21.93 -16.5,32.71 -10.47,48.65z"/>
  <path class="fil8" d="M988.17 759.96c-0.42,0 -0.77,-0.31 -0.8,-0.73 -0.06,-0.75 -1.36,-18.38 9.64,-30.17 18.74,-20.07 38.74,-24.13 38.94,-24.17 0.43,-0.08 0.86,0.2 0.94,0.64 0.09,0.43 -0.2,0.85 -0.63,0.94 -0.2,0.03 -19.72,4.01 -38.08,23.69 -10.52,11.27 -9.23,28.76 -9.21,28.94 0.03,0.44 -0.3,0.83 -0.74,0.86l-0.06 0z"/>
  <path class="fil9" d="M1009.8 771.83l-51.3 0c-3.03,0 -5.51,-2.48 -5.51,-5.51l0 -2.31c0,-3.02 2.48,-5.5 5.51,-5.5l51.3 0c3.03,0 5.5,2.48 5.5,5.5l0 2.31c0,3.03 -2.47,5.51 -5.5,5.51z"/>
  <path class="fil9" d="M984.39 886.45c-41.86,0 -68.5,-6.66 -64.21,-36.14 2.71,-18.72 17.31,-37.05 27.6,-47.94 1.45,-1.54 2.82,-2.92 4.05,-4.14 3.82,-3.77 6.39,-5.95 6.39,-5.95l0.12 -0.68 0.73 -4.13 0.84 -4.76 1.93 -10.88 0.67 -3.81 21.88 -0.95 22.82 0.95 0.52 3.81 0.82 5.97 1.33 9.67 0.57 4.13 0.09 0.68c0,0 2.58,2.18 6.39,5.95 1.24,1.22 2.6,2.6 4.06,4.14 10.29,10.89 24.89,29.22 27.61,47.94 4.28,29.48 -22.36,36.14 -64.21,36.14z"/>
  <polygon class="fil18" points="1010.45,791.6 958.34,791.6 959.07,787.47 1009.88,787.47 "/>
  <path class="fil18" d="M1020.99 802.37l-73.21 0c1.45,-1.54 2.82,-2.92 4.05,-4.14l65.1 0c1.24,1.22 2.6,2.6 4.06,4.14z"/>
  <polygon class="fil18" points="1008.55,777.8 959.91,782.71 961.83,771.83 1007.73,771.83 "/>
  <path class="fil6" d="M555.75 496.94l-19.74 0c-1.97,0 -3.56,-1.59 -3.56,-3.55l0 -13.61c0,-1.96 1.59,-3.55 3.56,-3.55l19.74 0c1.97,0 3.56,1.59 3.56,3.55l0 13.61c0,1.96 -1.59,3.55 -3.56,3.55z"/>
  <polygon class="fil6" points="567.08,476.23 567.08,496.94 558.72,489.9 558.72,483.27 "/>
  <path class="fil9" d="M585.88 486.58c0,9.53 7.72,17.25 17.25,17.25 9.52,0 17.25,-7.72 17.25,-17.25 0,-9.52 -7.73,-17.24 -17.25,-17.24 -9.53,0 -17.25,7.72 -17.25,17.24z"/>
  <path class="fil6" d="M595 496.53c0.46,0 0.92,-0.18 1.28,-0.53l16.26 -16.27c0.71,-0.71 0.71,-1.85 0,-2.56 -0.7,-0.71 -1.85,-0.71 -2.56,0l-16.27 16.27c-0.71,0.71 -0.71,1.85 0,2.56 0.36,0.35 0.82,0.53 1.29,0.53z"/>
  <path class="fil6" d="M611.26 496.53c0.47,0 0.93,-0.18 1.28,-0.53 0.71,-0.71 0.71,-1.85 0,-2.56l-16.26 -16.27c-0.71,-0.71 -1.86,-0.71 -2.57,0 -0.71,0.71 -0.71,1.85 0,2.56l16.27 16.27c0.36,0.35 0.82,0.53 1.28,0.53z"/>
  <path class="fil6" d="M505.46 495.33l1.65 0c2.16,0 3.92,-1.77 3.92,-3.92l0 -16.9c0,-2.16 -1.76,-3.92 -3.92,-3.92l-1.65 0c-2.15,0 -3.92,1.76 -3.92,3.92l0 16.9c0,2.15 1.77,3.92 3.92,3.92z"/>
  <path class="fil6" d="M506.12 501.2l0.34 0c0.44,0 0.8,-0.37 0.8,-0.81l0 -10c0,-0.44 -0.36,-0.8 -0.8,-0.8l-0.34 0c-0.44,0 -0.8,0.36 -0.8,0.8l0 10c0,0.44 0.36,0.81 0.8,0.81z"/>
  <path class="fil6" d="M498.44 502.09l15.69 0c0.93,0 1.69,-0.76 1.69,-1.69l0 -0.71c0,-0.93 -0.76,-1.68 -1.69,-1.68l-15.69 0c-0.92,0 -1.68,0.75 -1.68,1.68l0 0.71c0,0.93 0.76,1.69 1.68,1.69z"/>
  <path class="fil18" d="M394.67 425.35c-1.26,0.89 -2.46,1.64 -3.59,2.22l0.34 1.67c1.32,-0.67 2.73,-1.52 4.21,-2.57 6.92,-5 11.48,-0.85 16.33,3.55 0.21,0.19 0.43,0.4 0.64,0.6l1.86 -0.52c-0.47,-0.42 -0.94,-0.85 -1.41,-1.28 -4.85,-4.42 -10.39,-9.45 -18.38,-3.67zm36.61 -0.62c-1,-8.98 -8.38,-16.25 -17.57,-17.25 -7.14,-0.79 -15.41,-1.09 -21.8,0.4 -1.73,0.41 -3.33,0.94 -4.75,1.67l0.37 1.65c4.98,-2.68 13.91,-3.42 25.99,-2.1 3.87,0.43 7.4,2.05 10.17,4.49 2.76,2.44 4.77,5.66 5.63,9.32 0.15,0.66 0.27,1.32 0.34,2.01 0.04,0.4 0.08,0.81 0.08,1.19l1.63 -0.44c-0.02,-0.32 -0.07,-0.62 -0.09,-0.94z"/>
 </g>
</svg>
