<?xml version="1.0" encoding="UTF-8"?>
<!DOCTYPE svg PUBLIC "-//W3C//DTD SVG 1.1//EN" "http://www.w3.org/Graphics/SVG/1.1/DTD/svg11.dtd">
<!-- Creator: CorelDRAW 2019 (64-Bit Evaluation Version) -->
<svg xmlns="http://www.w3.org/2000/svg" xml:space="preserve" width="11540px" height="11667px" version="1.1" style="shape-rendering:geometricPrecision; text-rendering:geometricPrecision; image-rendering:optimizeQuality; fill-rule:evenodd; clip-rule:evenodd"
viewBox="0 0 11540.03 11667.07"
 xmlns:xlink="http://www.w3.org/1999/xlink">
 <defs>
  <style type="text/css">
   <![CDATA[
    .fil7 {fill:#97C570}
    .fil3 {fill:#97C570}
    .fil8 {fill:#AAD576}
    .fil4 {fill:#AAD576}
    .fil0 {fill:#F5FEED}
    .fil19 {fill:#26264F;fill-rule:nonzero}
    .fil1 {fill:#547B37;fill-rule:nonzero}
    .fil17 {fill:#91B3FA;fill-rule:nonzero}
    .fil2 {fill:#F5FEED;fill-rule:nonzero}
    .fil24 {fill:url(#id0)}
    .fil28 {fill:url(#id1)}
    .fil30 {fill:url(#id2)}
    .fil34 {fill:url(#id3)}
    .fil16 {fill:url(#id4)}
    .fil12 {fill:url(#id5)}
    .fil10 {fill:url(#id6)}
    .fil25 {fill:url(#id7)}
    .fil31 {fill:url(#id8)}
    .fil20 {fill:url(#id9)}
    .fil22 {fill:url(#id10)}
    .fil11 {fill:url(#id11)}
    .fil14 {fill:url(#id12)}
    .fil9 {fill:url(#id13)}
    .fil21 {fill:url(#id14)}
    .fil5 {fill:url(#id15)}
    .fil23 {fill:url(#id16)}
    .fil26 {fill:url(#id17)}
    .fil13 {fill:url(#id18)}
    .fil27 {fill:url(#id19)}
    .fil33 {fill:url(#id20)}
    .fil15 {fill:url(#id21)}
    .fil35 {fill:url(#id22)}
    .fil18 {fill:url(#id23)}
    .fil29 {fill:url(#id24)}
    .fil32 {fill:url(#id25)}
    .fil6 {fill:url(#id26)}
   ]]>
  </style>
  <linearGradient id="id0" gradientUnits="userSpaceOnUse" x1="5827.17" y1="5483.13" x2="6355.32" y2="5483.13">
   <stop offset="0" style="stop-opacity:1; stop-color:#09005D"/>
   <stop offset="1" style="stop-opacity:1; stop-color:#1A0F91"/>
  </linearGradient>
  <linearGradient id="id1" gradientUnits="userSpaceOnUse" x1="5205.52" y1="870.44" x2="5541.49" y2="870.44">
   <stop offset="0" style="stop-opacity:1; stop-color:#FEBBBA"/>
   <stop offset="1" style="stop-opacity:1; stop-color:#FF928E"/>
  </linearGradient>
  <linearGradient id="id2" gradientUnits="userSpaceOnUse" xlink:href="#id0" x1="5156.53" y1="523.02" x2="5661.64" y2="240.7">
  </linearGradient>
  <linearGradient id="id3" gradientUnits="userSpaceOnUse" x1="7076.76" y1="1309.61" x2="4032.12" y2="2618.81">
   <stop offset="0" style="stop-opacity:1; stop-color:#4F52FF"/>
   <stop offset="1" style="stop-opacity:1; stop-color:#4042E2"/>
  </linearGradient>
  <linearGradient id="id4" gradientUnits="userSpaceOnUse" xlink:href="#id3" x1="3801.47" y1="11922.12" x2="-847.5" y2="7216.77">
  </linearGradient>
  <linearGradient id="id5" gradientUnits="userSpaceOnUse" x1="9787.9" y1="6075.44" x2="7283.44" y2="13934.28">
   <stop offset="0" style="stop-opacity:1; stop-color:#FFE5E4"/>
   <stop offset="1" style="stop-opacity:1; stop-color:#FFDDD9"/>
  </linearGradient>
  <linearGradient id="id6" gradientUnits="userSpaceOnUse" x1="4321.07" y1="7386.99" x2="119.21" y2="11647.23">
   <stop offset="0" style="stop-opacity:1; stop-color:#FFE2E0"/>
   <stop offset="1" style="stop-opacity:1; stop-color:#FFD8D5"/>
  </linearGradient>
  <linearGradient id="id7" gradientUnits="userSpaceOnUse" xlink:href="#id1" x1="5941.38" y1="5123.03" x2="5871.3" y2="5729.51">
  </linearGradient>
  <linearGradient id="id8" gradientUnits="userSpaceOnUse" xlink:href="#id1" x1="28432.96" y1="-18968.08" x2="28801.33" y2="-19279.81">
  </linearGradient>
  <linearGradient id="id9" gradientUnits="userSpaceOnUse" xlink:href="#id0" x1="5268.81" y1="5476.87" x2="4900.03" y2="5476.87">
  </linearGradient>
  <linearGradient id="id10" gradientUnits="userSpaceOnUse" xlink:href="#id1" x1="5150.2" y1="5039.74" x2="5076.69" y2="5690.54">
  </linearGradient>
  <linearGradient id="id11" gradientUnits="userSpaceOnUse" xlink:href="#id5" x1="9787.9" y1="6075.44" x2="7283.44" y2="13934.28">
  </linearGradient>
  <linearGradient id="id12" gradientUnits="userSpaceOnUse" xlink:href="#id3" x1="8050.96" y1="11693.27" x2="5740.56" y2="7720.51">
  </linearGradient>
  <linearGradient id="id13" gradientUnits="userSpaceOnUse" xlink:href="#id6" x1="4321.07" y1="7386.99" x2="119.21" y2="11647.23">
  </linearGradient>
  <linearGradient id="id14" gradientUnits="userSpaceOnUse" xlink:href="#id3" x1="4330.61" y1="5134.89" x2="5710.91" y2="6009.46">
  </linearGradient>
  <linearGradient id="id15" gradientUnits="userSpaceOnUse" xlink:href="#id5" x1="9349.34" y1="6074.69" x2="15890.79" y2="1704.07">
  </linearGradient>
  <linearGradient id="id16" gradientUnits="userSpaceOnUse" xlink:href="#id3" x1="6417.93" y1="5344.25" x2="5094.48" y2="6391.41">
  </linearGradient>
  <linearGradient id="id17" gradientUnits="userSpaceOnUse" xlink:href="#id0" x1="6809.5" y1="2376.63" x2="4308.77" y2="5882.57">
  </linearGradient>
  <linearGradient id="id18" gradientUnits="userSpaceOnUse" xlink:href="#id3" x1="11531.65" y1="3538.16" x2="7820.33" y2="11450.55">
  </linearGradient>
  <linearGradient id="id19" gradientUnits="userSpaceOnUse" xlink:href="#id3" x1="6279.98" y1="276.5" x2="4547.04" y2="3293.18">
  </linearGradient>
  <linearGradient id="id20" gradientUnits="userSpaceOnUse" xlink:href="#id1" x1="4483.58" y1="-83.66" x2="4315.99" y2="508.86">
  </linearGradient>
  <linearGradient id="id21" gradientUnits="userSpaceOnUse" xlink:href="#id3" x1="6339.06" y1="7128.45" x2="2507.19" y2="11453.43">
  </linearGradient>
  <linearGradient id="id22" gradientUnits="userSpaceOnUse" xlink:href="#id1" x1="7522.47" y1="1618.54" x2="6936.93" y2="1835.04">
  </linearGradient>
  <linearGradient id="id23" gradientUnits="userSpaceOnUse" x1="4963.19" y1="5021.92" x2="9279.1" y2="-103.94">
   <stop offset="0" style="stop-opacity:1; stop-color:#FF928E"/>
   <stop offset="1" style="stop-opacity:1; stop-color:#FE7062"/>
  </linearGradient>
  <linearGradient id="id24" gradientUnits="userSpaceOnUse" xlink:href="#id1" x1="32759.83" y1="-21979.88" x2="33196.24" y2="-22340.88">
  </linearGradient>
  <linearGradient id="id25" gradientUnits="userSpaceOnUse" xlink:href="#id3" x1="5305.21" y1="-298.22" x2="4170.76" y2="2871.86">
  </linearGradient>
  <linearGradient id="id26" gradientUnits="userSpaceOnUse" xlink:href="#id5" x1="9349.34" y1="6074.69" x2="15890.79" y2="1704.07">
  </linearGradient>
 </defs>
 <g id="Layer_x0020_1">
  <metadata id="CorelCorpID_0Corel-Layer"/>
  <path class="fil0" d="M5220.64 11667.07c-195.87,0 -390.52,-9.84 -583.81,-29.79l1178.29 0c-198.37,19.79 -396.84,29.79 -594.48,29.79zm-4342.3 -2306.17c-1158.86,-1873.45 -1213.81,-4584.8 92.77,-6600.41 1126.92,-1738.52 3125.83,-2742.14 5049.56,-2742.14 47.17,0 94.09,0.64 141.13,1.8 423.6,10.85 2047,77.97 3473.77,1254.41 209.49,172.72 671.67,583.37 1088.23,1234.71 978.12,1529.59 1062.21,3660.63 332.47,5378.74 -86.2,202.89 -183.46,399.14 -290.74,587.98l0 -955.25c0,-93.04 -75.34,-168.41 -168.39,-168.41l-1224.81 0c979.38,-1345.44 761.99,-3148 602.34,-3931.7 -23.92,-117.21 -125.4,-187.09 -229.93,-187.09 -57.43,0 -115.81,21.05 -162.81,66.8 -702.45,683.61 -1298.76,1590.52 -1775.6,2475.5l0 -36.87c0,-93.05 -75.42,-168.47 -168.43,-168.47l-2714.85 0 -483.22 0c-34.42,-618.85 -123.01,-1245.79 -300.06,-1807.64 -27.05,-85.85 -104.25,-133.72 -182.67,-133.72 -52.88,0 -106.29,21.79 -145.22,68.47 -422.64,507.3 -1292.37,1742.89 -1076.12,3108.03 -482.85,-967.84 -1079.01,-1951.95 -1777.18,-2712.98 -51.76,-56.41 -116.9,-82.5 -180.17,-82.5 -105.61,0 -206.07,72.66 -230.73,198.38 -152.27,776.49 -356.63,2461.55 330.66,3917.22l0 1235.14z"/>
  <path class="fil1" d="M4184.94 10506.07c0,0 -1171.25,-4173.24 -3226.36,-6413.41 -138.15,-150.59 -371.47,-85.17 -410.9,115.88 -263.61,1344.26 -683.09,5411.94 3637.26,6297.53z"/>
  <path class="fil2" d="M1807.54 7352.33l-146.73 0c-255.63,-569.02 -489.38,-1226.01 -670.94,-1976.08 -1.45,-5.96 2.87,-9.83 7.21,-9.83 2.84,0 5.69,1.66 6.95,5.46 110.75,337.05 379.95,1103.17 803.51,1980.45z"/>
  <path class="fil1" d="M4205.86 8983.3c0,0 607.98,-3081.28 -66.09,-5220.44 -45.3,-143.76 -231.34,-181.05 -327.89,-65.25 -645.31,774.56 -2332.79,3246.9 393.98,5285.69z"/>
  <path class="fil2" d="M3688.96 7352.33l-98.67 0c-111.67,-701.03 -133.75,-1638.86 131.76,-2753.61 0.74,-3.13 3.21,-4.5 5.66,-4.5 3.21,0 6.38,2.37 5.79,6.5 -57.87,389.76 -199.92,1553.89 -44.54,2751.61z"/>
  <path class="fil1" d="M6470.57 8910.42c0,0 1136.37,-3688.01 3111.36,-5610.08 132.67,-129.21 355.75,-61.21 392.74,120.29 247.22,1213.84 633.43,4871.6 -3504.1,5489.79z"/>
  <path class="fil2" d="M8199.17 7352.33l-152.67 0c825.61,-1180.34 1327.1,-2465.26 1487.17,-2908.82 1.16,-3.26 3.69,-4.63 6.32,-4.63 4.32,0 8.64,3.67 7.17,9.09 -336.16,1264.5 -852.19,2219.12 -1347.99,2904.36z"/>
  <path class="fil3" d="M7360.77 11637.28l-329.64 0 0 -5898.31c0,-93.05 -75.42,-168.47 -168.46,-168.47l775.23 0c93.01,0 168.43,75.42 168.43,168.47l0 1613.36 -277.15 0c-92.99,0 -168.41,75.37 -168.41,168.41l0 4116.54zm-498.1 -6066.78l-1939.62 0 1939.62 0z"/>
  <path class="fil4" d="M7031.13 11637.28l-2747.98 0 0 -4116.54c0,-93.04 -75.38,-168.41 -168.43,-168.41l-135.33 0 0 -1613.36c0,-93.05 75.42,-168.47 168.47,-168.47l2714.81 0c93.04,0 168.46,75.42 168.46,168.47l0 5898.31zm-2847.11 -4694.88c-11.66,0 -21.16,9.45 -21.16,21.11l0 175.39c0,11.67 9.5,21.12 21.16,21.12 11.67,0 21.13,-9.45 21.13,-21.12l0 -175.39c0,-11.66 -9.46,-21.11 -21.13,-21.11zm354.34 -1106.43c-207.04,0 -375.5,186.68 -375.5,416.14l0 430.39c0,11.67 9.5,21.13 21.16,21.13 11.67,0 21.13,-9.46 21.13,-21.13l0 -430.39c0,-206.17 149.46,-373.88 333.21,-373.88l586.07 0c11.67,0 21.13,-9.46 21.13,-21.13 0,-11.67 -9.46,-21.13 -21.13,-21.13l-586.07 0z"/>
  <path class="fil5" d="M4184.02 6703.63c-11.66,0 -21.16,-9.46 -21.16,-21.13l0 -430.39c0,-229.46 168.46,-416.14 375.5,-416.14l586.07 0c11.67,0 21.13,9.46 21.13,21.13 0,11.67 -9.46,21.13 -21.13,21.13l-586.07 0c-183.75,0 -333.21,167.71 -333.21,373.88l0 430.39c0,11.67 -9.46,21.13 -21.13,21.13z"/>
  <path class="fil6" d="M4184.02 7160.02c-11.66,0 -21.16,-9.45 -21.16,-21.12l0 -175.39c0,-11.66 9.5,-21.11 21.16,-21.11 11.67,0 21.13,9.45 21.13,21.11l0 175.39c0,11.67 -9.46,21.12 -21.13,21.12z"/>
  <path class="fil7" d="M4283.15 11637.28l-775.2 0 0 -4116.54c0,-93.04 -75.42,-168.41 -168.46,-168.41l775.23 0c93.05,0 168.43,75.37 168.43,168.41l0 4116.54zm-943.66 -4284.95l-1517.49 0 1517.49 0z"/>
  <path class="fil8" d="M3507.95 11637.28l-2629.61 0 0 -4116.54c0,-93.04 75.41,-168.41 168.44,-168.41l760.76 0 14.46 0 1517.49 0c93.04,0 168.46,75.37 168.46,168.41l0 4116.54zm-2412.54 -2775.16c-11.65,0 -21.13,9.47 -21.13,21.13l0 206.89c0,11.67 9.48,21.12 21.13,21.12 11.68,0 21.14,-9.45 21.14,-21.12l0 -206.89c0,-11.66 -9.46,-21.13 -21.14,-21.13zm418.12 -1305.42c-242.21,0 -439.25,218.55 -439.25,487.19l0 507.81c0,11.67 9.48,21.13 21.13,21.13 11.68,0 21.14,-9.46 21.14,-21.13l0 -507.81c0,-245.34 178.08,-444.9 396.98,-444.9l691.42 0c11.67,0 21.12,-9.45 21.12,-21.12 0,-11.66 -9.45,-21.17 -21.12,-21.17l-691.42 0z"/>
  <path class="fil9" d="M1095.41 8572.83c-11.65,0 -21.13,-9.46 -21.13,-21.13l0 -507.81c0,-268.64 197.04,-487.19 439.25,-487.19l691.42 0c11.67,0 21.12,9.51 21.12,21.17 0,11.67 -9.45,21.12 -21.12,21.12l-691.42 0c-218.9,0 -396.98,199.56 -396.98,444.9l0 507.81c0,11.67 -9.46,21.13 -21.14,21.13z"/>
  <path class="fil10" d="M1095.41 9111.26c-11.65,0 -21.13,-9.45 -21.13,-21.12l0 -206.89c0,-11.66 9.48,-21.13 21.13,-21.13 11.68,0 21.14,9.47 21.14,21.13l0 206.89c0,11.67 -9.46,21.12 -21.14,21.12z"/>
  <path class="fil3" d="M10765.53 11637.28l-775.16 0 0 -4116.54c0,-93.04 -75.45,-168.41 -168.39,-168.41l775.16 0c93.05,0 168.39,75.37 168.39,168.41l0 4116.54zm-943.55 -4284.95l-1517.55 0 1517.55 0z"/>
  <path class="fil4" d="M9990.37 11637.28l-2629.6 0 0 -4116.54c0,-93.04 75.42,-168.41 168.41,-168.41l2292.8 0c92.94,0 168.39,75.37 168.39,168.41l0 4116.54zm-2412.55 -2775.16c-11.67,0 -21.13,9.47 -21.13,21.13l0 206.89c0,11.67 9.46,21.12 21.13,21.12 11.66,0 21.17,-9.45 21.17,-21.12l0 -206.89c0,-11.66 -9.51,-21.13 -21.17,-21.13zm418.13 -1305.42c-242.22,0 -439.26,218.55 -439.26,487.19l0 507.81c0,11.67 9.46,21.13 21.13,21.13 11.66,0 21.17,-9.46 21.17,-21.13l0 -507.81c0,-245.34 178.04,-444.9 396.96,-444.9l691.43 0c11.7,0 21.18,-9.45 21.18,-21.12 0,-11.66 -9.48,-21.17 -21.18,-21.17l-691.43 0z"/>
  <path class="fil11" d="M7577.82 8572.83c-11.67,0 -21.13,-9.46 -21.13,-21.13l0 -507.81c0,-268.64 197.04,-487.19 439.26,-487.19l691.43 0c11.7,0 21.18,9.51 21.18,21.17 0,11.67 -9.48,21.12 -21.18,21.12l-691.43 0c-218.92,0 -396.96,199.56 -396.96,444.9l0 507.81c0,11.67 -9.51,21.13 -21.17,21.13z"/>
  <path class="fil12" d="M7577.82 9111.26c-11.67,0 -21.13,-9.45 -21.13,-21.12l0 -206.89c0,-11.66 9.46,-21.13 21.13,-21.13 11.66,0 21.17,9.47 21.17,21.13l0 206.89c0,11.67 -9.51,21.12 -21.17,21.12z"/>
  <path class="fil13" d="M7250.76 10801.37l2158.46 -4135.12 -442.27 0c-81.57,0 -126.35,-94.78 -74.72,-157.83l2300.5 -2803.78c99.69,-121.54 296.64,-44.45 287.37,112.46l-161.65 2741.77c-9.27,156.93 -148.48,273.93 -304.65,256.06l-308.33 -35.29 -2141.61 4637.91c-55.72,120.71 -176.6,198.06 -309.56,198.06l-742.27 0 -261.27 -814.24z"/>
  <path class="fil14" d="M5466.19 7901.22l1523.82 3384.96c90.24,200.46 289.67,329.43 509.55,329.43l785.57 0c104.22,0 200.26,-56.55 250.81,-147.72l27.92 -50.34c-84.39,0 -161.67,-47.33 -200.01,-122.5l-2030.33 -3978.06 -867.33 584.23z"/>
  <path class="fil15" d="M6538.61 7718.8l0 0c-152.8,-120.64 -376.06,-85.18 -483.93,76.91l-2240.42 3366.04c-179.47,269.6 -481.86,431.56 -805.7,431.56l-315.26 0 -256.55 -739.06c0,0 2082.83,-3193.62 2619.64,-3676.73 0,0 534.65,-481.8 1061.74,-117.5 139.26,96.21 245.02,233.59 309.56,390.05l110.92 268.73z"/>
  <path class="fil16" d="M0 8866.51c0,0 375.02,-468.78 1101.76,-541.7 0,0 345.16,117.64 1032.8,1349.81 687.67,1232.17 1144.1,1794.02 1679.7,1487.13l-44.33 73.64c-146.18,242.63 -408.73,391 -691.95,391l-296.22 0c-326.18,0 -609.39,-502.39 -799.85,-767.15 -535.19,-743.99 -1653.14,-1877.23 -1981.91,-1992.73z"/>
  <path class="fil17" d="M11220.55 4683.8c-0.73,0 -1.58,-0.04 -2.42,-0.17 -11.59,-1.28 -19.92,-11.74 -18.55,-23.37l15.07 -133.88c1.37,-11.58 11.8,-19.92 23.4,-18.58 11.69,1.29 20.02,11.75 18.65,23.37l-15.18 133.84c-1.16,10.79 -10.32,18.79 -20.97,18.79z"/>
  <path class="fil17" d="M9300.26 6373.7c-4.54,0 -9.07,-1.42 -12.97,-4.37 -9.16,-7.12 -10.95,-20.42 -3.79,-29.63l1899.54 -2468.3c22.44,-29.04 58.8,-38.91 92.73,-25.17 34.04,13.75 53.32,46.13 49.21,82.54l-33.61 295.89c-1.27,11.59 -11.81,19.88 -23.29,18.63 -11.59,-1.34 -19.92,-11.79 -18.65,-23.37l33.51 -295.89c2.32,-20.67 -10.33,-33.5 -22.98,-38.63 -12.64,-5.12 -30.77,-4.7 -43.41,11.79l-1899.54 2468.26c-4.21,5.42 -10.43,8.25 -16.75,8.25z"/>
  <path class="fil17" d="M4990.76 8961.29c-4.08,0 -8.17,-1.15 -11.79,-3.62 -9.67,-6.53 -12.26,-19.66 -5.71,-29.33l982.46 -1456.22c35.16,-52.17 93.62,-80.43 156.38,-75.76 62.75,4.75 116.29,41.58 143.2,98.47 5.01,10.55 0.51,23.13 -10.03,28.12 -10.55,5.04 -23.13,0.51 -28.13,-10.04 -20.33,-43.01 -60.8,-70.79 -108.22,-74.38 -47.46,-3.62 -91.58,17.79 -118.21,57.21l-982.4 1456.22c-4.09,6.05 -10.75,9.33 -17.55,9.33z"/>
  <path class="fil17" d="M4735.46 9339.68c-4.09,0 -8.16,-1.15 -11.79,-3.62 -9.67,-6.5 -12.25,-19.62 -5.71,-29.34l63 -93.33c6.54,-9.71 19.71,-12.25 29.33,-5.71 9.67,6.5 12.26,19.67 5.71,29.34l-63 93.38c-4.08,6.04 -10.75,9.28 -17.54,9.28z"/>
  <path class="fil18" d="M7235.42 265.78c467.69,-138.57 913.71,-101.16 1136.38,-42.26 263.31,69.55 350.56,121.82 583.66,148.06 207.17,23.39 757.67,-144.16 687.17,-18.13 -91.89,164.29 -66.71,807.94 70.39,1076.23 20.02,39.09 -631.95,135.72 -1026.91,63.54 -544.61,-99.48 -719.95,-266.39 -1077.5,-190.52 -164.97,35.09 -290.31,105.06 -370.38,158.8 36.45,-396.85 -39.3,-798.87 -2.81,-1195.72z"/>
  <path class="fil19" d="M7241.3 5604.47c-11.66,0 -21.13,-9.51 -21.13,-21.17l0 -5445.13c0,-11.59 9.47,-21.08 21.13,-21.08 11.67,0 21.13,9.49 21.13,21.08l0 5445.13c0,11.66 -9.46,21.17 -21.13,21.17z"/>
  <path class="fil20" d="M4900.01 5605.09c-0.04,-2.84 0.13,-5.7 0.87,-8.58 42.71,-169.43 217.43,-256.27 217.43,-256.27l84.04 6.59c48.34,149.34 79.51,222.22 71.75,263.01 -0.21,1.17 -0.58,2.25 -0.87,3.33 -69.33,6.21 -212.04,10.25 -373.22,-8.08z"/>
  <path class="fil21" d="M5274.23 5613.17c-3.71,13.63 -13.79,24.25 -26.66,26.93 -98.59,20.74 -255.35,4.07 -321.18,-4.55 -14.5,-1.87 -25.14,-15.33 -25.38,-30.46 161.21,18.33 303.92,14.29 373.22,8.08z"/>
  <path class="fil22" d="M5049.14 5209.45l36.79 177.17c2.67,12.96 12.66,22.68 24.75,23.84 14.8,1.38 35.84,2.17 57,-0.92 19,-2.79 32.21,-22.09 28.84,-42.79l-25.58 -157.3 -121.8 0z"/>
  <path class="fil23" d="M5986.21 5611.72c-89.75,-2.51 -136.17,-13.09 -160.21,-22.92 -0.04,8.95 0,18.04 0.29,27.42 0.34,10.08 7.76,18.08 16.92,18.04l492.86 -3.16c15.74,-0.13 24.91,-18.38 18.12,-32.8 -64.63,5.33 -229.22,17.29 -367.98,13.42z"/>
  <path class="fil24" d="M6355.32 5598.3c-0.63,-1.25 -1.13,-2.55 -1.96,-3.71 -43.54,-60.8 -154.39,-181.92 -373.44,-234.43l-105.08 -3.33c0,0 -46.8,81.34 -47.67,231.97 24,9.83 70.42,20.41 160.17,22.92 138.76,3.87 303.34,-8.09 367.98,-13.42z"/>
  <path class="fil25" d="M5855.33 5197.57c1.17,7.84 15.59,126.89 21.17,173.05 1.29,10.96 9.25,19.47 19.3,20.67 17.87,2.13 46.83,4.09 72.16,-1.13 13.67,-2.79 23.54,-15.91 23.54,-31.2l0 -186.89 -136.17 25.5z"/>
  <path class="fil26" d="M5119.34 2883.26c0,0 -168.17,1494.75 -74.74,2428.94 0,0 112.12,0 168.17,-18.66 0,0 174.76,-1461.47 231.25,-1879.65 2.13,-15.8 24.64,-16.51 27.76,-0.88 69.71,351.8 343.68,1731.56 376.26,1861.86 0,0 93.42,37.33 168.13,0 0,0 -149.46,-1999.2 -261.55,-2354.2l-635.28 -37.41z"/>
  <path class="fil27" d="M4783.04 1145.68c0,0 565.32,-76.4 1081.16,1.48 127.68,19.28 216.6,136.89 199.31,264.81l-47.34 350.28c0,0 -149.46,803.4 -261.55,1158.42 0,0 -429.77,74.71 -635.28,-37.41 0,0 -168.17,-1008.89 -261.59,-1158.42 0,0 -93.41,-392.32 -74.71,-579.16z"/>
  <path class="fil28" d="M5276.27 635.13l-70.75 478.31c0,0 197.64,90.73 335.97,-3.9l-29.79 -337.52 -235.43 -136.89z"/>
  <path class="fil29" d="M5580.78 323.63c2.26,4.11 44.88,245.32 71.09,394.54 10.87,61.75 -34.5,119.07 -97,122.76l-57.25 3.37c-105.22,6.22 -197.85,-68.7 -213.8,-172.82l-41.39 -270.5c0,0 284.27,-175.45 338.35,-77.35z"/>
  <path class="fil30" d="M5180.68 401.61c-21.92,-27.29 -41.08,-71.34 5.67,-117.81 47.34,-47 101.01,-35.3 135.09,-19.49 15.04,6.95 33.62,3.89 44.38,-8.86 4.74,-5.58 11.84,-9.37 22.33,-8.22 19.79,2.22 37.46,-10.85 39.83,-30.66 4.05,-33.93 22.09,-73.87 82.05,-85.46 110,-21.29 164.89,88.83 162.93,166.18 -1.96,77.35 -122.56,93.68 -190.93,80.82 -50.25,-9.48 -93.67,34.67 -113.22,58.8 -7.08,8.75 -9.74,20.24 -7.16,31.2l17.38 74.71c-12.05,23.29 -23.88,47 -40.8,66.81 -12.17,14.33 -25.54,22.13 -39.7,25.5 -20.51,-38.15 -77.84,-44.68 -104.52,-45.52 -10.2,-0.32 -19.7,-4.85 -26.41,-12.54 -20.12,-22.98 -51.59,-74.51 8.67,-124.98 14.96,-12.54 16.67,-35.2 4.41,-50.48z"/>
  <path class="fil31" d="M5318.36 715.11c0,0 -2.34,-134.88 -56.97,-147.63 -54.61,-12.65 -113.54,26.87 -66.83,107.69 58.09,100.43 123.8,39.94 123.8,39.94z"/>
  <path class="fil32" d="M5102.6 1790.81c0,0 -1604.27,-436.69 -807.7,-1559.7l53.92 76.3c0,0 -240.01,760.61 555.03,832.9 0,0 205.91,531.1 198.75,650.5z"/>
  <path class="fil33" d="M4289.48 236.91c0,0 -18.04,-216.87 90.39,-234.89 108.42,-18.12 144.54,90.31 162.58,144.47 18.09,54.27 -162.58,162.71 -198.76,162.71 -36.12,0 -54.21,-72.29 -54.21,-72.29z"/>
  <path class="fil34" d="M5967.17 1910.73c0,0 207.34,820.68 1247.46,-83.36l-79.71 -48.68c0,0 -915.74,649.65 -1077.13,-458.61 0,0 -90.62,490.96 -90.62,590.65z"/>
  <path class="fil35" d="M7209.26 1833.06c0,0 217.55,3.59 228.34,-105.8 10.79,-109.38 -99.79,-138.15 -155.09,-152.58 -55.29,-14.44 -151.38,173.13 -149,209.17 2.41,36.04 75.75,49.21 75.75,49.21z"/>
 </g>
</svg>
