<?xml version="1.0" encoding="UTF-8"?>
<!DOCTYPE svg PUBLIC "-//W3C//DTD SVG 1.1//EN" "http://www.w3.org/Graphics/SVG/1.1/DTD/svg11.dtd">
<!-- Creator: CorelDRAW 2019 (64-Bit Evaluation Version) -->
<svg xmlns="http://www.w3.org/2000/svg" xml:space="preserve" width="489px" height="489px" version="1.1" style="shape-rendering:geometricPrecision; text-rendering:geometricPrecision; image-rendering:optimizeQuality; fill-rule:evenodd; clip-rule:evenodd"
viewBox="0 0 90.9 90.9"
 xmlns:xlink="http://www.w3.org/1999/xlink">
 <defs>
  <style type="text/css">
   <![CDATA[
    .fil0 {fill:#BBD761;fill-rule:nonzero}
    .fil1 {fill:#52663B;fill-rule:nonzero}
   ]]>
  </style>
 </defs>
 <g id="Layer_x0020_1">
  <metadata id="CorelCorpID_0Corel-Layer"/>
  <path class="fil0" d="M90.9 45.45c0,25.1 -20.35,45.45 -45.45,45.45 -25.1,0 -45.45,-20.35 -45.45,-45.45 0,-25.1 20.35,-45.45 45.45,-45.45 25.1,0 45.45,20.35 45.45,45.45z"/>
  <path class="fil1" d="M80 65.76c-2.86,-3.85 -20.92,-9.57 -21.72,-10.21 -0.79,-0.64 -3.32,-4.06 -3.32,-4.06l-0.17 0 0 -3.75c1.09,-1.36 1.92,-2.75 2.46,-3.86 0.36,-0.74 0.67,-2.33 0.93,-4.36 2.98,-1.37 3.34,-6.12 3.46,-8.79 0.06,-1.3 -0.55,-1.42 -1.24,-1.17 0.02,-0.05 0.05,-0.1 0.07,-0.15 0.66,-1.06 1.16,-2.23 1.45,-3.45 2.29,-7.2 -1.11,-11.52 -2.84,-13.15 -0.28,-0.31 -0.58,-0.59 -0.91,-0.82 -0.21,-0.39 -0.47,-0.76 -0.8,-1.07 -1.43,-1.36 -3.6,-1.5 -5.58,-1.62 -1.98,-0.11 -4.18,-0.39 -5.45,-1.92 0.31,0.47 0.61,0.94 0.92,1.41 -2.82,-0.75 -5.26,-2.79 -6.51,-5.42 -0.05,0.54 -0.11,1.09 -0.16,1.64 -0.74,-0.62 -1.24,-1.5 -1.4,-2.45 -4.11,2.5 -6.65,7.27 -6.67,12.06 -1.29,1.15 -2.3,2.6 -2.97,4.19 -0.2,0.34 -0.34,0.74 -0.43,1.19 -0.27,0.89 -0.43,1.81 -0.47,2.74 -0.09,2.25 0.53,4.5 1.68,6.43 0.04,0.11 0.07,0.23 0.11,0.35 -0.64,-0.19 -1.17,0 -1.12,1.21 0.13,2.67 0.49,7.43 3.47,8.79 0.26,2.03 0.57,3.62 0.93,4.36 0.53,1.09 1.34,2.44 2.39,3.77l0 3.84 -0.17 0c0,0 -2.53,3.42 -3.32,4.06 -0.8,0.64 -18.86,6.36 -21.72,10.21 -1.08,1.44 -1.96,3.42 -2.7,5.73 8.22,11.73 21.84,19.41 37.25,19.41 15.42,0 29.03,-7.68 37.25,-19.41 -0.74,-2.31 -1.62,-4.29 -2.7,-5.73z"/>
 </g>
</svg>
