<?xml version="1.0" encoding="UTF-8"?>
<!DOCTYPE svg PUBLIC "-//W3C//DTD SVG 1.1//EN" "http://www.w3.org/Graphics/SVG/1.1/DTD/svg11.dtd">
<!-- Creator: CorelDRAW 2019 (64-Bit Evaluation Version) -->
<svg xmlns="http://www.w3.org/2000/svg" xml:space="preserve" width="11943px" height="11667px" version="1.1" style="shape-rendering:geometricPrecision; text-rendering:geometricPrecision; image-rendering:optimizeQuality; fill-rule:evenodd; clip-rule:evenodd"
viewBox="0 0 11943.06 11666.88"
 xmlns:xlink="http://www.w3.org/1999/xlink">
 <defs>
  <style type="text/css">
   <![CDATA[
    .fil27 {fill:#2C4B19}
    .fil4 {fill:#639527}
    .fil6 {fill:#97C570}
    .fil7 {fill:#AAD576}
    .fil0 {fill:#D5EABB}
    .fil5 {fill:#D5EABB}
    .fil19 {fill:#E25560}
    .fil8 {fill:#E25560}
    .fil28 {fill:#2C4B19;fill-rule:nonzero}
    .fil2 {fill:#2C4B19;fill-rule:nonzero}
    .fil1 {fill:#97C570;fill-rule:nonzero}
    .fil3 {fill:#AAD576;fill-rule:nonzero}
    .fil26 {fill:#AAD576;fill-rule:nonzero}
    .fil14 {fill:url(#id0)}
    .fil16 {fill:url(#id1)}
    .fil25 {fill:url(#id2)}
    .fil24 {fill:url(#id3)}
    .fil13 {fill:url(#id4)}
    .fil20 {fill:url(#id5)}
    .fil12 {fill:url(#id6)}
    .fil10 {fill:url(#id7)}
    .fil15 {fill:url(#id8)}
    .fil17 {fill:url(#id9)}
    .fil21 {fill:url(#id10)}
    .fil23 {fill:url(#id11)}
    .fil11 {fill:url(#id12)}
    .fil18 {fill:url(#id13)}
    .fil22 {fill:url(#id14)}
    .fil9 {fill:url(#id15)}
   ]]>
  </style>
  <linearGradient id="id0" gradientUnits="userSpaceOnUse" x1="7757.86" y1="11220.22" x2="7605.76" y2="11241.12">
   <stop offset="0" style="stop-opacity:1; stop-color:#FEBBBA"/>
   <stop offset="1" style="stop-opacity:1; stop-color:#FF928E"/>
  </linearGradient>
  <linearGradient id="id1" gradientUnits="userSpaceOnUse" xlink:href="#id0" x1="10524.07" y1="10405.19" x2="10515.82" y2="10556.51">
  </linearGradient>
  <linearGradient id="id2" gradientUnits="userSpaceOnUse" xlink:href="#id0" x1="9819.72" y1="6735.34" x2="9942.72" y2="6760.89">
  </linearGradient>
  <linearGradient id="id3" gradientUnits="userSpaceOnUse" xlink:href="#id0" x1="8956.51" y1="7638.47" x2="8935.08" y2="7193.1">
  </linearGradient>
  <linearGradient id="id4" gradientUnits="userSpaceOnUse" x1="7801.37" y1="11454.12" x2="7211.44" y2="11475.01">
   <stop offset="0" style="stop-opacity:1; stop-color:#09005D"/>
   <stop offset="1" style="stop-opacity:1; stop-color:#1A0F91"/>
  </linearGradient>
  <linearGradient id="id5" gradientUnits="userSpaceOnUse" xlink:href="#id4" x1="7784.29" y1="9969.74" x2="9107.82" y2="10243.64">
  </linearGradient>
  <linearGradient id="id6" gradientUnits="userSpaceOnUse" xlink:href="#id4" x1="5553.51" y1="5618.37" x2="9081.16" y2="6790.24">
  </linearGradient>
  <linearGradient id="id7" gradientUnits="userSpaceOnUse" x1="10906.61" y1="6757.34" x2="15299.29" y2="7302.95">
   <stop offset="0" style="stop-opacity:1; stop-color:#4F52FF"/>
   <stop offset="1" style="stop-opacity:1; stop-color:#4042E2"/>
  </linearGradient>
  <linearGradient id="id8" gradientUnits="userSpaceOnUse" xlink:href="#id4" x1="10761.71" y1="10422.27" x2="10669.76" y2="10992.41">
  </linearGradient>
  <linearGradient id="id9" gradientUnits="userSpaceOnUse" xlink:href="#id0" x1="7618.19" y1="6272.22" x2="7829.07" y2="6349.58">
  </linearGradient>
  <linearGradient id="id10" gradientUnits="userSpaceOnUse" xlink:href="#id0" x1="8469.06" y1="6520.34" x2="9351.33" y2="8589.75">
  </linearGradient>
  <linearGradient id="id11" gradientUnits="userSpaceOnUse" xlink:href="#id4" x1="8940.98" y1="7281.66" x2="8514.73" y2="6904.79">
  </linearGradient>
  <linearGradient id="id12" gradientUnits="userSpaceOnUse" xlink:href="#id4" x1="4801.93" y1="4406.34" x2="9222.16" y2="6638.79">
  </linearGradient>
  <linearGradient id="id13" gradientUnits="userSpaceOnUse" xlink:href="#id4" x1="9390.49" y1="9645.45" x2="10533.06" y2="11851.25">
  </linearGradient>
  <linearGradient id="id14" gradientUnits="userSpaceOnUse" xlink:href="#id0" x1="8777.31" y1="6953.23" x2="8711.98" y2="7681.12">
  </linearGradient>
  <linearGradient id="id15" gradientUnits="userSpaceOnUse" xlink:href="#id7" x1="10818.9" y1="7116.36" x2="15027" y2="8507.5">
  </linearGradient>
 </defs>
 <g id="Layer_x0020_1">
  <metadata id="CorelCorpID_0Corel-Layer"/>
  <path class="fil0" d="M5979.12 11666.88c-704.22,0 -1242.19,-98.47 -1456.73,-142.05 -778.14,-158.04 -2282.3,-463.55 -3369.76,-1742.37 -1645.24,-1934.79 -1389.05,-4982.95 -112.89,-6995.16 81.35,-128.24 284.2,-459.96 619.96,-851.65 3.37,35.2 7.78,70.4 13.21,105.06 3.41,21.82 22.26,37.41 43.69,37.41 0.74,0 1.5,0 2.25,-0.1 1.53,-0.11 3.09,-0.21 4.63,-0.42 24.16,-3.8 40.69,-26.45 36.9,-50.58 -7.34,-47 -12.77,-94.95 -16.1,-142.58 -0.82,-11.7 -6.16,-22.13 -14.19,-29.5 637.5,-718.88 1709.06,-1600.35 3282.26,-1806.04 248.75,-32.57 504.51,-48.9 763.52,-48.9 821.73,0 1678.41,165.12 2466.47,506.12 61.96,494.85 123.5,1217.41 75.08,1904.47 -835.51,-806.24 -1972.63,-1302.24 -3225.36,-1302.24 -52.13,0 -104.04,0.95 -155.75,2.63 -51.59,-1.68 -103.42,-2.53 -155.43,-2.53 -2565.63,0 -4645.49,2079.82 -4645.49,4645.46 0,2565.64 2079.86,4645.52 4645.49,4645.52 52.18,0 104.09,-0.87 155.84,-2.59 51.59,1.72 103.34,2.55 155.34,2.55 1547.62,0 2918.56,-756.85 3762.84,-1920.54 69.76,394.38 218.55,739.55 461.55,1002.15 0,0 1554.62,-517.43 2231.97,-2429.72 -159.22,1188.44 -608.33,2265.41 -1281.9,2974.52 -238.46,251.04 -463.97,412.93 -642.26,540.84 -1242.29,891.32 -2619.78,1100.24 -3645.14,1100.24zm-1710.36 -11446.85c-15.42,0 -30.43,8.11 -38.55,22.44 -12.09,21.29 -4.63,48.26 16.67,60.38 19.95,11.28 39.92,23.18 59.28,35.2 7.27,4.53 15.34,6.74 23.35,6.74 0.74,0 1.49,-0.1 2.24,-0.1 14.01,-0.74 27.42,-8.01 35.38,-20.87 12.91,-20.76 6.58,-48.05 -14.21,-60.91 -20.38,-12.75 -41.38,-25.18 -62.38,-37.09 -6.87,-3.9 -14.41,-5.79 -21.78,-5.79zm5951.92 3808.55c-174.6,-917.69 -604.12,-1999.56 -1436.38,-3253.33 279.04,157.75 545.22,340.26 793.06,547.96 452.28,378.83 823.1,822.99 1118.36,1308.35 -114.54,463.83 -269.55,962.09 -475.04,1397.02z"/>
  <path class="fil1" d="M11073.91 1270.94c-22.97,-62.38 -114.43,-52.58 -123.39,13.28 -85.88,636.47 -363.65,2298.43 -1015.93,3251.17 -1062.09,1551.19 -1584.12,3901.58 -618.14,4945.61 0,0 4250.03,-1414.2 1757.46,-8210.06z"/>
  <path class="fil2" d="M9506.23 8741.52c-2,0 -4.11,-0.5 -5.9,-1.62 -5.16,-3.18 -6.85,-9.8 -3.9,-15.05l0.11 -0.13c138.78,-247.04 264.07,-501.09 376.72,-760.72 113.28,-259.38 211.38,-525.14 302.43,-793.02 90.94,-268 171.02,-539.63 245,-812.85 73.87,-273.38 136.36,-549.63 197.37,-826.15 119.49,-553.75 209.38,-1113.68 283.88,-1675.49 36.67,-281 67.55,-562.8 93.57,-845.05 13.18,-141.2 25.08,-282.41 35.31,-423.82l13.59 -212.13 5.69 -106.11 2.21 -53c0.42,-17.39 1.27,-36.04 1.06,-51.32l0 -2.53c-0.21,-6.11 4.74,-11.17 10.85,-11.17 0.11,0 0.11,0 0.21,0 5.8,0 10.64,4.53 11.07,10.33 1.26,20.23 0.63,37.09 0.84,55.11l-0.63 53.42 -2.43 106.54c-2.21,71.02 -5.37,141.94 -8.53,212.86 -7.06,141.94 -15.7,283.67 -25.71,425.4 -20.55,283.34 -48.79,566.09 -81.25,848.34 -32.14,282.35 -72.08,563.81 -118.02,844.28 -46.05,280.42 -96.21,560.3 -155.54,838.39 -117.6,556.3 -265.44,1106.73 -451.64,1644.49 -95.89,267.89 -198.84,533.35 -317.07,792.31 -119.92,258.02 -250.9,511.01 -399.8,753.36 -2.11,3.45 -5.8,5.33 -9.49,5.33z"/>
  <path class="fil3" d="M8299.51 87.78c-38,-51 -119.26,-17.07 -109.42,45.73 94.79,607.18 293.46,2207 -44.8,3258.67 -550.8,1712.3 -388.38,4010.15 782.32,4704.07 0,0 3511.66,-2456.34 -628.1,-8008.47z"/>
  <path class="fil2" d="M9018.76 3270.56c-25.29,-40.04 -51.31,-79.67 -77.87,-118.83 -28.45,-215.74 -60.17,-431.02 -94.2,-645.89 -43,-267.76 -91.46,-534.57 -144.59,-800.54 -26.38,-132.98 -53.95,-265.86 -83.16,-398.21l-45.39 -198.32 -23.71 -98.84 -12.37 -49.22c-4.29,-16.12 -8.66,-33.4 -12.99,-47.31l-0.76 -2.32c-1.79,-5.69 1.38,-11.8 7.08,-13.59 1.08,-0.32 2.17,-0.42 3.21,-0.42 4.46,0 8.59,2.74 10.17,7.06 6.7,18.23 10.75,33.82 15.87,50.37l13.96 49.1 26.84 98.32c17.45,65.75 33.87,131.61 50.29,197.58 32.38,132.04 63.09,264.39 92.58,397.06 58.5,265.44 109.82,532.46 157.02,800.22 45.74,256.8 84.62,514.97 118.02,773.78z"/>
  <path class="fil4" d="M4780.88 10399.43c-2565.63,0 -4645.49,-2079.88 -4645.49,-4645.52 0,-2565.64 2079.86,-4645.46 4645.49,-4645.46 52.01,0 103.84,0.85 155.43,2.53 -2493.52,82.19 -4489.77,2129.41 -4489.77,4642.93 0,2513.64 1996.46,4561.01 4490.18,4642.93 -51.75,1.72 -103.66,2.59 -155.84,2.59zm-4077.03 -6564.07c-8.7,0 -17.26,4.13 -22.58,11.8 -8.57,12.46 -5.41,29.5 7.02,38.04 18.95,13.04 38.7,25.83 58.73,37.92 4.43,2.67 9.31,3.95 14.13,3.95 0.47,0 0.93,0 1.4,-0.04 8.75,-0.45 17.13,-5.08 22.02,-13.16 7.82,-12.88 3.69,-29.71 -9.24,-37.55 -19.11,-11.53 -37.96,-23.71 -56.02,-36.16 -4.74,-3.25 -10.13,-4.8 -15.46,-4.8z"/>
  <path class="fil5" d="M5092.06 9718.66c-2186.18,0 -3964.76,-1778.58 -3964.76,-3964.75 0,-595.93 132.15,-1161.52 368.68,-1669.12 26.82,-3.16 53.52,-7.21 79.88,-12.13 14.84,-2.79 24.63,-17.04 21.85,-31.92 -2.47,-13.2 -14.11,-22.24 -27.04,-22.24 -1.61,0 -3.24,0.12 -4.87,0.41 -13.84,2.59 -27.78,4.92 -41.79,7 643.16,-1322.8 2000.73,-2236.62 3567.77,-2236.73 0.11,0 0.15,0 0.28,0 2.67,0 5.13,0 7.79,0 3.34,20.87 21.38,36.99 43.3,37.3 0.12,0 0.21,0 0.33,0 0.79,0 1.63,-0.1 2.42,-0.1 20.62,-1.05 37.58,-16.23 41.21,-36.15 2142.5,50.69 3869.7,1809.22 3869.7,3963.68 0,2186.17 -1778.58,3964.75 -3964.75,3964.75zm-1289.36 -6240.05c-791.4,450.25 -1326.32,1301.48 -1326.32,2275.3 0,1442.28 1173.4,2615.68 2615.68,2615.68 1442.28,0 2615.69,-1173.4 2615.69,-2615.68 0,-1442.32 -1173.41,-2615.68 -2615.69,-2615.68 -256.34,0 -504.26,37.08 -738.52,106.12 0.47,-8.53 -1.58,-17.33 -6.33,-25.2 -8.29,-13.8 -22.91,-21.42 -37.92,-21.42 -7.79,0 -15.71,2.08 -22.83,6.38 -40.21,24.25 -81.79,47.04 -123.71,67.74 -17.71,8.75 -27,27.75 -24.21,46.25 -46.16,18.17 -91.79,37.64 -136.67,58.26 -8.21,-12.29 -22.13,-19.67 -36.83,-19.67 -4.67,0 -9.38,0.75 -14,2.29 -44.5,14.84 -90.13,27.91 -135.59,38.87 -23.75,5.76 -38.38,29.68 -32.62,53.42 2.87,11.87 10.24,21.46 19.87,27.34zm-1965.74 455.39c-3.79,0 -7.66,0.79 -11.36,2.45 -41.2,18.87 -84.06,35.42 -127.4,49.21 -14.39,4.59 -22.34,19.96 -17.77,34.33 3.7,11.63 14.47,19.05 26.06,19.05 0.46,0 0.92,0 1.37,0 2.3,-0.13 4.62,-0.54 6.93,-1.29 45.42,-14.46 90.37,-31.79 133.56,-51.54 13.73,-6.3 19.77,-22.55 13.48,-36.26 -4.6,-10.08 -14.48,-15.95 -24.87,-15.95zm237.8 -146.13c-5.96,0 -11.97,1.95 -17.01,5.96 -35.51,28.29 -73.13,54.62 -111.8,78.37 -12.86,7.88 -16.89,24.71 -8.97,37.62 5.15,8.38 14.12,13.01 23.32,13.01 0.47,0 0.92,0 1.39,-0.05 4.42,-0.21 8.85,-1.49 12.89,-3.96 40.54,-24.91 79.97,-52.58 117.23,-82.2 11.81,-9.38 13.77,-26.59 4.38,-38.42 -5.4,-6.79 -13.38,-10.33 -21.43,-10.33zm196.12 -198.8c-8.18,0 -16.27,3.67 -21.67,10.67 -27.69,35.83 -57.93,70.46 -89.86,102.83 -10.6,10.75 -10.48,28.08 0.28,38.67 5.32,5.25 12.25,7.87 19.19,7.87 0.48,0 0.94,0 1.41,-0.04 6.59,-0.34 13.08,-3.04 18.06,-8.08 33.47,-33.95 65.16,-70.25 94.21,-107.87 9.22,-11.92 7.03,-29.09 -4.93,-38.34 -4.96,-3.83 -10.85,-5.71 -16.69,-5.71zm1323.11 -153.01c-1.46,0 -2.92,0.05 -4.42,0.21 -46.3,4.67 -93.55,7.38 -140.92,8.21 -24.34,0.34 -43.91,20.58 -43.5,45.05 0.42,24.16 20.17,43.5 44.3,43.5 0.24,0 0.49,0 0.74,0 20.54,-0.38 40.96,-1.04 61.29,-2.09 29.04,-1.49 58.3,-3.66 86.93,-6.58 24.33,-2.42 42.07,-24.12 39.66,-48.45 -2.29,-22.84 -21.54,-39.85 -44.08,-39.85zm-1180.37 -87.12c-10.53,0 -20.55,6.12 -25.06,16.33 -18.25,41.5 -39.29,82.34 -62.56,121.43 -7.71,12.99 -3.46,29.79 9.54,37.49 4.37,2.63 9.17,3.83 13.93,3.83 0.47,0 0.94,0 1.41,-0.04 8.82,-0.45 17.28,-5.16 22.14,-13.29 24.37,-41 46.44,-83.88 65.61,-127.37 6.08,-13.84 -0.22,-29.96 -14.04,-36.04 -3.59,-1.59 -7.29,-2.34 -10.97,-2.34zm657.73 60.5c-20.5,0 -38.96,14.5 -43.25,35.42 -4.92,23.91 10.54,47.34 34.46,52.25 48.29,9.91 97.63,17.88 146.67,23.71 1.79,0.21 3.54,0.29 5.29,0.29 0.75,0 1.5,0 2.25,-0.04 21.17,-1.09 39.09,-17.25 41.67,-39 2.88,-24.25 -14.46,-46.29 -38.76,-49.17 -46.57,-5.54 -93.45,-13.13 -139.32,-22.5 -3.01,-0.63 -6.01,-0.96 -9.01,-0.96zm-360.93 -116.96c-16.83,0 -32.96,9.7 -40.32,26.09 -10.09,22.24 -0.17,48.49 22.11,58.54 44.93,20.29 91.34,38.95 137.85,55.41 4.86,1.71 9.87,2.55 14.78,2.55 0.75,0 1.46,-0.04 2.21,-0.09 17.38,-0.87 33.33,-12.04 39.51,-29.46 8.12,-23.04 -3.92,-48.33 -27.01,-56.5 -44.16,-15.62 -88.21,-33.29 -130.88,-52.58 -5.95,-2.67 -12.13,-3.96 -18.25,-3.96zm-267.25 -150.88c-14.04,0 -27.92,6.71 -36.49,19.21 -13.86,20.13 -8.78,47.71 11.37,61.54 19.95,13.75 40.32,27.17 60.62,39.96 7.33,4.59 15.46,6.8 23.54,6.8 0.75,0 1.51,-0.05 2.25,-0.09 13.91,-0.7 27.3,-7.95 35.25,-20.62 13.05,-20.72 6.8,-48.04 -13.88,-61.05 -19.25,-12.12 -38.61,-24.87 -57.58,-37.91 -7.66,-5.3 -16.41,-7.84 -25.08,-7.84zm2167.47 -174.31c-11,0 -22,4.11 -30.55,12.22 -33.88,32.35 -69.54,63.71 -106,93.17 -19.04,15.34 -22,43.21 -6.67,62.26 8.75,10.83 21.58,16.45 34.5,16.45 0.75,0 1.5,-0.04 2.26,-0.08 9,-0.46 17.95,-3.67 25.49,-9.75 38.42,-31 75.92,-63.95 111.59,-98 17.66,-16.91 18.29,-44.87 1.41,-62.57 -8.7,-9.17 -20.37,-13.7 -32.03,-13.7zm244.08 -290.74c-14.29,0 -28.33,6.96 -36.83,19.71 -26,38.99 -54,77.35 -83.21,114.02 -15.21,19.17 -12.04,46.99 7.08,62.27 8.12,6.43 17.88,9.59 27.54,9.59 0.75,0 1.5,0 2.26,0 12.24,-0.63 24.16,-6.43 32.41,-16.75 30.75,-38.57 60.21,-78.93 87.55,-119.92 13.58,-20.34 8.08,-47.84 -12.26,-61.43 -7.53,-5.06 -16.08,-7.49 -24.54,-7.49zm174.59 -336.99c-17.75,0 -34.59,10.85 -41.33,28.45 -16.8,43.63 -35.71,87.15 -56.17,129.4 -10.67,22.03 -1.5,48.48 20.5,59.12 6.21,3.06 12.79,4.43 19.29,4.43 0.75,0 1.5,0 2.25,0 15.58,-0.74 30.29,-9.91 37.59,-24.87 21.58,-44.47 41.49,-90.31 59.17,-136.36 8.78,-22.76 -2.59,-48.47 -25.42,-57.22 -5.22,-2 -10.59,-2.95 -15.88,-2.95zm96.09 -367.24c-21.59,0 -40.59,15.92 -43.79,37.94 -6.76,46.37 -15.63,92.94 -26.26,138.57 -5.54,23.82 9.26,47.63 33.04,53.11 3.43,0.84 6.8,1.26 10.13,1.26 0.75,0 1.5,-0.1 2.21,-0.1 19.21,-0.95 36.25,-14.54 40.84,-34.14 11.2,-47.95 20.49,-97.05 27.66,-145.95 3.54,-24.13 -13.21,-46.68 -37.42,-50.16 -2.16,-0.31 -4.29,-0.53 -6.41,-0.53zm-33.34 6000.14c-1223.32,0 -2218.55,-995.27 -2218.55,-2218.55 0,-1223.32 995.23,-2218.55 2218.55,-2218.55 1223.32,0 2218.5,995.23 2218.5,2218.55 0,1223.28 -995.18,2218.55 -2218.5,2218.55z"/>
  <path class="fil6" d="M5092.06 1789.18c-2186.18,0 -3964.76,1778.51 -3964.76,3964.73 0,2186.17 1778.58,3964.75 3964.76,3964.75 2186.17,0 3964.75,-1778.58 3964.75,-3964.75 0,-2186.22 -1778.58,-3964.73 -3964.75,-3964.73zm0 8128.07c-2295.67,0 -4163.35,-1867.66 -4163.35,-4163.34 0,-2295.72 1867.68,-4163.36 4163.35,-4163.36 2295.67,0 4163.38,1867.64 4163.38,4163.36 0,2295.68 -1867.71,4163.34 -4163.38,4163.34z"/>
  <path class="fil7" d="M7509.16 5753.91c0,1334.91 -1082.15,2417.09 -2417.1,2417.09 -1334.95,0 -2417.1,-1082.18 -2417.1,-2417.09 0,-1334.95 1082.15,-2417.14 2417.1,-2417.14 1334.95,0 2417.1,1082.19 2417.1,2417.14z"/>
  <path class="fil7" d="M5092.06 3535.36c-1223.32,0 -2218.55,995.23 -2218.55,2218.55 0,1223.28 995.23,2218.55 2218.55,2218.55 1223.32,0 2218.5,-995.27 2218.5,-2218.55 0,-1223.32 -995.18,-2218.55 -2218.5,-2218.55zm0 4834.23c-1442.28,0 -2615.68,-1173.4 -2615.68,-2615.68 0,-1442.32 1173.4,-2615.68 2615.68,-2615.68 1442.28,0 2615.69,1173.36 2615.69,2615.68 0,1442.28 -1173.41,2615.68 -2615.69,2615.68z"/>
  <path class="fil8" d="M6028.54 5753.91c0,517.18 -419.3,936.43 -936.48,936.43 -517.18,0 -936.48,-419.25 -936.48,-936.43 0,-517.22 419.3,-936.48 936.48,-936.48 517.18,0 936.48,419.26 936.48,936.48z"/>
  <path class="fil8" d="M5092.06 5016.02c-406.89,0 -737.89,331.01 -737.89,737.89 0,406.88 331,737.89 737.89,737.89 406.85,0 737.9,-331.01 737.9,-737.89 0,-406.88 -331.05,-737.89 -737.9,-737.89zm0 1872.91c-625.84,0 -1135.03,-509.18 -1135.03,-1135.02 0,-625.89 509.19,-1135.07 1135.03,-1135.07 625.85,0 1135.03,509.18 1135.03,1135.07 0,625.84 -509.18,1135.02 -1135.03,1135.02z"/>
  <path class="fil9" d="M11561.81 7150.23l198.42 400.34 -841.22 -193.66c-275.66,-63.47 -508.23,-247.18 -633.84,-500.6l1276.64 293.92z"/>
  <path class="fil10" d="M11589.52 7029.94l353.54 -273.31 -841.22 -193.66c-275.66,-63.47 -565.24,0.03 -788.95,173.04l1276.63 293.93z"/>
  <polygon class="fil11" points="11608.49,7013.35 11575.29,7157.53 6115.55,5900.49 6148.75,5756.33 "/>
  <path class="fil12" d="M6402.05 5685.24c82.7,19.04 -7.09,409.01 -89.8,389.97l-1256.06 -452.06c-46.42,-16.7 -30.46,-85.91 18.58,-80.66l1327.28 142.75z"/>
  <path class="fil13" d="M7734.75 11310.65c0,0 67.04,96.63 70.42,232.39 0.79,32 -25.09,58.38 -57.05,59.5l-516.13 18c-24.17,0.84 -35.04,-29.87 -15.76,-44.46 95.26,-72 282.76,-206.8 419.85,-262l98.67 -3.43z"/>
  <path class="fil14" d="M7747.58 11145.87l-13.21 198.41c-1.5,22.21 -20.58,39.59 -42.75,37.75 -13.5,-1.12 -29.67,-4.58 -47.58,-12.62 -17.01,-7.63 -27.5,-25.16 -26.8,-43.79l8.97 -239.43 121.37 59.68z"/>
  <path class="fil15" d="M10610.05 10445.01c0,0 107.59,-47.49 241.52,-25.04 31.61,5.29 52.58,35.71 47.63,67.29l-80.29 510.14c-3.8,23.92 -35.94,28.8 -46.58,7.08 -52.69,-107.21 -149.42,-316.87 -177.56,-461.92l15.28 -97.55z"/>
  <path class="fil16" d="M10450.72 10401.14l192.31 50.62c21.5,5.67 34.99,27.76 28.98,49.17 -3.69,13 -10.22,28.25 -21.5,44.29 -10.74,15.25 -29.92,22.21 -48.05,18l-233.41 -54.25 81.67 -107.83z"/>
  <path class="fil17" d="M7817.24 6387.09c0,0 -17.29,-39.96 -14.5,-63.58 2.8,-23.67 3.47,-97.47 -40.83,-128.64 0,0 -24,1.17 -24.46,28.1 -28.21,-30.3 -29.62,-56.42 -58.79,-37.84 -29.12,18.54 -138.8,85.04 -84,128.91 54.75,43.88 140.83,127.38 140.83,127.38l81.75 -54.33z"/>
  <path class="fil18" d="M8767.52 9579c0,0 97.71,779.56 377.38,809.31 279.67,29.74 1350.82,184.46 1350.82,184.46l29.82 -160.67c0,0 -618.88,-374.89 -987.9,-368.93 -184.41,-273.75 -139.42,-1030.15 -139.42,-1030.15l-630.7 565.98z"/>
  <path class="fil19" d="M9918.15 6857.31c-32.98,869.1 -488.84,945.9 -488.84,945.9l0 1111.64 -642.9 0c0,0 -311.69,-759.1 -303.61,-1012.85 -463.63,-196.04 -698.31,-1317.03 -747.31,-1460.58 22.84,-17.38 35.09,-16.7 81.75,-54.33 631.93,1005.73 786.15,1160.36 786.15,1160.36l357 0c686.1,-61.62 854.91,-713.81 854.91,-713.81l102.85 23.67z"/>
  <path class="fil20" d="M9409.18 8912.48c0,0 51.11,544.68 -1021.8,969.19 -261.84,487.96 -605.22,1397.61 -605.22,1397.61l-226.12 0c0,0 154.7,-1373.82 428.43,-1647.57 273.74,-273.72 572.38,-581.77 801.94,-716.65 531.1,-55.54 622.77,-2.58 622.77,-2.58z"/>
  <path class="fil21" d="M8951.74 7142.28l118.34 416.75c0,0 -202.21,108.72 -351.69,79.34l-41.08 -367.39 274.43 -128.7z"/>
  <path class="fil22" d="M8706.64 6839.64c-4.33,4.88 -165.29,405.1 -165.29,405.1l230.5 87.04 208.87 -356.67c0,0 -201.5,-217.1 -274.08,-135.47z"/>
  <path class="fil23" d="M8884.94 7022.06l-95.26 196.38c-1.16,2.54 -2.74,4.79 -4.53,6.92 -11.42,12.79 -53.76,54.04 -93.29,8.12 -35.88,-41.62 -69.26,-79.13 -102.84,-89 -15.09,-4.46 -31.04,3.26 -36.92,17.84 -14.63,36.37 -46.04,118.92 -62.38,194.83 -3.33,15.42 5.84,30.68 20.88,35.34 45.37,14.04 141.83,40.95 224.54,44.42 11.22,0.45 21.71,-5.13 27.51,-14.71 28.19,-46.88 114.38,-188.92 144.52,-224.8 28.24,-33.67 87.36,-26 112.02,-20.96 8,1.62 16.33,-0.08 23.07,-4.79 23.92,-16.63 70.82,-60.63 19.18,-125.46 -10.75,-13.54 -8.22,-33.21 5.59,-43.59 27.71,-20.7 59.11,-59.37 23.28,-115.79 -36.46,-57.33 -93.25,-55.25 -128.87,-46.62 -14.44,3.49 -28.87,-4.09 -34.99,-17.59 -3.47,-7.7 -10.32,-14.01 -23.39,-14.33 -17.7,-0.51 -30.66,-16.72 -28.45,-34.21 4.43,-33.62 -2.85,-77.5 -59.22,-102.3 -99.95,-43.92 -175.92,48.92 -190.71,122.92 -14.83,74 96.29,115.51 164.15,118.05 51.53,1.91 83.78,56.87 96.32,83.13 3.9,8.28 3.79,17.91 -0.21,26.2z"/>
  <path class="fil24" d="M8871.76 7268.53c0,0 31.3,-127.84 85.99,-128.1 54.69,-0.28 102.22,50.02 40.36,116.76 -76.92,83.05 -126.35,11.34 -126.35,11.34z"/>
  <path class="fil25" d="M9939.65 6628.01c0,0 -138.89,-61.5 -120.98,41.67 17.81,103.13 -19.49,178.5 59.75,186.46 79.03,7.92 88.1,-156.83 61.23,-228.13z"/>
  <path class="fil26" d="M1659.7 1935.65c-1.45,-14.96 -2.69,-30.03 -3.74,-44.99 -1.71,-24.45 16.67,-45.52 41.06,-47.32l0.86 0c0.76,0 1.52,-0.1 2.28,-0.1 11.44,0 22,4.42 29.93,11.7 -24.11,27.18 -47.52,54.05 -70.39,80.71z"/>
  <path class="fil7" d="M1716.6 2078.12c-21.43,0 -40.28,-15.59 -43.69,-37.41 -5.43,-34.66 -9.84,-69.86 -13.21,-105.06 22.87,-26.66 46.28,-53.53 70.39,-80.71 8.03,7.37 13.37,17.8 14.19,29.5 3.33,47.63 8.76,95.58 16.1,142.58 3.79,24.13 -12.74,46.78 -36.9,50.58 -1.54,0.21 -3.1,0.31 -4.63,0.42 -0.75,0.1 -1.51,0.1 -2.25,0.1z"/>
  <path class="fil7" d="M1699.83 1692.76c-1,0 -2.01,0 -3.02,-0.1 -24.4,-1.58 -42.86,-22.66 -41.22,-47.11 3.36,-50.16 8.88,-100.52 16.45,-149.95 3.36,-21.91 22.18,-37.62 43.77,-37.62 2.2,0 4.44,0.21 6.68,0.53 24.17,3.69 40.76,26.35 37.07,50.48 -7.19,46.89 -12.44,94.83 -15.63,142.46 -1.5,22.66 -19.77,40.15 -41.86,41.31 -0.74,0 -1.49,0 -2.24,0zm68.48 -379.35c-4.21,0 -8.5,-0.63 -12.73,-1.9 -23.42,-7.06 -36.71,-31.72 -29.69,-55.11 14.39,-48.05 31.05,-96 49.52,-142.68 6.9,-17.39 23.57,-27.92 41.19,-27.92 5.42,0 10.93,1.05 16.27,3.16 22.73,8.95 33.86,34.67 24.86,57.43 -17.55,44.26 -33.36,89.78 -47.03,135.41 -5.52,18.44 -21.99,30.55 -40.15,31.5 -0.75,0 -1.49,0.11 -2.24,0.11zm151.62 -354.7c-7.4,0 -14.93,-1.89 -21.83,-5.79 -21.26,-12.12 -28.7,-39.1 -16.62,-60.38 24.79,-43.63 51.76,-86.62 80.15,-127.93 8.59,-12.44 22.45,-19.18 36.53,-19.18 8.65,0 17.37,2.53 25.04,7.8 20.14,13.8 25.24,41.41 11.39,61.54 -26.96,39.2 -52.59,80.08 -76.13,121.6 -7.77,13.6 -21.68,21.5 -36.28,22.24 -0.75,0.1 -1.5,0.1 -2.25,0.1zm226.9 -311.91c-10.68,0 -21.37,-3.9 -29.85,-11.59 -18.07,-16.55 -19.32,-44.58 -2.82,-62.6 33.75,-36.88 69.57,-72.92 106.45,-106.95 8.51,-7.91 19.29,-11.81 30.03,-11.81 11.92,0 23.8,4.85 32.52,14.34 16.59,17.91 15.48,45.94 -2.48,62.48 -35.06,32.36 -69.1,66.6 -101.17,101.69 -8.19,8.96 -19.19,13.81 -30.43,14.33 -0.74,0.11 -1.5,0.11 -2.25,0.11zm290.26 -253.96c-14.05,0 -27.79,-6.64 -36.42,-18.97 -13.94,-20.12 -8.98,-47.73 11.09,-61.64 41.16,-28.56 84.03,-55.74 127.49,-80.82 6.97,-4.01 14.54,-5.91 22.04,-5.91 15.34,0 30.22,8.01 38.42,22.24 12.21,21.18 4.93,48.26 -16.29,60.49 -41.29,23.71 -82.04,49.52 -121.13,76.71 -7.04,4.85 -14.99,7.48 -22.96,7.8 -0.75,0.1 -1.49,0.1 -2.24,0.1zm339.09 -183.25c-17.55,0 -34.13,-10.43 -41.09,-27.71 -9.12,-22.66 1.84,-48.47 24.5,-57.54 46.5,-18.75 94.38,-35.72 142.3,-50.37 4.29,-1.26 8.62,-1.89 12.87,-1.89 19.01,0 36.54,12.12 42.42,31.29 7.13,23.4 -6,48.06 -29.38,55.22 -45.54,14.02 -90.96,30.03 -135.12,47.84 -4.67,1.9 -9.51,2.95 -14.25,3.16 -0.76,0 -1.5,0 -2.25,0zm1275.65 -4.53c-5.42,0 -10.88,-1.05 -16.21,-3.16 -44.26,-17.39 -89.87,-33.19 -135.54,-46.79 -23.46,-6.95 -36.8,-31.61 -29.79,-55 5.71,-19.29 23.33,-31.72 42.37,-31.72 4.21,0 8.46,0.63 12.67,1.9 48.12,14.33 96.16,30.87 142.75,49.21 22.75,9.06 33.92,34.77 24.96,57.43 -6.58,16.75 -22.17,27.18 -38.96,28.03 -0.74,0 -1.5,0.1 -2.25,0.1zm-904.19 -98.31c-21.37,0 -40.21,-15.49 -43.67,-37.31 -3.82,-24.13 12.68,-46.78 36.8,-50.68 49.46,-7.8 99.87,-13.6 149.96,-17.18l0.92 -0.1c0.79,0 1.53,0 2.29,0 23,0 42.42,17.7 44.12,40.99 1.75,24.44 -16.58,45.62 -41,47.42 -47.54,3.37 -95.46,8.95 -142.41,16.33 -1.58,0.21 -3.18,0.42 -4.76,0.53 -0.74,0 -1.49,0 -2.25,0zm531.68 -1.9c-2.17,0 -4.37,-0.11 -6.58,-0.42 -47.04,-7.17 -95.05,-12.33 -142.63,-15.39 -24.41,-1.58 -42.88,-22.65 -41.29,-46.99 1.54,-23.4 20.87,-41.42 43.96,-41.42 1,0 2.04,0 3.09,0.11 50.07,3.26 100.58,8.64 150.07,16.12 24.18,3.69 40.83,26.24 37.17,50.37 -3.16,21.18 -20.87,36.57 -41.46,37.62 -0.79,0 -1.54,0 -2.33,0z"/>
  <path class="fil7" d="M4329.51 344.79c-8.01,0 -16.08,-2.21 -23.35,-6.74 -19.36,-12.02 -39.33,-23.92 -59.28,-35.2 -21.3,-12.12 -28.76,-39.09 -16.67,-60.38 8.12,-14.33 23.13,-22.44 38.55,-22.44 7.37,0 14.91,1.89 21.78,5.79 21,11.91 42,24.34 62.38,37.09 20.79,12.86 27.12,40.15 14.21,60.91 -7.96,12.86 -21.37,20.13 -35.38,20.87 -0.75,0 -1.5,0.1 -2.24,0.1z"/>
  <path class="fil7" d="M5105.9 1448.82c-20.47,0 -38.84,-14.33 -43.25,-35.09 -4.75,-22.34 -10.05,-44.89 -15.75,-67.13 -6.08,-23.71 8.2,-47.84 31.87,-53.95 3.71,-0.95 7.42,-1.37 11.09,-1.37 19.75,0 37.66,13.28 42.79,33.3 6,23.39 11.58,47.21 16.58,70.71 5.09,23.92 -10.16,47.42 -34.08,52.47 -2.33,0.53 -4.67,0.85 -7,0.95 -0.76,0 -1.51,0.11 -2.25,0.11z"/>
  <path class="fil27" d="M3449.45 3533.03c-24.13,0 -43.88,-19.34 -44.3,-43.5 -0.41,-24.47 19.16,-44.71 43.5,-45.05 47.37,-0.83 94.62,-3.54 140.92,-8.21 1.5,-0.16 2.96,-0.21 4.42,-0.21 22.54,0 41.79,17.01 44.08,39.85 2.41,24.33 -15.33,46.03 -39.66,48.45 -28.63,2.92 -57.89,5.09 -86.93,6.58 -20.33,1.05 -40.75,1.71 -61.29,2.09 -0.25,0 -0.5,0 -0.74,0zm-234.93 -11.92c-1.75,0 -3.5,-0.08 -5.29,-0.29 -49.04,-5.83 -98.38,-13.8 -146.67,-23.71 -23.92,-4.91 -39.38,-28.34 -34.46,-52.25 4.29,-20.92 22.75,-35.42 43.25,-35.42 3,0 6,0.33 9.01,0.96 45.87,9.37 92.75,16.96 139.32,22.5 24.3,2.88 41.64,24.92 38.76,49.17 -2.58,21.75 -20.5,37.91 -41.67,39 -0.75,0.04 -1.5,0.04 -2.25,0.04zm588.18 -42.5c-9.63,-5.88 -17,-15.47 -19.87,-27.34 -5.76,-23.74 8.87,-47.66 32.62,-53.42 45.46,-10.96 91.09,-24.03 135.59,-38.87 4.62,-1.54 9.33,-2.29 14,-2.29 14.7,0 28.62,7.38 36.83,19.67 -68.04,31.34 -134.42,65.41 -199.17,102.25z"/>
  <path class="fil27" d="M3825.83 3485.15c-8.29,0 -16.29,-2.33 -23.13,-6.54 64.75,-36.84 131.13,-70.91 199.17,-102.25 2.13,3.2 3.88,6.79 5.16,10.62 7.72,23.21 -4.82,48.25 -27.99,56.01 -46.88,15.62 -94.92,29.36 -142.8,40.96 -2.75,0.62 -5.46,1.04 -8.21,1.16 -0.7,0.04 -1.45,0.04 -2.2,0.04z"/>
  <path class="fil27" d="M2844.84 3435.07c-4.91,0 -9.92,-0.84 -14.78,-2.55 -46.51,-16.46 -92.92,-35.12 -137.85,-55.41 -22.28,-10.05 -32.2,-36.3 -22.11,-58.54 7.36,-16.39 23.49,-26.09 40.32,-26.09 6.12,0 12.3,1.29 18.25,3.96 42.67,19.29 86.72,36.96 130.88,52.58 23.09,8.17 35.13,33.46 27.01,56.5 -6.18,17.42 -22.13,28.59 -39.51,29.46 -0.75,0.05 -1.46,0.09 -2.21,0.09zm1293.7 -116.97c-2.79,-18.5 6.5,-37.5 24.21,-46.25 41.92,-20.7 83.5,-43.49 123.71,-67.74 7.12,-4.3 15.04,-6.38 22.83,-6.38 15.01,0 29.63,7.62 37.92,21.42 4.75,7.87 6.8,16.67 6.33,25.2 -73.08,21.55 -144.74,46.17 -215,73.75z"/>
  <path class="fil27" d="M4182.38 3355.81c-16.33,0 -32,-9.03 -39.72,-24.66 -2.07,-4.21 -3.45,-8.63 -4.12,-13.05 70.26,-27.58 141.92,-52.2 215,-73.75 -0.79,14.17 -8.29,27.67 -21.37,35.55 -42.3,25.54 -86.09,49.54 -130.21,71.34 -5.59,2.75 -11.5,4.24 -17.34,4.54 -0.74,0.03 -1.49,0.03 -2.24,0.03z"/>
  <path class="fil27" d="M4501.92 3151.39c-12.92,0 -25.75,-5.62 -34.5,-16.45 -15.33,-19.05 -12.37,-46.92 6.67,-62.26 36.46,-29.46 72.12,-60.82 106,-93.17 8.55,-8.11 19.55,-12.22 30.55,-12.22 11.66,0 23.33,4.53 32.03,13.7 16.88,17.7 16.25,45.66 -1.41,62.57 -35.67,34.05 -73.17,67 -111.59,98 -7.54,6.08 -16.49,9.29 -25.49,9.75 -0.76,0.04 -1.51,0.08 -2.26,0.08zm267.38 -269.25c-9.66,0 -19.42,-3.16 -27.54,-9.59 -19.12,-15.28 -22.29,-43.1 -7.08,-62.27 29.21,-36.67 57.21,-75.03 83.21,-114.02 8.5,-12.75 22.54,-19.71 36.83,-19.71 8.46,0 17.01,2.43 24.54,7.49 20.34,13.59 25.84,41.09 12.26,61.43 -27.34,40.99 -56.8,81.35 -87.55,119.92 -8.25,10.32 -20.17,16.12 -32.41,16.75 -0.76,0 -1.51,0 -2.26,0zm202.3 -321.18c-6.5,0 -13.08,-1.37 -19.29,-4.43 -22,-10.64 -31.17,-37.09 -20.5,-59.12 20.46,-42.25 39.37,-85.77 56.17,-129.4 6.74,-17.6 23.58,-28.45 41.33,-28.45 5.29,0 10.66,0.95 15.88,2.95 22.83,8.75 34.2,34.46 25.42,57.22 -17.68,46.05 -37.59,91.89 -59.17,136.36 -7.3,14.96 -22.01,24.13 -37.59,24.87 -0.75,0 -1.5,0 -2.25,0zm126.92 -357.76c-3.33,0 -6.7,-0.42 -10.13,-1.26 -23.78,-5.48 -38.58,-29.29 -33.04,-53.11 10.63,-45.63 19.5,-92.2 26.26,-138.57 3.2,-22.02 22.2,-37.94 43.79,-37.94 2.12,0 4.25,0.22 6.41,0.53 24.21,3.48 40.96,26.03 37.42,50.16 -7.17,48.9 -16.46,98 -27.66,145.95 -4.59,19.6 -21.63,33.19 -40.84,34.14 -0.71,0 -1.46,0.1 -2.21,0.1zm44.96 -376.72c-0.12,0 -0.21,0 -0.33,0 -21.92,-0.31 -39.96,-16.43 -43.3,-37.3 29.09,0 58.33,0.42 87.26,1.05 -3.63,19.92 -20.59,35.1 -41.21,36.15 -0.79,0 -1.63,0.1 -2.42,0.1z"/>
  <path class="fil27" d="M5187.11 1790.23c-28.93,-0.63 -58.17,-1.05 -87.26,-1.05 -0.37,-2.42 -0.54,-4.95 -0.5,-7.48 0.34,-34.46 -0.37,-69.44 -2.12,-103.8 -0.67,-12.43 -1.42,-24.86 -2.34,-37.3 -1.74,-24.34 16.55,-45.52 40.96,-47.31 1.33,-0.11 2.67,-0.21 4.01,-0.21 22.88,0 41.66,18.12 43.33,41.09 0.96,13.07 1.79,26.14 2.45,39.2 1.84,36.15 2.6,72.92 2.22,109.28 -0.04,2.53 -0.3,5.16 -0.75,7.58z"/>
  <path class="fil27" d="M2502.21 3269.11c-8.08,0 -16.21,-2.21 -23.54,-6.8 -20.3,-12.79 -40.67,-26.21 -60.62,-39.96 -20.15,-13.83 -25.23,-41.41 -11.37,-61.54 8.57,-12.5 22.45,-19.21 36.49,-19.21 8.67,0 17.42,2.54 25.08,7.84 18.97,13.04 38.33,25.79 57.58,37.91 20.68,13.01 26.93,40.33 13.88,61.05 -7.95,12.67 -21.34,19.92 -35.25,20.62 -0.74,0.04 -1.5,0.09 -2.25,0.09z"/>
  <path class="fil26" d="M2538.01 2753.16c5.91,6.54 15.33,8.64 23.45,5.17l231.63 -98.85c96.71,66.92 204.76,118.97 321.09,152.38l70.05 241.74c2.42,8.46 10,14.46 18.83,14.91l301.68 15.09c8.83,0.45 16.95,-4.75 20.24,-12.92l93.84 -233.53c119.04,-21.71 231.79,-62.6 334.67,-119.5l220.6 121.39c7.74,4.32 17.32,3.17 23.88,-2.74l223.99 -202.63c6.55,-5.9 8.63,-15.28 5.17,-23.5l-98.84 -231.62c66.92,-96.63 118.92,-204.75 152.38,-321.08l241.72 -69.97c8.45,-2.53 14.46,-10.01 14.91,-18.86l15.09 -301.69c0.45,-8.86 -4.75,-16.97 -12.96,-20.24l-233.5 -93.89c-21.67,-119.07 -62.6,-231.72 -119.51,-334.67l121.46 -220.55c4.25,-7.8 3.13,-17.39 -2.79,-23.92l-202.63 -223.93c-5.92,-6.64 -15.34,-8.64 -23.46,-5.16l-231.63 98.84c-96.71,-67.02 -204.75,-118.97 -321.09,-152.37l-70.04 -241.74c-2.46,-8.53 -10,-14.54 -18.83,-14.96l-301.67 -15.07c-8.85,-0.42 -16.97,4.74 -20.26,12.96l-93.84 233.52c-119.04,21.6 -231.79,62.59 -334.71,119.49l-220.59 -121.5c-7.71,-4.21 -17.29,-3.16 -23.83,2.85l-224.01 202.64c-6.54,5.9 -8.62,15.28 -5.16,23.39l98.83 231.62c-66.92,96.73 -118.91,204.85 -152.38,321.08l-241.72 70.07c-8.47,2.43 -14.46,10.01 -14.9,18.87l-15.11 301.69c-0.44,8.74 4.76,16.96 12.95,20.23l233.52 93.78c21.67,119.08 62.6,231.83 119.51,334.68l-121.46 220.66c-4.26,7.69 -3.14,17.28 2.78,23.81l202.65 224.03z"/>
  <path class="fil2" d="M3408.86 1518.89c-11.42,0.53 -22.84,2 -34.25,4.22 -125.88,25.18 -207.8,148.05 -182.67,273.97 25.16,125.82 148,207.81 273.92,182.62 125.88,-25.08 207.79,-148.05 182.67,-273.87 -12.21,-61.01 -47.42,-113.6 -99.12,-148.05 -42.05,-28.03 -90.96,-41.42 -140.55,-38.89zm26.62 535.84c-147.8,7.48 -283.13,-94.42 -313,-243.74 -32.8,-164.28 74.08,-324.45 238.25,-357.33 79.55,-15.91 160.51,0.21 227.97,45.21 67.45,45 113.38,113.49 129.29,193.05 32.79,164.18 -74.08,324.45 -238.26,357.22 -14.79,2.95 -29.58,4.85 -44.25,5.59z"/>
  <path class="fil2" d="M3463.98 2492.36c-25.37,1.26 -50.96,1.26 -76.71,0.1 -8.08,-0.42 -16.16,-0.95 -24.29,-1.68 -39.83,-3.27 -79.37,-9.7 -118.01,-19.18 -0.49,-0.21 -1.04,-0.32 -1.58,-0.42 -1.45,-0.43 -2.96,-0.74 -4.45,-1.16 -2.92,-0.74 -5.79,-1.48 -8.67,-2.22 -7.62,-2.1 -12.7,-8.74 -13.13,-16.22 -0.08,-1.8 0.13,-3.69 0.58,-5.59 2.55,-9.38 12.3,-14.96 21.71,-12.43 48.59,13.06 98.93,20.97 149.59,23.5 251.72,12.64 479.8,-107.91 615.9,-299.59 75.74,-106.53 122.95,-235.2 129.96,-375.14 1.25,-24.55 1.25,-49 0,-73.23 -8.34,-162.92 -71.92,-316.77 -182.88,-439.42 -127.43,-140.89 -302.1,-223.72 -491.8,-233.2 -391.8,-19.6 -726.24,283.04 -745.86,674.72 -1.21,24.13 -1.17,48.27 0.04,72.19 5.34,104 33.33,205.59 82.38,297.58 1.25,2.32 1.92,4.84 2.04,7.37 0.34,6.64 -3.08,13.18 -9.33,16.55 -8.67,4.53 -19.37,1.37 -24,-7.27 -51.46,-96.53 -80.87,-203.27 -86.46,-312.34 -1.3,-25.18 -1.3,-50.47 -0.04,-75.87 20.58,-411.18 371.97,-728.89 783.02,-708.34 199.17,10.01 382.5,96.95 516.3,244.9 116.46,128.66 183.2,290.2 191.96,461.33 1.3,25.4 1.3,51.01 0.04,76.82 -10,199.16 -96.92,382.52 -244.84,516.35 -128.75,116.44 -290.34,183.14 -461.47,191.89z"/>
  <path class="fil26" d="M268.07 3320.07c-11.3,0 -21.87,-7.04 -25.8,-18.34 -7.66,-21.88 -14.77,-44.33 -21.12,-66.67 -4.12,-14.54 4.31,-29.62 18.84,-33.8 2.51,-0.7 5.05,-1.03 7.53,-1.03 11.91,0 22.83,7.87 26.25,19.87 6.04,21.33 12.81,42.71 20.11,63.63 5,14.21 -2.52,29.83 -16.77,34.84 -2.53,0.87 -5.1,1.33 -7.65,1.45 -0.46,0.05 -0.93,0.05 -1.39,0.05z"/>
  <path class="fil26" d="M217.15 3116.01c-13.27,0 -24.92,-9.7 -27,-23.2 -6.07,-39.51 -10.19,-79.79 -12.21,-119.62 -0.43,-8.43 -0.77,-16.86 -1.02,-25.29 -0.45,-15.18 12.25,-27.19 26.51,-28.24 0.27,0 0.55,0 0.83,0 14.72,0 26.87,11.69 27.33,26.55 0.24,8.01 0.54,16.12 0.96,24.13 1.93,38.04 5.86,76.46 11.64,114.18 2.31,14.91 -7.94,28.87 -22.86,31.17 -0.95,0.12 -1.87,0.24 -2.79,0.28 -0.46,0 -0.94,0.04 -1.39,0.04zm-8.57 -283.82c-0.8,0 -1.61,0 -2.42,-0.1 -15.05,-1.37 -26.11,-14.65 -24.72,-29.72 4.43,-48.26 11.92,-96.63 22.22,-143.84 2.79,-12.85 14.19,-21.49 26.75,-21.49 1.91,0 3.85,0.21 5.8,0.63 14.76,3.16 24.09,17.7 20.88,32.56 -9.83,45 -16.96,91.15 -21.2,137.2 -1.28,13.7 -12.44,24.13 -25.79,24.76 -0.51,0 -1.01,0 -1.52,0zm60.77 -277.35c-3.03,0 -6.11,-0.42 -9.12,-1.58 -14.24,-4.95 -21.7,-20.55 -16.67,-34.88 16.12,-45.62 35.26,-90.62 56.93,-134.03 4.79,-9.59 14.41,-15.07 24.44,-15.07 4.12,0 8.3,0.84 12.24,2.84 13.51,6.75 18.98,23.18 12.24,36.67 -20.67,41.31 -38.93,84.3 -54.29,127.82 -3.81,10.75 -13.67,17.71 -24.41,18.23 -0.45,0 -0.9,0 -1.36,0zm126.93 -253.95c-5.21,0 -10.47,-1.48 -15.11,-4.53 -12.57,-8.43 -16,-25.4 -7.63,-37.94 26.86,-40.36 56.45,-79.35 87.98,-116.02 5.4,-6.21 13.04,-9.48 20.72,-9.48 6.33,0 12.67,2.21 17.83,6.64 11.45,9.8 12.74,27.08 2.89,38.56 -30.05,34.88 -58.29,72.08 -83.89,110.54 -4.99,7.59 -13.03,11.81 -21.4,12.23 -0.46,0 -0.93,0 -1.39,0zm185.12 -215.29c-7.44,0 -14.84,-2.95 -20.24,-8.95 -10.16,-11.07 -9.32,-28.45 1.83,-38.57 35.84,-32.56 74,-63.23 113.46,-91.15 4.8,-3.37 10.31,-4.95 15.78,-4.95 8.56,0 17,4 22.34,11.48 8.71,12.44 5.78,29.51 -6.55,38.15 -37.64,26.66 -74.04,55.85 -108.23,86.93 -4.87,4.43 -10.89,6.75 -16.99,7.06 -0.46,0 -0.93,0 -1.4,0zm231.75 -163.75c-9.75,0 -19.19,-5.16 -24.12,-14.44 -7.14,-13.27 -2.12,-29.82 11.18,-36.98 42.65,-22.87 87.14,-43.31 132.22,-60.7 3.24,-1.16 6.56,-1.79 9.82,-1.79 11,0 21.34,6.64 25.54,17.49 5.43,14.12 -1.61,29.93 -15.67,35.41 -43,16.54 -85.4,36.04 -126.06,57.74 -3.68,2.01 -7.62,3.06 -11.52,3.27 -0.47,0 -0.93,0 -1.39,0zm264.67 -102.11c-12.27,0 -23.41,-8.32 -26.51,-20.76 -3.65,-14.65 5.28,-29.4 19.92,-33.09 46.81,-11.69 94.97,-20.55 143.15,-26.45 1,0 2,-0.1 2.99,-0.1 13.82,0 25.76,10.01 27.44,24.02 1.82,14.97 -8.86,28.56 -23.85,30.46 -45.95,5.58 -91.89,14.01 -136.51,25.08 -1.76,0.52 -3.51,0.74 -5.25,0.84 -0.46,0 -0.93,0 -1.38,0zm423.78 -25.08c-1.13,0 -2.28,0 -3.42,-0.21 -39.56,-4.95 -80.08,-7.8 -120.45,-8.54 -5.8,-0.1 -11.52,-0.21 -17.21,-0.21 -0.29,0 -0.6,0 -0.9,0 -15.1,0 -27.33,-12.22 -27.32,-27.39 -0.01,-14.86 11.91,-27.3 26.58,-27.3 0.25,0 0.53,0 0.79,0 6.38,0 12.77,0.11 19.18,0.21 42.18,0.74 84.66,3.8 126.13,8.96 15,1.9 25.61,15.6 23.72,30.56 -1.66,13.38 -12.71,23.29 -25.71,23.92 -0.45,0 -0.93,0 -1.39,0z"/>
  <path class="fil26" d="M1275.73 4090.04c-42.62,-2.95 -85.39,-8.21 -127.34,-15.67 -14.86,-2.67 -24.77,-16.83 -22.12,-31.71 2.35,-13.29 13.98,-22.54 26.97,-22.54 1.57,0 3.15,0.13 4.74,0.42 44.69,7.96 90.35,13.25 135.7,15.83 1.92,0.08 3.79,0.42 5.58,0.87 -7.96,17.51 -15.82,35.13 -23.53,52.8z"/>
  <path class="fil26" d="M1292.2 4091c-0.52,0 -1.06,0 -1.59,-0.05 -4.97,-0.29 -9.93,-0.58 -14.88,-0.91 7.71,-17.67 15.57,-35.29 23.53,-52.8 12.23,3.3 20.92,14.8 20.18,27.92 -0.79,14.13 -12.1,25.09 -25.87,25.79 -0.46,0.05 -0.91,0.05 -1.37,0.05z"/>
  <path class="fil27" d="M1495.98 4084.79c9.16,-19.66 18.56,-39.38 28.03,-58.88 14.01,-2.08 27.95,-4.41 41.79,-7 1.63,-0.29 3.26,-0.41 4.87,-0.41 12.93,0 24.57,9.04 27.04,22.24 2.78,14.88 -7.01,29.13 -21.85,31.92 -26.36,4.92 -53.06,8.97 -79.88,12.13z"/>
  <path class="fil27" d="M1432.05 4090.46c-14.3,0 -26.33,-11.13 -27.26,-25.59 -0.97,-15.09 10.46,-28.08 25.54,-29.04 31.27,-2 62.63,-5.33 93.68,-9.92 -9.47,19.5 -18.87,39.22 -28.03,58.88 -20.68,2.41 -41.44,4.29 -62.15,5.63l-0.38 0.04c-0.46,0 -0.93,0 -1.4,0z"/>
  <path class="fil27" d="M1017.2 4041.87c-2.66,0 -5.37,-0.42 -8.05,-1.21 -45.53,-14.04 -90.65,-30.99 -134.08,-50.5 -13.79,-6.16 -19.95,-22.33 -13.79,-36.12 4.55,-10.13 14.54,-16.13 25.01,-16.13 3.72,0 7.5,0.75 11.13,2.38 41.42,18.53 84.42,34.71 127.83,48.08 14.42,4.46 22.53,19.75 18.07,34.21 -3.47,11.25 -13.58,18.67 -24.73,19.25 -0.47,0 -0.93,0.04 -1.39,0.04z"/>
  <path class="fil27" d="M1706.49 4039.04c-11.59,0 -22.36,-7.42 -26.06,-19.05 -4.57,-14.37 3.38,-29.74 17.77,-34.33 43.34,-13.79 86.2,-30.34 127.4,-49.21 3.7,-1.66 7.57,-2.45 11.36,-2.45 10.39,0 20.27,5.87 24.87,15.95 6.29,13.71 0.25,29.96 -13.48,36.26 -43.19,19.75 -88.14,37.08 -133.56,51.54 -2.31,0.75 -4.63,1.16 -6.93,1.29 -0.45,0 -0.91,0 -1.37,0zm253.81 -116.21c-9.2,0 -18.17,-4.63 -23.32,-13.01 -7.92,-12.91 -3.89,-29.74 8.97,-37.62 38.67,-23.75 76.29,-50.08 111.8,-78.37 5.04,-4.01 11.05,-5.96 17.01,-5.96 8.05,0 16.03,3.54 21.43,10.33 9.39,11.83 7.43,29.04 -4.38,38.42 -37.26,29.62 -76.69,57.29 -117.23,82.2 -4.04,2.47 -8.47,3.75 -12.89,3.96 -0.47,0.05 -0.92,0.05 -1.39,0.05zm218.52 -173.72c-6.94,0 -13.87,-2.62 -19.19,-7.87 -10.76,-10.59 -10.88,-27.92 -0.28,-38.67 31.93,-32.37 62.17,-67 89.86,-102.83 5.4,-7 13.49,-10.67 21.67,-10.67 5.84,0 11.73,1.88 16.69,5.71 11.96,9.25 14.15,26.42 4.93,38.34 -29.05,37.62 -60.74,73.92 -94.21,107.87 -4.98,5.04 -11.47,7.74 -18.06,8.08 -0.47,0.04 -0.93,0.04 -1.41,0.04zm170.65 -221.09c-4.76,0 -9.56,-1.2 -13.93,-3.83 -13,-7.7 -17.25,-24.5 -9.54,-37.49 23.27,-39.09 44.31,-79.93 62.56,-121.43 4.51,-10.21 14.53,-16.33 25.06,-16.33 3.68,0 7.38,0.75 10.97,2.34 13.82,6.08 20.12,22.2 14.04,36.04 -19.17,43.49 -41.24,86.37 -65.61,127.37 -4.86,8.13 -13.32,12.84 -22.14,13.29 -0.47,0.04 -0.94,0.04 -1.41,0.04z"/>
  <path class="fil27" d="M761.15 3927.07c-4.82,0 -9.7,-1.28 -14.13,-3.95 -20.03,-12.09 -39.78,-24.88 -58.73,-37.92 -12.43,-8.54 -15.59,-25.58 -7.02,-38.04 5.32,-7.67 13.88,-11.8 22.58,-11.8 5.33,0 10.72,1.55 15.46,4.8 18.06,12.45 36.91,24.63 56.02,36.16 12.93,7.84 17.06,24.67 9.24,37.55 -4.89,8.08 -13.27,12.71 -22.02,13.16 -0.47,0.04 -0.93,0.04 -1.4,0.04z"/>
  <path class="fil26" d="M767.27 3573.11c3.96,4.38 10.26,5.79 15.7,3.46l154.98 -66.12c64.72,44.74 137.04,79.54 214.87,101.95l46.86 161.75c1.64,5.67 6.71,9.67 12.6,9.97l201.88 10.12c5.9,0.29 11.34,-3.21 13.54,-8.67l62.79 -156.25c79.68,-14.54 155.11,-41.92 223.97,-80l147.61 81.29c5.17,2.83 11.58,2.08 15.97,-1.88l149.89 -135.57c4.39,-3.97 5.77,-10.3 3.45,-15.72l-66.13 -155c44.78,-64.72 79.56,-137 101.95,-214.84l161.76 -46.88c5.67,-1.62 9.67,-6.7 9.97,-12.58l10.11 -201.93c0.3,-5.9 -3.19,-11.28 -8.67,-13.49l-156.25 -62.8c-14.51,-79.67 -41.89,-155.12 -79.99,-223.93l81.29 -147.63c2.84,-5.16 2.1,-11.59 -1.86,-16.02l-135.6 -149.84c-3.96,-4.43 -10.26,-5.8 -15.7,-3.48l-154.99 66.18c-64.71,-44.79 -137.03,-79.56 -214.86,-102.01l-46.87 -161.75c-1.64,-5.69 -6.7,-9.69 -12.6,-10.01l-201.88 -10.01c-5.89,-0.32 -11.33,3.16 -13.53,8.64l-62.79 156.27c-79.68,14.44 -155.12,41.84 -223.98,79.98l-147.6 -81.35c-5.18,-2.84 -11.59,-2.1 -15.98,1.9l-149.88 135.62c-4.39,3.9 -5.77,10.22 -3.45,15.7l66.13 154.9c-44.78,64.81 -79.57,137.1 -101.96,214.97l-161.75 46.79c-5.67,1.68 -9.68,6.74 -9.97,12.64l-10.11 201.9c-0.3,5.9 3.18,11.28 8.66,13.49l156.26 62.82c14.51,79.66 41.89,155.08 79.98,223.95l-81.29 147.63c-2.84,5.17 -2.09,11.58 1.86,15.97l135.61 149.87z"/>
  <path class="fil2" d="M1349.95 2750.84c-7.34,0.43 -14.74,1.27 -22.17,2.74 -82.25,16.44 -135.8,96.74 -119.35,179.04 7.96,39.83 30.96,74.18 64.76,96.73 33.82,22.59 74.37,30.54 114.23,22.63 39.85,-7.97 74.22,-30.95 96.77,-64.78 22.55,-33.82 30.58,-74.39 22.62,-114.23 -14.96,-74.81 -82.79,-125.92 -156.86,-122.13zm17.76 358.56c-44.06,2.24 -87.49,-9.63 -124.85,-34.55 -45.97,-30.63 -77.23,-77.43 -88.05,-131.59 -22.35,-111.7 50.43,-220.87 162.26,-243.31 112.02,-22.13 221.01,50.47 243.35,162.28 10.83,54.27 -0.08,109.38 -30.74,155.32 -30.65,45.97 -77.36,77.26 -131.55,88.05 -10.13,2.05 -20.3,3.29 -30.42,3.8z"/>
  <path class="fil28" d="M1387.16 3414.07c-17.28,0.86 -34.73,0.86 -52.37,0.03 -35.03,-1.75 -69.91,-7.08 -103.75,-15.83 -1.52,-0.42 -3.05,-0.79 -4.56,-1.21 -11.73,-3.12 -19.63,-13.45 -20.23,-24.99 -0.14,-2.79 0.15,-5.67 0.91,-8.51 3.92,-14.58 18.93,-23.16 33.5,-19.29 31.53,8.46 64.11,13.58 96.84,15.22l0.01 0c1.8,0.07 3.6,0.12 5.39,0.2 77.5,3.13 152.83,-13.17 220.6,-46.54 36.79,-18.13 71.36,-41.34 102.8,-69.29l0.77 -0.67c0.78,-0.71 1.56,-1.42 2.33,-2.13 91.18,-82.49 144.81,-195.54 150.95,-318.35 0.81,-15.91 0.79,-31.72 -0.01,-47.42 -5.38,-105.48 -46.55,-205.06 -118.38,-284.51 -82.5,-91.15 -195.56,-144.79 -318.38,-150.9 -122.73,-6.11 -240.68,35.83 -331.88,118.34 -91.2,82.51 -144.81,195.57 -150.95,318.44 -0.81,15.6 -0.78,31.19 0.01,46.69 3.44,67.33 21.57,133.13 53.31,192.62 1.96,3.71 2.99,7.59 3.18,11.51 0.51,10.2 -4.77,20.37 -14.44,25.5 -13.34,7.08 -29.87,2.08 -37,-11.25 -35.52,-66.59 -55.8,-140.2 -59.66,-215.54 -0.9,-17.39 -0.92,-34.77 -0.03,-52.27 6.88,-137.41 66.86,-263.96 168.9,-356.27 102.03,-92.21 233.81,-139.42 371.29,-132.36 137.41,6.85 263.91,66.81 356.2,168.82 80.37,88.83 126.42,200.32 132.45,318.34 0.88,17.49 0.9,35.19 0.02,53 -13.34,265.98 -227.31,475.32 -487.82,488.62z"/>
  <path class="fil2" d="M8931.69 3074.04c26.36,39.35 53.43,78.27 81.03,116.71 34.21,214.9 71.68,429.25 111.46,643.13 50.15,266.51 105.73,531.93 165.97,796.38 29.92,132.23 61.05,264.33 93.79,395.85l50.68 197.03 26.34 98.17 13.69 48.87c4.72,16 9.55,33.16 14.25,46.95l0.82 2.29c1.95,5.64 -1.06,11.84 -6.71,13.78 -1.08,0.35 -2.16,0.48 -3.2,0.51 -4.46,0.12 -8.66,-2.51 -10.36,-6.79 -7.18,-18.04 -11.65,-33.52 -17.21,-49.92l-15.27 -48.72 -29.46 -97.56c-19.21,-65.26 -37.38,-130.66 -55.56,-196.16 -35.9,-131.13 -70.14,-262.61 -103.18,-394.44 -65.58,-263.78 -124.03,-529.34 -178.39,-795.74 -52.59,-255.48 -98.37,-512.52 -138.69,-770.34z"/>
 </g>
</svg>
